<svg width="70" height="70" viewBox="0 0 70 70" fill="none" xmlns="http://www.w3.org/2000/svg">
<path d="M35 25.1562C29.5728 25.1562 25.1562 29.5728 25.1562 35C25.1562 40.4272 29.5728 44.8438 35 44.8438C40.4272 44.8438 44.8438 40.4272 44.8438 35C44.8438 29.5728 40.4272 25.1562 35 25.1562ZM35 42.6562C30.7781 42.6562 27.3438 39.2219 27.3438 35C27.3438 30.7781 30.7781 27.3438 35 27.3438C39.2219 27.3438 42.6562 30.7781 42.6562 35C42.6562 39.2219 39.2219 42.6562 35 42.6562Z" fill="url(#paint0_linear)"/>
<path d="M59.0625 18.5938H67.8125C68.4163 18.5938 68.9062 18.1038 68.9062 17.5V8.75C68.9062 8.14625 68.4163 7.65625 67.8125 7.65625H59.0625C58.4588 7.65625 57.9688 8.14625 57.9688 8.75V12.0312H54.6875C54.0838 12.0312 53.5938 12.5213 53.5938 13.125V33.9062H52.5V32.8125C52.5 32.2645 52.0942 31.8008 51.5506 31.7286L48.7452 31.3545C48.4225 30.1339 47.9358 28.9647 47.2927 27.8633L49.0164 25.6102C49.3489 25.1748 49.3084 24.5602 48.9212 24.173L45.827 21.0787C45.4398 20.6905 44.8241 20.65 44.3898 20.9836L42.1367 22.7073C41.0353 22.0653 39.8661 21.5786 38.6455 21.2548L38.2714 18.4494C38.1992 17.9058 37.7355 17.5 37.1875 17.5H32.8125C32.2645 17.5 31.8008 17.9058 31.7286 18.4494L31.3545 21.2548C30.1339 21.5775 28.9647 22.0642 27.8633 22.7073L25.6102 20.9836C25.1748 20.6511 24.5602 20.6916 24.173 21.0787L21.0787 24.173C20.6916 24.5602 20.65 25.1759 20.9836 25.6102L22.7073 27.8633C22.0653 28.9647 21.5786 30.1339 21.2548 31.3545L18.4494 31.7286C17.9058 31.8008 17.5 32.2645 17.5 32.8125V33.9062H16.4062V13.125C16.4062 12.5213 15.9163 12.0312 15.3125 12.0312H12.0312V8.75C12.0312 8.14625 11.5413 7.65625 10.9375 7.65625H2.1875C1.58375 7.65625 1.09375 8.14625 1.09375 8.75V17.5C1.09375 18.1038 1.58375 18.5938 2.1875 18.5938H10.9375C11.5413 18.5938 12.0312 18.1038 12.0312 17.5V14.2188H14.2188V33.9062H12.0312V30.625C12.0312 30.0212 11.5413 29.5312 10.9375 29.5312H2.1875C1.58375 29.5312 1.09375 30.0212 1.09375 30.625V39.375C1.09375 39.9787 1.58375 40.4688 2.1875 40.4688H10.9375C11.5413 40.4688 12.0312 39.9787 12.0312 39.375V36.0938H14.2188V55.7812H12.0312V52.5C12.0312 51.8963 11.5413 51.4062 10.9375 51.4062H2.1875C1.58375 51.4062 1.09375 51.8963 1.09375 52.5V61.25C1.09375 61.8537 1.58375 62.3438 2.1875 62.3438H10.9375C11.5413 62.3438 12.0312 61.8537 12.0312 61.25V57.9688H15.3125C15.9163 57.9688 16.4062 57.4787 16.4062 56.875V36.0938H17.5V37.1875C17.5 37.7355 17.9058 38.1992 18.4494 38.2714L21.2548 38.6455C21.5775 39.8661 22.0642 41.0353 22.7073 42.1367L20.9836 44.3898C20.6511 44.8252 20.6916 45.4398 21.0787 45.827L24.173 48.9212C24.5602 49.3084 25.1738 49.3489 25.6102 49.0164L27.8633 47.2927C28.9647 47.9347 30.1339 48.4214 31.3545 48.7452L31.7286 51.5506C31.8008 52.0942 32.2645 52.5 32.8125 52.5H37.1875C37.7355 52.5 38.1992 52.0942 38.2714 51.5506L38.6455 48.7452C39.8661 48.4225 41.0353 47.9358 42.1367 47.2927L44.3898 49.0164C44.8252 49.35 45.4409 49.3095 45.827 48.9212L48.9212 45.827C49.3084 45.4398 49.35 44.8241 49.0164 44.3898L47.2927 42.1367C47.9347 41.0353 48.4214 39.8661 48.7452 38.6455L51.5506 38.2714C52.0942 38.1992 52.5 37.7355 52.5 37.1875V36.0938H53.5938V56.875C53.5938 57.4787 54.0838 57.9688 54.6875 57.9688H57.9688V61.25C57.9688 61.8537 58.4588 62.3438 59.0625 62.3438H67.8125C68.4163 62.3438 68.9062 61.8537 68.9062 61.25V52.5C68.9062 51.8963 68.4163 51.4062 67.8125 51.4062H59.0625C58.4588 51.4062 57.9688 51.8963 57.9688 52.5V55.7812H55.7812V36.0938H57.9688V39.375C57.9688 39.9787 58.4588 40.4688 59.0625 40.4688H67.8125C68.4163 40.4688 68.9062 39.9787 68.9062 39.375V30.625C68.9062 30.0212 68.4163 29.5312 67.8125 29.5312H59.0625C58.4588 29.5312 57.9688 30.0212 57.9688 30.625V33.9062H55.7812V14.2188H57.9688V17.5C57.9688 18.1038 58.4588 18.5938 59.0625 18.5938ZM60.1562 9.84375H66.7188V16.4062H60.1562V9.84375ZM9.84375 16.4062H3.28125V9.84375H9.84375V16.4062ZM9.84375 38.2812H3.28125V31.7188H9.84375V38.2812ZM9.84375 60.1562H3.28125V53.5938H9.84375V60.1562ZM50.3125 36.2305L47.7094 36.5772C47.2489 36.6384 46.877 36.9852 46.783 37.4412C46.4789 38.92 45.8959 40.32 45.0527 41.6008C44.7967 41.9891 44.8153 42.4966 45.0975 42.8663L46.6977 44.9586L44.9586 46.6977L42.8663 45.0975C42.4966 44.8153 41.988 44.7967 41.6008 45.0527C40.32 45.8959 38.92 46.4789 37.4412 46.783C36.9852 46.877 36.6395 47.2489 36.5772 47.7094L36.2305 50.3125H33.7706L33.4239 47.7094C33.3627 47.2489 33.0159 46.877 32.5598 46.783C31.0811 46.4789 29.6811 45.8959 28.4003 45.0527C28.0131 44.7978 27.5056 44.8153 27.1348 45.0975L25.0425 46.6977L23.3034 44.9586L24.9036 42.8663C25.1858 42.4966 25.2044 41.9891 24.9484 41.6008C24.1052 40.32 23.5222 38.92 23.2181 37.4412C23.1241 36.9852 22.7522 36.6395 22.2917 36.5772L19.6875 36.2305V33.7706L22.2906 33.4239C22.7511 33.3627 23.123 33.0159 23.217 32.5598C23.5211 31.0811 24.1041 29.6811 24.9473 28.4003C25.2033 28.012 25.1847 27.5045 24.9025 27.1348L23.3023 25.0425L25.0414 23.3034L27.1338 24.9036C27.5023 25.1858 28.0109 25.2033 28.3992 24.9484C29.68 24.1052 31.08 23.5222 32.5588 23.2181C33.0148 23.1241 33.3605 22.7522 33.4228 22.2917L33.7695 19.6875H36.2294L36.5761 22.2906C36.6373 22.7511 36.9841 23.123 37.4402 23.217C38.9189 23.5211 40.3189 24.1041 41.5997 24.9473C41.9891 25.2033 42.4966 25.1858 42.8652 24.9025L44.9575 23.3023L46.6966 25.0414L45.0964 27.1338C44.8142 27.5034 44.7956 28.0109 45.0516 28.3992C45.8948 29.68 46.4778 31.08 46.7819 32.5588C46.8759 33.0148 47.2478 33.3605 47.7083 33.4228L50.3125 33.7695V36.2305ZM60.1562 53.5938H66.7188V60.1562H60.1562V53.5938ZM60.1562 31.7188H66.7188V38.2812H60.1562V31.7188Z" fill="url(#paint1_linear)"/>
<defs>
<linearGradient id="paint0_linear" x1="25.1563" y1="44.8437" x2="44.8438" y2="44.8437" gradientUnits="userSpaceOnUse">
<stop stop-color="#76C5FF"/>
<stop offset="1" stop-color="#1F83CB"/>
</linearGradient>
<linearGradient id="paint1_linear" x1="1.09376" y1="62.3437" x2="68.9063" y2="62.3437" gradientUnits="userSpaceOnUse">
<stop stop-color="#76C5FF"/>
<stop offset="1" stop-color="#1F83CB"/>
</linearGradient>
</defs>
</svg>
