<svg width="70" height="70" viewBox="0 0 70 70" fill="none" xmlns="http://www.w3.org/2000/svg">
<path d="M67.6074 0.273438H44.6143C44.0479 0.273438 43.5889 0.732539 43.5889 1.29883C43.5889 1.86512 44.0479 2.32422 44.6143 2.32422H67.6074C67.796 2.32422 67.9492 2.47762 67.9492 2.66602V8.89041H2.05078V2.66602C2.05078 2.47762 2.20404 2.32422 2.39258 2.32422H39.8945C40.461 2.32422 40.9199 1.86512 40.9199 1.29883C40.9199 0.732539 40.461 0.273438 39.8945 0.273438H2.39258C1.07338 0.273438 0 1.34682 0 2.66602V67.3342C0 68.6534 1.07338 69.7268 2.39258 69.7268H51.7884C52.3548 69.7268 52.8138 69.2677 52.8138 68.7014C52.8138 68.1351 52.3548 67.676 51.7884 67.676H2.39258C2.20404 67.676 2.05078 67.5226 2.05078 67.3342V10.9412H67.9492V67.3342C67.9492 67.5226 67.796 67.676 67.6074 67.676H56.5083C55.9419 67.676 55.4829 68.1351 55.4829 68.7014C55.4829 69.2677 55.9419 69.7268 56.5083 69.7268H67.6074C68.9266 69.7268 70 68.6534 70 67.3342V2.66602C70 1.34668 68.9266 0.273438 67.6074 0.273438Z" fill="url(#paint0_linear)"/>
<path d="M6.48535 4.58179C5.91893 4.58179 5.45996 5.04089 5.45996 5.60718C5.45996 6.17347 5.91893 6.63257 6.48535 6.63257H6.5008C7.06723 6.63257 7.52619 6.17347 7.52619 5.60718C7.52619 5.04089 7.06723 4.58179 6.5008 4.58179H6.48535Z" fill="url(#paint1_linear)"/>
<path d="M9.58008 4.58179C9.01365 4.58179 8.55469 5.04089 8.55469 5.60718C8.55469 6.17347 9.01365 6.63257 9.58008 6.63257H9.59539C10.1618 6.63257 10.6208 6.17347 10.6208 5.60718C10.6208 5.04089 10.1618 4.58179 9.59539 4.58179H9.58008Z" fill="url(#paint2_linear)"/>
<path d="M12.6768 4.58179C12.1103 4.58179 11.6514 5.04089 11.6514 5.60718C11.6514 6.17347 12.1103 6.63257 12.6768 6.63257H12.6921C13.2585 6.63257 13.7175 6.17347 13.7175 5.60718C13.7175 5.04089 13.2585 4.58179 12.6921 4.58179H12.6768Z" fill="url(#paint3_linear)"/>
<path d="M63.5145 6.63257C64.0809 6.63257 64.5399 6.17347 64.5399 5.60718C64.5399 5.04089 64.0809 4.58179 63.5145 4.58179H61.6064C61.04 4.58179 60.5811 5.04089 60.5811 5.60718C60.5811 6.17347 61.04 6.63257 61.6064 6.63257H63.5145Z" fill="url(#paint4_linear)"/>
<path d="M28.6056 16.8892C28.6056 15.57 27.5322 14.4966 26.213 14.4966H8.68652C7.36732 14.4966 6.29395 15.57 6.29395 16.8892V25.1437C6.29395 25.71 6.75291 26.1691 7.31934 26.1691C7.88576 26.1691 8.34473 25.71 8.34473 25.1437V16.8892C8.34473 16.7008 8.49799 16.5474 8.68652 16.5474H26.2129C26.4014 16.5474 26.5547 16.7008 26.5547 16.8892V49.4154C26.5547 49.6038 26.4014 49.7572 26.2129 49.7572H8.68652C8.49799 49.7572 8.34473 49.6038 8.34473 49.4154V29.8636C8.34473 29.2973 7.88576 28.8382 7.31934 28.8382C6.75291 28.8382 6.29395 29.2973 6.29395 29.8636V49.4154C6.29395 50.7346 7.36732 51.808 8.68652 51.808H26.2129C27.5321 51.808 28.6055 50.7346 28.6055 49.4154L28.6056 16.8892Z" fill="url(#paint5_linear)"/>
<path d="M26.2128 53H8.68652C7.36732 53 6.29395 54.0734 6.29395 55.3926V61.0426C6.29395 62.3618 7.36732 63.4352 8.68652 63.4352H26.2126C27.5318 63.4352 28.6052 62.3618 28.6052 61.0426V55.3926C28.6054 54.0732 27.532 53 26.2128 53ZM26.5546 61.0425C26.5546 61.2309 26.4013 61.3843 26.2128 61.3843H8.68652C8.49799 61.3843 8.34473 61.2309 8.34473 61.0425V55.3924C8.34473 55.204 8.49799 55.0506 8.68652 55.0506H26.2126C26.4012 55.0506 26.5544 55.204 26.5544 55.3924V61.0425H26.5546Z" fill="url(#paint6_linear)"/>
<path d="M32.2539 14.4966C30.9347 14.4966 29.8613 15.57 29.8613 16.8892V60.9505C29.8613 62.2697 30.9347 63.3431 32.2539 63.3431H40.8881C42.2073 63.3431 43.2807 62.2697 43.2807 60.9505V16.8892C43.2807 15.57 42.2073 14.4966 40.8881 14.4966H32.2539ZM41.2299 16.8892V60.9505C41.2299 61.1389 41.0766 61.2923 40.8881 61.2923H32.2539C32.0654 61.2923 31.9121 61.1389 31.9121 60.9505V16.8892C31.9121 16.7008 32.0654 16.5474 32.2539 16.5474H40.8881C41.0766 16.5474 41.2299 16.7006 41.2299 16.8892Z" fill="url(#paint7_linear)"/>
<path d="M46.8398 23.7831H59.9308C61.25 23.7831 62.3234 22.7097 62.3234 21.3905V16.8892C62.3234 15.57 61.25 14.4966 59.9308 14.4966H46.8398C45.5206 14.4966 44.4473 15.57 44.4473 16.8892V21.3905C44.4473 22.7097 45.5206 23.7831 46.8398 23.7831ZM46.498 16.8892C46.498 16.7008 46.6513 16.5474 46.8398 16.5474H59.9308C60.1193 16.5474 60.2726 16.7008 60.2726 16.8892V21.3905C60.2726 21.5789 60.1193 21.7323 59.9308 21.7323H46.8398C46.6513 21.7323 46.498 21.5789 46.498 21.3905V16.8892Z" fill="url(#paint8_linear)"/>
<path d="M44.4473 60.9503C44.4473 62.2695 45.5206 63.3429 46.8398 63.3429H59.9308C61.25 63.3429 62.3234 62.2695 62.3234 60.9503V27.3154C62.3234 25.9962 61.25 24.9229 59.9308 24.9229H46.8398C45.5206 24.9229 44.4473 25.9962 44.4473 27.3154V60.9503ZM46.498 27.3154C46.498 27.127 46.6513 26.9736 46.8398 26.9736H59.9308C60.1193 26.9736 60.2726 27.127 60.2726 27.3154V60.9503C60.2726 61.1387 60.1193 61.2921 59.9308 61.2921H46.8398C46.6513 61.2921 46.498 61.1387 46.498 60.9503V27.3154Z" fill="url(#paint9_linear)"/>
<defs>
<linearGradient id="paint0_linear" x1="1.07242e-05" y1="69.7267" x2="70" y2="69.7267" gradientUnits="userSpaceOnUse">
<stop stop-color="#76C5FF"/>
<stop offset="1" stop-color="#1F83CB"/>
</linearGradient>
<linearGradient id="paint1_linear" x1="5.45996" y1="6.63257" x2="7.52619" y2="6.63257" gradientUnits="userSpaceOnUse">
<stop stop-color="#76C5FF"/>
<stop offset="1" stop-color="#1F83CB"/>
</linearGradient>
<linearGradient id="paint2_linear" x1="8.55469" y1="6.63257" x2="10.6208" y2="6.63257" gradientUnits="userSpaceOnUse">
<stop stop-color="#76C5FF"/>
<stop offset="1" stop-color="#1F83CB"/>
</linearGradient>
<linearGradient id="paint3_linear" x1="11.6514" y1="6.63257" x2="13.7175" y2="6.63257" gradientUnits="userSpaceOnUse">
<stop stop-color="#76C5FF"/>
<stop offset="1" stop-color="#1F83CB"/>
</linearGradient>
<linearGradient id="paint4_linear" x1="60.5811" y1="6.63257" x2="64.5399" y2="6.63257" gradientUnits="userSpaceOnUse">
<stop stop-color="#76C5FF"/>
<stop offset="1" stop-color="#1F83CB"/>
</linearGradient>
<linearGradient id="paint5_linear" x1="6.29395" y1="51.8079" x2="28.6056" y2="51.8079" gradientUnits="userSpaceOnUse">
<stop stop-color="#76C5FF"/>
<stop offset="1" stop-color="#1F83CB"/>
</linearGradient>
<linearGradient id="paint6_linear" x1="6.29395" y1="63.4352" x2="28.6052" y2="63.4352" gradientUnits="userSpaceOnUse">
<stop stop-color="#76C5FF"/>
<stop offset="1" stop-color="#1F83CB"/>
</linearGradient>
<linearGradient id="paint7_linear" x1="29.8613" y1="63.3431" x2="43.2807" y2="63.3431" gradientUnits="userSpaceOnUse">
<stop stop-color="#76C5FF"/>
<stop offset="1" stop-color="#1F83CB"/>
</linearGradient>
<linearGradient id="paint8_linear" x1="44.4473" y1="23.7831" x2="62.3234" y2="23.7831" gradientUnits="userSpaceOnUse">
<stop stop-color="#76C5FF"/>
<stop offset="1" stop-color="#1F83CB"/>
</linearGradient>
<linearGradient id="paint9_linear" x1="44.4473" y1="63.3429" x2="62.3234" y2="63.3429" gradientUnits="userSpaceOnUse">
<stop stop-color="#76C5FF"/>
<stop offset="1" stop-color="#1F83CB"/>
</linearGradient>
</defs>
</svg>
