<svg width="70" height="70" viewBox="0 0 70 70" fill="none" xmlns="http://www.w3.org/2000/svg">
<g clip-path="url(#clip0)">
<path d="M63.0015 29.0741V22.8733C63.0015 21.386 62.4218 19.9871 61.3694 18.9343L44.0736 1.63666C43.0184 0.581191 41.6147 0 40.1211 0H14.1031C10.1857 0 6.9985 3.18158 6.9985 7.09229V11.556C6.9985 12.1224 7.45746 12.5814 8.02389 12.5814C8.59031 12.5814 9.04928 12.1224 9.04928 11.556V7.09229C9.04928 4.31238 11.3163 2.05078 14.1031 2.05078H40.1211C40.4171 2.05078 40.7073 2.08687 40.987 2.15674V16.8808C40.987 19.7128 43.2908 22.0168 46.1223 22.0168H48.5397C49.1061 22.0168 49.5651 21.5578 49.5651 20.9914C49.5651 20.425 49.1061 19.966 48.5397 19.966H46.1223C44.4217 19.966 43.0378 18.582 43.0378 16.8808V3.50109L59.5008 19.966H53.3248C52.7584 19.966 52.2994 20.425 52.2994 20.9914C52.2994 21.5578 52.7584 22.0168 53.3248 22.0168H60.8461C60.9152 22.2936 60.9507 22.5807 60.9507 22.8733V28.1991C60.4755 28.088 59.9811 28.0273 59.4727 28.0273H10.5273C10.0189 28.0273 9.52451 28.088 9.04928 28.1991V16.3413C9.04928 15.7749 8.59031 15.3159 8.02389 15.3159C7.45746 15.3159 6.9985 15.7749 6.9985 16.3413V29.0741C5.21568 30.233 4.0332 32.2412 4.0332 34.5215V54.4824C4.0332 56.7628 5.21568 58.7709 6.9985 59.9298V62.9077C6.9985 66.8184 10.1857 70 14.1031 70H52.2236C52.79 70 53.2489 69.541 53.2489 68.9746C53.2489 68.4082 52.79 67.9492 52.2236 67.9492H14.1031C11.3163 67.9492 9.04928 65.6876 9.04928 62.9077V60.8048C9.52451 60.916 10.0189 60.9766 10.5273 60.9766H14.2494C14.8158 60.9766 15.2748 60.5176 15.2748 59.9512C15.2748 59.3847 14.8158 58.9258 14.2494 58.9258H10.5273C8.07721 58.9258 6.08398 56.9326 6.08398 54.4824V34.5215C6.08398 32.0713 8.07721 30.0781 10.5273 30.0781H59.4727C61.9228 30.0781 63.916 32.0713 63.916 34.5215V54.4824C63.916 56.9326 61.9228 58.9258 59.4727 58.9258H19.0345C18.4681 58.9258 18.0091 59.3847 18.0091 59.9512C18.0091 60.5176 18.4681 60.9766 19.0345 60.9766H59.4727C59.9811 60.9766 60.4755 60.916 60.9507 60.8048V62.9077C60.9507 65.3475 59.2076 67.4337 56.8058 67.8681C56.2486 67.9689 55.8786 68.5025 55.9794 69.0596C56.0689 69.5553 56.5007 69.9027 56.9871 69.9027C57.0477 69.9027 57.1092 69.8973 57.1709 69.8861C60.5495 69.2748 63.0015 66.3399 63.0015 62.9077V59.9298C64.7845 58.7709 65.9668 56.7628 65.9668 54.4824V34.5215C65.9668 32.2412 64.7843 30.233 63.0015 29.0741Z" fill="url(#paint0_linear)"/>
<path d="M44.8352 53.2527C45.3634 53.4545 45.9567 53.1887 46.1583 52.6593L47.3642 49.4931H55.3516L56.5454 52.6566C56.7003 53.0672 57.0905 53.3202 57.5049 53.3202C57.6252 53.3202 57.7476 53.2989 57.8668 53.2539C58.3966 53.054 58.664 52.4625 58.464 51.9325L52.665 36.5664C52.6616 36.5571 52.6578 36.5477 52.6541 36.5384C52.4405 36.0194 51.9402 35.6843 51.3791 35.6843C51.3786 35.6843 51.3782 35.6843 51.3777 35.6843C50.8162 35.6849 50.3157 36.0211 50.1031 36.541C50.0999 36.5488 50.0968 36.5565 50.0939 36.5644L44.2418 51.9298C44.0401 52.4586 44.3058 53.051 44.8352 53.2527ZM51.3761 38.9592L54.5775 47.4423H48.1451L51.3761 38.9592Z" fill="url(#paint1_linear)"/>
<path d="M29.2674 36.5382C29.0538 36.0192 28.5534 35.6841 27.9923 35.6841C27.9919 35.6841 27.9915 35.6841 27.9909 35.6841C27.4294 35.6846 26.9289 36.0208 26.7163 36.5408C26.7132 36.5486 26.71 36.5562 26.7072 36.5641L20.8551 51.9296C20.6534 52.4587 20.9192 53.0511 21.4484 53.2527C21.977 53.4545 22.5699 53.1887 22.7716 52.6594L23.9774 49.4931H31.9648L33.1586 52.6566C33.3135 53.0672 33.7037 53.3203 34.1181 53.3203C34.2385 53.3203 34.3608 53.2989 34.48 53.254C35.0098 53.0541 35.2772 52.4625 35.0772 51.9326L29.2783 36.5665C29.2749 36.5569 29.2712 36.5475 29.2674 36.5382ZM24.7585 47.4422L27.9894 38.959L31.1909 47.4422H24.7585Z" fill="url(#paint2_linear)"/>
<path d="M19.01 36.7095C19.01 36.143 18.5511 35.6841 17.9846 35.6841C17.4182 35.6841 16.9592 36.143 16.9592 36.7095V49.1655C16.9592 49.9523 16.547 50.6698 15.8837 51.038C14.5772 51.7634 13.2811 50.522 13.2181 50.4604C12.8184 50.0624 12.1723 50.0618 11.7719 50.4596C11.3702 50.8588 11.3681 51.508 11.7672 51.9096C11.8417 51.9847 13.2034 53.3275 15.0226 53.3275C15.6037 53.3275 16.2319 53.1904 16.8791 52.8309C18.1935 52.1013 19.0102 50.6968 19.0102 49.1652V36.7095H19.01Z" fill="url(#paint3_linear)"/>
<path d="M45.5238 35.7651C44.9869 35.5861 44.406 35.8773 44.2276 36.4149L39.7648 49.8481L35.0875 36.3734C34.9019 35.8382 34.3173 35.5544 33.7827 35.7409C33.2477 35.9266 32.9646 36.5108 33.1502 37.0457L38.4812 52.4036C38.6761 52.9527 39.1967 53.3199 39.7788 53.3199C39.7818 53.3199 39.7849 53.3199 39.7881 53.3198C40.3738 53.3159 40.894 52.9407 41.0847 52.3791L46.1735 37.0613C46.3522 36.5239 46.0613 35.9435 45.5238 35.7651Z" fill="url(#paint4_linear)"/>
</g>
<defs>
<linearGradient id="paint0_linear" x1="4.03321" y1="69.9999" x2="65.9668" y2="69.9999" gradientUnits="userSpaceOnUse">
<stop stop-color="#76C5FF"/>
<stop offset="1" stop-color="#1F83CB"/>
</linearGradient>
<linearGradient id="paint1_linear" x1="44.1743" y1="53.3202" x2="58.5303" y2="53.3202" gradientUnits="userSpaceOnUse">
<stop stop-color="#76C5FF"/>
<stop offset="1" stop-color="#1F83CB"/>
</linearGradient>
<linearGradient id="paint2_linear" x1="20.7876" y1="53.3202" x2="35.1436" y2="53.3202" gradientUnits="userSpaceOnUse">
<stop stop-color="#76C5FF"/>
<stop offset="1" stop-color="#1F83CB"/>
</linearGradient>
<linearGradient id="paint3_linear" x1="11.4692" y1="53.3275" x2="19.0102" y2="53.3275" gradientUnits="userSpaceOnUse">
<stop stop-color="#76C5FF"/>
<stop offset="1" stop-color="#1F83CB"/>
</linearGradient>
<linearGradient id="paint4_linear" x1="33.0933" y1="53.3199" x2="46.2262" y2="53.3199" gradientUnits="userSpaceOnUse">
<stop stop-color="#76C5FF"/>
<stop offset="1" stop-color="#1F83CB"/>
</linearGradient>
<clipPath id="clip0">
<rect width="70" height="70" fill="white"/>
</clipPath>
</defs>
</svg>
