<svg width="70" height="70" viewBox="0 0 70 70" fill="none" xmlns="http://www.w3.org/2000/svg">
<path d="M46.288 23.9124C46.2426 23.3479 45.7465 22.926 45.1831 22.9722C41.9193 23.2347 38.4926 23.3679 34.9979 23.3679C26.6662 23.3679 18.8937 22.6206 13.1123 21.2636C12.5618 21.1351 12.0085 21.4764 11.8789 22.028C11.7495 22.5798 12.0918 23.1319 12.6433 23.2614C18.5739 24.6533 26.5129 25.4198 34.9979 25.4198C38.5471 25.4198 42.0294 25.2844 45.3477 25.0174C45.9126 24.972 46.3334 24.4772 46.288 23.9124Z" fill="url(#paint0_linear)"/>
<path d="M46.288 41.4963C46.2426 40.9317 45.7465 40.5102 45.1831 40.5561C41.9193 40.8186 38.4926 40.9518 34.9979 40.9518C26.6662 40.9518 18.8937 40.2044 13.1123 38.8475C12.5618 38.7186 12.0085 39.0602 11.8789 39.6119C11.7495 40.1637 12.0918 40.7158 12.6433 40.8452C18.5739 42.2372 26.5129 43.0036 34.9979 43.0036C38.5471 43.0036 42.0294 42.8683 45.3477 42.6013C45.9126 42.5559 46.3334 42.0611 46.288 41.4963Z" fill="url(#paint1_linear)"/>
<path d="M67.2702 8.07064C67.0539 3.16422 53.7815 1.24619 48.0474 0.64709C46.2783 0.462246 44.424 0.314453 42.5356 0.208086C40.0825 0.07 37.5465 0 34.9983 0C28.4783 0 22.217 0.453359 16.8913 1.31127C16.3318 1.40137 15.9513 1.92787 16.0416 2.48732C16.1317 3.04664 16.6588 3.42754 17.2176 3.33703C22.4374 2.49635 28.5858 2.05188 34.9984 2.05188C37.5083 2.05188 40.0054 2.12078 42.4204 2.25682C44.2759 2.36127 46.0974 2.50633 47.8344 2.68775C53.1405 3.24215 57.6263 4.12262 60.807 5.234C65.0105 6.70291 65.2235 7.95553 65.2235 8.19164C65.2235 8.99049 63.4634 10.7461 56.867 12.2586C56.6848 12.3004 56.5007 12.3416 56.3148 12.3822C50.5514 13.6407 43.0123 14.3315 34.9984 14.3315C26.9845 14.3315 19.4454 13.6406 13.6821 12.3822C13.4961 12.3416 13.3121 12.3004 13.1299 12.2586C6.59334 10.7599 4.80684 9.02316 4.77484 8.21447C4.77498 8.20682 4.77594 8.19943 4.77594 8.19191C4.77594 8.18467 4.77498 8.1777 4.77484 8.17045C4.79166 7.68756 5.37627 7.07205 6.38703 6.47691C7.66234 5.72592 9.53238 5.03125 11.9455 4.41219C12.4943 4.27137 12.825 3.71232 12.6842 3.1634C12.5433 2.61475 11.9848 2.2843 11.4354 2.42471C5.65313 3.90811 2.72119 5.84869 2.72119 8.19205V61.8085C2.72119 64.3204 6.06889 66.3616 12.6712 67.8755C18.6469 69.2455 26.5762 70 34.9983 70C43.4204 70 51.35 69.2455 57.3253 67.8753C63.9276 66.3614 67.2753 64.3202 67.2753 61.8082V8.24469C67.2762 8.22705 67.278 8.20955 67.278 8.19178C67.2781 8.15076 67.2751 8.11043 67.2702 8.07064ZM56.8669 65.8752C51.0372 67.2119 43.2709 67.948 34.9983 67.948C26.7257 67.948 18.9594 67.2119 13.1297 65.8752C6.53332 64.3625 4.7732 62.6071 4.7732 61.8082V47.0546C4.79563 47.0701 4.82037 47.0853 4.8432 47.1007C4.89885 47.1383 4.95586 47.1756 5.01369 47.2128C5.06045 47.2429 5.10762 47.273 5.15574 47.3029C5.21604 47.3404 5.27811 47.3774 5.34072 47.4145C5.38994 47.4436 5.43875 47.4729 5.48934 47.5017C5.55537 47.5394 5.62359 47.5769 5.69195 47.6144C5.74254 47.642 5.79217 47.6697 5.84398 47.6972C5.9185 47.7367 5.99574 47.7757 6.07285 47.8148C6.1218 47.8395 6.16937 47.8646 6.21941 47.8892C6.31498 47.9362 6.41383 47.9827 6.51322 48.0292C6.54795 48.0453 6.5809 48.0618 6.61604 48.078C6.75098 48.1399 6.88961 48.2013 7.03152 48.2621C7.07582 48.2811 7.12244 48.2997 7.16756 48.3187C7.26777 48.3608 7.36813 48.4028 7.47176 48.4444C7.53068 48.468 7.5918 48.4913 7.65182 48.5148C7.74479 48.5512 7.83775 48.5875 7.93332 48.6235C7.99949 48.6484 8.06744 48.673 8.13484 48.6976C8.22781 48.7316 8.32119 48.7657 8.41648 48.7994C8.48744 48.8245 8.56004 48.8493 8.63236 48.8742C8.72793 48.907 8.82418 48.9398 8.92221 48.9724C8.99672 48.9971 9.07232 49.0217 9.1482 49.0463C9.24746 49.0785 9.34781 49.1105 9.44939 49.1422C9.52705 49.1665 9.60525 49.1907 9.68428 49.2148C9.78818 49.2465 9.89373 49.2779 9.99996 49.3093C10.0797 49.3328 10.1592 49.3562 10.2403 49.3795C10.3505 49.4113 10.4628 49.4426 10.5754 49.4739C10.6557 49.4962 10.7354 49.5186 10.8169 49.5406C10.9365 49.573 11.0587 49.6051 11.1811 49.6371C11.2586 49.6575 11.3353 49.678 11.4139 49.6981C11.5513 49.7334 11.6917 49.7681 11.8323 49.8028C11.8991 49.8194 11.9645 49.836 12.032 49.8524C12.2417 49.9033 12.4545 49.9536 12.6712 50.0032C18.6469 51.3733 26.576 52.128 34.9983 52.128C43.4206 52.128 51.3499 51.3733 57.3254 50.0032C57.5421 49.9536 57.7549 49.9032 57.9646 49.8524C58.0323 49.836 58.0978 49.8194 58.1646 49.8028C58.305 49.7681 58.4453 49.7335 58.5826 49.6982C58.6614 49.678 58.7381 49.6575 58.8159 49.6371C58.938 49.6051 59.0601 49.573 59.1796 49.5406C59.2611 49.5184 59.3408 49.4962 59.4211 49.4739C59.5337 49.4426 59.646 49.4113 59.7561 49.3795C59.8371 49.3563 59.9168 49.3328 59.9965 49.3093C60.1027 49.2779 60.2083 49.2465 60.3122 49.2148C60.3912 49.1907 60.4694 49.1665 60.5472 49.1422C60.6487 49.1105 60.7489 49.0785 60.8481 49.0465C60.9241 49.0219 60.9999 48.9973 61.0745 48.9724C61.1723 48.9398 61.2685 48.9072 61.364 48.8744C61.4363 48.8495 61.5089 48.8246 61.5798 48.7996C61.6753 48.7659 61.7685 48.7319 61.8615 48.6977C61.9289 48.673 61.9968 48.6485 62.063 48.6236C62.1586 48.5877 62.2515 48.5513 62.3445 48.5149C62.4045 48.4914 62.4656 48.4682 62.5246 48.4445C62.6278 48.4031 62.728 48.3611 62.8279 48.3191C62.8733 48.3001 62.9202 48.2813 62.9649 48.2621C63.1069 48.2013 63.2454 48.1399 63.3803 48.0781C63.4154 48.062 63.4485 48.0456 63.4831 48.0293C63.5825 47.9828 63.6813 47.9363 63.7769 47.8893C63.827 47.8647 63.8745 47.8397 63.9235 47.8149C64.0006 47.7758 64.0778 47.7369 64.1523 47.6973C64.2042 47.6699 64.2539 47.6421 64.3045 47.6144C64.3727 47.577 64.441 47.5396 64.5069 47.5018C64.5576 47.4729 64.6065 47.4436 64.6559 47.4143C64.7184 47.3773 64.7803 47.3402 64.8406 47.3029C64.8888 47.273 64.9359 47.2429 64.9828 47.2128C65.0406 47.1756 65.0976 47.1382 65.1533 47.1007C65.1761 47.0853 65.2007 47.0701 65.2233 47.0546V61.8082H65.2234C65.2234 62.6071 63.4634 64.3627 56.8669 65.8752ZM65.1746 44.185C64.851 45.0621 62.845 46.6323 56.867 48.0032C51.0373 49.3399 43.2709 50.0761 34.9984 50.0761C26.726 50.0761 18.9596 49.3399 13.1299 48.0032C7.15184 46.6323 5.1459 45.0621 4.82228 44.185C4.78879 44.0944 4.77334 44.011 4.77334 43.9361V29.1823C4.79508 29.1972 4.81887 29.2119 4.84088 29.2268C4.89803 29.2653 4.95654 29.3037 5.01602 29.342C5.06168 29.3714 5.10748 29.4007 5.15451 29.4298C5.2159 29.4678 5.27906 29.5057 5.34277 29.5434C5.39104 29.572 5.43902 29.6007 5.48865 29.629C5.55537 29.6671 5.62428 29.7049 5.69332 29.7428C5.74336 29.7701 5.79258 29.7976 5.84385 29.8248C5.91809 29.8642 5.99506 29.9031 6.07203 29.942C6.12152 29.967 6.16965 29.9923 6.2201 30.0171C6.31416 30.0635 6.4115 30.1092 6.50926 30.155C6.54535 30.1719 6.57994 30.189 6.61658 30.2058C6.75125 30.2676 6.88961 30.3289 7.03111 30.3896C7.07787 30.4097 7.12723 30.4294 7.1748 30.4493C7.27242 30.4902 7.37004 30.5312 7.4708 30.5717C7.53191 30.5962 7.59535 30.6204 7.65756 30.6447C7.7482 30.6801 7.83885 30.7156 7.93209 30.7506C8.00004 30.7762 8.07004 30.8015 8.13936 30.8269C8.23041 30.8603 8.3216 30.8935 8.41498 30.9266C8.48758 30.9523 8.56182 30.9777 8.63578 31.0032C8.72971 31.0354 8.82418 31.0676 8.92029 31.0996C8.99631 31.1248 9.07342 31.1499 9.1508 31.1749C9.24883 31.2066 9.34781 31.238 9.44803 31.2695C9.52664 31.2941 9.6058 31.3186 9.68578 31.3429C9.78887 31.3744 9.89332 31.4055 9.99859 31.4364C10.079 31.4601 10.1594 31.4839 10.241 31.5072C10.3506 31.5387 10.4622 31.57 10.5743 31.601C10.6551 31.6235 10.7355 31.646 10.8175 31.6683C10.9362 31.7004 11.0573 31.7323 11.1786 31.7641C11.2572 31.7848 11.3349 31.8056 11.4146 31.8259C11.5513 31.8611 11.6912 31.8955 11.8312 31.9301C11.8984 31.9467 11.9642 31.9636 12.0321 31.98C12.2419 32.0309 12.4546 32.0812 12.6713 32.1308C18.647 33.5009 26.5763 34.2556 34.9984 34.2556C43.4206 34.2556 51.35 33.5009 57.3256 32.1308C57.5423 32.0812 57.755 32.0307 57.9647 31.98C58.0328 31.9635 58.0987 31.9467 58.166 31.9301C58.3058 31.8957 58.4454 31.8611 58.582 31.8261C58.6619 31.8056 58.7398 31.7848 58.8185 31.7641C58.9395 31.7324 59.0605 31.7007 59.1791 31.6684C59.2611 31.6462 59.3415 31.6236 59.4223 31.6012C59.5343 31.57 59.646 31.5388 59.7556 31.5074C59.8374 31.4839 59.9178 31.4602 59.998 31.4366C60.1033 31.4055 60.2079 31.3744 60.3108 31.343C60.3908 31.3187 60.47 31.2941 60.5487 31.2695C60.6488 31.2382 60.7478 31.2067 60.8457 31.175C60.9232 31.15 61.0004 31.1248 61.0766 31.0996C61.1726 31.0677 61.2669 31.0356 61.3607 31.0033C61.4348 30.9779 61.5089 30.9524 61.5816 30.9267C61.675 30.8938 61.7662 30.8604 61.8572 30.8271C61.9266 30.8016 61.9966 30.7765 62.0645 30.7508C62.1578 30.7158 62.2483 30.6802 62.339 30.6448C62.4012 30.6205 62.4647 30.5963 62.5258 30.5718C62.6263 30.5315 62.7236 30.4907 62.821 30.4499C62.869 30.4298 62.9185 30.4099 62.9656 30.3897C63.1073 30.329 63.2455 30.2678 63.3802 30.206C63.4168 30.1891 63.4513 30.1721 63.4875 30.1551C63.5852 30.1094 63.6826 30.0636 63.7766 30.0173C63.8271 29.9924 63.8752 29.9672 63.9247 29.9421C64.0015 29.9031 64.0787 29.8642 64.1529 29.8249C64.2042 29.7977 64.2535 29.7702 64.3036 29.7428C64.3725 29.705 64.4414 29.6673 64.5079 29.6291C64.5577 29.6007 64.6058 29.572 64.6542 29.5433C64.7178 29.5055 64.781 29.4678 64.8422 29.4298C64.8893 29.4007 64.9351 29.3713 64.9807 29.342C65.0402 29.3037 65.0987 29.2653 65.1559 29.2268C65.1779 29.2119 65.2017 29.1972 65.2234 29.1823V43.9361H65.2235C65.2234 44.011 65.2081 44.0943 65.1746 44.185ZM56.8669 30.1309C51.0372 31.4676 43.2707 32.2038 34.9983 32.2038C26.7259 32.2038 18.9594 31.4676 13.1297 30.1309C6.53332 28.6184 4.7732 26.8629 4.7732 26.0639V11.3102C4.79494 11.3251 4.81873 11.3397 4.84074 11.3546C4.89789 11.3932 4.95641 11.4316 5.01588 11.4699C5.06154 11.4993 5.10734 11.5285 5.15437 11.5577C5.21576 11.5957 5.27893 11.6335 5.34264 11.6713C5.3909 11.6998 5.43889 11.7286 5.48852 11.7569C5.55523 11.795 5.62414 11.8327 5.69318 11.8706C5.74322 11.8979 5.79244 11.9254 5.84371 11.9526C5.91795 11.992 5.99492 12.031 6.07189 12.0698C6.12139 12.0948 6.16951 12.1201 6.21996 12.145C6.31402 12.1913 6.41137 12.237 6.50912 12.2828C6.54521 12.2998 6.5798 12.3169 6.61645 12.3337C6.75111 12.3955 6.88947 12.4567 7.03098 12.5174C7.07773 12.5375 7.12709 12.5572 7.17467 12.5772C7.27228 12.618 7.3699 12.6591 7.47066 12.6995C7.53178 12.724 7.59522 12.7482 7.65742 12.7725C7.74807 12.8079 7.83871 12.8435 7.93195 12.8785C7.9999 12.9041 8.0699 12.9294 8.13922 12.9548C8.23027 12.9881 8.32146 13.0214 8.41484 13.0545C8.48744 13.0802 8.56168 13.1056 8.63564 13.131C8.72957 13.1633 8.82404 13.1954 8.92016 13.2274C8.99617 13.2527 9.07328 13.2777 9.15066 13.3027C9.24869 13.3345 9.34768 13.3659 9.44789 13.3973C9.5265 13.422 9.60566 13.4464 9.68565 13.4708C9.78873 13.5022 9.89318 13.5334 9.99846 13.5643C10.0788 13.5879 10.1592 13.6117 10.2409 13.6351C10.3505 13.6665 10.4621 13.6979 10.5742 13.7289C10.655 13.7513 10.7354 13.7739 10.8174 13.7962C10.9361 13.8283 11.0572 13.8601 11.1785 13.892C11.2571 13.9126 11.3347 13.9334 11.4145 13.9538C11.5512 13.9888 11.691 14.0234 11.831 14.058C11.8983 14.0745 11.9641 14.0915 12.032 14.1079C12.2417 14.1587 12.4545 14.209 12.6712 14.2587C18.6467 15.6287 26.576 16.3834 34.9983 16.3834C43.4206 16.3834 51.35 15.6287 57.3254 14.2587C57.5421 14.209 57.7549 14.1586 57.9646 14.1079C58.0327 14.0913 58.0986 14.0745 58.1658 14.058C58.3057 14.0235 58.4453 13.9889 58.5819 13.9539C58.6617 13.9334 58.7397 13.9126 58.8184 13.892C58.9394 13.8603 59.0604 13.8286 59.1789 13.7963C59.261 13.774 59.3413 13.7514 59.4221 13.729C59.5341 13.6979 59.6458 13.6667 59.7555 13.6352C59.8372 13.6117 59.9176 13.5881 59.9979 13.5644C60.1031 13.5334 60.2077 13.5022 60.3107 13.4709C60.3907 13.4466 60.4698 13.422 60.5486 13.3973C60.6487 13.366 60.7476 13.3346 60.8455 13.3029C60.923 13.2779 61.0003 13.2527 61.0764 13.2274C61.1724 13.1955 61.2668 13.1634 61.3605 13.1312C61.4346 13.1057 61.5088 13.0803 61.5815 13.0546C61.6749 13.0216 61.7661 12.9883 61.8571 12.9549C61.9264 12.9295 61.9964 12.9043 62.0644 12.8786C62.1576 12.8436 62.2481 12.8081 62.3389 12.7727C62.4011 12.7483 62.4646 12.7241 62.5257 12.6997C62.6262 12.6593 62.7235 12.6186 62.8208 12.5777C62.8688 12.5576 62.9183 12.5378 62.9655 12.5176C63.1071 12.4569 63.2453 12.3956 63.38 12.3338C63.4167 12.317 63.4511 12.2999 63.4873 12.2829C63.5851 12.2373 63.6824 12.1915 63.7765 12.1451C63.827 12.1203 63.8751 12.0951 63.9246 12.0699C64.0014 12.031 64.0785 11.992 64.1528 11.9528C64.204 11.9256 64.2534 11.8981 64.3034 11.8706C64.3723 11.8329 64.4412 11.7951 64.5078 11.757C64.5576 11.7286 64.6057 11.6998 64.6541 11.6711C64.7177 11.6334 64.7808 11.5957 64.8421 11.5577C64.8891 11.5285 64.9349 11.4991 64.9806 11.4699C65.0401 11.4316 65.0986 11.3932 65.1557 11.3546C65.1777 11.3397 65.2015 11.3251 65.2233 11.3102V26.0639H65.2234C65.2234 26.8628 63.4634 28.6184 56.8669 30.1309Z" fill="url(#paint2_linear)"/>
<path d="M56.8066 19.7571C55.2469 18.1978 52.7096 18.1978 51.15 19.7571C49.5906 21.3167 49.5906 23.854 51.15 25.4136C51.9297 26.1931 52.954 26.5832 53.9783 26.5832C55.0026 26.5832 56.0268 26.1933 56.8066 25.4136C58.366 23.854 58.366 21.3167 56.8066 19.7571ZM55.3555 23.9626C54.9877 24.3305 54.4985 24.5331 53.9783 24.5331C53.4581 24.5331 52.9689 24.3305 52.6012 23.9626C52.2332 23.5948 52.0306 23.1056 52.0306 22.5854C52.0306 22.0652 52.2332 21.576 52.6012 21.2082C52.9689 20.8403 53.4581 20.6377 53.9783 20.6377C54.4985 20.6377 54.9877 20.8403 55.3555 21.2082C55.7234 21.576 55.926 22.0652 55.926 22.5854C55.926 23.1056 55.7234 23.5948 55.3555 23.9626Z" fill="url(#paint3_linear)"/>
<path d="M56.8066 37.3943C55.2469 35.835 52.7096 35.835 51.15 37.3943C49.5906 38.9539 49.5906 41.4912 51.15 43.0508C51.9297 43.8304 52.954 44.2204 53.9783 44.2204C55.0026 44.2204 56.0268 43.8305 56.8066 43.0508C58.366 41.4912 58.366 38.9539 56.8066 37.3943ZM55.3555 41.5998C54.9877 41.9677 54.4985 42.1703 53.9783 42.1703C53.4581 42.1703 52.9689 41.9677 52.6012 41.5998C52.2332 41.232 52.0306 40.7428 52.0306 40.2226C52.0306 39.7024 52.2332 39.2132 52.6012 38.8454C52.9689 38.4775 53.4581 38.2749 53.9783 38.2749C54.4985 38.2749 54.9877 38.4775 55.3555 38.8454C55.7234 39.2132 55.926 39.7024 55.926 40.2226C55.926 40.7428 55.7234 41.232 55.3555 41.5998Z" fill="url(#paint4_linear)"/>
<path d="M56.8066 55.0581C55.2469 53.4989 52.7096 53.4989 51.15 55.0581C49.5906 56.6177 49.5906 59.1551 51.15 60.7146C51.9297 61.4942 52.954 61.8842 53.9783 61.8842C55.0026 61.8842 56.0268 61.4943 56.8066 60.7146C58.366 59.1551 58.366 56.6177 56.8066 55.0581ZM55.3555 59.2636C54.9877 59.6315 54.4985 59.8341 53.9783 59.8341C53.4581 59.8341 52.9689 59.6315 52.6012 59.2636C52.2332 58.8958 52.0306 58.4067 52.0306 57.8864C52.0306 57.3662 52.2332 56.877 52.6012 56.5093C52.9689 56.1414 53.4581 55.9387 53.9783 55.9387C54.4985 55.9387 54.9877 56.1414 55.3555 56.5093C55.7234 56.877 55.926 57.3662 55.926 57.8864C55.926 58.4065 55.7234 58.8958 55.3555 59.2636Z" fill="url(#paint5_linear)"/>
<path d="M46.2893 59.4116C46.2439 58.8471 45.7478 58.424 45.1844 58.4714C43.7495 58.5868 42.2669 58.6783 40.7778 58.7429C40.2118 58.7677 39.7728 59.2465 39.7974 59.8126C39.8214 60.3636 40.2755 60.794 40.8217 60.794C40.8367 60.794 40.8519 60.7937 40.8671 60.793C42.3814 60.7271 43.8891 60.6342 45.349 60.5166C45.9138 60.4712 46.3349 59.9764 46.2893 59.4116Z" fill="url(#paint6_linear)"/>
<path d="M35.3181 58.867C35.3173 58.867 35.3164 58.867 35.3155 58.867L34.9989 58.8673C26.6671 58.8673 18.8947 58.12 13.1132 56.763C12.5628 56.6341 12.0095 56.9758 11.8799 57.5274C11.7504 58.0792 12.0928 58.6313 12.6443 58.7608C18.5749 60.1527 26.5139 60.9191 34.9989 60.9191L35.3206 60.9189C35.8873 60.9174 36.3454 60.4569 36.3441 59.8903C36.3424 59.3246 35.8835 58.867 35.3181 58.867Z" fill="url(#paint7_linear)"/>
<defs>
<linearGradient id="paint0_linear" x1="11.8516" y1="25.4198" x2="46.2914" y2="25.4198" gradientUnits="userSpaceOnUse">
<stop stop-color="#76C5FF"/>
<stop offset="1" stop-color="#1F83CB"/>
</linearGradient>
<linearGradient id="paint1_linear" x1="11.8516" y1="43.0036" x2="46.2914" y2="43.0036" gradientUnits="userSpaceOnUse">
<stop stop-color="#76C5FF"/>
<stop offset="1" stop-color="#1F83CB"/>
</linearGradient>
<linearGradient id="paint2_linear" x1="2.7212" y1="69.9999" x2="67.278" y2="69.9999" gradientUnits="userSpaceOnUse">
<stop stop-color="#76C5FF"/>
<stop offset="1" stop-color="#1F83CB"/>
</linearGradient>
<linearGradient id="paint3_linear" x1="49.9805" y1="26.5832" x2="57.9762" y2="26.5832" gradientUnits="userSpaceOnUse">
<stop stop-color="#76C5FF"/>
<stop offset="1" stop-color="#1F83CB"/>
</linearGradient>
<linearGradient id="paint4_linear" x1="49.9805" y1="44.2204" x2="57.9762" y2="44.2204" gradientUnits="userSpaceOnUse">
<stop stop-color="#76C5FF"/>
<stop offset="1" stop-color="#1F83CB"/>
</linearGradient>
<linearGradient id="paint5_linear" x1="49.9805" y1="61.8842" x2="57.9762" y2="61.8842" gradientUnits="userSpaceOnUse">
<stop stop-color="#76C5FF"/>
<stop offset="1" stop-color="#1F83CB"/>
</linearGradient>
<linearGradient id="paint6_linear" x1="39.7964" y1="60.794" x2="46.2927" y2="60.794" gradientUnits="userSpaceOnUse">
<stop stop-color="#76C5FF"/>
<stop offset="1" stop-color="#1F83CB"/>
</linearGradient>
<linearGradient id="paint7_linear" x1="11.8525" y1="60.9191" x2="36.3441" y2="60.9191" gradientUnits="userSpaceOnUse">
<stop stop-color="#76C5FF"/>
<stop offset="1" stop-color="#1F83CB"/>
</linearGradient>
</defs>
</svg>
