<svg width="70" height="70" viewBox="0 0 70 70" fill="none" xmlns="http://www.w3.org/2000/svg">
<path d="M19.2939 15.6572C18.7275 15.6572 18.2686 16.1163 18.2686 16.6826V20.7813C18.2686 21.3476 18.7275 21.8067 19.2939 21.8067H23.3955C23.9619 21.8067 24.4209 21.3476 24.4209 20.7813V16.6826C24.4209 16.1163 23.9619 15.6572 23.3955 15.6572H19.2939ZM22.3701 19.7559H20.3193V17.708H22.3701V19.7559Z" fill="url(#paint0_linear)"/>
<path d="M26.4717 16.6826V20.7813C26.4717 21.3476 26.9306 21.8067 27.4971 21.8067H31.5986C32.1651 21.8067 32.624 21.3476 32.624 20.7813V16.6826C32.624 16.1163 32.1651 15.6572 31.5986 15.6572H27.4971C26.9306 15.6572 26.4717 16.1162 26.4717 16.6826ZM28.5225 17.708H30.5732V19.7559H28.5225V17.708Z" fill="url(#paint1_linear)"/>
<path d="M19.2939 38.0064H23.3955C23.9619 38.0064 24.4209 37.5473 24.4209 36.981V32.8823C24.4209 32.316 23.9619 31.8569 23.3955 31.8569H19.2939C18.7275 31.8569 18.2686 32.316 18.2686 32.8823V36.981C18.2686 37.5473 18.7275 38.0064 19.2939 38.0064ZM20.3193 33.9077H22.3701V35.9556H20.3193V33.9077Z" fill="url(#paint2_linear)"/>
<path d="M27.4971 38.0064H31.5986C32.1651 38.0064 32.624 37.5473 32.624 36.981V32.8823C32.624 32.316 32.1651 31.8569 31.5986 31.8569H27.4971C26.9306 31.8569 26.4717 32.316 26.4717 32.8823V36.981C26.4717 37.5473 26.9306 38.0064 27.4971 38.0064ZM28.5225 33.9077H30.5732V35.9556H28.5225V33.9077Z" fill="url(#paint3_linear)"/>
<path d="M19.2939 54.2064H23.3955C23.9619 54.2064 24.4209 53.7473 24.4209 53.181V49.0823C24.4209 48.516 23.9619 48.0569 23.3955 48.0569H19.2939C18.7275 48.0569 18.2686 48.516 18.2686 49.0823V53.181C18.2686 53.7473 18.7275 54.2064 19.2939 54.2064ZM20.3193 50.1077H22.3701V52.1556H20.3193V50.1077Z" fill="url(#paint4_linear)"/>
<path d="M27.4971 54.2064H31.5986C32.1651 54.2064 32.624 53.7473 32.624 53.181V49.0823C32.624 48.516 32.1651 48.0569 31.5986 48.0569H27.4971C26.9306 48.0569 26.4717 48.516 26.4717 49.0823V53.181C26.4717 53.7473 26.9306 54.2064 27.4971 54.2064ZM28.5225 50.1077H30.5732V52.1556H28.5225V50.1077Z" fill="url(#paint5_linear)"/>
<path d="M68.9746 0H64.873C64.3066 0 63.8477 0.459102 63.8477 1.02539V2.04723H49.5037C49.2185 2.04723 48.9527 2.16535 48.7628 2.36387L45.8797 5.24234C45.687 5.43471 45.5788 5.6957 45.5788 5.96791L45.5785 11.656H36.0254V6.1451H37.0508C37.6172 6.1451 38.0762 5.686 38.0762 5.11971V1.02539C38.0762 0.459102 37.6172 0 37.0508 0H32.9492C32.3828 0 31.9238 0.459102 31.9238 1.02539V5.11971C31.9238 5.686 32.3828 6.1451 32.9492 6.1451H33.9746V11.656H31.7543C31.1879 11.656 30.7289 12.1151 30.7289 12.6813C30.7289 13.2476 31.1879 13.7067 31.7543 13.7067H53.7988V23.7571H16.2012V13.7067H27.0257C27.5922 13.7067 28.0511 13.2476 28.0511 12.6813C28.0511 12.1151 27.5922 11.656 27.0257 11.656H24.4215L24.4212 5.96791C24.4212 5.6957 24.313 5.43471 24.1203 5.24234L21.2412 2.36783C21.051 2.16699 20.7834 2.04723 20.4963 2.04723H6.15234V1.02539C6.15234 0.459102 5.69338 0 5.12695 0H1.02539C0.458965 0 0 0.459102 0 1.02539V5.11971C0 5.686 0.458965 6.1451 1.02539 6.1451H5.12695C5.69338 6.1451 6.15234 5.686 6.15234 5.11971V4.09787H20.0715L22.3705 6.39311L22.3707 11.6558H15.1758C14.6094 11.6558 14.1504 12.1149 14.1504 12.6812V24.7823C14.1504 25.3486 14.6094 25.8077 15.1758 25.8077H16.8848V27.8556H15.1758C14.6094 27.8556 14.1504 28.3147 14.1504 28.881V40.9821C14.1504 41.5484 14.6094 42.0075 15.1758 42.0075H16.8848V44.0554H15.1758C14.6094 44.0554 14.1504 44.5145 14.1504 45.0808V57.1819C14.1504 57.7482 14.6094 58.2073 15.1758 58.2073H22.3707L22.3705 63.6066L20.0715 65.9019H6.15234V64.88C6.15234 64.3137 5.69338 63.8546 5.12695 63.8546H1.02539C0.458965 63.8546 0 64.3137 0 64.88V68.9746C0 69.5409 0.458965 70 1.02539 70H5.12695C5.69338 70 6.15234 69.5409 6.15234 68.9746V67.9528H20.4963C20.7815 67.9528 21.0473 67.8345 21.2372 67.6361L24.1203 64.7577C24.313 64.5653 24.4212 64.3043 24.4212 64.0321L24.4215 58.2075H33.9746V63.8549H32.9492C32.3828 63.8549 31.9238 64.314 31.9238 64.8803V68.9746C31.9238 69.5409 32.3828 70 32.9492 70H37.0508C37.6172 70 38.0762 69.5409 38.0762 68.9746V64.8803C38.0762 64.314 37.6172 63.8549 37.0508 63.8549H36.0254V58.2075H45.5785L45.5788 64.0321C45.5788 64.3043 45.687 64.5653 45.8797 64.7577L48.7588 67.6322C48.949 67.833 49.2166 67.9528 49.5037 67.9528H63.8477V68.9746C63.8477 69.5409 64.3066 70 64.873 70H68.9746C69.541 70 70 69.5409 70 68.9746V64.8803C70 64.314 69.541 63.8549 68.9746 63.8549H64.873C64.3066 63.8549 63.8477 64.314 63.8477 64.8803V65.9021H49.9285L47.6295 63.6069L47.6293 58.2076H54.8242C55.3906 58.2076 55.8496 57.7485 55.8496 57.1822V45.0811C55.8496 44.5148 55.3906 44.0557 54.8242 44.0557H53.1152V42.0078H54.8242C55.3906 42.0078 55.8496 41.5487 55.8496 40.9824V28.8813C55.8496 28.315 55.3906 27.8559 54.8242 27.8559H53.1152V25.808H54.8242C55.3906 25.808 55.8496 25.3489 55.8496 24.7826V12.6813C55.8496 12.1151 55.3906 11.656 54.8242 11.656H47.6293L47.6295 6.39324L49.9285 4.09801H63.8477V5.11984C63.8477 5.68613 64.3066 6.14523 64.873 6.14523H68.9746C69.541 6.14523 70 5.68613 70 5.11984V1.02539C70 0.459102 69.541 0 68.9746 0V0ZM33.9746 2.05078H36.0254V4.09432H33.9746V2.05078ZM4.10156 4.09432H2.05078V2.05078H4.10156V4.09432ZM4.10156 67.9492H2.05078V65.9057H4.10156V67.9492ZM65.8984 65.9057H67.9492V67.9492H65.8984V65.9057ZM18.9355 25.8079H51.0645V27.8558H18.9355V25.8079ZM36.0254 67.9492H33.9746V65.9057H36.0254V67.9492ZM53.7988 46.1063V56.1567H16.2012V46.1063H53.7988ZM53.7988 29.9065V39.9569H45.5101C44.9437 39.9569 44.4847 40.416 44.4847 40.9823C44.4847 41.5486 44.9437 42.0077 45.5101 42.0077H51.0645V44.0556H18.9355V42.0077H40.6902C41.2567 42.0077 41.7156 41.5486 41.7156 40.9823C41.7156 40.416 41.2567 39.9569 40.6902 39.9569H16.2012V29.9065H53.7988ZM67.9492 4.09432H65.8984V2.05078H67.9492V4.09432Z" fill="url(#paint6_linear)"/>
<path d="M37.1362 52.157C37.7025 52.157 38.1616 51.6979 38.1616 51.1315C38.1616 50.5651 37.7025 50.106 37.1362 50.106C36.5699 50.106 36.1108 50.5651 36.1108 51.1315C36.1108 51.6979 36.5699 52.157 37.1362 52.157Z" fill="url(#paint7_linear)"/>
<path d="M43.0835 52.157C43.6498 52.157 44.1089 51.6979 44.1089 51.1315C44.1089 50.5651 43.6498 50.106 43.0835 50.106C42.5172 50.106 42.0581 50.5651 42.0581 51.1315C42.0581 51.6979 42.5172 52.157 43.0835 52.157Z" fill="url(#paint8_linear)"/>
<path d="M49.0308 52.157C49.5971 52.157 50.0562 51.6979 50.0562 51.1315C50.0562 50.5651 49.5971 50.106 49.0308 50.106C48.4645 50.106 48.0054 50.5651 48.0054 51.1315C48.0054 51.6979 48.4645 52.157 49.0308 52.157Z" fill="url(#paint9_linear)"/>
<path d="M37.1362 35.9461C37.7025 35.9461 38.1616 35.487 38.1616 34.9205C38.1616 34.3541 37.7025 33.895 37.1362 33.895C36.5699 33.895 36.1108 34.3541 36.1108 34.9205C36.1108 35.487 36.5699 35.9461 37.1362 35.9461Z" fill="url(#paint10_linear)"/>
<path d="M43.0835 35.9461C43.6498 35.9461 44.1089 35.487 44.1089 34.9205C44.1089 34.3541 43.6498 33.895 43.0835 33.895C42.5172 33.895 42.0581 34.3541 42.0581 34.9205C42.0581 35.487 42.5172 35.9461 43.0835 35.9461Z" fill="url(#paint11_linear)"/>
<path d="M49.0308 35.9461C49.5971 35.9461 50.0562 35.487 50.0562 34.9205C50.0562 34.3541 49.5971 33.895 49.0308 33.895C48.4645 33.895 48.0054 34.3541 48.0054 34.9205C48.0054 35.487 48.4645 35.9461 49.0308 35.9461Z" fill="url(#paint12_linear)"/>
<path d="M38.1616 18.7111C38.1616 18.1446 37.7025 17.6855 37.1362 17.6855C36.5699 17.6855 36.1108 18.1446 36.1108 18.7111C36.1108 19.2775 36.5699 19.7366 37.1362 19.7366C37.7025 19.7366 38.1616 19.2774 38.1616 18.7111Z" fill="url(#paint13_linear)"/>
<path d="M44.1089 18.7111C44.1089 18.1446 43.6498 17.6855 43.0835 17.6855C42.5172 17.6855 42.0581 18.1446 42.0581 18.7111C42.0581 19.2775 42.5172 19.7366 43.0835 19.7366C43.6498 19.7366 44.1089 19.2774 44.1089 18.7111Z" fill="url(#paint14_linear)"/>
<path d="M50.0562 18.7111C50.0562 18.1446 49.5971 17.6855 49.0308 17.6855C48.4645 17.6855 48.0054 18.1446 48.0054 18.7111C48.0054 19.2775 48.4645 19.7366 49.0308 19.7366C49.5971 19.7366 50.0562 19.2774 50.0562 18.7111Z" fill="url(#paint15_linear)"/>
<defs>
<linearGradient id="paint0_linear" x1="18.2686" y1="21.8067" x2="24.4209" y2="21.8067" gradientUnits="userSpaceOnUse">
<stop stop-color="#76C5FF"/>
<stop offset="1" stop-color="#1F83CB"/>
</linearGradient>
<linearGradient id="paint1_linear" x1="26.4717" y1="21.8067" x2="32.624" y2="21.8067" gradientUnits="userSpaceOnUse">
<stop stop-color="#76C5FF"/>
<stop offset="1" stop-color="#1F83CB"/>
</linearGradient>
<linearGradient id="paint2_linear" x1="18.2686" y1="38.0064" x2="24.4209" y2="38.0064" gradientUnits="userSpaceOnUse">
<stop stop-color="#76C5FF"/>
<stop offset="1" stop-color="#1F83CB"/>
</linearGradient>
<linearGradient id="paint3_linear" x1="26.4717" y1="38.0064" x2="32.624" y2="38.0064" gradientUnits="userSpaceOnUse">
<stop stop-color="#76C5FF"/>
<stop offset="1" stop-color="#1F83CB"/>
</linearGradient>
<linearGradient id="paint4_linear" x1="18.2686" y1="54.2064" x2="24.4209" y2="54.2064" gradientUnits="userSpaceOnUse">
<stop stop-color="#76C5FF"/>
<stop offset="1" stop-color="#1F83CB"/>
</linearGradient>
<linearGradient id="paint5_linear" x1="26.4717" y1="54.2064" x2="32.624" y2="54.2064" gradientUnits="userSpaceOnUse">
<stop stop-color="#76C5FF"/>
<stop offset="1" stop-color="#1F83CB"/>
</linearGradient>
<linearGradient id="paint6_linear" x1="1.07242e-05" y1="69.9999" x2="70" y2="69.9999" gradientUnits="userSpaceOnUse">
<stop stop-color="#76C5FF"/>
<stop offset="1" stop-color="#1F83CB"/>
</linearGradient>
<linearGradient id="paint7_linear" x1="36.1108" y1="52.157" x2="38.1616" y2="52.157" gradientUnits="userSpaceOnUse">
<stop stop-color="#76C5FF"/>
<stop offset="1" stop-color="#1F83CB"/>
</linearGradient>
<linearGradient id="paint8_linear" x1="42.0581" y1="52.157" x2="44.1089" y2="52.157" gradientUnits="userSpaceOnUse">
<stop stop-color="#76C5FF"/>
<stop offset="1" stop-color="#1F83CB"/>
</linearGradient>
<linearGradient id="paint9_linear" x1="48.0054" y1="52.157" x2="50.0562" y2="52.157" gradientUnits="userSpaceOnUse">
<stop stop-color="#76C5FF"/>
<stop offset="1" stop-color="#1F83CB"/>
</linearGradient>
<linearGradient id="paint10_linear" x1="36.1108" y1="35.9461" x2="38.1616" y2="35.9461" gradientUnits="userSpaceOnUse">
<stop stop-color="#76C5FF"/>
<stop offset="1" stop-color="#1F83CB"/>
</linearGradient>
<linearGradient id="paint11_linear" x1="42.0581" y1="35.9461" x2="44.1089" y2="35.9461" gradientUnits="userSpaceOnUse">
<stop stop-color="#76C5FF"/>
<stop offset="1" stop-color="#1F83CB"/>
</linearGradient>
<linearGradient id="paint12_linear" x1="48.0054" y1="35.9461" x2="50.0562" y2="35.9461" gradientUnits="userSpaceOnUse">
<stop stop-color="#76C5FF"/>
<stop offset="1" stop-color="#1F83CB"/>
</linearGradient>
<linearGradient id="paint13_linear" x1="36.1108" y1="19.7366" x2="38.1616" y2="19.7366" gradientUnits="userSpaceOnUse">
<stop stop-color="#76C5FF"/>
<stop offset="1" stop-color="#1F83CB"/>
</linearGradient>
<linearGradient id="paint14_linear" x1="42.0581" y1="19.7366" x2="44.1089" y2="19.7366" gradientUnits="userSpaceOnUse">
<stop stop-color="#76C5FF"/>
<stop offset="1" stop-color="#1F83CB"/>
</linearGradient>
<linearGradient id="paint15_linear" x1="48.0054" y1="19.7366" x2="50.0562" y2="19.7366" gradientUnits="userSpaceOnUse">
<stop stop-color="#76C5FF"/>
<stop offset="1" stop-color="#1F83CB"/>
</linearGradient>
</defs>
</svg>
