<svg width="70" height="70" viewBox="0 0 70 70" fill="none" xmlns="http://www.w3.org/2000/svg">
<g clip-path="url(#clip0)">
<path d="M48.785 5.73028C45.6599 3.57957 41.9975 2.44263 38.1934 2.44263C31.1353 2.44263 24.7519 6.35098 21.5343 12.6425C21.015 13.6583 20.0815 13.5306 19.1708 13.5306C13.5454 13.5306 8.54157 17.1053 6.71939 22.426C6.55834 22.8964 6.16418 23.2723 5.63837 23.4571C2.12636 24.6915 -0.136862 28.0243 0.00696501 31.7503C0.1821 36.2979 4.03016 39.8536 8.60213 39.8536H11.682V43.5603H8.68293C8.25432 42.2964 7.05736 41.3838 5.6504 41.3838C3.88483 41.3838 2.44833 42.8201 2.44833 44.5857C2.44833 46.3514 3.88483 47.7878 5.6504 47.7878C7.05736 47.7878 8.25446 46.8752 8.68293 45.6111H12.7074C13.2738 45.6111 13.7327 45.152 13.7327 44.5857V39.8536H23.0015V53.5424H16.8541C16.4093 52.0162 14.9986 50.8974 13.3307 50.8974C11.3067 50.8974 9.66019 52.5439 9.66019 54.5678C9.66019 56.5916 11.3067 58.2381 13.3307 58.2381C14.9986 58.2381 16.4093 57.1193 16.8541 55.5931H24.0269C24.5933 55.5931 25.0523 55.134 25.0523 54.5678V39.8536H34.3071V58.9593C32.3959 59.4218 30.9719 61.1457 30.9719 63.1968C30.9719 65.6013 32.928 67.5574 35.3325 67.5574C37.7369 67.5574 39.6931 65.6013 39.6931 63.1968C39.6931 61.1455 38.2691 59.4216 36.3579 58.9593V39.8536H38.5928C39.1592 39.8536 39.6182 39.3945 39.6182 38.8283C39.6182 38.262 39.1592 37.8029 38.5928 37.8029H8.60213C5.12308 37.8029 2.18638 35.0523 2.05609 31.6712C1.94726 28.8497 3.66006 26.3263 6.31854 25.3919C7.44058 24.9975 8.29383 24.1586 8.65969 23.0904C10.1979 18.599 14.4219 15.5813 19.171 15.5813C19.8746 15.5813 22.1994 15.8468 23.3604 13.5762C26.2256 7.97368 31.9092 4.49339 38.1936 4.49339C41.5804 4.49339 44.8408 5.50524 47.6225 7.41956C48.0891 7.74071 48.7274 7.62272 49.0484 7.15624C49.3693 6.68976 49.2514 6.05129 48.785 5.73028ZM5.6504 45.737C5.01548 45.737 4.4991 45.2205 4.4991 44.5857C4.4991 43.9509 5.01548 43.4346 5.6504 43.4346C6.28518 43.4346 6.80156 43.9509 6.80156 44.5857C6.80156 45.2205 6.28504 45.737 5.6504 45.737ZM13.3307 56.1873C12.4376 56.1873 11.711 55.4608 11.711 54.5678C11.711 53.6747 12.4375 52.9482 13.3307 52.9482C14.2236 52.9482 14.9502 53.6747 14.9502 54.5678C14.9502 55.4608 14.2237 56.1873 13.3307 56.1873ZM37.6423 63.197C37.6423 64.4706 36.6062 65.5068 35.3325 65.5068C34.059 65.5068 33.0226 64.4706 33.0226 63.197C33.0226 61.9233 34.0588 60.8871 35.3325 60.8871C36.6062 60.8871 37.6423 61.9233 37.6423 63.197Z" fill="url(#paint0_linear)"/>
<path d="M56.354 37.8029H43.3774C42.811 37.8029 42.3521 38.262 42.3521 38.8283C42.3521 39.3946 42.811 39.8537 43.3774 39.8537H45.6125V54.5678C45.6125 55.134 46.0715 55.5931 46.6379 55.5931H53.8105C54.2554 57.1193 55.666 58.2381 57.3341 58.2381C59.3579 58.2381 61.0044 56.5916 61.0044 54.5678C61.0044 52.5439 59.3579 50.8974 57.3341 50.8974C55.6662 50.8974 54.2554 52.0162 53.8105 53.5424H47.6633V39.8537H56.354C56.5693 39.8537 56.7842 39.848 56.9987 39.8377V44.5857C56.9987 45.152 57.4577 45.6111 58.0241 45.6111H62.0484C62.477 46.8752 63.6741 47.7878 65.0811 47.7878C66.8467 47.7878 68.2831 46.3514 68.2831 44.5857C68.2831 42.8202 66.8467 41.3838 65.0811 41.3838C63.6741 41.3838 62.477 42.2964 62.0484 43.5603H59.0495V39.5808C65.2889 38.3117 70.1245 32.8273 69.9974 26.191C69.8543 18.7152 63.6153 12.7867 56.13 13.0592C55.5154 13.0819 54.9187 12.741 54.6186 12.1921C54.0314 11.1175 53.3339 10.0946 52.545 9.15192C52.1816 8.71743 51.5348 8.66001 51.1007 9.02354C50.6664 9.38694 50.6088 10.0336 50.9724 10.4678C51.675 11.3077 52.2963 12.2185 52.819 13.1754C53.4671 14.3617 54.7347 15.111 56.0751 15.111C56.1179 15.111 56.1609 15.1102 56.204 15.1087C62.5303 14.8798 67.8256 19.8889 67.947 26.2304C68.0697 32.6351 62.677 37.8029 56.354 37.8029ZM57.334 52.9482C58.2269 52.9482 58.9535 53.6747 58.9535 54.5678C58.9535 55.4608 58.227 56.1873 57.334 56.1873C56.4409 56.1873 55.7143 55.4608 55.7143 54.5678C55.7143 53.6747 56.4409 52.9482 57.334 52.9482ZM65.0811 43.4344C65.716 43.4344 66.2324 43.9508 66.2324 44.5856C66.2324 45.2204 65.716 45.7369 65.0811 45.7369C64.4462 45.7369 63.9298 45.2204 63.9298 44.5856C63.9298 43.9508 64.4462 43.4344 65.0811 43.4344Z" fill="url(#paint1_linear)"/>
</g>
<defs>
<linearGradient id="paint0_linear" x1="0.000495823" y1="67.5574" x2="49.2291" y2="67.5574" gradientUnits="userSpaceOnUse">
<stop stop-color="#76C5FF"/>
<stop offset="1" stop-color="#1F83CB"/>
</linearGradient>
<linearGradient id="paint1_linear" x1="42.3521" y1="58.238" x2="69.9999" y2="58.238" gradientUnits="userSpaceOnUse">
<stop stop-color="#76C5FF"/>
<stop offset="1" stop-color="#1F83CB"/>
</linearGradient>
<clipPath id="clip0">
<rect width="70" height="70" fill="white"/>
</clipPath>
</defs>
</svg>
