<svg width="50" height="50" viewBox="0 0 50 50" fill="none" xmlns="http://www.w3.org/2000/svg">
<path d="M12.5 0C10.7812 0 9.375 1.40625 9.375 3.125V46.875C9.375 48.5938 10.7812 50 12.5 50H43.75C45.4688 50 46.875 48.5938 46.875 46.875V12.5L34.375 0H12.5Z" fill="#E2E5E7"/>
<path d="M37.5 12.5H46.875L34.375 0V9.375C34.375 11.0938 35.7812 12.5 37.5 12.5Z" fill="#B0B7BD"/>
<path d="M46.875 21.875L37.5 12.5H46.875V21.875Z" fill="#CAD1D8"/>
<path d="M40.625 40.625C40.625 41.4844 39.9219 42.1875 39.0625 42.1875H4.6875C3.82812 42.1875 3.125 41.4844 3.125 40.625V25C3.125 24.1406 3.82812 23.4375 4.6875 23.4375H39.0625C39.9219 23.4375 40.625 24.1406 40.625 25V40.625Z" fill="#50BEE8"/>
<path d="M9.04023 37.4998C8.62773 37.4998 8.17773 37.2732 8.17773 36.7248V29.6295C8.17773 29.1795 8.62773 28.8545 9.04023 28.8545H11.9012C17.6105 28.8545 17.484 37.4998 12.0121 37.4998H9.04023ZM9.82773 30.3779V35.9748H11.9012C15.2746 35.9748 15.423 30.3779 11.9012 30.3779H9.82773Z" fill="white"/>
<path d="M22.2656 37.6248C19.9547 37.7248 17.5547 36.1873 17.5547 33.1264C17.5547 30.0529 19.9531 28.542 22.2656 28.542C24.4516 28.6529 26.7375 30.1654 26.7375 33.1264C26.7375 36.0889 24.4516 37.6248 22.2656 37.6248ZM22.1281 30.167C20.7281 30.167 19.2047 31.1545 19.2047 33.1279C19.2047 35.0904 20.7297 36.0904 22.1281 36.0904C23.5656 36.0904 25.1016 35.0904 25.1016 33.1279C25.1016 31.1529 23.5656 30.167 22.1281 30.167Z" fill="white"/>
<path d="M28.207 33.1138C28.207 30.7028 29.7195 28.6294 32.593 28.6294C33.6805 28.6294 34.543 28.9544 35.4539 29.7419C35.7914 30.0528 35.8289 30.6028 35.4914 30.9528C35.1539 31.2513 34.6414 31.2153 34.3414 30.9153C33.8305 30.3778 33.3055 30.2294 32.593 30.2294C30.6695 30.2294 29.7461 31.5919 29.7461 33.1153C29.7461 34.6653 30.657 36.0888 32.593 36.0888C33.3055 36.0888 33.968 35.7997 34.543 35.2888C34.9289 34.9888 35.4664 35.1372 35.6914 35.4388C35.8914 35.7138 35.9899 36.1763 35.5539 36.6122C34.6789 37.4263 33.6305 37.5888 32.5914 37.5888C29.5695 37.5888 28.207 35.5247 28.207 33.1138Z" fill="white"/>
<path d="M39.0625 42.1875H9.375V43.75H39.0625C39.9219 43.75 40.625 43.0469 40.625 42.1875V40.625C40.625 41.4844 39.9219 42.1875 39.0625 42.1875Z" fill="#CAD1D8"/>
</svg>
