<svg width="353" height="332" viewBox="0 0 353 332" fill="none" xmlns="http://www.w3.org/2000/svg">
<g clip-path="url(#clip0)">
<path d="M189.471 13.3235C171.948 13.1579 65.8445 11.5183 62.6833 41.0391C59.688 69.3096 100.817 58.9587 101.223 71.504C101.646 84.687 93.8057 88.5044 71.9097 87.668C62.4261 87.3037 32.4818 90.6491 32.0006 109.513C31.5194 128.376 64.965 125.909 63.3056 141.468C62.3514 159.164 36.954 162.998 26.9477 167.685C16.0785 173.357 -3.9258 182.714 0.670787 202.795C6.71937 226.064 45.1349 221.924 59.6051 224.764C69.2629 226.329 99.9953 229.029 95.6227 249.664C93.3245 262.085 68.1013 262.789 72.9302 278.705C77.8089 293.61 121.792 296.517 130.703 296.997C167.683 299.001 248.903 302.264 285.029 287.06C298.304 281.52 310.07 274.846 308.709 254.939C308.045 237.16 298.445 234.56 314.625 220.822C324.847 211.979 344.428 212.691 343.274 186.871C342.669 172.935 306.991 167.155 307.821 152.589C309.066 129.693 352.866 149.136 353.024 108.643C353.123 83.362 273.438 97.5056 274.251 72.506C273.181 62.3538 290.721 58.0478 289.966 46.8357C290.397 28.8416 269.712 15.5344 189.471 13.3235Z" fill="#F3F4F9"/>
<path d="M116.742 136.946V162.806H104.161V192.161H74.8065V162.806H14.6989V144.634L64.3226 69.1504H104.161V136.946H116.742ZM50.3441 136.946H74.8065V97.4568L50.3441 136.946ZM175.416 194.258C164.699 194.258 155.264 191.753 147.11 186.744C139.072 181.736 132.782 174.455 128.239 164.903C123.812 155.351 121.599 143.935 121.599 130.656C121.599 117.376 123.812 105.96 128.239 96.4084C132.782 86.8565 139.072 79.576 147.11 74.567C155.264 69.5581 164.699 67.0536 175.416 67.0536C186.133 67.0536 195.51 69.5581 203.548 74.567C211.702 79.576 217.992 86.8565 222.419 96.4084C226.962 105.96 229.233 117.376 229.233 130.656C229.233 143.935 226.962 155.351 222.419 164.903C217.992 174.455 211.702 181.736 203.548 186.744C195.51 191.753 186.133 194.258 175.416 194.258ZM175.416 166.301C182.522 166.301 187.997 163.389 191.841 157.564C195.801 151.623 197.782 142.654 197.782 130.656C197.782 106.892 190.327 95.0106 175.416 95.0106C171.106 95.0106 167.262 96.2919 163.884 98.8547C160.506 101.301 157.827 105.203 155.846 110.562C153.982 115.804 153.051 122.502 153.051 130.656C153.051 138.577 153.982 145.217 155.846 150.575C157.827 155.817 160.506 159.778 163.884 162.457C167.262 165.02 171.106 166.301 175.416 166.301ZM336.18 136.946V162.806H323.599V192.161H294.244V162.806H234.137V144.634L283.76 69.1504H323.599V136.946H336.18ZM269.782 136.946H294.244V97.4568L269.782 136.946Z" fill="white"/>
<path d="M119.943 196.668C119.849 196.727 119.738 196.756 119.627 196.751H58.6187C58.4812 196.753 58.3468 196.71 58.237 196.627C58.1271 196.545 58.0483 196.428 58.013 196.295C57.3409 193.397 60.7013 191.128 62.9913 192.238C63.1617 191.512 63.5951 190.876 64.208 190.451C64.8208 190.026 65.5697 189.842 66.3101 189.936C65.882 188.645 65.9649 187.239 66.5419 186.008C67.1189 184.776 68.1462 183.811 69.4132 183.311C70.5191 182.78 71.7789 182.662 72.9645 182.978C74.1501 183.294 75.1831 184.023 75.8767 185.033C76.7064 180.545 80.6226 176.67 85.3436 176.347C87.9651 176.135 90.5684 176.932 92.6202 178.574C94.6115 180.231 95.2587 182.069 95.7565 184.305C96.4516 183.242 97.4812 182.441 98.6831 182.027C99.8849 181.613 101.191 181.611 102.394 182.019C105.132 182.847 105.472 185.663 105.348 188.172C107.555 186.342 110.21 185.456 113.089 187.186C115.479 188.619 116.001 190.921 116.093 193.43C118.059 192.262 120.092 193.43 120.241 196.105C120.262 196.218 120.244 196.336 120.19 196.438C120.136 196.54 120.049 196.621 119.943 196.668Z" fill="white"/>
<path d="M290.125 70.4852C290.125 82.1528 321.853 84.3058 323.504 70.4852C325.155 56.6646 290.125 52.9963 290.125 70.4852Z" fill="#F3F4F9"/>
<path d="M33.9688 250.004C33.9688 261.68 73.2306 263.932 74.6245 250.004C76.4084 232.829 33.9688 229.567 33.9688 250.004Z" fill="#F3F4F9"/>
<path d="M262.801 315.844C262.801 329.69 309.364 332.364 311.048 315.844C313.131 295.482 262.801 291.607 262.801 315.844Z" fill="#F3F4F9"/>
<path d="M30.6484 71.3054C30.6484 78.9237 52.2873 80.4142 53.0506 71.3054C54.038 60.0933 30.6484 57.9652 30.6484 71.3054Z" fill="#F3F4F9"/>
<path d="M154.667 207.019C155.314 203.773 150.518 200.8 146.809 201.992C147.407 199.773 146.718 197.753 143.441 196.759C141.983 196.357 140.443 196.357 138.985 196.759C141.574 191.608 139.168 185.745 131.169 184.528C122.474 183.212 112.824 187.476 111.099 194.324C104.021 187.393 89.0366 195.699 93.4672 203.682C90.7292 203.251 87.9165 204.791 87.7505 207.085C87.1794 206.85 86.5462 206.81 85.9502 206.973C85.3543 207.136 84.8294 207.492 84.4581 207.984C84.0867 208.477 83.89 209.079 83.8987 209.696C83.9075 210.312 84.1212 210.909 84.5064 211.391C84.5859 211.481 84.6843 211.553 84.7947 211.602C84.905 211.651 85.0246 211.675 85.1452 211.672H158.989C159.147 211.677 159.302 211.637 159.437 211.557C159.558 211.49 159.65 211.381 159.695 211.25C160.499 208.849 157.405 206.588 154.667 207.019Z" fill="white"/>
<path d="M155.428 261.97C155.71 260.537 153.586 259.221 151.952 259.75C152.217 258.765 151.952 257.871 150.467 257.432C149.82 257.258 149.138 257.258 148.492 257.432C149.637 255.155 148.575 252.563 145.04 252.033C141.19 251.445 136.926 253.333 136.162 256.364C133.034 253.292 126.405 256.968 128.363 260.504C127.152 260.314 125.874 260.993 125.832 262.011C125.58 261.905 125.299 261.887 125.035 261.958C124.77 262.03 124.538 262.188 124.373 262.407C124.209 262.626 124.123 262.894 124.129 263.167C124.135 263.44 124.232 263.704 124.405 263.916C124.44 263.957 124.483 263.989 124.532 264.011C124.581 264.032 124.634 264.042 124.687 264.04H157.32C157.39 264.043 157.459 264.026 157.519 263.99C157.572 263.957 157.613 263.908 157.635 263.849C158.009 262.781 156.64 261.779 155.428 261.97Z" fill="white"/>
<path d="M287.185 129.179C287.258 129.221 287.341 129.241 287.425 129.237H332.802C332.904 129.237 333.003 129.204 333.084 129.143C333.165 129.081 333.223 128.995 333.25 128.897C333.333 128.421 333.287 127.932 333.118 127.479C332.949 127.026 332.663 126.626 332.288 126.319C331.914 126.013 331.464 125.811 330.986 125.735C330.508 125.658 330.018 125.709 329.566 125.883C329.439 125.34 329.114 124.863 328.654 124.546C328.193 124.229 327.631 124.095 327.077 124.169C327.391 123.21 327.326 122.168 326.896 121.256C326.466 120.343 325.702 119.629 324.762 119.259C323.94 118.866 323.004 118.779 322.123 119.015C321.242 119.25 320.474 119.792 319.958 120.542C319.638 118.854 318.78 117.313 317.512 116.15C316.245 114.986 314.635 114.261 312.922 114.083C310.971 113.927 309.033 114.519 307.504 115.739C306.238 116.838 305.41 118.354 305.173 120.012C304.656 119.211 303.884 118.607 302.98 118.297C302.077 117.988 301.096 117.991 300.195 118.306C298.154 118.944 297.896 121.014 297.988 122.886C296.328 121.519 294.378 120.865 292.229 122.149C290.454 123.217 290.072 124.931 289.998 126.794C288.537 125.925 287.019 126.794 286.903 128.781C286.899 128.87 286.925 128.956 286.976 129.028C287.027 129.1 287.1 129.153 287.185 129.179Z" fill="white"/>
<path d="M168.893 47.8214C168.945 47.8355 168.999 47.8355 169.051 47.8214H199.75C199.82 47.822 199.888 47.7996 199.943 47.7577C199.999 47.7157 200.039 47.6566 200.057 47.5895C200.113 47.2677 200.082 46.9369 199.968 46.6309C199.854 46.3249 199.66 46.0545 199.407 45.8474C199.154 45.6404 198.851 45.504 198.528 45.4521C198.205 45.4003 197.873 45.4349 197.568 45.5525C197.481 45.1902 197.265 44.8722 196.959 44.6586C196.653 44.445 196.28 44.3506 195.909 44.3932C196.117 43.7465 196.072 43.0451 195.783 42.4304C195.493 41.8156 194.981 41.3334 194.349 41.0809C193.796 40.8125 193.166 40.7484 192.571 40.9C191.975 41.0516 191.453 41.4091 191.096 41.9089C190.878 40.7686 190.298 39.7285 189.442 38.9426C188.586 38.1567 187.499 37.6666 186.342 37.545C185.024 37.4393 183.716 37.8391 182.683 38.6629C181.823 39.3994 181.262 40.4243 181.107 41.5446C180.756 41.0056 180.234 40.5999 179.625 40.3927C179.015 40.1854 178.354 40.1887 177.746 40.4018C176.369 40.8242 176.195 42.2236 176.261 43.4906C175.763 42.9825 175.108 42.657 174.402 42.5668C173.696 42.4766 172.98 42.6271 172.37 42.9937C171.167 43.7141 170.91 44.8734 170.86 46.1321C169.872 45.5442 168.852 46.1321 168.769 47.4736C168.754 47.5045 168.745 47.5381 168.743 47.5725C168.741 47.6069 168.746 47.6414 168.757 47.6739C168.769 47.7063 168.787 47.7361 168.81 47.7615C168.834 47.7868 168.862 47.8072 168.893 47.8214Z" fill="white"/>
<path d="M241.543 313.393C241.534 313.239 241.469 313.095 241.361 312.985C241.252 312.875 241.108 312.809 240.954 312.797L217.781 313.178C217.624 313.178 217.474 313.24 217.364 313.35C217.253 313.46 217.191 313.61 217.191 313.766C217.374 318.221 216.992 322.817 217.731 327.23C218.419 331.371 222.941 331.66 226.434 331.859C230.915 332.124 237.304 332.282 239.884 329.913C242.863 327.172 241.701 317.757 241.543 313.393Z" fill="#00A0E3"/>
<path d="M221.217 322.121C220.232 322.124 219.274 321.8 218.493 321.2C217.712 320.601 217.153 319.76 216.903 318.809C216.883 318.717 216.899 318.622 216.949 318.543C216.999 318.464 217.077 318.408 217.168 318.386C217.214 318.375 217.262 318.373 217.308 318.381C217.355 318.388 217.399 318.404 217.439 318.429C217.479 318.454 217.514 318.486 217.542 318.524C217.569 318.562 217.589 318.605 217.6 318.651C217.6 318.784 218.429 322.021 222.246 321.334C224.777 320.87 224.968 315.587 224.968 315.538C224.973 315.453 225.007 315.373 225.064 315.312C225.122 315.25 225.199 315.21 225.283 315.198C225.367 315.187 225.452 315.207 225.522 315.255C225.592 315.302 225.643 315.373 225.664 315.455C225.731 315.678 225.806 315.985 225.88 316.324C226.171 317.608 226.619 319.546 227.54 320.349C228.701 321.359 231.365 321.483 232.734 320.879C234.103 320.274 234.849 318.328 234.8 316.523C234.8 316.266 234.741 315.993 234.725 315.695C234.716 315.601 234.745 315.507 234.806 315.434C234.867 315.361 234.954 315.315 235.048 315.306C235.143 315.297 235.237 315.326 235.31 315.387C235.384 315.447 235.43 315.534 235.438 315.629C235.481 315.903 235.506 316.179 235.513 316.457C235.812 318.395 236.949 320.009 238.4 320.44C239.545 320.788 240.666 320.299 241.537 319.065C241.564 319.027 241.599 318.994 241.639 318.969C241.679 318.943 241.723 318.926 241.77 318.918C241.816 318.91 241.864 318.911 241.91 318.921C241.956 318.932 242 318.951 242.039 318.978C242.077 319.005 242.11 319.04 242.136 319.08C242.161 319.12 242.178 319.164 242.186 319.211C242.194 319.257 242.193 319.305 242.183 319.351C242.172 319.397 242.153 319.441 242.126 319.479C241.072 320.953 239.637 321.558 238.193 321.135C237.547 320.906 236.957 320.541 236.464 320.065C235.97 319.59 235.584 319.014 235.331 318.378C235.228 319.052 234.964 319.692 234.561 320.242C234.158 320.793 233.628 321.239 233.016 321.541C231.423 322.245 228.477 322.121 227.075 320.895C226.223 319.967 225.648 318.82 225.416 317.583C225.075 319.355 224.271 321.723 222.337 322.046C221.967 322.103 221.592 322.128 221.217 322.121Z" fill="white"/>
<path d="M228.831 311.24C226.383 311.24 218.045 311.348 217.132 313.219C215.912 315.861 229.47 315.654 232.067 315.562C244.496 315.157 245.981 310.619 228.831 311.24Z" fill="#0079AC"/>
<path d="M228.834 310.768C227.415 310.768 215.559 310.561 216.604 313.774C217.135 315.339 219.658 315.479 220.985 315.67C223.945 316.016 226.925 316.152 229.904 316.076C232.534 316.1 235.16 315.895 237.754 315.463C238.915 315.256 241.429 314.858 241.944 313.517C243.271 310.039 229.78 310.734 228.834 310.768C228.709 310.768 228.588 310.817 228.5 310.906C228.411 310.994 228.361 311.114 228.361 311.24C228.361 311.365 228.411 311.485 228.5 311.573C228.588 311.662 228.709 311.712 228.834 311.712C231.54 311.6 234.25 311.658 236.949 311.885C237.43 311.935 242.143 312.556 240.599 313.542C237.745 315.405 233.182 315.074 229.904 315.107C226.262 315.107 222.362 315.206 218.811 314.279C217.102 313.815 218.255 312.829 219.392 312.498C220.608 312.192 221.849 312 223.101 311.927C225.001 311.745 226.926 311.712 228.834 311.703C228.948 311.688 229.052 311.632 229.127 311.546C229.203 311.46 229.245 311.35 229.245 311.235C229.245 311.121 229.203 311.011 229.127 310.925C229.052 310.838 228.948 310.783 228.834 310.768Z" fill="white"/>
<path d="M241.712 285.006C241.554 294.372 241.222 303.737 241.098 313.103C241.098 313.197 241.135 313.288 241.202 313.355C241.269 313.422 241.36 313.459 241.454 313.459C241.549 313.459 241.64 313.422 241.707 313.355C241.774 313.288 241.811 313.197 241.811 313.103C241.936 303.737 242.276 294.372 242.425 285.006C242.425 284.912 242.388 284.821 242.321 284.755C242.254 284.688 242.163 284.65 242.068 284.65C241.974 284.65 241.883 284.688 241.816 284.755C241.749 284.821 241.712 284.912 241.712 285.006Z" fill="#0079AC"/>
<path d="M215.367 284.857C215.658 294.339 215.782 303.787 216.778 313.227C216.828 313.682 217.541 313.682 217.492 313.227C216.496 303.787 216.371 294.339 216.081 284.857C216.081 284.402 215.351 284.402 215.367 284.857Z" fill="#0079AC"/>
<path d="M228.22 286.439C229.05 295.995 228.021 305.585 228.859 315.141C228.9 315.588 229.614 315.596 229.572 315.141C228.743 305.585 229.738 295.995 228.933 286.439C228.933 285.984 228.187 285.976 228.22 286.439Z" fill="#0079AC"/>
<path d="M278.458 203.432C275.471 195.856 269.953 188.312 261.316 186.755H261.125C261.078 186.751 261.031 186.751 260.984 186.755C254.537 186.101 250.787 192.552 248.538 197.429C244.44 206.306 242.647 216.243 241.071 225.79C237.918 244.563 234.666 265.132 240.183 283.756C240.254 283.982 240.389 284.183 240.571 284.335C240.753 284.487 240.975 284.585 241.21 284.615C241.446 284.646 241.685 284.608 241.9 284.507C242.115 284.406 242.297 284.246 242.423 284.046C248.323 274.995 260.494 271.889 268.277 264.669C276.408 257.125 280.54 246.095 281.86 235.429C283.17 224.49 282.523 213.725 278.458 203.432Z" fill="#57BFEB"/>
<path d="M214.253 233.799C211.391 218.355 204.629 202.92 196.829 189.232C196.723 189.029 196.557 188.865 196.353 188.761C196.15 188.657 195.919 188.619 195.693 188.652C195.501 188.661 195.314 188.712 195.145 188.801C187.304 192.826 183.089 200.535 180.451 208.501C177.613 217.047 176.128 227.464 177.447 236.407C179.156 248 185.744 258.202 194.34 266.118C201.409 272.602 210.212 276.809 216.527 284.228C216.699 284.391 216.914 284.502 217.147 284.547C217.379 284.592 217.62 284.57 217.841 284.483C218.061 284.396 218.252 284.248 218.391 284.056C218.531 283.864 218.612 283.637 218.626 283.4C218.46 266.839 217.273 250.079 214.253 233.799Z" fill="#00A0E3"/>
<path d="M251.552 177.804C244.624 174.028 236.534 173.391 228.876 174.906C228.686 174.935 228.507 175.016 228.361 175.141C228.214 175.265 228.105 175.427 228.046 175.61C223.416 182.234 222.744 191.418 222.064 199.127C220.994 211.25 221.284 223.497 221.823 235.637C222.553 252.008 223.931 268.404 226.022 284.659C226.032 284.978 226.166 285.281 226.395 285.505C226.623 285.729 226.929 285.856 227.25 285.86H241.355C241.569 285.862 241.779 285.808 241.966 285.704C242.152 285.599 242.308 285.447 242.417 285.264C255.435 261.415 259.077 232.73 261.251 206.141C261.749 200.079 262.147 193.993 262.247 187.923C262.28 183.899 254.489 179.402 251.552 177.804Z" fill="#00A0E3"/>
<path d="M232.037 179.609C229.83 166.915 207.378 177.042 201.438 181.381C195.945 185.389 194.451 189.182 194.103 195.31C193.575 205.539 193.997 215.796 195.364 225.948C197.068 239.966 200.77 253.668 206.358 266.64C208.084 270.576 209.978 274.424 212.041 278.183C212.979 279.889 215.053 285.305 217.078 285.851C220.048 286.679 224.138 285.851 227.233 285.851C227.487 285.86 227.737 285.783 227.942 285.633C228.147 285.483 228.294 285.268 228.362 285.023C228.413 284.896 228.447 284.762 228.461 284.626C230.403 261.481 231.938 238.254 232.734 215.067C233.149 203.458 234.045 191.161 232.037 179.609Z" fill="#57BFEB"/>
<path d="M215.045 286.397C224.232 288.029 233.636 288.029 242.823 286.397C245.42 285.942 244.317 282.472 241.728 282.919C233.265 284.418 224.603 284.418 216.14 282.919C213.551 282.439 212.456 285.917 215.045 286.397Z" fill="#0079AC"/>
<path d="M131.134 60.631C131.134 60.5862 131.119 60.5426 131.092 60.5068C131.074 60.4656 131.043 60.4308 131.005 60.4072C130.966 60.3835 130.922 60.3721 130.877 60.3743L120.837 60.5399C120.769 60.5399 120.703 60.567 120.655 60.6151C120.607 60.6632 120.58 60.7285 120.58 60.7966C120.541 62.7319 120.621 64.6677 120.82 66.5931C121.119 68.3735 123.077 68.5143 124.587 68.5971C126.529 68.713 129.292 68.7793 130.395 67.769C131.698 66.6014 131.2 62.5273 131.134 60.631Z" fill="#00A0E3"/>
<path d="M122.331 64.407C121.899 64.4048 121.48 64.2586 121.14 63.9916C120.8 63.7246 120.56 63.352 120.456 62.933C120.448 62.8926 120.456 62.8506 120.477 62.8154C120.499 62.7801 120.533 62.7542 120.572 62.7426C120.592 62.7377 120.612 62.7369 120.632 62.7401C120.652 62.7434 120.671 62.7506 120.688 62.7615C120.706 62.7723 120.72 62.7865 120.732 62.8032C120.743 62.8199 120.751 62.8387 120.755 62.8585C120.871 63.277 121.148 63.6331 121.525 63.8499C121.902 64.0668 122.35 64.1271 122.771 64.0178C123.866 63.8191 123.949 61.5336 123.949 61.5336C123.957 61.499 123.977 61.4682 124.005 61.4462C124.033 61.4241 124.067 61.4121 124.103 61.4121C124.138 61.4121 124.173 61.4241 124.201 61.4462C124.229 61.4682 124.248 61.499 124.256 61.5336C124.256 61.633 124.314 61.7654 124.348 61.9145C124.428 62.5507 124.677 63.1538 125.069 63.6617C125.4 63.8734 125.776 64.004 126.167 64.0428C126.558 64.0817 126.952 64.0277 127.318 63.8853C127.631 63.6875 127.881 63.405 128.04 63.0708C128.199 62.7366 128.259 62.3644 128.214 61.9973C128.214 61.8897 128.214 61.7737 128.214 61.6578C128.212 61.6174 128.225 61.5776 128.251 61.5468C128.277 61.5159 128.315 61.4964 128.355 61.4922C128.394 61.4896 128.433 61.5018 128.464 61.5263C128.494 61.5508 128.515 61.5859 128.521 61.6247C128.521 61.7406 128.521 61.8565 128.521 61.9725C128.551 62.3467 128.684 62.7053 128.905 63.0091C129.126 63.3129 129.427 63.5502 129.774 63.6949C130.035 63.7604 130.31 63.7374 130.557 63.6295C130.803 63.5215 131.006 63.3347 131.135 63.0986C131.144 63.0774 131.159 63.0585 131.177 63.0435C131.194 63.0284 131.216 63.0175 131.238 63.0116C131.261 63.0057 131.285 63.0049 131.308 63.0093C131.331 63.0137 131.352 63.0232 131.371 63.037C131.39 63.0508 131.406 63.0687 131.417 63.0893C131.428 63.1099 131.434 63.1327 131.435 63.156C131.437 63.1794 131.433 63.2027 131.424 63.2243C131.415 63.2459 131.401 63.2652 131.383 63.2808C131.22 63.5612 130.97 63.7818 130.671 63.91C130.373 64.0382 130.041 64.0673 129.724 63.993C129.444 63.894 129.187 63.7365 128.973 63.5308C128.758 63.3252 128.59 63.0762 128.479 62.8005C128.436 63.0937 128.322 63.3719 128.147 63.6113C127.972 63.8508 127.742 64.0442 127.476 64.1751C127.055 64.3357 126.603 64.394 126.155 64.345C125.708 64.2961 125.279 64.1413 124.903 63.8936C124.543 63.4855 124.299 62.9876 124.198 62.4527C124.057 63.2229 123.709 64.2414 122.871 64.3904C122.692 64.4133 122.511 64.4188 122.331 64.407Z" fill="white"/>
<path d="M125.627 59.7037C124.565 59.7037 120.956 59.7451 120.557 60.5318C120.026 61.6745 125.901 61.5834 127.037 61.5503C132.414 61.4013 133.053 59.4304 125.627 59.7037Z" fill="#0079AC"/>
<path d="M125.624 59.4971C125.01 59.4971 119.858 59.406 120.323 60.7971C120.555 61.4762 121.65 61.5424 122.223 61.6252C123.505 61.781 124.797 61.8419 126.089 61.8074C127.228 61.8145 128.366 61.7259 129.491 61.5424C129.997 61.4513 131.084 61.2774 131.308 60.7143C131.88 59.2072 126.031 59.5053 125.624 59.5219C125.578 59.5314 125.535 59.5568 125.505 59.5938C125.475 59.6307 125.458 59.677 125.458 59.7248C125.458 59.7725 125.475 59.8188 125.505 59.8558C125.535 59.8928 125.578 59.9182 125.624 59.9277C126.797 59.882 127.972 59.9069 129.142 60.0022C129.35 60.0022 131.391 60.3003 130.719 60.7392C129.483 61.5672 127.508 61.3934 126.089 61.4099C124.479 61.5008 122.863 61.3783 121.285 61.0456C120.538 60.8468 121.044 60.4162 121.534 60.2754C122.059 60.1437 122.595 60.0605 123.135 60.027C123.965 59.9442 124.795 59.9359 125.624 59.9277C125.653 59.9277 125.681 59.9221 125.707 59.9113C125.733 59.9005 125.757 59.8846 125.777 59.8646C125.797 59.8446 125.813 59.8209 125.824 59.7947C125.835 59.7686 125.84 59.7406 125.84 59.7124C125.84 59.6841 125.835 59.6561 125.824 59.63C125.813 59.6038 125.797 59.5801 125.777 59.5601C125.757 59.5401 125.733 59.5243 125.707 59.5134C125.681 59.5026 125.653 59.4971 125.624 59.4971Z" fill="white"/>
<path d="M131.207 48.3344C131.133 52.3919 130.992 56.4495 130.934 60.5071C130.942 60.5416 130.961 60.5724 130.989 60.5945C131.017 60.6165 131.052 60.6285 131.087 60.6285C131.123 60.6285 131.157 60.6165 131.185 60.5945C131.213 60.5724 131.232 60.5416 131.241 60.5071C131.299 56.4495 131.448 52.3919 131.514 48.3344C131.506 48.2998 131.487 48.269 131.459 48.2469C131.431 48.2249 131.396 48.2129 131.361 48.2129C131.325 48.2129 131.291 48.2249 131.263 48.2469C131.235 48.269 131.216 48.2998 131.207 48.3344Z" fill="#0079AC"/>
<path d="M119.793 48.2682C119.918 52.4086 119.967 56.4661 120.399 60.5568C120.399 60.7555 120.731 60.7555 120.714 60.5568C120.283 56.4661 120.225 52.3754 120.1 48.2682C120.1 48.0695 119.785 48.0695 119.793 48.2682Z" fill="#0079AC"/>
<path d="M125.36 48.9557C125.708 53.0961 125.277 57.2364 125.634 61.3768C125.634 61.5673 125.966 61.5673 125.949 61.3768C125.584 57.2364 126.015 53.0961 125.675 48.9557C125.675 48.757 125.343 48.757 125.36 48.9557Z" fill="#0079AC"/>
<path d="M147.123 13.0001C145.828 9.68776 143.439 6.44171 139.697 5.77097H139.556C136.76 5.48115 135.133 8.2552 134.154 10.3916C132.387 14.2422 131.607 18.5482 130.91 22.6803C129.541 30.812 128.131 39.722 130.52 47.7875C130.553 47.8851 130.612 47.9715 130.692 48.0369C130.772 48.1022 130.868 48.1437 130.971 48.1567C131.073 48.1697 131.177 48.1536 131.27 48.1102C131.364 48.0669 131.443 47.9981 131.499 47.9117C134.055 43.9866 139.323 42.6451 142.692 39.515C146.218 36.2524 148.01 31.4744 148.583 26.8455C149.282 22.1814 148.779 17.4167 147.123 13.0001Z" fill="#57BFEB"/>
<path d="M119.31 26.1501C118.065 19.4593 115.161 12.7685 111.76 6.83945C111.715 6.75149 111.644 6.68 111.556 6.63533C111.468 6.59066 111.368 6.57514 111.27 6.59102C111.186 6.59462 111.104 6.61727 111.03 6.65727C107.636 8.39623 105.811 11.7416 104.666 15.1864C103.342 19.0708 102.897 23.1998 103.363 27.2763C104.101 32.2945 106.947 36.7247 110.681 40.1529C113.743 42.9601 117.559 44.7818 120.297 47.9948C120.371 48.0676 120.465 48.1173 120.566 48.1376C120.668 48.158 120.773 48.1482 120.87 48.1095C120.966 48.0707 121.049 48.0047 121.108 47.9196C121.167 47.8344 121.199 47.7339 121.202 47.6304C121.19 40.4294 120.558 33.2427 119.31 26.1501Z" fill="#00A0E3"/>
<path d="M135.467 1.89578C132.441 0.34079 128.964 -0.10467 125.643 0.637111C125.559 0.6467 125.479 0.68088 125.414 0.735375C125.349 0.78987 125.302 0.862263 125.278 0.943498C123.27 3.80036 122.98 7.79168 122.689 11.1288C122.305 16.3928 122.269 21.6763 122.581 26.945C122.897 34.0416 123.494 41.1382 124.398 48.1852C124.405 48.3229 124.463 48.4533 124.561 48.55C124.66 48.6468 124.791 48.7028 124.929 48.7068H131.036C131.129 48.7069 131.22 48.6834 131.302 48.6385C131.383 48.5936 131.451 48.5288 131.501 48.4501C137.134 38.1158 138.711 25.6864 139.657 14.1679C139.872 11.5429 140.047 8.90958 140.088 6.2763C140.113 4.52906 136.736 2.58309 135.467 1.89578Z" fill="#00A0E3"/>
<path d="M127.01 2.67448C126.056 -2.82393 116.332 1.56486 113.735 3.44459C111.362 5.17527 110.715 6.82314 110.557 9.48126C110.333 13.9051 110.517 18.3401 111.105 22.7305C111.848 28.7998 113.451 34.7329 115.867 40.3519C116.622 42.0577 117.435 43.7221 118.356 45.3203C118.763 46.0656 119.659 48.409 120.539 48.6326C121.825 48.9804 123.6 48.6326 124.936 48.6326C125.045 48.6387 125.153 48.6076 125.242 48.5444C125.331 48.4812 125.396 48.3896 125.426 48.2848C125.451 48.2297 125.468 48.1711 125.475 48.1109C126.305 38.083 126.977 28.0301 127.326 17.9773C127.483 13.0089 127.881 7.67605 127.01 2.67448Z" fill="#57BFEB"/>
<path d="M119.652 48.9387C123.631 49.6426 127.703 49.6426 131.683 48.9387C132.811 48.7399 132.338 47.2411 131.218 47.4316C127.549 48.0816 123.794 48.0816 120.125 47.4316C119.005 47.2246 118.532 48.7317 119.652 48.9387Z" fill="#0079AC"/>
</g>
<defs>
<clipPath id="clip0">
<rect width="353" height="332" fill="white"/>
</clipPath>
</defs>
</svg>
