<svg width="50" height="50" viewBox="0 0 50 50" fill="none" xmlns="http://www.w3.org/2000/svg">
<path d="M36.857 12.2381L38.8332 8.80059C38.9235 8.64342 38.9477 8.45682 38.9005 8.28181C38.8532 8.10681 38.7384 7.95774 38.5812 7.86738L35.7871 6.2623C35.6299 6.17202 35.4433 6.14789 35.2682 6.19521C35.0932 6.24254 34.9442 6.35744 34.8539 6.51465L32.8809 9.94863C31.1018 9.18127 29.2198 8.6793 27.2949 8.45879V6.36934H28.6816C28.8629 6.36934 29.0368 6.29731 29.165 6.16912C29.2932 6.04092 29.3652 5.86704 29.3652 5.68574V2.46387C29.3653 2.37408 29.3476 2.28517 29.3133 2.20221C29.279 2.11925 29.2286 2.04387 29.1651 1.98038C29.1016 1.91689 29.0263 1.86654 28.9433 1.8322C28.8603 1.79787 28.7714 1.78022 28.6816 1.78027H21.3191C21.2294 1.78022 21.1404 1.79787 21.0575 1.8322C20.9745 1.86654 20.8991 1.91689 20.8357 1.98038C20.7722 2.04387 20.7218 2.11925 20.6875 2.20221C20.6531 2.28517 20.6355 2.37408 20.6355 2.46387V5.68574C20.6355 5.86704 20.7076 6.04092 20.8358 6.16912C20.964 6.29731 21.1378 6.36934 21.3191 6.36934H22.7059V8.45684C20.781 8.67734 18.8989 9.17931 17.1199 9.94668L15.1469 6.5127C15.1022 6.43482 15.0426 6.3665 14.9715 6.31167C14.9004 6.25683 14.8192 6.21654 14.7326 6.1931C14.6459 6.16967 14.5555 6.16354 14.4664 6.17508C14.3774 6.18662 14.2915 6.2156 14.2137 6.26035L11.4195 7.86543C11.2624 7.95579 11.1476 8.10486 11.1003 8.27986C11.0531 8.45486 11.0773 8.64147 11.1676 8.79863L13.1438 12.2381C9.76673 14.7337 7.2633 18.2314 5.99002 22.2328C4.71675 26.2342 4.73856 30.5354 6.05235 34.5237C7.36614 38.512 9.90491 41.984 13.3071 44.4453C16.7092 46.9066 20.8013 48.2316 25.0004 48.2316C29.1995 48.2316 33.2916 46.9066 36.6937 44.4453C40.0959 41.984 42.6346 38.512 43.9484 34.5237C45.2622 30.5354 45.284 26.2342 44.0108 22.2328C42.7375 18.2314 40.2341 14.7337 36.857 12.2381ZM35.6988 7.78496L37.307 8.71113L35.7258 11.4635C35.2049 11.1307 34.6694 10.8218 34.1191 10.5369L35.6988 7.78496ZM22.0027 3.14746H27.998V5.00215H22.0027V3.14746ZM24.073 6.36934H25.9277V8.34473C25.6203 8.33027 25.3129 8.32051 25.0004 8.32051C24.6879 8.32051 24.3805 8.32988 24.073 8.34434V6.36934ZM12.6937 8.71113L14.302 7.7873L15.8816 10.5369C15.3309 10.8213 14.7953 11.1301 14.275 11.4635L12.6937 8.71113ZM25.0004 46.8529C21.3251 46.8529 17.7324 45.7631 14.6765 43.7212C11.6206 41.6793 9.23888 38.7771 7.83243 35.3816C6.42599 31.9861 6.05801 28.2498 6.77505 24.6451C7.49209 21.0405 9.26194 17.7294 11.8608 15.1306C14.4596 12.5318 17.7707 10.7621 21.3754 10.0451C24.98 9.32813 28.7164 9.69618 32.1118 11.1027C35.5073 12.5092 38.4095 14.891 40.4513 17.947C42.4931 21.0029 43.5829 24.5956 43.5828 28.2709C43.5771 33.1975 41.6175 37.9207 38.1338 41.4042C34.6502 44.8878 29.927 46.8474 25.0004 46.8529Z" fill="url(#paint0_linear)"/>
<path d="M38.4416 35.9613C39.7935 33.6086 40.5014 30.9412 40.494 28.2277C40.4866 25.5143 39.7641 22.8507 38.3994 20.5055C38.3903 20.4821 38.3799 20.4592 38.3681 20.4371C38.356 20.4189 38.343 20.4013 38.3291 20.3844C36.9841 18.1217 35.0886 16.2361 32.8189 14.9031C32.8003 14.8877 32.7807 14.8735 32.7603 14.8605C32.7382 14.849 32.7153 14.8389 32.692 14.8301C30.3395 13.4781 27.6721 12.7701 24.9588 12.7774C22.2455 12.7847 19.582 13.5072 17.2369 14.8719C17.2131 14.8813 17.1899 14.8919 17.1674 14.9039C17.1494 14.916 17.132 14.9291 17.1154 14.943C14.8524 16.2879 12.9665 18.1834 11.633 20.4531C11.6006 20.49 11.5759 20.5331 11.5603 20.5797C10.2084 22.9323 9.50046 25.5997 9.50787 28.3131C9.51528 31.0265 10.2378 33.6899 11.6025 36.0351C11.6116 36.0586 11.6221 36.0816 11.6338 36.1039C11.6424 36.1187 11.6553 36.1297 11.6646 36.143C13.0098 38.411 14.9078 40.3011 17.1814 41.6367C17.2005 41.6522 17.2205 41.6667 17.2412 41.6801C17.2584 41.6898 17.2771 41.6937 17.2947 41.7023C19.6515 43.0598 22.325 43.7706 25.0448 43.7628C27.7645 43.7551 30.434 43.029 32.783 41.6582C32.7998 41.65 32.8178 41.6465 32.8342 41.6367C32.8506 41.6269 32.8685 41.6113 32.8861 41.5976C35.1542 40.2498 37.0435 38.3489 38.3775 36.0726C38.3881 36.0574 38.4013 36.0461 38.4107 36.0297C38.4225 36.0076 38.4328 35.9848 38.4416 35.9613ZM32.7209 40.091L31.8424 38.5937C31.7507 38.4373 31.6006 38.3237 31.4251 38.2779C31.2497 38.2321 31.0632 38.2579 30.9068 38.3496C30.7504 38.4413 30.6368 38.5914 30.591 38.7668C30.5452 38.9423 30.571 39.1287 30.6627 39.2851L31.5424 40.7859C29.7291 41.739 27.7291 42.2833 25.683 42.3805V40.6363C25.683 40.455 25.611 40.2811 25.4828 40.1529C25.3546 40.0247 25.1807 39.9527 24.9994 39.9527C24.8181 39.9527 24.6442 40.0247 24.516 40.1529C24.3878 40.2811 24.3158 40.455 24.3158 40.6363V42.3805C22.297 42.2836 20.323 41.7514 18.5291 40.8203L19.4002 39.3152C19.4881 39.1585 19.5108 38.9734 19.4633 38.8001C19.4159 38.6267 19.302 38.479 19.1464 38.389C18.9909 38.299 18.8061 38.2739 18.6322 38.319C18.4582 38.3642 18.3091 38.4761 18.217 38.6305L17.347 40.134C15.685 39.0575 14.2659 37.6462 13.1803 35.9902L14.6791 35.1121C14.8347 35.02 14.9474 34.8701 14.9927 34.6951C15.0381 34.5201 15.0122 34.3343 14.9208 34.1783C14.8294 34.0223 14.68 33.9088 14.5052 33.8628C14.3304 33.8167 14.1445 33.8417 13.9881 33.9324L12.4873 34.8121C11.5341 32.9989 10.9897 30.9989 10.8924 28.9527H12.6365C12.8178 28.9527 12.9917 28.8807 13.1199 28.7525C13.2481 28.6243 13.3201 28.4504 13.3201 28.2691C13.3201 28.0878 13.2481 27.9139 13.1199 27.7858C12.9917 27.6576 12.8178 27.5855 12.6365 27.5855H10.8924C10.9887 25.5663 11.5206 23.5918 12.4513 21.7973L13.9568 22.668C14.1134 22.7541 14.2976 22.7755 14.4698 22.7275C14.642 22.6795 14.7885 22.566 14.878 22.4113C14.9675 22.2565 14.9929 22.0729 14.9486 21.8997C14.9043 21.7265 14.794 21.5776 14.6412 21.4848L13.1381 20.6148C14.2144 18.9534 15.6254 17.5348 17.281 16.4496L18.1595 17.9484C18.2516 18.104 18.4015 18.2168 18.5766 18.2621C18.7516 18.3074 18.9374 18.2815 19.0934 18.1902C19.2494 18.0988 19.3628 17.9494 19.4089 17.7745C19.455 17.5997 19.4299 17.4138 19.3392 17.2574L18.4595 15.7566C20.2727 14.8033 22.2727 14.2591 24.3189 14.1621V15.9058C24.3189 16.0871 24.3909 16.261 24.5191 16.3892C24.6473 16.5174 24.8212 16.5894 25.0025 16.5894C25.1838 16.5894 25.3577 16.5174 25.4859 16.3892C25.6141 16.261 25.6861 16.0871 25.6861 15.9058V14.1621C27.7053 14.2584 29.6799 14.79 31.4744 15.7207L30.6017 17.2265C30.5554 17.3043 30.5249 17.3905 30.5121 17.4801C30.4993 17.5697 30.5044 17.661 30.5272 17.7486C30.5499 17.8363 30.5899 17.9185 30.6447 17.9905C30.6995 18.0626 30.768 18.1231 30.8464 18.1684C30.9247 18.2138 31.0113 18.2431 31.1011 18.2547C31.1909 18.2663 31.2821 18.26 31.3694 18.2361C31.4567 18.2122 31.5384 18.1711 31.6098 18.1154C31.6811 18.0596 31.7406 17.9903 31.7849 17.9113L32.6549 16.4062C34.3169 17.4829 35.7361 18.8945 36.8217 20.5508L35.3228 21.4289C35.2449 21.4741 35.1768 21.5341 35.1222 21.6057C35.0676 21.6773 35.0277 21.759 35.0047 21.846C34.9818 21.9331 34.9762 22.0238 34.9885 22.113C35.0007 22.2022 35.0304 22.2881 35.0759 22.3658C35.1214 22.4435 35.1818 22.5114 35.2536 22.5657C35.3254 22.6199 35.4073 22.6595 35.4944 22.682C35.5816 22.7046 35.6723 22.7097 35.7615 22.6971C35.8506 22.6845 35.9364 22.6544 36.0138 22.6086L37.515 21.7289C38.4679 23.5422 39.0122 25.5422 39.1095 27.5883H37.3654C37.1841 27.5883 37.0102 27.6603 36.882 27.7885C36.7538 27.9167 36.6818 28.0906 36.6818 28.2719C36.6818 28.4532 36.7538 28.627 36.882 28.7552C37.0102 28.8834 37.1841 28.9555 37.3654 28.9555H39.1095C39.0129 30.9742 38.4811 32.9481 37.5506 34.7422L36.0455 33.8711C35.8885 33.7803 35.7019 33.7555 35.5267 33.8023C35.3515 33.8491 35.2021 33.9635 35.1113 34.1205C35.0205 34.2774 34.9958 34.464 35.0425 34.6392C35.0893 34.8144 35.2038 34.9639 35.3607 35.0547L36.8638 35.9246C35.7877 37.5864 34.3766 39.0055 32.7209 40.091Z" fill="url(#paint1_linear)"/>
<path d="M35.31 28.2711C35.31 28.0898 35.238 27.9159 35.1098 27.7877C34.9816 27.6595 34.8077 27.5875 34.6264 27.5875H28.0444C27.9139 27.0112 27.6229 26.4836 27.2051 26.0657C26.7873 25.6479 26.2598 25.3568 25.6835 25.2262V18.6445C25.6835 18.4632 25.6114 18.2894 25.4832 18.1612C25.355 18.033 25.1812 17.9609 24.9999 17.9609C24.8186 17.9609 24.6447 18.033 24.5165 18.1612C24.3883 18.2894 24.3163 18.4632 24.3163 18.6445V25.2262C23.7709 25.3483 23.2683 25.6146 22.861 25.9974C22.4537 26.3801 22.1566 26.8651 22.0007 27.4019C21.8449 27.9386 21.836 28.5073 21.9751 29.0487C22.1141 29.59 22.3959 30.0841 22.7911 30.4793C23.1863 30.8745 23.6803 31.1564 24.2217 31.2955C24.763 31.4346 25.3317 31.4258 25.8685 31.27C26.4052 31.1142 26.8903 30.8172 27.2731 30.4099C27.6558 30.0026 27.9222 29.5001 28.0444 28.9547H34.6264C34.8077 28.9546 34.9815 28.8825 35.1097 28.7544C35.2379 28.6262 35.3099 28.4524 35.31 28.2711ZM24.9999 30.0262C24.6526 30.0262 24.3132 29.9233 24.0244 29.7305C23.7357 29.5376 23.5106 29.2635 23.3777 28.9427C23.2448 28.6219 23.21 28.2689 23.2777 27.9283C23.3454 27.5878 23.5126 27.2749 23.7582 27.0294C24.0037 26.7839 24.3165 26.6167 24.6571 26.5489C24.9977 26.4812 25.3507 26.516 25.6714 26.6489C25.9922 26.7819 26.2664 27.0069 26.4593 27.2957C26.6521 27.5844 26.755 27.9239 26.7549 28.2711C26.7542 28.7363 26.5691 29.1823 26.2401 29.5113C25.9111 29.8403 25.4651 30.0254 24.9999 30.0262Z" fill="url(#paint2_linear)"/>
<defs>
<linearGradient id="paint0_linear" x1="5.05079" y1="48.2316" x2="44.95" y2="48.2316" gradientUnits="userSpaceOnUse">
<stop stop-color="#76C5FF"/>
<stop offset="1" stop-color="#1F83CB"/>
</linearGradient>
<linearGradient id="paint1_linear" x1="9.50782" y1="43.7629" x2="40.4941" y2="43.7629" gradientUnits="userSpaceOnUse">
<stop stop-color="#76C5FF"/>
<stop offset="1" stop-color="#1F83CB"/>
</linearGradient>
<linearGradient id="paint2_linear" x1="21.877" y1="31.3937" x2="35.31" y2="31.3937" gradientUnits="userSpaceOnUse">
<stop stop-color="#76C5FF"/>
<stop offset="1" stop-color="#1F83CB"/>
</linearGradient>
</defs>
</svg>
