<svg width="50" height="50" viewBox="0 0 50 50" fill="none" xmlns="http://www.w3.org/2000/svg">
<path d="M43.1511 3.1001C42.4973 3.1001 41.9673 3.63008 41.9673 4.28389C41.9673 4.9377 42.4973 5.46768 43.1511 5.46768C43.8049 5.46768 44.3349 4.9377 44.3349 4.28389C44.3349 3.63008 43.8049 3.1001 43.1511 3.1001Z" fill="url(#paint0_linear)"/>
<path d="M39.2048 3.1001C38.551 3.1001 38.021 3.63008 38.021 4.28389C38.021 4.9377 38.551 5.46768 39.2048 5.46768C39.8586 5.46768 40.3886 4.9377 40.3886 4.28389C40.3886 3.63008 39.8586 3.1001 39.2048 3.1001Z" fill="url(#paint1_linear)"/>
<path d="M35.259 5.46768C35.9128 5.46768 36.4428 4.93768 36.4428 4.28389C36.4428 3.6301 35.9128 3.1001 35.259 3.1001C34.6052 3.1001 34.0752 3.6301 34.0752 4.28389C34.0752 4.93768 34.6052 5.46768 35.259 5.46768Z" fill="url(#paint2_linear)"/>
<path d="M39.8393 29.2417C39.8393 28.8372 39.5114 28.5093 39.1068 28.5093H33.188C32.7834 28.5093 32.4556 28.8372 32.4556 29.2417V35.1606C32.4556 35.5651 32.7834 35.8931 33.188 35.8931H39.1068C39.5114 35.8931 39.8393 35.5651 39.8393 35.1606V29.2417ZM38.3744 34.4282H33.9204V29.9741H38.3744V34.4282Z" fill="url(#paint3_linear)"/>
<path d="M17.5448 29.2417C17.5448 28.8372 17.217 28.5093 16.8124 28.5093H10.8936C10.489 28.5093 10.1611 28.8372 10.1611 29.2417V35.1606C10.1611 35.5651 10.489 35.8931 10.8936 35.8931H16.8124C17.217 35.8931 17.5448 35.5651 17.5448 35.1606V29.2417ZM16.08 34.4282H11.626V29.9741H16.08V34.4282Z" fill="url(#paint4_linear)"/>
<path d="M28.6923 29.2417C28.6923 28.8372 28.3644 28.5093 27.9598 28.5093H22.041C21.6364 28.5093 21.3086 28.8372 21.3086 29.2417V35.1606C21.3086 35.5651 21.6364 35.8931 22.041 35.8931H27.9598C28.3644 35.8931 28.6923 35.5651 28.6923 35.1606V29.2417ZM27.2274 34.4282H22.7734V29.9741H27.2274V34.4282Z" fill="url(#paint5_linear)"/>
<path d="M39.1068 38.0786H33.188C32.7834 38.0786 32.4556 38.4065 32.4556 38.811V44.73C32.4556 45.1345 32.7834 45.4624 33.188 45.4624H39.1068C39.5114 45.4624 39.8393 45.1345 39.8393 44.73V38.811C39.8393 38.4065 39.5114 38.0786 39.1068 38.0786ZM38.3744 43.9976H33.9204V39.5435H38.3744V43.9976Z" fill="url(#paint6_linear)"/>
<path d="M16.8124 38.0786H10.8936C10.489 38.0786 10.1611 38.4065 10.1611 38.811V44.73C10.1611 45.1345 10.489 45.4624 10.8936 45.4624H16.8124C17.217 45.4624 17.5448 45.1345 17.5448 44.73V38.811C17.5448 38.4065 17.217 38.0786 16.8124 38.0786ZM16.08 43.9976H11.626V39.5435H16.08V43.9976Z" fill="url(#paint7_linear)"/>
<path d="M27.9598 38.0786H22.041C21.6364 38.0786 21.3086 38.4065 21.3086 38.811V44.73C21.3086 45.1345 21.6364 45.4624 22.041 45.4624H27.9598C28.3644 45.4624 28.6923 45.1345 28.6923 44.73V38.811C28.6923 38.4065 28.3643 38.0786 27.9598 38.0786ZM27.2274 43.9976H22.7734V39.5435H27.2274V43.9976Z" fill="url(#paint8_linear)"/>
<path d="M47.2946 0H2.70537C1.21367 0 0 1.21367 0 2.70537V35.9238C0 36.3283 0.327832 36.6562 0.732422 36.6562C1.13701 36.6562 1.46484 36.3283 1.46484 35.9238V8.56758H48.5352V14.7373C48.5352 15.1418 48.863 15.4697 49.2676 15.4697C49.6722 15.4697 50 15.1418 50 14.7373V2.70537C50 1.21367 48.7863 0 47.2946 0V0ZM1.46484 2.70537C1.46484 2.02139 2.02129 1.46484 2.70537 1.46484H47.2946C47.9787 1.46484 48.5352 2.02139 48.5352 2.70537V7.10274H1.46484V2.70537Z" fill="url(#paint9_linear)"/>
<path d="M49.2676 17.4229C48.863 17.4229 48.5352 17.7508 48.5352 18.1553V47.2949C48.5352 47.9788 47.9788 48.5352 47.2949 48.5352H2.70508C2.02119 48.5352 1.46484 47.9788 1.46484 47.2949V39.3418C1.46484 38.9373 1.13701 38.6094 0.732422 38.6094C0.327832 38.6094 0 38.9373 0 39.3418V47.2949C0 48.7865 1.21348 50 2.70508 50H47.2949C48.7865 50 50 48.7865 50 47.2949V18.1553C50 17.7508 49.6722 17.4229 49.2676 17.4229Z" fill="url(#paint10_linear)"/>
<path d="M39.9943 21.9839C40.4198 21.9839 40.8206 21.8771 41.1721 21.6894L41.844 22.3613C41.9871 22.5043 42.1746 22.5759 42.362 22.5759C42.5494 22.5759 42.7369 22.5044 42.88 22.3613C43.166 22.0753 43.166 21.6115 42.88 21.3256L42.208 20.6536C42.3957 20.3022 42.5025 19.9014 42.5025 19.4759C42.5025 18.0929 41.3774 16.9678 39.9944 16.9678C38.6114 16.9678 37.4863 18.0929 37.4863 19.4759C37.4863 20.8589 38.6114 21.9839 39.9943 21.9839ZM39.9943 18.4325C40.5696 18.4325 41.0376 18.9005 41.0376 19.4758C41.0376 19.7489 40.9313 19.9972 40.7589 20.1833C40.7488 20.1923 40.7386 20.2008 40.7289 20.2104C40.7192 20.22 40.7107 20.2303 40.7018 20.2403C40.5156 20.4127 40.2675 20.519 39.9943 20.519C39.419 20.519 38.9511 20.0511 38.9511 19.4758C38.9511 18.9005 39.419 18.4325 39.9943 18.4325Z" fill="url(#paint11_linear)"/>
<path d="M46.2508 25.0002V14.5435C46.2508 14.139 45.923 13.811 45.5184 13.811H4.48047C4.07588 13.811 3.74805 14.139 3.74805 14.5435V25.0002C3.74805 25.4047 4.07588 25.7326 4.48047 25.7326H45.5185C45.923 25.7326 46.2508 25.4047 46.2508 25.0002ZM5.21289 15.2759H34.3292V24.2678H5.21289V15.2759ZM44.7859 24.2678H35.794V15.2759H44.7859V24.2678Z" fill="url(#paint12_linear)"/>
<defs>
<linearGradient id="paint0_linear" x1="41.9673" y1="5.46767" x2="44.3349" y2="5.46767" gradientUnits="userSpaceOnUse">
<stop stop-color="#76C5FF"/>
<stop offset="1" stop-color="#1F83CB"/>
</linearGradient>
<linearGradient id="paint1_linear" x1="38.021" y1="5.46767" x2="40.3886" y2="5.46767" gradientUnits="userSpaceOnUse">
<stop stop-color="#76C5FF"/>
<stop offset="1" stop-color="#1F83CB"/>
</linearGradient>
<linearGradient id="paint2_linear" x1="34.0752" y1="5.46767" x2="36.4428" y2="5.46767" gradientUnits="userSpaceOnUse">
<stop stop-color="#76C5FF"/>
<stop offset="1" stop-color="#1F83CB"/>
</linearGradient>
<linearGradient id="paint3_linear" x1="32.4556" y1="35.8931" x2="39.8393" y2="35.8931" gradientUnits="userSpaceOnUse">
<stop stop-color="#76C5FF"/>
<stop offset="1" stop-color="#1F83CB"/>
</linearGradient>
<linearGradient id="paint4_linear" x1="10.1611" y1="35.8931" x2="17.5448" y2="35.8931" gradientUnits="userSpaceOnUse">
<stop stop-color="#76C5FF"/>
<stop offset="1" stop-color="#1F83CB"/>
</linearGradient>
<linearGradient id="paint5_linear" x1="21.3086" y1="35.8931" x2="28.6923" y2="35.8931" gradientUnits="userSpaceOnUse">
<stop stop-color="#76C5FF"/>
<stop offset="1" stop-color="#1F83CB"/>
</linearGradient>
<linearGradient id="paint6_linear" x1="32.4556" y1="45.4624" x2="39.8393" y2="45.4624" gradientUnits="userSpaceOnUse">
<stop stop-color="#76C5FF"/>
<stop offset="1" stop-color="#1F83CB"/>
</linearGradient>
<linearGradient id="paint7_linear" x1="10.1611" y1="45.4624" x2="17.5448" y2="45.4624" gradientUnits="userSpaceOnUse">
<stop stop-color="#76C5FF"/>
<stop offset="1" stop-color="#1F83CB"/>
</linearGradient>
<linearGradient id="paint8_linear" x1="21.3086" y1="45.4624" x2="28.6923" y2="45.4624" gradientUnits="userSpaceOnUse">
<stop stop-color="#76C5FF"/>
<stop offset="1" stop-color="#1F83CB"/>
</linearGradient>
<linearGradient id="paint9_linear" x1="7.66013e-06" y1="36.6562" x2="50" y2="36.6562" gradientUnits="userSpaceOnUse">
<stop stop-color="#76C5FF"/>
<stop offset="1" stop-color="#1F83CB"/>
</linearGradient>
<linearGradient id="paint10_linear" x1="7.66013e-06" y1="50" x2="50" y2="50" gradientUnits="userSpaceOnUse">
<stop stop-color="#76C5FF"/>
<stop offset="1" stop-color="#1F83CB"/>
</linearGradient>
<linearGradient id="paint11_linear" x1="37.4863" y1="22.5759" x2="43.0945" y2="22.5759" gradientUnits="userSpaceOnUse">
<stop stop-color="#76C5FF"/>
<stop offset="1" stop-color="#1F83CB"/>
</linearGradient>
<linearGradient id="paint12_linear" x1="3.74805" y1="25.7326" x2="46.2508" y2="25.7326" gradientUnits="userSpaceOnUse">
<stop stop-color="#76C5FF"/>
<stop offset="1" stop-color="#1F83CB"/>
</linearGradient>
</defs>
</svg>
