<svg width="50" height="50" viewBox="0 0 50 50" fill="none" xmlns="http://www.w3.org/2000/svg">
<g clip-path="url(#clip0)">
<path d="M49.2676 43.8381H46.0858V17.1717C46.0858 15.4729 44.7038 14.0908 43.005 14.0908H33.6114C33.2069 14.0908 32.879 14.4187 32.879 14.8232C32.879 15.2277 33.2069 15.5557 33.6114 15.5557H43.005C43.8961 15.5557 44.621 16.2807 44.621 17.1717V43.8382H42.1141C42.1519 43.5616 42.1717 43.2833 42.1717 43.005C42.1717 39.5796 39.3849 36.7928 35.9595 36.7928C35.4989 36.7928 35.0391 36.8454 34.5857 36.9496C33.7955 35.4269 32.2214 34.4442 30.4798 34.4442C29.9116 34.4442 29.3598 34.5478 28.8402 34.7491C28.6269 32.819 26.986 31.3129 25 31.3129C23.014 31.3129 21.3731 32.819 21.1598 34.7491C20.6402 34.5478 20.0884 34.4442 19.5202 34.4442C17.7786 34.4442 16.2044 35.4269 15.4143 36.9496C14.9608 36.8453 14.5011 36.7928 14.0405 36.7928C10.615 36.7928 7.82832 39.5796 7.82832 43.005C7.82832 43.2834 7.84814 43.5616 7.88594 43.8382H5.379V17.1717C5.379 16.2806 6.10391 15.5557 6.99502 15.5557H16.3889C16.7934 15.5557 17.1213 15.2277 17.1213 14.8232C17.1213 14.4187 16.7934 14.0908 16.3889 14.0908H6.99502C5.29619 14.0908 3.91416 15.4729 3.91416 17.1717V43.8382H0.732422C0.32793 43.8382 0 44.1661 0 44.5706V46.1362C0 47.4034 1.03096 48.4343 2.29805 48.4343H47.702C48.9691 48.4343 50 47.4033 50 46.1362V44.5706C50 44.166 49.6721 43.8381 49.2676 43.8381ZM48.5352 46.1362C48.5352 46.5957 48.1613 46.9694 47.702 46.9694H2.29805C1.83857 46.9694 1.46484 46.5956 1.46484 46.1362V45.303H10.9089C11.3134 45.303 11.6413 44.9751 11.6413 44.5706C11.6413 44.1661 11.3134 43.8382 10.9089 43.8382H9.36807C9.31836 43.5621 9.29307 43.2834 9.29307 43.005C9.29307 40.3873 11.4228 38.2576 14.0404 38.2576C14.5618 38.2576 15.0839 38.3469 15.5922 38.5228C15.7763 38.5866 15.978 38.5744 16.1531 38.4891C16.3281 38.4036 16.4619 38.252 16.525 38.0678C16.9665 36.7767 18.1702 35.9092 19.5203 35.9092C20.2606 35.9092 20.9638 36.1712 21.5538 36.667C21.8029 36.8763 22.1602 36.8962 22.431 36.7158C22.7018 36.5354 22.8211 36.1981 22.724 35.8877C22.6402 35.6195 22.6012 35.3936 22.6012 35.1768C22.6012 33.854 23.6773 32.7779 25 32.7779C26.3227 32.7779 27.3988 33.8541 27.3988 35.1768C27.3988 35.3936 27.3598 35.6195 27.276 35.8877C27.1789 36.1982 27.2983 36.5355 27.569 36.7158C27.8398 36.8961 28.1971 36.8763 28.4462 36.667C29.0362 36.1713 29.7395 35.9092 30.4797 35.9092C31.8298 35.9092 33.0335 36.7767 33.475 38.0678C33.5381 38.252 33.6719 38.4036 33.8469 38.4891C34.022 38.5745 34.2238 38.5867 34.4078 38.5228C34.9161 38.3469 35.4381 38.2576 35.9596 38.2576C38.5773 38.2576 40.7069 40.3873 40.7069 43.005C40.7069 43.2834 40.6815 43.5621 40.6319 43.8382H14.0407C13.6362 43.8382 13.3083 44.1661 13.3083 44.5706C13.3083 44.9751 13.6362 45.303 14.0407 45.303H48.5352V46.1362Z" fill="url(#paint0_linear)"/>
<path d="M15.5881 23.0949C15.1276 23.6474 14.874 24.3479 14.874 25.0672V27.3483C14.874 27.6086 15.0123 27.8495 15.2371 27.9808C15.3512 28.0474 15.4788 28.0807 15.6064 28.0807C15.7306 28.0807 15.8547 28.0493 15.9664 27.9862L21.1822 25.0431C21.381 25.406 21.5917 25.763 21.8143 26.1135L21.1586 28.7363C21.1038 28.9551 21.153 29.1869 21.2918 29.3647C21.4306 29.5425 21.6436 29.6464 21.8691 29.6464H28.1317C28.3573 29.6464 28.5702 29.5425 28.7091 29.3647C28.8479 29.187 28.8971 28.9551 28.8423 28.7363L28.1866 26.1135C28.4092 25.763 28.6199 25.4061 28.8187 25.0431L34.0345 27.9862C34.1463 28.0493 34.2703 28.0807 34.3944 28.0807C34.5221 28.0807 34.6497 28.0473 34.7638 27.9808C34.9886 27.8496 35.1269 27.6087 35.1269 27.3483V25.0672C35.1269 24.3479 34.8732 23.6474 34.4128 23.0949L30.9358 18.9239C31.1189 17.8359 31.2127 16.7266 31.2127 15.6059C31.2127 12.9349 30.6956 10.3531 29.6758 7.93227C28.6922 5.59751 27.2921 3.52622 25.5144 1.77593C25.2293 1.49526 24.7718 1.49526 24.4867 1.77593C22.709 3.52612 21.3089 5.59741 20.3253 7.93227C19.3055 10.3532 18.7884 12.9349 18.7884 15.6059C18.7884 16.7249 18.8818 17.8325 19.0644 18.9188L15.5881 23.0949ZM16.3389 26.094V25.0672C16.3389 24.6899 16.4719 24.3225 16.7134 24.0327L19.4587 20.7383C19.733 21.7645 20.0896 22.7653 20.5267 23.7311L16.3389 26.094ZM22.8071 28.1815L23.2237 26.5151H26.777L27.1936 28.1815H22.8071ZM33.2872 24.0327C33.5287 24.3225 33.6617 24.6899 33.6617 25.0672V26.094L29.4739 23.731C29.9109 22.7652 30.2676 21.7645 30.5419 20.7382L33.2872 24.0327ZM25.0003 3.34839C26.2303 4.67056 27.2447 6.18657 28.0157 7.82808H21.9849C22.7559 6.18657 23.7703 4.67056 25.0003 3.34839ZM21.3745 9.29282H28.626C29.3583 11.2894 29.7476 13.4299 29.7476 15.6058C29.7476 18.9738 28.8415 22.2301 27.1233 25.0501H22.8771C21.159 22.2301 20.2529 18.9738 20.2529 15.6058C20.2529 13.4299 20.6423 11.2895 21.3745 9.29282Z" fill="url(#paint1_linear)"/>
<path d="M28.0816 14.823C28.0816 13.1242 26.6996 11.7422 25.0008 11.7422C23.302 11.7422 21.9199 13.1243 21.9199 14.823C21.9199 16.5218 23.302 17.9039 25.0008 17.9039C26.6996 17.9039 28.0816 16.5219 28.0816 14.823ZM23.3848 14.823C23.3848 13.9319 24.1097 13.207 25.0008 13.207C25.8919 13.207 26.6168 13.932 26.6168 14.823C26.6168 15.7141 25.8919 16.4391 25.0008 16.4391C24.1097 16.4391 23.3848 15.7142 23.3848 14.823Z" fill="url(#paint2_linear)"/>
</g>
<defs>
<linearGradient id="paint0_linear" x1="7.66013e-06" y1="48.4342" x2="50" y2="48.4342" gradientUnits="userSpaceOnUse">
<stop stop-color="#76C5FF"/>
<stop offset="1" stop-color="#1F83CB"/>
</linearGradient>
<linearGradient id="paint1_linear" x1="14.874" y1="29.6464" x2="35.1269" y2="29.6464" gradientUnits="userSpaceOnUse">
<stop stop-color="#76C5FF"/>
<stop offset="1" stop-color="#1F83CB"/>
</linearGradient>
<linearGradient id="paint2_linear" x1="21.9199" y1="17.9039" x2="28.0816" y2="17.9039" gradientUnits="userSpaceOnUse">
<stop stop-color="#76C5FF"/>
<stop offset="1" stop-color="#1F83CB"/>
</linearGradient>
<clipPath id="clip0">
<rect width="50" height="50" fill="white"/>
</clipPath>
</defs>
</svg>
