<svg width="50" height="50" viewBox="0 0 50 50" fill="none" xmlns="http://www.w3.org/2000/svg">
<path d="M47.0703 2.53906H2.92969C1.31426 2.53906 0 3.85332 0 5.46875V44.5312C0 46.1467 1.31426 47.4609 2.92969 47.4609H47.0703C48.6857 47.4609 50 46.1467 50 44.5312V5.46875C50 3.85332 48.6857 2.53906 47.0703 2.53906ZM1.95312 5.46875C1.95312 4.93027 2.39121 4.49219 2.92969 4.49219H47.0703C47.6088 4.49219 48.0469 4.93027 48.0469 5.46875V20.1169H1.95312V5.46875ZM48.0469 44.5312C48.0469 45.0697 47.6088 45.5078 47.0703 45.5078H2.92969C2.39121 45.5078 1.95312 45.0697 1.95312 44.5312V22.07H48.0469V44.5312Z" fill="url(#paint0_linear)"/>
<path d="M6.44531 33.789H6.6624V42.5781C6.6624 43.1174 7.09971 43.5547 7.63896 43.5547C8.17822 43.5547 8.61553 43.1174 8.61553 42.5781V33.789H8.83252C9.90947 33.789 10.7856 32.9128 10.7856 31.8358V27.9296C10.7856 26.8526 9.90947 25.9765 8.83252 25.9765H8.61553V25.9764V25C8.61553 24.4607 8.17822 24.0234 7.63896 24.0234C7.09971 24.0234 6.6624 24.4607 6.6624 25V25.9764V25.9765H6.44531C5.36836 25.9765 4.49219 26.8526 4.49219 27.9296V31.8358C4.49219 32.9128 5.36836 33.789 6.44531 33.789ZM8.83242 27.9296V31.8358H6.44531L6.44512 27.9296H8.83242Z" fill="url(#paint1_linear)"/>
<path d="M15.126 37.6953H15.3431V37.6954V42.5781C15.3431 43.1174 15.7804 43.5547 16.3196 43.5547C16.8589 43.5547 17.2962 43.1174 17.2962 42.5781V37.6954V37.6953H17.5133C18.5901 37.6953 19.4663 36.8191 19.4663 35.7422V31.8359C19.4663 30.759 18.5901 29.8828 17.5133 29.8828H17.2962V25C17.2962 24.4607 16.8589 24.0234 16.3196 24.0234C15.7804 24.0234 15.3431 24.4607 15.3431 25V29.8828H15.126C14.049 29.8828 13.1729 30.759 13.1729 31.8359V35.7422C13.1729 36.8191 14.0489 37.6953 15.126 37.6953ZM17.5131 31.8359L17.5132 35.7422H15.126L15.1258 31.8359H17.5131Z" fill="url(#paint2_linear)"/>
<path d="M23.8061 33.789H24.0232V42.5781C24.0232 43.1174 24.4605 43.5547 24.9998 43.5547C25.5391 43.5547 25.9764 43.1174 25.9764 42.5781V33.789H26.1934C27.2703 33.789 28.1465 32.9128 28.1465 31.8358V27.9296C28.1465 26.8526 27.2703 25.9765 26.1934 25.9765H25.9764V25.9764V25C25.9764 24.4607 25.5391 24.0234 24.9998 24.0234C24.4605 24.0234 24.0232 24.4607 24.0232 25V25.9764V25.9765H23.8061C22.7292 25.9765 21.853 26.8526 21.853 27.9296V31.8358C21.853 32.9128 22.7292 33.789 23.8061 33.789ZM26.1933 27.9296L26.1934 31.8358H23.8062L23.8061 27.9296H26.1933Z" fill="url(#paint3_linear)"/>
<path d="M32.4867 41.6017H32.7038V42.5781C32.7038 43.1174 33.1411 43.5547 33.6804 43.5547C34.2196 43.5547 34.6569 43.1174 34.6569 42.5781V41.6017H34.874C35.951 41.6017 36.8271 40.7256 36.8271 39.6486V35.7424C36.8271 34.6654 35.951 33.7892 34.874 33.7892H34.6569V25C34.6569 24.4607 34.2196 24.0234 33.6804 24.0234C33.1411 24.0234 32.7038 24.4607 32.7038 25V33.7892H32.4867C31.4099 33.7892 30.5337 34.6654 30.5337 35.7424V39.6486C30.5337 40.7256 31.4099 41.6017 32.4867 41.6017ZM32.4867 35.7423L34.8739 35.7424V39.6486H32.4868L32.4865 35.7423H32.4867Z" fill="url(#paint4_linear)"/>
<path d="M41.1681 37.6953H41.3851V37.6954V42.5781C41.3851 43.1174 41.8224 43.5547 42.3616 43.5547C42.9009 43.5547 43.3382 43.1174 43.3382 42.5781V37.6954V37.6953H43.5552C44.6321 37.6953 45.5083 36.8191 45.5083 35.7422V31.8359C45.5083 30.759 44.6321 29.8828 43.5552 29.8828H43.3381V25C43.3381 24.4607 42.9008 24.0234 42.3615 24.0234C41.8223 24.0234 41.385 24.4607 41.385 25V29.8828H41.168C40.091 29.8828 39.2148 30.759 39.2148 31.8359V35.7422C39.2149 36.8191 40.091 37.6953 41.1681 37.6953ZM43.5552 31.8359V35.7422H41.1681L41.1679 31.8359H43.5552Z" fill="url(#paint5_linear)"/>
<path d="M42.5781 6.44531H26.9531C25.3377 6.44531 24.0234 7.75957 24.0234 9.375V15.2339C24.0234 16.8493 25.3377 18.1635 26.9531 18.1635H42.5781C44.1936 18.1635 45.5078 16.8493 45.5078 15.2339V9.375C45.5078 7.75957 44.1936 6.44531 42.5781 6.44531ZM43.5547 15.2339C43.5547 15.7724 43.1166 16.2104 42.5781 16.2104H26.9531C26.4146 16.2104 25.9766 15.7724 25.9766 15.2339V9.375C25.9766 8.83652 26.4146 8.39844 26.9531 8.39844H42.5781C43.1166 8.39844 43.5547 8.83652 43.5547 9.375V15.2339Z" fill="url(#paint6_linear)"/>
<path d="M12.0337 9.61914C12.0337 8.40898 11.0467 7.42188 9.83643 7.42188C8.62627 7.42188 7.63916 8.40898 7.63916 9.61914C7.63916 10.8294 8.62627 11.8164 9.83643 11.8164C11.0467 11.8164 12.0337 10.8293 12.0337 9.61914Z" fill="url(#paint7_linear)"/>
<path d="M20.3345 9.61914C20.3345 8.40898 19.3475 7.42188 18.1372 7.42188C16.927 7.42188 15.9399 8.40898 15.9399 9.61914C15.9399 10.8294 16.9271 11.8164 18.1372 11.8164C19.3474 11.8164 20.3345 10.8293 20.3345 9.61914Z" fill="url(#paint8_linear)"/>
<path d="M8.12783 15.2339H8.12715C7.58789 15.2339 7.15088 15.6712 7.15088 16.2104C7.15088 16.7497 7.58848 17.187 8.12783 17.187C8.66719 17.187 9.10439 16.7497 9.10439 16.2104C9.10439 15.6712 8.66709 15.2339 8.12783 15.2339Z" fill="url(#paint9_linear)"/>
<path d="M12.0341 15.2339H12.0333C11.494 15.2339 11.0571 15.6712 11.0571 16.2104C11.0571 16.7497 11.4947 17.187 12.0341 17.187C12.5734 17.187 13.0106 16.7497 13.0106 16.2104C13.0106 15.6712 12.5733 15.2339 12.0341 15.2339Z" fill="url(#paint10_linear)"/>
<path d="M15.9403 15.2339H15.9396C15.4004 15.2339 14.9634 15.6712 14.9634 16.2104C14.9634 16.7497 15.401 17.187 15.9403 17.187C16.4797 17.187 16.9169 16.7497 16.9169 16.2104C16.9169 15.6712 16.4796 15.2339 15.9403 15.2339Z" fill="url(#paint11_linear)"/>
<path d="M19.8471 15.2339H19.8463C19.307 15.2339 18.8701 15.6712 18.8701 16.2104C18.8701 16.7497 19.3077 17.187 19.8471 17.187C20.3864 17.187 20.8236 16.7497 20.8236 16.2104C20.8236 15.6712 20.3863 15.2339 19.8471 15.2339Z" fill="url(#paint12_linear)"/>
<defs>
<linearGradient id="paint0_linear" x1="7.66013e-06" y1="47.4609" x2="50" y2="47.4609" gradientUnits="userSpaceOnUse">
<stop stop-color="#76C5FF"/>
<stop offset="1" stop-color="#1F83CB"/>
</linearGradient>
<linearGradient id="paint1_linear" x1="4.49219" y1="43.5547" x2="10.7856" y2="43.5547" gradientUnits="userSpaceOnUse">
<stop stop-color="#76C5FF"/>
<stop offset="1" stop-color="#1F83CB"/>
</linearGradient>
<linearGradient id="paint2_linear" x1="13.1729" y1="43.5547" x2="19.4663" y2="43.5547" gradientUnits="userSpaceOnUse">
<stop stop-color="#76C5FF"/>
<stop offset="1" stop-color="#1F83CB"/>
</linearGradient>
<linearGradient id="paint3_linear" x1="21.853" y1="43.5547" x2="28.1465" y2="43.5547" gradientUnits="userSpaceOnUse">
<stop stop-color="#76C5FF"/>
<stop offset="1" stop-color="#1F83CB"/>
</linearGradient>
<linearGradient id="paint4_linear" x1="30.5337" y1="43.5547" x2="36.8271" y2="43.5547" gradientUnits="userSpaceOnUse">
<stop stop-color="#76C5FF"/>
<stop offset="1" stop-color="#1F83CB"/>
</linearGradient>
<linearGradient id="paint5_linear" x1="39.2148" y1="43.5547" x2="45.5083" y2="43.5547" gradientUnits="userSpaceOnUse">
<stop stop-color="#76C5FF"/>
<stop offset="1" stop-color="#1F83CB"/>
</linearGradient>
<linearGradient id="paint6_linear" x1="24.0234" y1="18.1635" x2="45.5078" y2="18.1635" gradientUnits="userSpaceOnUse">
<stop stop-color="#76C5FF"/>
<stop offset="1" stop-color="#1F83CB"/>
</linearGradient>
<linearGradient id="paint7_linear" x1="7.63916" y1="11.8164" x2="12.0337" y2="11.8164" gradientUnits="userSpaceOnUse">
<stop stop-color="#76C5FF"/>
<stop offset="1" stop-color="#1F83CB"/>
</linearGradient>
<linearGradient id="paint8_linear" x1="15.9399" y1="11.8164" x2="20.3345" y2="11.8164" gradientUnits="userSpaceOnUse">
<stop stop-color="#76C5FF"/>
<stop offset="1" stop-color="#1F83CB"/>
</linearGradient>
<linearGradient id="paint9_linear" x1="7.15088" y1="17.187" x2="9.10439" y2="17.187" gradientUnits="userSpaceOnUse">
<stop stop-color="#76C5FF"/>
<stop offset="1" stop-color="#1F83CB"/>
</linearGradient>
<linearGradient id="paint10_linear" x1="11.0571" y1="17.187" x2="13.0106" y2="17.187" gradientUnits="userSpaceOnUse">
<stop stop-color="#76C5FF"/>
<stop offset="1" stop-color="#1F83CB"/>
</linearGradient>
<linearGradient id="paint11_linear" x1="14.9634" y1="17.187" x2="16.9169" y2="17.187" gradientUnits="userSpaceOnUse">
<stop stop-color="#76C5FF"/>
<stop offset="1" stop-color="#1F83CB"/>
</linearGradient>
<linearGradient id="paint12_linear" x1="18.8701" y1="17.187" x2="20.8236" y2="17.187" gradientUnits="userSpaceOnUse">
<stop stop-color="#76C5FF"/>
<stop offset="1" stop-color="#1F83CB"/>
</linearGradient>
</defs>
</svg>
