<svg width="50" height="50" viewBox="0 0 50 50" fill="none" xmlns="http://www.w3.org/2000/svg">
<path d="M3.90625 8.59375H5.46875V10.1562H3.90625V8.59375Z" fill="url(#paint0_linear)"/>
<path d="M7.03125 8.59375H27.3438V10.1562H7.03125V8.59375Z" fill="url(#paint1_linear)"/>
<path d="M8.59375 22.6562H10.1562V24.2188H8.59375V30.4688H10.1562V32.0312H8.59375V38.2812H27.3438V32.0312H25.7812V30.4688H27.3438V24.2188H25.7812V22.6562H27.3438V16.4062H8.59375V22.6562ZM25.7812 36.7188H10.1562V33.5938H25.7812V36.7188ZM24.2188 32.0312H11.7188V30.4688H24.2188V32.0312ZM25.7812 28.9062H10.1562V25.7812H25.7812V28.9062ZM24.2188 24.2188H11.7188V22.6562H24.2188V24.2188ZM10.1562 17.9688H25.7812V21.0938H10.1562V17.9688Z" fill="url(#paint2_linear)"/>
<path d="M49.2188 10.1562V0.78125H41.4062V4.6875H39.0625C36.9086 4.6875 35.1562 6.43984 35.1562 8.59375V24.2188H30.4688V9.375C30.4688 7.22109 28.7164 5.46875 26.5625 5.46875H4.6875C2.53359 5.46875 0.78125 7.22109 0.78125 9.375V39.0625C0.78125 41.2164 2.53359 42.9688 4.6875 42.9688H26.5625C28.7164 42.9688 30.4688 41.2164 30.4688 39.0625V25.7812H35.1562V41.4062C35.1562 43.5602 36.9086 45.3125 39.0625 45.3125H41.4062V49.2188H49.2188V39.8438H41.4062V43.75H39.0625C37.7703 43.75 36.7188 42.6984 36.7188 41.4062V32.8125H41.4062V36.7188H49.2188V27.3438H41.4062V31.25H36.7188V17.9688H41.4062V22.6562H49.2188V13.2812H41.4062V16.4062H36.7188V8.59375C36.7188 7.30156 37.7703 6.25 39.0625 6.25H41.4062V10.1562H49.2188ZM2.34375 39.0625V12.4984C2.99688 12.9891 3.80859 13.2812 4.6875 13.2812H5.46875V41.4062H4.6875C3.39531 41.4062 2.34375 40.3547 2.34375 39.0625ZM28.9062 39.0625C28.9062 40.3547 27.8547 41.4062 26.5625 41.4062H7.03125V13.2812H26.5625C27.8547 13.2812 28.9062 14.3328 28.9062 15.625V39.0625ZM28.9062 12.5016C28.2531 12.0109 27.4414 11.7188 26.5625 11.7188H4.6875C3.39531 11.7188 2.34375 10.6672 2.34375 9.375C2.34375 8.08281 3.39531 7.03125 4.6875 7.03125H26.5625C27.8547 7.03125 28.9062 8.08281 28.9062 9.375V12.5016ZM42.9688 41.4062H47.6562V47.6562H42.9688V41.4062ZM42.9688 28.9062H47.6562V35.1562H42.9688V28.9062ZM42.9688 14.8438H47.6562V21.0938H42.9688V14.8438ZM42.9688 2.34375H47.6562V8.59375H42.9688V2.34375Z" fill="url(#paint3_linear)"/>
<defs>
<linearGradient id="paint0_linear" x1="3.90625" y1="10.1562" x2="5.46875" y2="10.1562" gradientUnits="userSpaceOnUse">
<stop stop-color="#76C5FF"/>
<stop offset="1" stop-color="#1F83CB"/>
</linearGradient>
<linearGradient id="paint1_linear" x1="7.03125" y1="10.1562" x2="27.3438" y2="10.1563" gradientUnits="userSpaceOnUse">
<stop stop-color="#76C5FF"/>
<stop offset="1" stop-color="#1F83CB"/>
</linearGradient>
<linearGradient id="paint2_linear" x1="8.59375" y1="38.2812" x2="27.3438" y2="38.2812" gradientUnits="userSpaceOnUse">
<stop stop-color="#76C5FF"/>
<stop offset="1" stop-color="#1F83CB"/>
</linearGradient>
<linearGradient id="paint3_linear" x1="0.781257" y1="49.2187" x2="49.2188" y2="49.2187" gradientUnits="userSpaceOnUse">
<stop stop-color="#76C5FF"/>
<stop offset="1" stop-color="#1F83CB"/>
</linearGradient>
</defs>
</svg>
