<svg width="50" height="50" viewBox="0 0 50 50" fill="none" xmlns="http://www.w3.org/2000/svg">
<g clip-path="url(#clip0)">
<path d="M49.9681 42.01C49.8746 41.7011 49.5899 41.4898 49.2671 41.4898H46.8683V15.6062C46.8683 13.9074 45.4863 12.5254 43.7875 12.5254H35.1762C34.7717 12.5254 34.4437 12.8533 34.4437 13.2578C34.4437 13.6623 34.7717 13.9902 35.1762 13.9902H43.7875C44.6786 13.9902 45.4035 14.7151 45.4035 15.6062V41.4898H4.59574V15.6062C4.59574 14.7151 5.32064 13.9902 6.21176 13.9902H14.8228C15.2273 13.9902 15.5552 13.6623 15.5552 13.2578C15.5552 12.8533 15.2273 12.5254 14.8228 12.5254H6.21166C4.51283 12.5254 3.1308 13.9074 3.1308 15.6062V41.4898H0.731981C0.409228 41.4898 0.12456 41.7011 0.0310058 42.01C-0.0625487 42.3189 0.0571776 42.6527 0.325732 42.8317L4.03666 45.3056C4.80248 45.8162 5.69369 46.086 6.6141 46.086H43.385C44.3054 46.086 45.1966 45.8162 45.9625 45.3056L49.6734 42.8317C49.9419 42.6527 50.0615 42.3189 49.9681 42.01ZM45.15 44.0868C44.6255 44.4364 44.0153 44.6211 43.385 44.6211H6.6141C5.98383 44.6211 5.37357 44.4364 4.84916 44.0868L3.15092 42.9546H46.8481L45.15 44.0868Z" fill="url(#paint0_linear)"/>
<path d="M12.4749 15.6567H6.99512C6.59062 15.6567 6.2627 15.9847 6.2627 16.3892V39.0911C6.2627 39.4956 6.59062 39.8235 6.99512 39.8235H8.56054C8.96503 39.8235 9.29296 39.4956 9.29296 39.0911C9.29296 38.6866 8.96503 38.3587 8.56054 38.3587H7.72754V17.1216H12.4749C12.8794 17.1216 13.2073 16.7937 13.2073 16.3892C13.2073 15.9847 12.8794 15.6567 12.4749 15.6567Z" fill="url(#paint1_linear)"/>
<path d="M43.0056 15.6567H37.5258C37.1213 15.6567 36.7934 15.9847 36.7934 16.3892C36.7934 16.7937 37.1213 17.1216 37.5258 17.1216H42.2732V38.3587H11.6929C11.2884 38.3587 10.9604 38.6866 10.9604 39.0911C10.9604 39.4956 11.2884 39.8235 11.6929 39.8235H43.0056C43.4101 39.8235 43.738 39.4956 43.738 39.0911V16.3892C43.738 15.9847 43.4101 15.6567 43.0056 15.6567Z" fill="url(#paint2_linear)"/>
<path d="M32.0448 15.6564H21.8177V11.6919C21.8177 9.93749 23.245 8.51015 24.9994 8.51015C26.7538 8.51015 28.1811 9.93749 28.1811 11.6919V12.4747C28.1811 13.3102 28.8608 13.99 29.6964 13.99H31.262C32.0975 13.99 32.7772 13.3102 32.7772 12.4747V11.6919C32.7772 7.40312 29.2881 3.91406 24.9994 3.91406C20.7107 3.91406 17.2216 7.40322 17.2216 11.6919V15.7451C15.8752 16.0747 14.873 17.2908 14.873 18.7373V24.2171C14.873 29.8007 19.4157 34.3433 24.9993 34.3433C30.5829 34.3433 35.1255 29.8006 35.1255 24.2171V18.7373C35.1256 17.0385 33.7436 15.6564 32.0448 15.6564ZM18.6865 11.6918C18.6864 8.21083 21.5184 5.37881 24.9995 5.37881C28.4805 5.37881 31.3125 8.21083 31.3125 11.6918V12.4746C31.3125 12.5024 31.2899 12.5251 31.2621 12.5251H29.6965C29.6686 12.5251 29.6461 12.5024 29.6461 12.4746V11.6918C29.6461 9.12968 27.5616 7.04521 24.9995 7.04521C22.4374 7.04521 20.3529 9.12968 20.3529 11.6918V15.6563H18.6865V11.6918ZM33.6608 24.2171C33.6608 28.993 29.7753 32.8785 24.9994 32.8785C20.2235 32.8785 16.338 28.9929 16.338 24.2171V18.7373C16.338 17.8462 17.0629 17.1213 17.954 17.1213H32.0448C32.9359 17.1213 33.6608 17.8462 33.6608 18.7373V24.2171Z" fill="url(#paint3_linear)"/>
<path d="M25.0002 21.1362C23.7331 21.1362 22.7021 22.1672 22.7021 23.4343C22.7021 24.4454 23.3587 25.3054 24.2678 25.612V27.3484C24.2678 27.7529 24.5957 28.0808 25.0002 28.0808C25.4047 28.0808 25.7326 27.7529 25.7326 27.3484V25.612C26.6416 25.3055 27.2982 24.4454 27.2982 23.4343C27.2982 22.1671 26.2673 21.1362 25.0002 21.1362ZM25.0002 24.2675C24.5408 24.2675 24.167 23.8936 24.167 23.4343C24.167 22.9749 24.5407 22.6011 25.0002 22.6011C25.4597 22.6011 25.8334 22.9749 25.8334 23.4343C25.8334 23.8936 25.4596 24.2675 25.0002 24.2675Z" fill="url(#paint4_linear)"/>
</g>
<defs>
<linearGradient id="paint0_linear" x1="-0.000480621" y1="46.0859" x2="49.9995" y2="46.0859" gradientUnits="userSpaceOnUse">
<stop stop-color="#76C5FF"/>
<stop offset="1" stop-color="#1F83CB"/>
</linearGradient>
<linearGradient id="paint1_linear" x1="6.2627" y1="39.8235" x2="13.2073" y2="39.8235" gradientUnits="userSpaceOnUse">
<stop stop-color="#76C5FF"/>
<stop offset="1" stop-color="#1F83CB"/>
</linearGradient>
<linearGradient id="paint2_linear" x1="10.9605" y1="39.8235" x2="43.738" y2="39.8235" gradientUnits="userSpaceOnUse">
<stop stop-color="#76C5FF"/>
<stop offset="1" stop-color="#1F83CB"/>
</linearGradient>
<linearGradient id="paint3_linear" x1="14.873" y1="34.3433" x2="35.1255" y2="34.3433" gradientUnits="userSpaceOnUse">
<stop stop-color="#76C5FF"/>
<stop offset="1" stop-color="#1F83CB"/>
</linearGradient>
<linearGradient id="paint4_linear" x1="22.7021" y1="28.0808" x2="27.2982" y2="28.0808" gradientUnits="userSpaceOnUse">
<stop stop-color="#76C5FF"/>
<stop offset="1" stop-color="#1F83CB"/>
</linearGradient>
<clipPath id="clip0">
<rect width="50" height="50" fill="white"/>
</clipPath>
</defs>
</svg>
