<svg width="50" height="50" viewBox="0 0 50 50" fill="none" xmlns="http://www.w3.org/2000/svg">
<g clip-path="url(#clip0)">
<path d="M39.8484 33.2541V29.7734C39.8484 29.3687 39.5203 29.0406 39.1156 29.0406C38.711 29.0406 38.3828 29.3687 38.3828 29.7734V33.2541C38.3828 33.3887 38.2733 33.4983 38.1386 33.4983H28.3952C28.0958 30.0787 30.0766 26.7457 33.3928 25.4655C34.0534 25.2105 34.4054 24.4801 34.1941 23.8027L33.2436 20.7531C33.1339 20.4014 32.8815 20.1063 32.5511 19.9432C32.2193 19.7795 31.8294 19.7588 31.4814 19.8867C28.1683 21.1031 25.4768 23.523 23.9025 26.7006C22.3228 29.8893 22.0347 33.5123 23.0912 36.902C24.2388 40.5836 26.8713 43.598 30.3559 45.2448C30.2645 45.6054 30.3565 45.9849 30.6127 46.2689C30.9106 46.6006 31.3654 46.7198 31.7812 46.5887L36.1763 45.2188C36.4908 45.1208 36.7454 44.8909 36.875 44.588C37.0046 44.2852 36.995 43.9422 36.8487 43.647L34.8044 39.522C34.6074 39.1246 34.2099 38.8861 33.7662 38.8978C33.3228 38.9102 32.939 39.1712 32.7645 39.5791L32.6637 39.8146C30.7749 38.8533 29.3516 37.1781 28.7188 35.1478C28.6997 35.0867 28.6838 35.0252 28.6663 34.964H38.1384C39.0814 34.964 39.8484 34.1969 39.8484 33.2541ZM32.577 41.3909C33.0464 41.5912 33.592 41.3713 33.7931 40.901L33.8204 40.8372L35.3575 43.9387L31.9731 44.9936C31.9771 44.8661 31.9542 44.7379 31.9046 44.6161C31.8117 44.3877 31.6356 44.2086 31.4086 44.1117C28.0833 42.69 25.5617 39.9032 24.4903 36.4658C22.5489 30.2372 25.7921 23.6002 31.8794 21.3023L32.7632 24.138C28.2613 25.9364 25.8724 30.9413 27.3194 35.5839C28.1338 38.1965 30.05 40.3129 32.577 41.3909Z" fill="url(#paint0_linear)"/>
<path d="M5.4168 10.3297C6.20601 10.3297 6.8458 9.6899 6.8458 8.90068C6.8458 8.11147 6.20601 7.47168 5.4168 7.47168C4.62758 7.47168 3.98779 8.11147 3.98779 8.90068C3.98779 9.6899 4.62758 10.3297 5.4168 10.3297Z" fill="url(#paint1_linear)"/>
<path d="M9.7625 10.3297C10.5517 10.3297 11.1915 9.6899 11.1915 8.90068C11.1915 8.11147 10.5517 7.47168 9.7625 7.47168C8.97328 7.47168 8.3335 8.11147 8.3335 8.90068C8.3335 9.6899 8.97328 10.3297 9.7625 10.3297Z" fill="url(#paint2_linear)"/>
<path d="M14.1082 10.3297C14.8974 10.3297 15.5372 9.6899 15.5372 8.90068C15.5372 8.11147 14.8974 7.47168 14.1082 7.47168C13.319 7.47168 12.6792 8.11147 12.6792 8.90068C12.6792 9.6899 13.319 10.3297 14.1082 10.3297Z" fill="url(#paint3_linear)"/>
<path d="M49.3741 28.71C48.1956 24.9288 45.4758 21.8746 41.8683 20.255L41.8717 20.2471C42.0462 19.8393 41.9699 19.3813 41.6727 19.0521C41.3754 18.7229 40.9275 18.6003 40.5042 18.7323L39.8485 18.9367V5.06885C39.8485 4.12598 39.0814 3.35889 38.1386 3.35889H9.16748C8.76279 3.35889 8.43467 3.68701 8.43467 4.0917C8.43467 4.49639 8.76279 4.82451 9.16748 4.82451H38.1386C38.2732 4.82451 38.3828 4.93408 38.3828 5.06875V13.0321H1.46563V5.06885C1.46563 4.93418 1.5752 4.82461 1.70986 4.82461H5.44307C5.84775 4.82461 6.17588 4.49648 6.17588 4.0918C6.17588 3.68711 5.84775 3.35898 5.44307 3.35898H1.70996C0.76709 3.35889 0 4.12598 0 5.06885V33.2542C0 34.1971 0.76709 34.9642 1.70996 34.9642H19.3362C19.7409 34.9642 20.069 34.636 20.069 34.2313C20.069 33.8267 19.7409 33.4985 19.3362 33.4985H1.70996C1.57529 33.4985 1.46572 33.389 1.46572 33.2543V14.4979H38.3828V19.3936L36.109 20.1023C35.7945 20.2003 35.5398 20.4302 35.4103 20.7331C35.2807 21.0359 35.2902 21.3789 35.4365 21.6741L37.4809 25.7991C37.6778 26.1966 38.0769 26.435 38.519 26.4233C38.9625 26.4109 39.3463 26.1499 39.5207 25.7421L39.5496 25.6745C41.5665 26.6108 43.0817 28.3316 43.7465 30.4643C44.9755 34.4074 42.9225 38.6605 39.0725 40.1466C38.412 40.4016 38.0601 41.132 38.2713 41.8094L39.2218 44.8589C39.4313 45.5829 40.2832 45.9993 40.9841 45.7254C44.2971 44.509 46.9886 42.0891 48.5629 38.9114C50.1426 35.7227 50.4307 32.0997 49.3741 28.71ZM40.5858 44.3096L39.702 41.4737C44.2038 39.6754 46.5928 34.6705 45.1457 30.0278C44.2957 27.3009 42.2747 25.1418 39.6007 24.104C39.172 23.9375 38.6984 24.1082 38.4695 24.4935L36.9276 21.3821L40.2539 20.3454C40.2147 20.5272 40.2313 20.7164 40.304 20.8923C40.3987 21.1218 40.5854 21.3067 40.8161 21.3997C44.2642 22.7891 46.8734 25.6125 47.9748 29.1461C49.9162 35.3748 46.673 42.0117 40.5858 44.3096Z" fill="url(#paint4_linear)"/>
<path d="M5.38926 16.2803C4.2123 16.2803 3.25488 17.2378 3.25488 18.4146V25.3869C3.25488 26.5639 4.2123 27.5213 5.38926 27.5213H12.3615C13.5385 27.5213 14.4959 26.5639 14.4959 25.3869V18.4788C14.4959 17.2665 13.5097 16.2803 12.2974 16.2803H5.38926ZM13.0303 18.4788V25.3869C13.0303 25.7557 12.7303 26.0557 12.3615 26.0557H5.38926C5.02051 26.0557 4.72051 25.7557 4.72051 25.3869V18.4146C4.72051 18.0459 5.02051 17.7459 5.38926 17.7459H12.2975C12.7016 17.746 13.0303 18.0747 13.0303 18.4788Z" fill="url(#paint5_linear)"/>
<path d="M17.2294 18.2405H22.6193C23.024 18.2405 23.3521 17.9124 23.3521 17.5077C23.3521 17.103 23.024 16.7749 22.6193 16.7749H17.2294C16.8247 16.7749 16.4966 17.103 16.4966 17.5077C16.4966 17.9124 16.8247 18.2405 17.2294 18.2405Z" fill="url(#paint6_linear)"/>
<path d="M17.2294 21.6297H22.6193C23.024 21.6297 23.3521 21.3016 23.3521 20.8969C23.3521 20.4922 23.024 20.1641 22.6193 20.1641H17.2294C16.8247 20.1641 16.4966 20.4922 16.4966 20.8969C16.4966 21.3016 16.8247 21.6297 17.2294 21.6297Z" fill="url(#paint7_linear)"/>
</g>
<defs>
<linearGradient id="paint0_linear" x1="22.4653" y1="46.6409" x2="39.8485" y2="46.6409" gradientUnits="userSpaceOnUse">
<stop stop-color="#76C5FF"/>
<stop offset="1" stop-color="#1F83CB"/>
</linearGradient>
<linearGradient id="paint1_linear" x1="3.98779" y1="10.3297" x2="6.8458" y2="10.3297" gradientUnits="userSpaceOnUse">
<stop stop-color="#76C5FF"/>
<stop offset="1" stop-color="#1F83CB"/>
</linearGradient>
<linearGradient id="paint2_linear" x1="8.3335" y1="10.3297" x2="11.1915" y2="10.3297" gradientUnits="userSpaceOnUse">
<stop stop-color="#76C5FF"/>
<stop offset="1" stop-color="#1F83CB"/>
</linearGradient>
<linearGradient id="paint3_linear" x1="12.6792" y1="10.3297" x2="15.5372" y2="10.3297" gradientUnits="userSpaceOnUse">
<stop stop-color="#76C5FF"/>
<stop offset="1" stop-color="#1F83CB"/>
</linearGradient>
<linearGradient id="paint4_linear" x1="7.66013e-06" y1="45.8101" x2="50" y2="45.8101" gradientUnits="userSpaceOnUse">
<stop stop-color="#76C5FF"/>
<stop offset="1" stop-color="#1F83CB"/>
</linearGradient>
<linearGradient id="paint5_linear" x1="3.25488" y1="27.5213" x2="14.4959" y2="27.5213" gradientUnits="userSpaceOnUse">
<stop stop-color="#76C5FF"/>
<stop offset="1" stop-color="#1F83CB"/>
</linearGradient>
<linearGradient id="paint6_linear" x1="16.4966" y1="18.2405" x2="23.3521" y2="18.2405" gradientUnits="userSpaceOnUse">
<stop stop-color="#76C5FF"/>
<stop offset="1" stop-color="#1F83CB"/>
</linearGradient>
<linearGradient id="paint7_linear" x1="16.4966" y1="21.6297" x2="23.3521" y2="21.6297" gradientUnits="userSpaceOnUse">
<stop stop-color="#76C5FF"/>
<stop offset="1" stop-color="#1F83CB"/>
</linearGradient>
<clipPath id="clip0">
<rect width="50" height="50" fill="white"/>
</clipPath>
</defs>
</svg>
