<svg width="50" height="50" viewBox="0 0 50 50" fill="none" xmlns="http://www.w3.org/2000/svg">
<path d="M49.3891 21.7013L46.3767 20.8555C46.1839 19.8491 45.9195 18.8578 45.5858 17.8889L47.7655 15.6568C48.0055 15.4107 48.0706 15.0429 47.9299 14.7292C47.2256 13.159 46.362 11.6652 45.3525 10.2715C45.1517 9.99219 44.7997 9.86509 44.4667 9.95167L41.4453 10.7255C40.7736 9.9523 40.0484 9.22729 39.2754 8.55557L40.0492 5.53417C40.1343 5.20124 40.0075 4.8501 39.7293 4.64835C38.3356 3.63857 36.8419 2.77463 35.2716 2.07024C34.9582 1.92817 34.5896 1.9935 34.3441 2.23461L32.112 4.41436C31.1429 4.08069 30.1512 3.81634 29.1446 3.62339L28.2987 0.611C28.1973 0.249593 27.8677 -0.000104662 27.4923 3.29104e-08H22.5078C22.1324 -0.000104662 21.8028 0.249593 21.7014 0.611L20.8557 3.62339C19.8492 3.81624 18.8579 4.08059 17.889 4.41436L15.6569 2.23461C15.4113 1.9936 15.0429 1.92827 14.7294 2.07024C13.1591 2.77442 11.6653 3.63804 10.2716 4.64751C9.99345 4.84926 9.86666 5.20041 9.95178 5.53334L10.7256 8.55473C9.95241 9.22645 9.22729 9.95157 8.55557 10.7247L5.53417 9.95094C5.20114 9.86362 4.84884 9.99083 4.64835 10.2708C3.63857 11.6645 2.77463 13.1582 2.07024 14.7285C1.92953 15.0421 1.99475 15.4098 2.23461 15.656L4.41436 17.8881C4.0807 18.8572 3.81645 19.8489 3.62339 20.8555L0.611 21.7013C0.249593 21.8027 -0.000104662 22.1323 3.29104e-08 22.5077V27.4914C-0.000104662 27.8669 0.249593 28.1964 0.611 28.2979L3.62339 29.1436C3.81624 30.1503 4.08059 31.1419 4.41436 32.1111L2.23461 34.3432C1.99475 34.5893 1.92953 34.9571 2.07024 35.2707C2.77442 36.841 3.63804 38.3347 4.64751 39.7284C4.84895 40.007 5.20041 40.1339 5.53334 40.0482L8.55473 39.2744C9.22645 40.0476 9.95157 40.7727 10.7247 41.4444L9.95094 44.4658C9.86582 44.7988 9.99261 45.1499 10.2708 45.3516C11.6645 46.3614 13.1582 47.2254 14.7285 47.9298C15.0422 48.0701 15.4096 48.0049 15.656 47.7654L17.8881 45.5856C18.8572 45.9193 19.8489 46.1836 20.8555 46.3766L21.7013 49.389C21.8027 49.7504 22.1324 50.0001 22.5077 50H27.4914C27.8669 50.0001 28.1964 49.7504 28.2979 49.389L29.1436 46.3773C30.1503 46.1839 31.1419 45.9193 32.1111 45.5856L34.3432 47.7654C34.5893 48.0052 34.9571 48.0705 35.2707 47.9298C36.8409 47.2255 38.3347 46.3619 39.7284 45.3524C40.0066 45.1506 40.1333 44.7995 40.0482 44.4666L39.2744 41.4452C40.0476 40.7734 40.7726 40.0483 41.4443 39.2753L44.4657 40.0491C44.7987 40.1347 45.1501 40.0078 45.3515 39.7292C46.3614 38.3355 47.2253 36.8417 47.9297 35.2714C48.0704 34.9577 48.0051 34.5901 47.7653 34.3439L45.5855 32.1118C45.9192 31.1427 46.1835 30.151 46.3765 29.1443L49.3889 28.2986C49.7503 28.1972 50 27.8676 49.9999 27.4922V22.5077C50.0002 22.1324 49.7505 21.8027 49.3891 21.7013ZM48.3249 26.8575L45.4188 27.6738C45.1062 27.7614 44.8726 28.0219 44.8192 28.3421C44.6097 29.5997 44.2804 30.8343 43.836 32.0293C43.7222 32.3329 43.7942 32.6751 44.0209 32.907L46.163 35.1007C45.6335 36.2079 45.0182 37.2719 44.3227 38.2832L41.352 37.5225C41.0377 37.4407 40.7047 37.5493 40.4989 37.8005C39.6865 38.7832 38.7828 39.6867 37.7998 40.4988C37.5498 40.7057 37.4414 41.0383 37.5217 41.3527L38.2824 44.3234C37.2714 45.019 36.2073 45.634 35.0999 46.1629L32.9061 44.0209C32.6746 43.7936 32.3321 43.7214 32.0285 43.836C30.8335 44.2804 29.5988 44.6099 28.3412 44.8199C28.0212 44.8736 27.7609 45.1071 27.673 45.4195L26.8567 48.3248H23.1425L22.3262 45.4187C22.2386 45.1061 21.9781 44.8725 21.6579 44.8191C20.4003 44.6096 19.1657 44.2803 17.9707 43.8359C17.6672 43.7211 17.3245 43.7933 17.093 44.0208L14.8993 46.1629C13.7922 45.6334 12.7281 45.0181 11.7168 44.3226L12.4775 41.3519C12.558 41.0377 12.4496 40.7053 12.1995 40.4988C11.2168 39.6864 10.3133 38.7827 9.50117 37.7997C9.29408 37.5499 8.96168 37.4416 8.64728 37.5216L5.67656 38.2823C4.98128 37.2711 4.3662 36.207 3.83707 35.0998L5.97913 32.906C6.20569 32.674 6.27772 32.332 6.16402 32.0284C5.71938 30.8335 5.39022 29.5988 5.18083 28.3411C5.12744 28.021 4.89376 27.7606 4.58124 27.6729L1.67512 26.8567V23.1424L4.58124 22.3261C4.89376 22.2385 5.12744 21.978 5.18083 21.6578C5.39032 20.4002 5.71959 19.1656 6.16402 17.9706C6.27782 17.667 6.20579 17.3248 5.97913 17.0929L3.83696 14.8992C4.36651 13.792 4.9818 12.728 5.67729 11.7167L8.64801 12.4774C8.9622 12.5579 9.29471 12.4496 9.50107 12.1994C10.3135 11.2167 11.2172 10.3132 12.2002 9.50107C12.4502 9.29419 12.5586 8.96157 12.4783 8.64717L11.7176 5.67646C12.7288 4.98118 13.7929 4.36609 14.9002 3.83696L17.0939 5.97902C17.3253 6.20642 17.6679 6.27856 17.9715 6.16391C19.1663 5.71969 20.4006 5.39043 21.6579 5.18072C21.9781 5.12733 22.2385 4.89365 22.3262 4.58114L23.1425 1.67512H26.8575L27.6738 4.58124C27.7614 4.89376 28.0219 5.12743 28.3421 5.18083C29.5997 5.39032 30.8343 5.71959 32.0293 6.16402C32.3328 6.27876 32.6755 6.20663 32.907 5.97913L35.1007 3.83696C36.2079 4.36651 37.2719 4.9818 38.2832 5.67729L37.5225 8.64801C37.4421 8.9622 37.5504 9.29461 37.8005 9.50107C38.7832 10.3135 39.6867 11.2172 40.4988 12.2002C40.7051 12.4512 41.0382 12.5596 41.3527 12.4783L44.3234 11.7176C45.019 12.7286 45.634 13.7927 46.1629 14.9001L44.0209 17.0939C43.7943 17.3259 43.7223 17.6679 43.836 17.9715C44.2802 19.1663 44.6095 20.4006 44.8192 21.6579C44.8726 21.9781 45.1062 22.2385 45.4188 22.3262L48.3249 23.1425V26.8575Z" fill="url(#paint0_linear)"/>
<path d="M24.9997 8.24854C15.7483 8.24854 8.24854 15.7483 8.24854 24.9997C8.2588 34.2469 15.7525 41.7407 24.9997 41.7509C34.2512 41.7509 41.7509 34.2512 41.7509 24.9997C41.7509 15.7483 34.2512 8.24854 24.9997 8.24854ZM36.2189 35.0346L34.4755 33.2911L33.291 34.4756L35.0345 36.219C32.4928 38.5012 29.248 39.8468 25.8372 40.0335V37.5632H24.1621V40.0335C20.7513 39.8469 17.5065 38.5012 14.9647 36.219L16.7082 34.4756L15.5238 33.2911L13.7803 35.0346C11.4982 32.493 10.1524 29.2481 9.96585 25.8373H12.4361V24.1622H9.96606C10.1526 20.7514 11.4984 17.5066 13.7805 14.9648L15.524 16.7083L16.7084 15.5239L14.9649 13.7804C17.5066 11.4983 20.7514 10.1526 24.1623 9.96595V12.4362H25.8374V9.96606C29.2481 10.1526 32.493 11.4984 35.0347 13.7805L33.2913 15.524L34.4757 16.7084L36.2191 14.9649C38.5013 17.5066 39.847 20.7514 40.0336 24.1623H37.5633V25.8374H40.0336C39.8468 29.248 38.5011 32.4928 36.2189 35.0346Z" fill="url(#paint1_linear)"/>
<path d="M32.1648 17.6025C31.8835 17.4151 31.5172 17.4151 31.236 17.6025L25.1572 21.6553C25.1048 21.6521 25.0533 21.6496 25.0001 21.6496C23.1499 21.6496 21.6499 23.1495 21.6499 24.9998C21.6499 26.8501 23.1499 28.35 25.0001 28.35C26.8497 28.3481 28.3485 26.8493 28.3504 24.9998C28.3504 24.9474 28.348 24.8951 28.3446 24.8436L32.3975 18.764C32.6539 18.379 32.5498 17.859 32.1648 17.6025ZM26.779 24.1712C26.6645 24.3509 26.6186 24.5657 26.6498 24.7765C26.6641 24.8502 26.6725 24.9248 26.6752 24.9998C26.6752 25.925 25.9252 26.6749 25 26.6749C24.0748 26.6749 23.3249 25.925 23.3249 24.9998C23.3249 24.0746 24.0748 23.3247 25 23.3247C25.0805 23.3278 25.1606 23.3371 25.2397 23.3525C25.4455 23.3826 25.6552 23.3357 25.8286 23.2208L28.6799 21.32L26.779 24.1712Z" fill="url(#paint2_linear)"/>
<defs>
<linearGradient id="paint0_linear" x1="7.66011e-06" y1="50" x2="49.9999" y2="50" gradientUnits="userSpaceOnUse">
<stop stop-color="#76C5FF"/>
<stop offset="1" stop-color="#1F83CB"/>
</linearGradient>
<linearGradient id="paint1_linear" x1="8.24854" y1="41.7509" x2="41.7509" y2="41.7509" gradientUnits="userSpaceOnUse">
<stop stop-color="#76C5FF"/>
<stop offset="1" stop-color="#1F83CB"/>
</linearGradient>
<linearGradient id="paint2_linear" x1="21.6499" y1="28.35" x2="32.5381" y2="28.35" gradientUnits="userSpaceOnUse">
<stop stop-color="#76C5FF"/>
<stop offset="1" stop-color="#1F83CB"/>
</linearGradient>
</defs>
</svg>
