<svg width="18" height="18" viewBox="0 0 18 18" fill="none" xmlns="http://www.w3.org/2000/svg">
<path fill-rule="evenodd" clip-rule="evenodd" d="M9 17.25C4.44365 17.25 0.75 13.5563 0.75 9C0.75 4.44365 4.44365 0.75 9 0.75C13.5563 0.75 17.25 4.44365 17.25 9C17.25 13.5563 13.5563 17.25 9 17.25ZM9.00001 15.75C12.7279 15.75 15.75 12.7279 15.75 9C15.75 5.27207 12.7279 2.25 9.00001 2.25C5.27209 2.25 2.25001 5.27207 2.25001 9C2.25001 12.7279 5.27209 15.75 9.00001 15.75ZM11.4696 6.21963L7.49993 10.1893L5.78026 8.46963L4.7196 9.53029L7.49993 12.3106L12.5303 7.28029L11.4696 6.21963Z" fill="#00A0E3"/>
</svg>
