<svg width="95" height="82" viewBox="0 0 95 82" fill="none" xmlns="http://www.w3.org/2000/svg">
<path fill-rule="evenodd" clip-rule="evenodd" d="M68.0851 60.1592C68.4548 61.3674 69.6474 64.7942 69.5589 66.1066C69.4652 67.1353 69.1063 68.1222 68.5173 68.9709C66.731 71.4967 58.1016 74.611 48.9722 76.9598C44.8371 78.0013 40.6396 78.9231 36.8951 79.6001C32.4481 80.4466 27.9597 81.0585 23.4484 81.4333C18.4263 81.8641 13.3855 82.0379 8.34561 81.9541L2.80445 81.8447L0.148438 81.7718V78.4492L2.75237 78.5065L11.0485 78.6263C14.043 78.6263 17.0844 78.4648 20.1571 78.3294C30.052 77.918 39.0512 76.189 48.1598 73.8142C52.028 72.8237 55.8346 71.6064 59.5598 70.1687C62.5074 69.0021 64.7104 68.0283 65.4915 66.7263C65.7263 66.2732 65.8692 65.7781 65.9121 65.2696C65.955 64.7611 65.897 64.2491 65.7415 63.763C65.4915 62.9766 64.7676 60.8362 64.6062 60.1436L68.0851 60.1592Z" fill="#009EE0"/>
<path fill-rule="evenodd" clip-rule="evenodd" d="M0.0781148 3.79398C7.11915 3.79398 14.0717 3.85648 20.9096 3.15862C29.4557 2.27328 35.0802 1.03381 40.1162 0.382828C42.1525 0.117227 46.8031 -0.48689 48.8133 0.752582C50.5996 2.05455 50.9954 4.62203 51.7662 6.81975L53.2869 11.8089H49.8132L48.3863 7.23638C47.9124 5.73131 47.5739 4.32518 46.7302 3.72107C45.8865 3.11696 44.6783 3.32527 43.3763 3.33569C41.2515 3.36693 37.1269 4.04396 34.9187 4.37726C26.6799 5.69485 18.8733 6.90308 7.63995 6.88745H2.3071H0L0.0781148 3.79398Z" fill="#009EE0"/>
<path fill-rule="evenodd" clip-rule="evenodd" d="M43.4737 38.8115H40.1406V54.9299H49.9106L50.9626 51.5395H43.4632L43.4737 38.8115Z" fill="#171E29"/>
<path fill-rule="evenodd" clip-rule="evenodd" d="M36.4798 46.0606H29.8814L29.8501 48.9665L33.1155 48.9249L33.2144 52.9245C32.2885 53.3758 31.2801 53.6328 30.2511 53.6797C29.4574 53.7224 28.6704 53.514 28.002 53.0839C27.3335 52.6539 26.8176 52.0241 26.5275 51.284C25.959 50.0938 25.6654 48.7909 25.6682 47.4719C25.6786 46.1347 26.1599 44.8439 27.0275 43.8264C27.6782 43.0674 28.5249 42.5017 29.4752 42.1911C30.2364 41.9839 31.0197 41.8685 31.8083 41.8474H34.7143L34.7455 38.8633C33.6675 38.8633 32.6207 38.8633 31.6208 38.9102C30.2485 38.96 28.8929 39.229 27.6055 39.707C26.8237 40.0057 26.0929 40.4239 25.4391 40.9464C24.2562 41.937 23.3845 43.2481 22.9289 44.7221C22.5423 45.7468 22.3515 46.8351 22.3664 47.9302C22.337 49.1214 22.5132 50.3089 22.8872 51.4403C23.2223 52.5026 23.7521 53.4934 24.4496 54.3619C25.1324 55.1609 25.9845 55.7978 26.9442 56.2263C27.988 56.6719 29.1168 56.8835 30.2511 56.846C31.4077 56.8429 32.5574 56.6674 33.6623 56.3253C34.6953 55.9953 35.6528 55.4644 36.4798 54.7629V46.0606Z" fill="#171E29"/>
<path fill-rule="evenodd" clip-rule="evenodd" d="M73.5828 18.5012H68.25V34.531H71.5726V30.3647H73.3589C74.1452 30.373 74.926 30.2335 75.6608 29.9533C76.3623 29.6869 77.0046 29.2852 77.5512 28.7711C78.0928 28.2288 78.5243 27.5869 78.822 26.8807C79.1384 26.0983 79.2977 25.2613 79.2907 24.4174C79.2972 23.6007 79.1579 22.7894 78.8793 22.0217C78.6198 21.3297 78.223 20.6972 77.7127 20.1625C77.1999 19.6422 76.5869 19.2311 75.9108 18.9543C75.1732 18.6481 74.3814 18.494 73.5828 18.5012V18.5012ZM71.5778 27.0473V21.8082H73.437C73.7532 21.7877 74.07 21.8367 74.3651 21.9519C74.6603 22.0671 74.9265 22.2456 75.1452 22.4748C75.571 23.0313 75.7801 23.7234 75.7337 24.4226C75.7788 25.1186 75.5572 25.8057 75.114 26.3443C74.8977 26.5782 74.6325 26.7616 74.3372 26.8813C74.042 27.001 73.7239 27.0542 73.4058 27.0369L71.5778 27.0473Z" fill="#171E29"/>
<path fill-rule="evenodd" clip-rule="evenodd" d="M54.738 16.6104H51.2695L56.6284 34.4733L60.4666 34.4837L65.3672 18.4852H61.8259L58.5345 29.2603L54.738 16.6104Z" fill="#009EE0"/>
<path fill-rule="evenodd" clip-rule="evenodd" d="M61.2245 49.1595L59.8236 44.5714L58.4175 49.1439L61.2245 49.1595ZM56.6468 54.9455H53.1055L58.0061 38.8428L61.5474 38.8115L67.0261 56.8828H63.5264L61.9641 51.5395H57.7092L56.6468 54.9455Z" fill="#009EE0"/>
<path fill-rule="evenodd" clip-rule="evenodd" d="M48.3192 21.7294L47.4182 18.6047C45.809 18.4537 43.8352 18.3495 42.2833 18.7818C40.9714 19.1162 39.818 19.8992 39.0232 20.9951C38.4195 21.9905 38.2079 23.1749 38.4295 24.3177C38.6442 25.002 39.0203 25.6246 39.526 26.133C40.0318 26.6415 40.6523 27.0209 41.3354 27.2393C42.9447 27.8278 44.7049 27.8018 46.0642 28.0778C47.0485 28.3017 47.8505 28.8486 47.8609 29.5568C47.8921 30.7963 46.5954 31.2859 45.5017 31.3275C43.8225 31.3977 42.1406 31.3629 40.4657 31.2233L41.4136 34.6033C43.0384 34.6033 44.9133 34.6918 46.4912 34.5616C49.2045 34.3116 51.1106 32.9992 51.345 29.8224C51.375 29.0686 51.1965 28.3211 50.8289 27.6623C50.4613 27.0034 49.9191 26.4588 49.2618 26.0884C46.46 24.3021 42.1218 25.6301 42.0333 23.297C42.0353 23.0684 42.0829 22.8425 42.1735 22.6326C42.2641 22.4227 42.3958 22.2331 42.5608 22.0749C42.7258 21.9167 42.9208 21.7931 43.1343 21.7114C43.3478 21.6297 43.5755 21.5916 43.804 21.5992C45.1007 21.5419 47.0224 21.6565 48.3192 21.7294Z" fill="#171E29"/>
<path fill-rule="evenodd" clip-rule="evenodd" d="M77.2697 42.1503L76.3531 39.0256C74.7439 38.8798 72.7805 38.7756 71.2338 39.2027C69.9152 39.5347 68.7545 40.3178 67.9528 41.416C67.3509 42.4121 67.1412 43.5965 67.3643 44.7386C67.5775 45.4237 67.953 46.0471 68.459 46.5558C68.965 47.0645 69.5864 47.4434 70.2703 47.6603C71.8952 48.2539 73.6554 48.1498 74.9938 48.4414C75.9833 48.6497 76.5927 49.0924 76.7958 49.9778C77.0926 51.1756 75.525 51.7068 74.4366 51.7484C72.7625 51.8159 71.0858 51.7794 69.4162 51.6391L70.3641 55.019C71.9993 55.019 73.8585 55.1075 75.4417 54.9721C78.1706 54.7221 80.4725 53.5243 80.3111 50.2329C80.2931 49.4882 80.094 48.759 79.7311 48.1084C79.3681 47.4578 78.8522 46.9054 78.2279 46.4989C75.4105 44.7126 71.3952 46.2333 70.89 43.895C70.6869 42.9055 71.8535 42.0618 72.7649 42.0305C74.0356 41.9576 75.9417 42.0774 77.2697 42.1503Z" fill="#171E29"/>
<path fill-rule="evenodd" clip-rule="evenodd" d="M90.9714 42.1503L90.0548 39.0256C88.4456 38.8798 86.4822 38.7756 84.9303 39.2027C83.6138 39.5362 82.4552 40.3191 81.6545 41.416C81.0533 42.4123 80.8418 43.5958 81.0608 44.7386C81.2749 45.4241 81.6514 46.0477 82.1582 46.5564C82.6651 47.0651 83.2874 47.4437 83.9721 47.6603C85.5969 48.2539 87.4405 48.1498 88.7997 48.4414C89.2044 48.4971 89.5829 48.6735 89.8857 48.9476C90.1886 49.2216 90.4018 49.5807 90.4975 49.9778C90.7162 51.1443 89.2268 51.7068 88.1331 51.7484C86.4558 51.8201 84.7756 51.787 83.1023 51.6495L84.045 55.0294C85.6854 55.0294 87.5446 55.1179 89.1226 54.9825C91.8568 54.7325 94.1118 53.4202 93.9972 50.2434C93.9725 49.4792 93.7654 48.7321 93.393 48.0644C93.0206 47.3967 92.4939 46.8278 91.8568 46.4052C89.0341 44.6189 85.2844 45.9937 84.6959 43.7179C84.446 42.744 85.55 42.0514 86.4666 42.0201C87.7373 41.9576 89.6382 42.0774 90.9714 42.1503Z" fill="#171E29"/>
</svg>
