<svg width="26" height="33" viewBox="0 0 26 33" fill="none" xmlns="http://www.w3.org/2000/svg">
<g clip-path="url(#clip0)">
<path fill-rule="evenodd" clip-rule="evenodd" d="M12.7956 0.5C10.2649 0.50148 7.79147 1.25289 5.68762 2.65934C3.58378 4.06578 1.94393 6.06415 0.975196 8.40205C0.00646213 10.74 -0.2477 13.3125 0.244814 15.7948C0.737327 18.277 1.95442 20.5577 3.74237 22.3486C6.06116 24.6674 11.5157 28.0212 11.839 31.5434C11.839 31.7971 11.9398 32.0404 12.1192 32.2198C12.2986 32.3992 12.5419 32.5 12.7956 32.5C13.0493 32.5 13.2926 32.3992 13.472 32.2198C13.6514 32.0404 13.7522 31.7971 13.7522 31.5434C14.0755 28.0212 19.5262 24.6731 21.8431 22.3601C23.6346 20.5701 24.855 18.289 25.35 15.8053C25.8449 13.3216 25.5922 10.7469 24.6237 8.4069C23.6552 6.06688 22.0145 4.06664 19.9091 2.6592C17.8036 1.25176 15.3281 0.500347 12.7956 0.5V0.5Z" fill="#FF4433"/>
<path fill-rule="evenodd" clip-rule="evenodd" d="M12.7949 17.7915C13.6835 17.7918 14.5522 17.5287 15.2912 17.0353C16.0302 16.542 16.6062 15.8405 16.9465 15.0197C17.2868 14.1989 17.3761 13.2956 17.2029 12.4241C17.0298 11.5526 16.6021 10.752 15.974 10.1235C15.3458 9.4951 14.5454 9.06707 13.6739 8.89359C12.8025 8.7201 11.8992 8.80895 11.0782 9.14889C10.2573 9.48884 9.55558 10.0646 9.06189 10.8034C8.5682 11.5422 8.30469 12.4108 8.30469 13.2993C8.30469 14.4904 8.77771 15.6327 9.61974 16.4751C10.4618 17.3175 11.6039 17.791 12.7949 17.7915Z" fill="white"/>
</g>
<defs>
<clipPath id="clip0">
<rect width="25.5946" height="32" fill="white" transform="translate(0 0.5)"/>
</clipPath>
</defs>
</svg>
