<svg width="50" height="50" viewBox="0 0 50 50" fill="none" xmlns="http://www.w3.org/2000/svg">
<path d="M12.5 0C10.7812 0 9.375 1.40625 9.375 3.125V46.875C9.375 48.5938 10.7812 50 12.5 50H43.75C45.4688 50 46.875 48.5938 46.875 46.875V12.5L34.375 0H12.5Z" fill="#E2E5E7"/>
<path d="M37.5 12.5H46.875L34.375 0V9.375C34.375 11.0938 35.7812 12.5 37.5 12.5Z" fill="#B0B7BD"/>
<path d="M46.875 21.875L37.5 12.5H46.875V21.875Z" fill="#CAD1D8"/>
<path d="M40.625 40.625C40.625 41.4844 39.9219 42.1875 39.0625 42.1875H4.6875C3.82812 42.1875 3.125 41.4844 3.125 40.625V25C3.125 24.1406 3.82812 23.4375 4.6875 23.4375H39.0625C39.9219 23.4375 40.625 24.1406 40.625 25V40.625Z" fill="#F15642"/>
<path d="M9.93555 29.6047C9.93555 29.1922 10.2605 28.7422 10.784 28.7422H13.6699C15.2949 28.7422 16.7574 29.8297 16.7574 31.9141C16.7574 33.8891 15.2949 34.9891 13.6699 34.9891H11.584V36.6391C11.584 37.1891 11.234 37.5 10.784 37.5C10.3715 37.5 9.93555 37.1891 9.93555 36.6391V29.6047ZM11.584 30.3156V33.4281H13.6699C14.5074 33.4281 15.1699 32.6891 15.1699 31.9141C15.1699 31.0406 14.5074 30.3156 13.6699 30.3156H11.584Z" fill="white"/>
<path d="M19.2043 37.4998C18.7918 37.4998 18.3418 37.2748 18.3418 36.7264V29.6295C18.3418 29.1811 18.7918 28.8545 19.2043 28.8545H22.0652C27.7746 28.8545 27.6496 37.4998 22.1777 37.4998H19.2043ZM19.9918 30.3795V35.9764H22.0652C25.4387 35.9764 25.5887 30.3795 22.0652 30.3795H19.9918Z" fill="white"/>
<path d="M29.6754 30.4796V32.4655H32.8613C33.3113 32.4655 33.7613 32.9155 33.7613 33.3515C33.7613 33.764 33.3113 34.1015 32.8613 34.1015H29.6754V36.7249C29.6754 37.1624 29.3645 37.4983 28.927 37.4983C28.377 37.4983 28.041 37.1624 28.041 36.7249V29.628C28.041 29.1796 28.3785 28.853 28.927 28.853H33.3129C33.8629 28.853 34.1879 29.1796 34.1879 29.628C34.1879 30.028 33.8629 30.478 33.3129 30.478H29.6754V30.4796Z" fill="white"/>
<path d="M39.0625 42.1875H9.375V43.75H39.0625C39.9219 43.75 40.625 43.0469 40.625 42.1875V40.625C40.625 41.4844 39.9219 42.1875 39.0625 42.1875Z" fill="#CAD1D8"/>
</svg>
