<svg width="24" height="24" viewBox="0 0 24 24" fill="none" xmlns="http://www.w3.org/2000/svg">
<g id="16 / call-phone">
<path id="icon" fill-rule="evenodd" clip-rule="evenodd" d="M11.4152 12.5827C10.6028 11.7696 9.93154 10.891 9.57533 10.1793C9.45837 9.94556 9.38563 9.7495 9.35368 9.60935L10.0742 8.88842C10.2322 8.73022 10.3082 8.65321 10.4064 8.54999C10.6145 8.33135 10.7879 8.13154 10.9405 7.9259C11.627 7.00079 11.8821 5.9937 11.0695 5.08685C9.53086 2.93457 8.49577 1.60338 7.83214 0.947853C6.46285 -0.404729 4.23198 -0.22353 3.04447 0.946518C2.47107 1.51148 2.27615 1.70629 1.68737 2.3043C-1.75115 5.7445 0.299597 12.8566 5.71809 18.2802C11.1356 23.7028 18.2483 25.7548 21.6959 22.3054C22.2372 21.7838 22.6997 21.3211 23.0656 20.9343C24.2241 19.7099 24.399 17.5751 23.0568 16.1805C22.4185 15.5174 21.1492 14.5324 18.9042 12.9262C18.083 12.1982 17.1225 12.3561 16.2691 12.9159C15.8848 13.1681 15.6143 13.4147 15.1051 13.9244L14.3853 14.6445C14.2454 14.6126 14.0496 14.5399 13.8162 14.423C13.1048 14.0668 12.2269 13.3952 11.4152 12.5827ZM16.3319 16.9387L17.2259 16.0443C17.3786 15.8914 17.4994 15.7735 17.5993 15.681C19.4094 16.9859 20.4687 17.8157 20.8965 18.2602C21.0419 18.4113 21.0151 18.7384 20.8877 18.8731C20.5568 19.2228 20.1253 19.6546 19.5949 20.1661C17.6378 22.1239 12.2415 20.567 7.83917 16.1605C3.43512 11.7524 1.8787 6.3546 3.81594 4.41639C4.40167 3.82153 4.58589 3.63742 5.14879 3.0828C5.23816 2.99474 5.60699 2.96478 5.72512 3.08146C6.18717 3.53788 7.05233 4.64057 8.31691 6.39439C8.29096 6.42266 8.26344 6.45207 8.23433 6.48267C8.15828 6.56259 8.0942 6.62754 7.95309 6.76878L7.05965 7.66267C5.33944 9.38266 6.70452 12.1104 9.29409 14.7024C11.8822 17.2929 14.6118 18.6598 16.3319 16.9387Z" fill="url(#paint0_linear)"/>
</g>
<defs>
<linearGradient id="paint0_linear" x1="3.67686e-06" y1="24" x2="24" y2="24" gradientUnits="userSpaceOnUse">
<stop stop-color="#76C5FF"/>
<stop offset="1" stop-color="#1F83CB"/>
</linearGradient>
</defs>
</svg>
