<svg width="24" height="24" viewBox="0 0 24 24" fill="none" xmlns="http://www.w3.org/2000/svg">
<g id="16 / pin  ">
<path id="icon" fill-rule="evenodd" clip-rule="evenodd" d="M10.4539 22.6214L12 23.9992L13.5461 22.6214C18.4832 18.2215 21 14.3132 21 10.6547C21 5.46065 17.014 1.5 12 1.5C6.98605 1.5 3 5.46065 3 10.6547C3 14.3132 5.51684 18.2215 10.4539 22.6214ZM12 4.5C15.3614 4.5 18 7.12181 18 10.6547C18 13.1591 16.053 16.2703 12 19.9757C7.94699 16.2703 6 13.1591 6 10.6547C6 7.12181 8.63862 4.5 12 4.5ZM12 6C14.4853 6 16.5 8.01472 16.5 10.5C16.5 12.9853 14.4853 15 12 15C9.51472 15 7.5 12.9853 7.5 10.5C7.5 8.01472 9.51472 6 12 6ZM10.5 10.5C10.5 9.67157 11.1716 9 12 9C12.8284 9 13.5 9.67157 13.5 10.5C13.5 11.3284 12.8284 12 12 12C11.1716 12 10.5 11.3284 10.5 10.5Z" fill="url(#paint0_linear)"/>
</g>
<defs>
<linearGradient id="paint0_linear" x1="3" y1="23.9992" x2="21" y2="23.9992" gradientUnits="userSpaceOnUse">
<stop stop-color="#76C5FF"/>
<stop offset="1" stop-color="#1F83CB"/>
</linearGradient>
</defs>
</svg>
