<svg width="80" height="80" viewBox="0 0 80 80" fill="none" xmlns="http://www.w3.org/2000/svg">
<path d="M76.6 17.8C74.43 13.94 72.075 13.23 67.28 12.96C62.49 12.635 50.445 12.5 40.01 12.5C29.555 12.5 17.505 12.635 12.72 12.955C7.935 13.23 5.575 13.935 3.385 17.8C1.15 21.655 0 28.295 0 39.985C0 39.995 0 40 0 40C0 40.01 0 40.015 0 40.015V40.025C0 51.665 1.15 58.355 3.385 62.17C5.575 66.03 7.93 66.73 12.715 67.055C17.505 67.335 29.555 67.5 40.01 67.5C50.445 67.5 62.49 67.335 67.285 67.06C72.08 66.735 74.435 66.035 76.605 62.175C78.86 58.36 80 51.67 80 40.03C80 40.03 80 40.015 80 40.005C80 40.005 80 39.995 80 39.99C80 28.295 78.86 21.655 76.6 17.8ZM30 55V25L55 40L30 55Z" fill="white"/>
</svg>
