<svg width="98" height="80" viewBox="0 0 98 80" fill="none" xmlns="http://www.w3.org/2000/svg">
<path d="M49 25.9375C41.2469 25.9375 34.9375 32.2469 34.9375 40C34.9375 47.7531 41.2469 54.0625 49 54.0625C56.7531 54.0625 63.0625 47.7531 63.0625 40C63.0625 32.2469 56.7531 25.9375 49 25.9375ZM49 50.9375C42.9688 50.9375 38.0625 46.0312 38.0625 40C38.0625 33.9688 42.9688 29.0625 49 29.0625C55.0312 29.0625 59.9375 33.9688 59.9375 40C59.9375 46.0312 55.0312 50.9375 49 50.9375Z" fill="url(#paint0_linear)"/>
<path d="M83.375 16.5625H95.875C96.7375 16.5625 97.4375 15.8625 97.4375 15V2.5C97.4375 1.6375 96.7375 0.9375 95.875 0.9375H83.375C82.5125 0.9375 81.8125 1.6375 81.8125 2.5V7.1875H77.125C76.2625 7.1875 75.5625 7.8875 75.5625 8.75V38.4375H74V36.875C74 36.0922 73.4203 35.4297 72.6438 35.3266L68.6359 34.7922C68.175 33.0484 67.4797 31.3781 66.5609 29.8047L69.0234 26.5859C69.4984 25.9641 69.4406 25.0859 68.8875 24.5328L64.4672 20.1125C63.9141 19.5578 63.0344 19.5 62.4141 19.9766L59.1953 22.4391C57.6219 21.5219 55.9516 20.8266 54.2078 20.3641L53.6734 16.3562C53.5703 15.5797 52.9078 15 52.125 15H45.875C45.0922 15 44.4297 15.5797 44.3266 16.3562L43.7922 20.3641C42.0484 20.825 40.3781 21.5203 38.8047 22.4391L35.5859 19.9766C34.9641 19.5016 34.0859 19.5594 33.5328 20.1125L29.1125 24.5328C28.5594 25.0859 28.5 25.9656 28.9766 26.5859L31.4391 29.8047C30.5219 31.3781 29.8266 33.0484 29.3641 34.7922L25.3563 35.3266C24.5797 35.4297 24 36.0922 24 36.875V38.4375H22.4375V8.75C22.4375 7.8875 21.7375 7.1875 20.875 7.1875H16.1875V2.5C16.1875 1.6375 15.4875 0.9375 14.625 0.9375H2.125C1.2625 0.9375 0.5625 1.6375 0.5625 2.5V15C0.5625 15.8625 1.2625 16.5625 2.125 16.5625H14.625C15.4875 16.5625 16.1875 15.8625 16.1875 15V10.3125H19.3125V38.4375H16.1875V33.75C16.1875 32.8875 15.4875 32.1875 14.625 32.1875H2.125C1.2625 32.1875 0.5625 32.8875 0.5625 33.75V46.25C0.5625 47.1125 1.2625 47.8125 2.125 47.8125H14.625C15.4875 47.8125 16.1875 47.1125 16.1875 46.25V41.5625H19.3125V69.6875H16.1875V65C16.1875 64.1375 15.4875 63.4375 14.625 63.4375H2.125C1.2625 63.4375 0.5625 64.1375 0.5625 65V77.5C0.5625 78.3625 1.2625 79.0625 2.125 79.0625H14.625C15.4875 79.0625 16.1875 78.3625 16.1875 77.5V72.8125H20.875C21.7375 72.8125 22.4375 72.1125 22.4375 71.25V41.5625H24V43.125C24 43.9078 24.5797 44.5703 25.3563 44.6734L29.3641 45.2078C29.825 46.9516 30.5203 48.6219 31.4391 50.1953L28.9766 53.4141C28.5016 54.0359 28.5594 54.9141 29.1125 55.4672L33.5328 59.8875C34.0859 60.4406 34.9625 60.4984 35.5859 60.0234L38.8047 57.5609C40.3781 58.4781 42.0484 59.1734 43.7922 59.6359L44.3266 63.6437C44.4297 64.4203 45.0922 65 45.875 65H52.125C52.9078 65 53.5703 64.4203 53.6734 63.6437L54.2078 59.6359C55.9516 59.175 57.6219 58.4797 59.1953 57.5609L62.4141 60.0234C63.0359 60.5 63.9156 60.4422 64.4672 59.8875L68.8875 55.4672C69.4406 54.9141 69.5 54.0344 69.0234 53.4141L66.5609 50.1953C67.4781 48.6219 68.1734 46.9516 68.6359 45.2078L72.6438 44.6734C73.4203 44.5703 74 43.9078 74 43.125V41.5625H75.5625V71.25C75.5625 72.1125 76.2625 72.8125 77.125 72.8125H81.8125V77.5C81.8125 78.3625 82.5125 79.0625 83.375 79.0625H95.875C96.7375 79.0625 97.4375 78.3625 97.4375 77.5V65C97.4375 64.1375 96.7375 63.4375 95.875 63.4375H83.375C82.5125 63.4375 81.8125 64.1375 81.8125 65V69.6875H78.6875V41.5625H81.8125V46.25C81.8125 47.1125 82.5125 47.8125 83.375 47.8125H95.875C96.7375 47.8125 97.4375 47.1125 97.4375 46.25V33.75C97.4375 32.8875 96.7375 32.1875 95.875 32.1875H83.375C82.5125 32.1875 81.8125 32.8875 81.8125 33.75V38.4375H78.6875V10.3125H81.8125V15C81.8125 15.8625 82.5125 16.5625 83.375 16.5625ZM84.9375 4.0625H94.3125V13.4375H84.9375V4.0625ZM13.0625 13.4375H3.6875V4.0625H13.0625V13.4375ZM13.0625 44.6875H3.6875V35.3125H13.0625V44.6875ZM13.0625 75.9375H3.6875V66.5625H13.0625V75.9375ZM70.875 41.7578L67.1562 42.2531C66.4984 42.3406 65.9672 42.8359 65.8328 43.4875C65.3984 45.6 64.5656 47.6 63.3609 49.4297C62.9953 49.9844 63.0219 50.7094 63.425 51.2375L65.7109 54.2266L63.2266 56.7109L60.2375 54.425C59.7094 54.0219 58.9828 53.9953 58.4297 54.3609C56.6 55.5656 54.6 56.3984 52.4875 56.8328C51.8359 56.9672 51.3422 57.4984 51.2531 58.1562L50.7578 61.875H47.2437L46.7484 58.1562C46.6609 57.4984 46.1656 56.9672 45.5141 56.8328C43.4016 56.3984 41.4016 55.5656 39.5719 54.3609C39.0187 53.9969 38.2938 54.0219 37.7641 54.425L34.775 56.7109L32.2906 54.2266L34.5766 51.2375C34.9797 50.7094 35.0062 49.9844 34.6406 49.4297C33.4359 47.6 32.6031 45.6 32.1688 43.4875C32.0344 42.8359 31.5031 42.3422 30.8453 42.2531L27.125 41.7578V38.2437L30.8437 37.7484C31.5016 37.6609 32.0328 37.1656 32.1672 36.5141C32.6016 34.4016 33.4344 32.4016 34.6391 30.5719C35.0047 30.0172 34.9781 29.2922 34.575 28.7641L32.2891 25.775L34.7734 23.2906L37.7625 25.5766C38.2891 25.9797 39.0156 26.0047 39.5703 25.6406C41.4 24.4359 43.4 23.6031 45.5125 23.1688C46.1641 23.0344 46.6578 22.5031 46.7469 21.8453L47.2422 18.125H50.7563L51.2516 21.8437C51.3391 22.5016 51.8344 23.0328 52.4859 23.1672C54.5984 23.6016 56.5984 24.4344 58.4281 25.6391C58.9844 26.0047 59.7094 25.9797 60.2359 25.575L63.225 23.2891L65.7094 25.7734L63.4234 28.7625C63.0203 29.2906 62.9937 30.0156 63.3594 30.5703C64.5641 32.4 65.3969 34.4 65.8312 36.5125C65.9656 37.1641 66.4969 37.6578 67.1547 37.7469L70.875 38.2422V41.7578ZM84.9375 66.5625H94.3125V75.9375H84.9375V66.5625ZM84.9375 35.3125H94.3125V44.6875H84.9375V35.3125Z" fill="url(#paint1_linear)"/>
<defs>
<linearGradient id="paint0_linear" x1="34.9375" y1="54.0625" x2="63.0625" y2="54.0625" gradientUnits="userSpaceOnUse">
<stop stop-color="#76C5FF"/>
<stop offset="1" stop-color="#1F83CB"/>
</linearGradient>
<linearGradient id="paint1_linear" x1="0.562515" y1="79.0624" x2="97.4375" y2="79.0624" gradientUnits="userSpaceOnUse">
<stop stop-color="#76C5FF"/>
<stop offset="1" stop-color="#1F83CB"/>
</linearGradient>
</defs>
</svg>
