<svg width="100" height="100" viewBox="0 0 100 100" fill="none" xmlns="http://www.w3.org/2000/svg">
<path d="M84.8687 0H24.9337C24.0922 0 23.4102 0.682068 23.4102 1.52435C23.4102 2.36588 24.0922 3.04871 24.9337 3.04871H84.8687C87.4276 3.04871 89.5089 5.13 89.5089 7.6889V80.4024C89.5089 81.2439 90.191 81.9267 91.0333 81.9267C91.8748 81.9267 92.5576 81.2439 92.5576 80.4024V7.6889C92.5569 3.44925 89.1084 0 84.8687 0Z" fill="url(#paint0_linear)"/>
<path d="M91.0332 85.2798C90.1909 85.2798 89.5088 85.9619 89.5088 86.8042V92.3119C89.5088 94.87 87.4275 96.9521 84.8686 96.9521H15.5006C12.9425 96.9521 10.8604 94.87 10.8604 92.3119V7.6889C10.8604 5.13 12.9425 3.04871 15.5006 3.04871H18.38C19.2215 3.04871 19.9043 2.36588 19.9043 1.52435C19.9043 0.682068 19.2215 0 18.38 0H15.5006C11.2617 0 7.8125 3.44925 7.8125 7.6889V92.3119C7.8125 96.5508 11.2617 100 15.5006 100H84.8686C89.1083 100 92.5568 96.5508 92.5568 92.3119V86.8042C92.5568 85.9619 91.8747 85.2798 91.0332 85.2798Z" fill="url(#paint1_linear)"/>
<path d="M29.0257 9.83658C22.6475 9.83658 17.458 15.0261 17.458 21.4043C17.458 27.7832 22.6475 32.9727 29.0257 32.9727C35.4046 32.9727 40.5941 27.7832 40.5941 21.4043C40.5941 15.0261 35.4046 9.83658 29.0257 9.83658ZM29.0257 29.924C24.3283 29.924 20.506 26.1024 20.506 21.405C20.506 16.7068 24.3283 12.8853 29.0257 12.8853C33.7231 12.8853 37.5454 16.7068 37.5454 21.405C37.5454 26.1024 33.7231 29.924 29.0257 29.924Z" fill="url(#paint2_linear)"/>
<path d="M47.7003 15.728H80.9248C81.7664 15.728 82.4492 15.0452 82.4492 14.2036C82.4492 13.3614 81.7664 12.6793 80.9248 12.6793H47.7003C46.8588 12.6793 46.1768 13.3614 46.1768 14.2036C46.1768 15.0452 46.8588 15.728 47.7003 15.728Z" fill="url(#paint3_linear)"/>
<path d="M47.7003 22.9286H71.7497C72.592 22.9286 73.2741 22.2466 73.2741 21.4043C73.2741 20.5627 72.592 19.8799 71.7497 19.8799H47.7003C46.8588 19.8799 46.1768 20.5627 46.1768 21.4043C46.1768 22.2466 46.8588 22.9286 47.7003 22.9286Z" fill="url(#paint4_linear)"/>
<path d="M47.7003 30.13H76.702C77.5435 30.13 78.2256 29.4472 78.2256 28.6057C78.2256 27.7634 77.5435 27.0813 76.702 27.0813H47.7003C46.8588 27.0813 46.1768 27.7634 46.1768 28.6057C46.1768 29.4472 46.8588 30.13 47.7003 30.13Z" fill="url(#paint5_linear)"/>
<path d="M47.7003 44.3466H80.9248C81.7664 44.3466 82.4492 43.6638 82.4492 42.8223C82.4492 41.98 81.7664 41.2979 80.9248 41.2979H47.7003C46.8588 41.2979 46.1768 41.98 46.1768 42.8223C46.1768 43.6638 46.8588 44.3466 47.7003 44.3466Z" fill="url(#paint6_linear)"/>
<path d="M47.7003 51.5472H71.7497C72.592 51.5472 73.2741 50.8652 73.2741 50.0229C73.2741 49.1814 72.592 48.4985 71.7497 48.4985H47.7003C46.8588 48.4985 46.1768 49.1814 46.1768 50.0229C46.1768 50.8652 46.8588 51.5472 47.7003 51.5472Z" fill="url(#paint7_linear)"/>
<path d="M47.7003 58.7486H76.702C77.5435 58.7486 78.2256 58.0658 78.2256 57.2243C78.2256 56.3828 77.5435 55.6999 76.702 55.6999H47.7003C46.8588 55.6999 46.1768 56.3828 46.1768 57.2243C46.1768 58.0658 46.8588 58.7486 47.7003 58.7486Z" fill="url(#paint8_linear)"/>
<path d="M29.0257 67.0738C22.6475 67.0738 17.458 72.2633 17.458 78.6415C17.458 85.0204 22.6475 90.21 29.0257 90.21C35.4046 90.21 40.5941 85.0204 40.5941 78.6415C40.5941 72.2633 35.4046 67.0738 29.0257 67.0738ZM29.0257 87.1613C24.3283 87.1613 20.506 83.3397 20.506 78.6415C20.506 73.9441 24.3283 70.1225 29.0257 70.1225C33.7231 70.1225 37.5454 73.9441 37.5454 78.6415C37.5454 83.3397 33.7231 87.1613 29.0257 87.1613Z" fill="url(#paint9_linear)"/>
<path d="M47.7003 72.9652H80.9248C81.7664 72.9652 82.4492 72.2824 82.4492 71.4409C82.4492 70.5994 81.7664 69.9165 80.9248 69.9165H47.7003C46.8588 69.9165 46.1768 70.5994 46.1768 71.4409C46.1768 72.2824 46.8588 72.9652 47.7003 72.9652Z" fill="url(#paint10_linear)"/>
<path d="M47.7003 80.1659H71.7497C72.592 80.1659 73.2741 79.4838 73.2741 78.6415C73.2741 77.8 72.592 77.1179 71.7497 77.1179H47.7003C46.8588 77.1179 46.1768 77.8 46.1768 78.6415C46.1768 79.4838 46.8588 80.1659 47.7003 80.1659Z" fill="url(#paint11_linear)"/>
<path d="M47.7003 87.3672H76.702C77.5435 87.3672 78.2256 86.6844 78.2256 85.8429C78.2256 85.0006 77.5435 84.3185 76.702 84.3185H47.7003C46.8588 84.3185 46.1768 85.0006 46.1768 85.8429C46.1768 86.6844 46.8588 87.3672 47.7003 87.3672Z" fill="url(#paint12_linear)"/>
<path d="M26.9261 47.6723C26.331 47.0772 25.3651 47.0772 24.77 47.6723C24.1749 48.2674 24.1749 49.2325 24.77 49.8276L28.5298 53.5873C28.8281 53.8849 29.218 54.0337 29.6078 54.0337C29.9977 54.0337 30.3883 53.8849 30.6859 53.5873L38.5502 45.723C38.5579 45.7153 38.5647 45.7077 38.5724 45.7008L43.7939 40.4793C44.389 39.8842 44.389 38.9191 43.7939 38.324C43.1988 37.7289 42.2329 37.7289 41.6378 38.324L37.6507 42.3119C35.4741 39.8697 32.3636 38.4552 29.0257 38.4552C22.6475 38.4552 17.458 43.6447 17.458 50.0237C17.458 56.4018 22.6475 61.5913 29.0257 61.5913C35.4046 61.5913 40.5941 56.4018 40.5941 50.0237C40.5941 49.1814 39.9113 48.4993 39.0698 48.4993C38.2275 48.4993 37.5454 49.1814 37.5454 50.0237C37.5454 54.7211 33.7231 58.5426 29.0257 58.5426C24.3283 58.5426 20.506 54.7211 20.506 50.0237C20.506 45.3255 24.3283 41.5039 29.0257 41.5039C31.5419 41.5039 33.8803 42.5972 35.4878 44.474L29.6078 50.3548L26.9261 47.6723Z" fill="url(#paint13_linear)"/>
<defs>
<linearGradient id="paint0_linear" x1="23.4102" y1="81.9267" x2="92.5577" y2="81.9267" gradientUnits="userSpaceOnUse">
<stop stop-color="#76C5FF"/>
<stop offset="1" stop-color="#1F83CB"/>
</linearGradient>
<linearGradient id="paint1_linear" x1="7.81251" y1="99.9999" x2="92.5568" y2="99.9999" gradientUnits="userSpaceOnUse">
<stop stop-color="#76C5FF"/>
<stop offset="1" stop-color="#1F83CB"/>
</linearGradient>
<linearGradient id="paint2_linear" x1="17.458" y1="32.9727" x2="40.5941" y2="32.9727" gradientUnits="userSpaceOnUse">
<stop stop-color="#76C5FF"/>
<stop offset="1" stop-color="#1F83CB"/>
</linearGradient>
<linearGradient id="paint3_linear" x1="46.1768" y1="15.728" x2="82.4492" y2="15.728" gradientUnits="userSpaceOnUse">
<stop stop-color="#76C5FF"/>
<stop offset="1" stop-color="#1F83CB"/>
</linearGradient>
<linearGradient id="paint4_linear" x1="46.1768" y1="22.9286" x2="73.2741" y2="22.9286" gradientUnits="userSpaceOnUse">
<stop stop-color="#76C5FF"/>
<stop offset="1" stop-color="#1F83CB"/>
</linearGradient>
<linearGradient id="paint5_linear" x1="46.1768" y1="30.13" x2="78.2256" y2="30.13" gradientUnits="userSpaceOnUse">
<stop stop-color="#76C5FF"/>
<stop offset="1" stop-color="#1F83CB"/>
</linearGradient>
<linearGradient id="paint6_linear" x1="46.1768" y1="44.3466" x2="82.4492" y2="44.3466" gradientUnits="userSpaceOnUse">
<stop stop-color="#76C5FF"/>
<stop offset="1" stop-color="#1F83CB"/>
</linearGradient>
<linearGradient id="paint7_linear" x1="46.1768" y1="51.5472" x2="73.2741" y2="51.5472" gradientUnits="userSpaceOnUse">
<stop stop-color="#76C5FF"/>
<stop offset="1" stop-color="#1F83CB"/>
</linearGradient>
<linearGradient id="paint8_linear" x1="46.1768" y1="58.7486" x2="78.2256" y2="58.7486" gradientUnits="userSpaceOnUse">
<stop stop-color="#76C5FF"/>
<stop offset="1" stop-color="#1F83CB"/>
</linearGradient>
<linearGradient id="paint9_linear" x1="17.458" y1="90.2099" x2="40.5941" y2="90.2099" gradientUnits="userSpaceOnUse">
<stop stop-color="#76C5FF"/>
<stop offset="1" stop-color="#1F83CB"/>
</linearGradient>
<linearGradient id="paint10_linear" x1="46.1768" y1="72.9652" x2="82.4492" y2="72.9652" gradientUnits="userSpaceOnUse">
<stop stop-color="#76C5FF"/>
<stop offset="1" stop-color="#1F83CB"/>
</linearGradient>
<linearGradient id="paint11_linear" x1="46.1768" y1="80.1659" x2="73.2741" y2="80.1659" gradientUnits="userSpaceOnUse">
<stop stop-color="#76C5FF"/>
<stop offset="1" stop-color="#1F83CB"/>
</linearGradient>
<linearGradient id="paint12_linear" x1="46.1768" y1="87.3672" x2="78.2256" y2="87.3672" gradientUnits="userSpaceOnUse">
<stop stop-color="#76C5FF"/>
<stop offset="1" stop-color="#1F83CB"/>
</linearGradient>
<linearGradient id="paint13_linear" x1="17.458" y1="61.5913" x2="44.2402" y2="61.5913" gradientUnits="userSpaceOnUse">
<stop stop-color="#76C5FF"/>
<stop offset="1" stop-color="#1F83CB"/>
</linearGradient>
</defs>
</svg>
