<svg width="100" height="100" viewBox="0 0 100 100" fill="none" xmlns="http://www.w3.org/2000/svg">
<g clip-path="url(#clip0)">
<path d="M69.7301 62.6293L66.1453 59.0443C66.743 57.9785 67.2313 56.8593 67.6055 55.6988H72.8695C73.6787 55.6988 74.3344 55.0431 74.3344 54.234V45.766C74.3344 44.9568 73.6787 44.3011 72.8695 44.3011H67.6053C67.2311 43.1408 66.7428 42.0217 66.1451 40.9558L69.7299 37.3709C70.302 36.7988 70.302 35.8715 69.7299 35.2996L64.2248 29.7941C63.95 29.5195 63.5775 29.3652 63.1889 29.3652C62.8002 29.3652 62.4279 29.5195 62.1529 29.7941L58.4295 33.5177C57.5447 33.0638 56.626 32.6828 55.6816 32.3779V27.1136C55.6816 26.3045 55.026 25.6488 54.2168 25.6488H46.4314C45.6223 25.6488 44.9666 26.3045 44.9666 27.1136V32.1824C43.7928 32.5134 42.6566 32.9599 41.5697 33.5177L37.8463 29.7941C37.5715 29.5195 37.199 29.3652 36.8104 29.3652C36.4217 29.3652 36.0494 29.5195 35.7744 29.7941L30.2693 35.2996C29.6973 35.8717 29.6973 36.799 30.2693 37.3709L33.8541 40.9558C33.2564 42.0217 32.7682 43.1408 32.3939 44.3011H27.1299C26.3207 44.3011 25.665 44.9568 25.665 45.766V54.234C25.665 55.0431 26.3207 55.6988 27.1299 55.6988H32.3939C32.7682 56.8593 33.2564 57.9785 33.8541 59.0443L30.2693 62.6293C29.6973 63.2013 29.6973 64.1287 30.2693 64.7007L35.7744 70.2058C36.3465 70.7775 37.274 70.7779 37.8459 70.2058L41.5695 66.4824C42.6563 67.04 43.7926 67.4867 44.9664 67.8177V72.8865C44.9664 73.6957 45.6221 74.3513 46.4313 74.3513H54.2166C55.0258 74.3513 55.6814 73.6957 55.6814 72.8865V67.6222C56.6258 67.3173 57.5445 66.9363 58.4293 66.4824L62.1529 70.2058C62.7248 70.7777 63.6523 70.7777 64.2244 70.2058L69.7295 64.7007C70.302 64.1287 70.302 63.2013 69.7301 62.6293ZM63.1891 67.0984L59.7219 63.6314C59.2482 63.158 58.5137 63.0654 57.9379 63.408C56.6611 64.1666 55.2875 64.7363 53.8553 65.1013C53.2062 65.2668 52.7522 65.8511 52.7522 66.5209V71.4216H47.8963V66.6718C47.8963 65.9804 47.4129 65.3832 46.7367 65.2392C45.0877 64.8877 43.5146 64.2716 42.0613 63.4082C41.4855 63.0656 40.7508 63.158 40.2773 63.6316L36.8102 67.0986L33.3768 63.6652L36.7361 60.3056C37.2248 59.817 37.3055 59.0531 36.9293 58.473C36.0088 57.0531 35.3309 55.5052 34.915 53.8724C34.7496 53.2234 34.1652 52.7693 33.4955 52.7693H28.5947V47.231H33.4959C34.1656 47.231 34.75 46.7769 34.9154 46.1279C35.3316 44.4953 36.0094 42.9474 36.9297 41.5275C37.3059 40.9474 37.2252 40.1836 36.7365 39.6949L33.3771 36.3353L36.8105 32.9017L40.2775 36.3689C40.7512 36.8424 41.4855 36.9345 42.0617 36.5924C43.5148 35.7289 45.0879 35.1129 46.7371 34.7613C47.4133 34.6174 47.8967 34.0201 47.8967 33.3287V28.5789H52.7523V33.4797C52.7523 34.1494 53.2064 34.7338 53.8555 34.8992C55.2877 35.2642 56.6613 35.834 57.9381 36.5926C58.5135 36.9349 59.2482 36.8426 59.7223 36.3691L63.1893 32.9019L66.6227 36.3355L63.2633 39.6951C62.7746 40.1838 62.694 40.9476 63.0701 41.5277C63.9906 42.9476 64.6684 44.4953 65.0844 46.1281C65.2498 46.7771 65.8342 47.2312 66.5039 47.2312H71.4047V52.7695H66.5037C65.834 52.7695 65.2496 53.2236 65.0842 53.8726C64.6682 55.5052 63.9902 57.0533 63.0699 58.4732C62.6938 59.0533 62.7744 59.8172 63.2631 60.3058L66.6225 63.6654L63.1891 67.0984Z" fill="url(#paint0_linear)"/>
<path d="M49.9996 42.6162C49.6238 42.6162 49.2467 42.6447 48.8787 42.701C48.0789 42.823 47.5297 43.5703 47.6518 44.3701C47.7738 45.1701 48.5217 45.7191 49.3209 45.5971C49.5432 45.5631 49.7715 45.5459 49.9998 45.5459C52.4557 45.5459 54.4539 47.5439 54.4539 50C54.4539 52.456 52.4559 54.4541 49.9998 54.4541C47.5438 54.4541 45.5457 52.456 45.5457 50C45.5457 49.7703 45.5631 49.5402 45.5977 49.3166C45.7205 48.517 45.1719 47.7691 44.3725 47.6461C43.573 47.5225 42.825 48.0715 42.702 48.8713C42.6449 49.2418 42.6162 49.6217 42.6162 49.9998C42.6162 54.0713 45.9285 57.3836 50 57.3836C54.0715 57.3836 57.3838 54.0713 57.3838 49.9998C57.3838 45.9283 54.0711 42.6162 49.9996 42.6162Z" fill="url(#paint1_linear)"/>
<path d="M86.6977 8.8783C84.2582 8.8783 82.2734 10.8631 82.2734 13.3025C82.2734 15.742 84.2582 17.7267 86.6977 17.7267C89.1371 17.7267 91.1219 15.742 91.1219 13.3025C91.1219 10.8631 89.1371 8.8783 86.6977 8.8783ZM86.6977 14.7972C85.8734 14.7972 85.2031 14.1267 85.2031 13.3027C85.2031 12.4787 85.8736 11.8082 86.6977 11.8082C87.5217 11.8082 88.1922 12.4787 88.1922 13.3027C88.1922 14.1267 87.5217 14.7972 86.6977 14.7972Z" fill="url(#paint2_linear)"/>
<path d="M98.5352 8.87832H96.0452C95.0213 6.71113 93.2889 4.97871 91.1217 3.95488V1.46484C91.1217 0.655664 90.466 0 89.6569 0H83.7379C82.9287 0 82.2731 0.655664 82.2731 1.46484V3.95469C80.1057 4.97871 78.3734 6.71094 77.3494 8.87832H74.8594C74.0502 8.87832 73.3945 9.53398 73.3945 10.3432V16.2621C73.3945 17.0713 74.0502 17.727 74.8594 17.727H77.3492C78.3733 19.8943 80.1057 21.6268 82.2731 22.6508V25.1406C82.2731 25.9498 82.9287 26.6055 83.7379 26.6055H89.6569C90.466 26.6055 91.1217 25.9498 91.1217 25.1406V22.6506C93.2891 21.6266 95.0213 19.8943 96.0453 17.727H98.5352C99.3444 17.727 100 17.0713 100 16.2621V10.3432C100 9.53398 99.3444 8.87832 98.5352 8.87832ZM97.0703 14.7973H95.0666C94.4463 14.7973 93.8934 15.1879 93.6862 15.7725C92.9453 17.8611 91.2561 19.5508 89.1672 20.2916C88.5826 20.499 88.192 21.052 88.192 21.6721V23.6758H85.2028V21.6721C85.2028 21.0518 84.8121 20.4988 84.2276 20.2916C82.1389 19.5508 80.4492 17.8613 79.7084 15.7725C79.501 15.1879 78.9481 14.7973 78.3279 14.7973H76.3242V11.808H78.3279C78.9483 11.808 79.5012 11.4174 79.7084 10.8328C80.4492 8.74414 82.1387 7.05469 84.2276 6.31387C84.8121 6.10645 85.2028 5.55352 85.2028 4.9334V2.92969H88.192V4.9334C88.192 5.55371 88.5826 6.10664 89.1672 6.31387C91.2559 7.05469 92.9453 8.74395 93.6862 10.8328C93.8936 11.4174 94.4465 11.808 95.0666 11.808H97.0703V14.7973Z" fill="url(#paint3_linear)"/>
<path d="M91.1219 86.6975C91.1219 84.258 89.1371 82.2733 86.6977 82.2733C84.2582 82.2733 82.2734 84.258 82.2734 86.6975C82.2734 89.1369 84.2582 91.1217 86.6977 91.1217C89.1371 91.1217 91.1219 89.1369 91.1219 86.6975ZM85.2029 86.6975C85.2029 85.8733 85.8734 85.2029 86.6975 85.2029C87.5215 85.2029 88.192 85.8734 88.192 86.6975C88.192 87.5215 87.5215 88.192 86.6975 88.192C85.8734 88.192 85.2029 87.5215 85.2029 86.6975Z" fill="url(#paint4_linear)"/>
<path d="M98.5352 82.273H96.0453C95.0213 80.1056 93.2891 78.3734 91.1217 77.3494V74.8593C91.1217 74.0501 90.466 73.3945 89.6569 73.3945H83.7379C82.9287 73.3945 82.2731 74.0501 82.2731 74.8593V77.464C81.8768 77.8703 81.7371 78.4888 81.9678 79.0468C82.2766 79.7945 83.133 80.1499 83.8809 79.8414C83.9949 79.7943 84.1102 79.75 84.227 79.7085C84.8117 79.5013 85.2028 78.9482 85.2028 78.3279V76.3242H88.192V78.3279C88.192 78.9482 88.5826 79.5011 89.1672 79.7083C91.2559 80.4492 92.9453 82.1386 93.6862 84.2275C93.8936 84.8121 94.4465 85.2027 95.0666 85.2027H97.0703V88.192H95.0666C94.4463 88.192 93.8934 88.5826 93.6862 89.1672C92.9453 91.2558 91.2561 92.9453 89.1672 93.6861C88.5826 93.8935 88.192 94.4465 88.192 95.0666V97.0703H85.2028V95.0666C85.2028 94.4463 84.8121 93.8933 84.2276 93.6861C82.1389 92.9453 80.4492 91.256 79.7084 89.1672C79.501 88.5826 78.9481 88.192 78.3279 88.192H76.3242V85.2027H78.3279C78.9486 85.2027 79.5018 84.8117 79.7088 84.2267C79.7524 84.1037 79.7992 83.9822 79.849 83.8625C80.1592 83.1152 79.8049 82.258 79.0576 81.9478C78.4902 81.7119 77.8584 81.8603 77.4516 82.273H74.8594C74.0502 82.273 73.3945 82.9287 73.3945 83.7378V89.6568C73.3945 90.466 74.0502 91.1216 74.8594 91.1216H77.3494C78.3734 93.289 80.1057 95.0213 82.2731 96.0453V98.5351C82.2731 99.3443 82.9287 100 83.7379 100H89.6569C90.466 100 91.1217 99.3443 91.1217 98.5351V96.0451C93.2889 95.0213 95.0213 93.2888 96.0452 91.1216H98.5352C99.3444 91.1216 100 90.466 100 89.6568V83.7378C100 82.9289 99.3444 82.273 98.5352 82.273Z" fill="url(#paint5_linear)"/>
<path d="M17.7266 13.3025C17.7266 10.8631 15.7418 8.8783 13.3023 8.8783C10.8629 8.8783 8.87793 10.8631 8.87793 13.3025C8.87793 15.742 10.8627 17.7267 13.3021 17.7267C15.7416 17.7267 17.7266 15.7422 17.7266 13.3025ZM11.8076 13.3025C11.8076 12.4783 12.4781 11.808 13.3021 11.808C14.1262 11.808 14.7967 12.4785 14.7967 13.3025C14.7967 14.1265 14.1262 14.797 13.3021 14.797C12.4781 14.797 11.8076 14.1267 11.8076 13.3025Z" fill="url(#paint6_linear)"/>
<path d="M1.46484 17.727H3.95469C4.97871 19.8943 6.71094 21.6266 8.87832 22.6506V25.1406C8.87832 25.9498 9.53398 26.6055 10.3432 26.6055H16.2621C17.0713 26.6055 17.727 25.9498 17.727 25.1406V22.6508C19.8943 21.6268 21.6268 19.8943 22.6508 17.727H25.1406C25.9498 17.727 26.6055 17.0713 26.6055 16.2621V10.3432C26.6055 9.53398 25.9498 8.87832 25.1406 8.87832H22.6506C21.6266 6.71094 19.8943 4.97871 17.727 3.95469V1.46484C17.727 0.655664 17.0713 0 16.2621 0H10.3432C9.53398 0 8.87832 0.655664 8.87832 1.46484V4.06973C8.48203 4.47617 8.34258 5.09492 8.57324 5.65293C8.88242 6.40039 9.73906 6.75547 10.4869 6.44648C10.6006 6.39941 10.716 6.35508 10.8328 6.31367C11.4174 6.10625 11.808 5.55332 11.808 4.9332V2.92969H14.7973V4.9334C14.7973 5.55371 15.1879 6.10664 15.7725 6.31387C17.8611 7.05469 19.5508 8.74414 20.2916 10.8328C20.499 11.4174 21.052 11.808 21.6721 11.808H23.6758V14.7973H21.6721C21.0518 14.7973 20.4988 15.1879 20.2916 15.7725C19.5508 17.8611 17.8611 19.5508 15.7725 20.2916C15.1879 20.499 14.7973 21.052 14.7973 21.6721V23.6758H11.808V21.6721C11.808 21.0518 11.4174 20.4988 10.8328 20.2916C8.74414 19.5508 7.05469 17.8611 6.31387 15.7725C6.10645 15.1879 5.55352 14.7973 4.9334 14.7973H2.92969V11.808H4.9334C5.55371 11.808 6.10684 11.4172 6.31406 10.8326C6.35742 10.71 6.4041 10.5889 6.45391 10.4695C6.76484 9.72266 6.41152 8.86504 5.66484 8.55391C5.09629 8.31719 4.46445 8.46523 4.05742 8.87832H1.46484C0.655664 8.87832 0 9.53398 0 10.3432V16.2621C0 17.0711 0.655664 17.727 1.46484 17.727Z" fill="url(#paint7_linear)"/>
<path d="M25.1406 82.273H22.6508C21.6268 80.1056 19.8943 78.3732 17.727 77.3492V74.8593C17.727 74.0501 17.0713 73.3945 16.2621 73.3945H10.3432C9.53398 73.3945 8.87832 74.0501 8.87832 74.8593V77.3494C6.71094 78.3734 4.97871 80.1056 3.95469 82.273H1.46484C0.655664 82.273 0 82.9287 0 83.7378V89.6568C0 90.466 0.655664 91.1216 1.46484 91.1216H3.95488C4.97871 93.2888 6.71113 95.0213 8.87832 96.0451V98.5351C8.87832 99.3443 9.53398 100 10.3432 100H16.2621C17.0713 100 17.727 99.3443 17.727 98.5351V96.0453C19.8943 95.0213 21.6266 93.289 22.6506 91.1216H25.1406C25.9498 91.1216 26.6055 90.466 26.6055 89.6568V83.7378C26.6055 82.9289 25.9496 82.273 25.1406 82.273ZM23.6758 88.192H21.6721C21.0518 88.192 20.4988 88.5826 20.2916 89.1672C19.5508 91.2558 17.8613 92.9453 15.7725 93.6861C15.1879 93.8935 14.7973 94.4465 14.7973 95.0666V97.0703H11.808V95.0666C11.808 94.4463 11.4174 93.8933 10.8328 93.6861C8.74414 92.9453 7.05469 91.2558 6.31387 89.1672C6.10645 88.5826 5.55352 88.192 4.9334 88.192H2.92969V85.2027H4.9334C5.55371 85.2027 6.10664 84.8121 6.31387 84.2275C7.05469 82.1388 8.74395 80.4492 10.8328 79.7083C11.4174 79.5009 11.808 78.948 11.808 78.3279V76.3242H14.7973V78.3279C14.7973 78.9482 15.1879 79.5011 15.7725 79.7083C17.8611 80.4492 19.5508 82.1386 20.2916 84.2275C20.499 84.8121 21.052 85.2027 21.6721 85.2027H23.6758V88.192Z" fill="url(#paint8_linear)"/>
<path d="M13.3021 82.273C10.8627 82.273 8.87793 84.2578 8.87793 86.6972C8.87793 89.1367 10.8627 91.1214 13.3021 91.1214C15.7416 91.1214 17.7264 89.1367 17.7264 86.6972C17.7264 84.2578 15.7418 82.273 13.3021 82.273ZM13.3021 88.192C12.4779 88.192 11.8076 87.5214 11.8076 86.6974C11.8076 85.8734 12.4781 85.2029 13.3021 85.2029C14.1262 85.2029 14.7967 85.8734 14.7967 86.6974C14.7967 87.5214 14.1264 88.192 13.3021 88.192Z" fill="url(#paint9_linear)"/>
<path d="M24.2039 22.1317C23.6316 21.5598 22.7042 21.5598 22.1322 22.1317C21.5601 22.7039 21.5601 23.6313 22.1322 24.2033L26.3396 28.4108H25.141C24.3318 28.4108 23.6761 29.0664 23.6761 29.8756C23.6761 30.6848 24.3318 31.3404 25.141 31.3404H29.8761C30.6736 31.3404 31.3417 30.6723 31.341 29.8746V25.1406C31.341 24.3315 30.6853 23.6758 29.8761 23.6758C29.0669 23.6758 28.4113 24.3315 28.4113 25.1406V26.3393L24.2039 22.1317Z" fill="url(#paint10_linear)"/>
<path d="M68.6664 30.0207C68.7393 30.7594 69.382 31.3406 70.124 31.3406H74.8592C75.6684 31.3406 76.324 30.6849 76.324 29.8758C76.324 29.0666 75.6684 28.4109 74.8592 28.4109H73.6606L77.868 24.2035C78.4401 23.6312 78.4401 22.7039 77.868 22.1318C77.2957 21.5599 76.3684 21.5599 75.7963 22.1318L71.5889 26.3392V25.1406C71.5889 24.3314 70.9332 23.6758 70.124 23.6758C69.3149 23.6758 68.6592 24.3314 68.6592 25.1406V29.8748C68.659 29.9234 68.6615 29.9722 68.6664 30.0207Z" fill="url(#paint11_linear)"/>
<path d="M31.3339 69.5852C31.2613 68.8453 30.6175 68.2651 29.8763 68.2651H25.1411C24.332 68.2651 23.6763 68.9207 23.6763 69.7299C23.6763 70.5391 24.332 71.1948 25.1411 71.1948H26.3398L22.1323 75.402C21.5601 75.9742 21.5601 76.9016 22.1322 77.4735C22.4183 77.7596 22.7931 77.9026 23.1681 77.9026C23.5429 77.9026 23.9179 77.7596 24.2038 77.4737L28.4115 73.2662V74.4649C28.4115 75.2741 29.0671 75.9297 29.8763 75.9297C30.6855 75.9297 31.3411 75.2741 31.3411 74.4649V69.7305C31.3411 69.6819 31.3386 69.6334 31.3339 69.5852Z" fill="url(#paint12_linear)"/>
<path d="M75.7965 77.4737C76.0824 77.7596 76.4574 77.9026 76.8322 77.9026C77.207 77.9026 77.582 77.7596 77.8682 77.4735C78.4402 76.9014 78.4402 75.974 77.868 75.402L73.6605 71.1948H74.8592C75.6684 71.1948 76.324 70.5391 76.324 69.7299C76.324 68.9207 75.6684 68.2651 74.8592 68.2651H70.124C69.3279 68.2651 68.6588 68.9321 68.6592 69.7305V74.4649C68.6592 75.2741 69.3148 75.9297 70.124 75.9297C70.9332 75.9297 71.5889 75.2741 71.5889 74.4649V73.2662L75.7965 77.4737Z" fill="url(#paint13_linear)"/>
</g>
<defs>
<linearGradient id="paint0_linear" x1="25.665" y1="74.3513" x2="74.3344" y2="74.3513" gradientUnits="userSpaceOnUse">
<stop stop-color="#76C5FF"/>
<stop offset="1" stop-color="#1F83CB"/>
</linearGradient>
<linearGradient id="paint1_linear" x1="42.6162" y1="57.3836" x2="57.3838" y2="57.3836" gradientUnits="userSpaceOnUse">
<stop stop-color="#76C5FF"/>
<stop offset="1" stop-color="#1F83CB"/>
</linearGradient>
<linearGradient id="paint2_linear" x1="82.2734" y1="17.7267" x2="91.1219" y2="17.7267" gradientUnits="userSpaceOnUse">
<stop stop-color="#76C5FF"/>
<stop offset="1" stop-color="#1F83CB"/>
</linearGradient>
<linearGradient id="paint3_linear" x1="73.3945" y1="26.6054" x2="100" y2="26.6054" gradientUnits="userSpaceOnUse">
<stop stop-color="#76C5FF"/>
<stop offset="1" stop-color="#1F83CB"/>
</linearGradient>
<linearGradient id="paint4_linear" x1="82.2734" y1="91.1217" x2="91.1219" y2="91.1217" gradientUnits="userSpaceOnUse">
<stop stop-color="#76C5FF"/>
<stop offset="1" stop-color="#1F83CB"/>
</linearGradient>
<linearGradient id="paint5_linear" x1="73.3945" y1="100" x2="100" y2="100" gradientUnits="userSpaceOnUse">
<stop stop-color="#76C5FF"/>
<stop offset="1" stop-color="#1F83CB"/>
</linearGradient>
<linearGradient id="paint6_linear" x1="8.87793" y1="17.7267" x2="17.7266" y2="17.7267" gradientUnits="userSpaceOnUse">
<stop stop-color="#76C5FF"/>
<stop offset="1" stop-color="#1F83CB"/>
</linearGradient>
<linearGradient id="paint7_linear" x1="4.07603e-06" y1="26.6054" x2="26.6055" y2="26.6054" gradientUnits="userSpaceOnUse">
<stop stop-color="#76C5FF"/>
<stop offset="1" stop-color="#1F83CB"/>
</linearGradient>
<linearGradient id="paint8_linear" x1="4.07603e-06" y1="100" x2="26.6055" y2="100" gradientUnits="userSpaceOnUse">
<stop stop-color="#76C5FF"/>
<stop offset="1" stop-color="#1F83CB"/>
</linearGradient>
<linearGradient id="paint9_linear" x1="8.87793" y1="91.1214" x2="17.7264" y2="91.1214" gradientUnits="userSpaceOnUse">
<stop stop-color="#76C5FF"/>
<stop offset="1" stop-color="#1F83CB"/>
</linearGradient>
<linearGradient id="paint10_linear" x1="21.7031" y1="31.3404" x2="31.341" y2="31.3404" gradientUnits="userSpaceOnUse">
<stop stop-color="#76C5FF"/>
<stop offset="1" stop-color="#1F83CB"/>
</linearGradient>
<linearGradient id="paint11_linear" x1="68.6592" y1="31.3406" x2="78.297" y2="31.3406" gradientUnits="userSpaceOnUse">
<stop stop-color="#76C5FF"/>
<stop offset="1" stop-color="#1F83CB"/>
</linearGradient>
<linearGradient id="paint12_linear" x1="21.7031" y1="77.9026" x2="31.3411" y2="77.9026" gradientUnits="userSpaceOnUse">
<stop stop-color="#76C5FF"/>
<stop offset="1" stop-color="#1F83CB"/>
</linearGradient>
<linearGradient id="paint13_linear" x1="68.6592" y1="77.9026" x2="78.2972" y2="77.9026" gradientUnits="userSpaceOnUse">
<stop stop-color="#76C5FF"/>
<stop offset="1" stop-color="#1F83CB"/>
</linearGradient>
<clipPath id="clip0">
<rect width="100" height="100" fill="white"/>
</clipPath>
</defs>
</svg>
