<svg width="100" height="100" viewBox="0 0 100 100" fill="none" xmlns="http://www.w3.org/2000/svg">
<path d="M96.7736 48.6831V35.1849C98.6462 34.5172 99.9994 32.743 99.9994 30.6431C99.9994 27.9754 97.8284 25.8044 95.1607 25.8044C94.6059 25.8044 94.0801 25.9173 93.5833 26.0899L86.356 17.0546C86.8173 16.3175 87.0964 15.4514 87.0964 14.5159C87.0964 11.8482 84.9254 9.67726 82.2577 9.67726C80.9013 9.67726 79.6787 10.2418 78.7981 11.1434L66.0838 5.27572C66.0983 5.12895 66.1289 4.98863 66.1289 4.83863C66.1289 2.17093 63.958 0 61.2903 0C59.1903 0 57.4162 1.3532 56.7485 3.22575H38.4133C37.7455 1.3532 35.9714 0 33.8714 0C31.2037 0 29.0328 2.17093 29.0328 4.83863C29.0328 5.03863 29.0683 5.23056 29.0924 5.42411L21.0926 9.42404C20.2216 8.58696 19.0442 8.06439 17.7426 8.06439C15.0749 8.06439 12.904 10.2353 12.904 12.903C12.904 13.8385 13.183 14.7046 13.6427 15.4449L6.41539 24.4786C5.91862 24.3061 5.39444 24.1932 4.83961 24.1932C2.17191 24.1932 0.000976562 26.3641 0.000976562 29.0318C0.000976562 31.1318 1.35418 32.9059 3.22673 33.5737V43.8461C1.35418 44.5122 0.000976562 46.2864 0.000976562 48.3863C0.000976562 51.054 2.17191 53.2249 4.83961 53.2249C6.63152 53.2249 8.17988 52.2346 9.01696 50.7847L17.8217 52.3863C18.1942 54.6846 20.1781 56.4507 22.5813 56.4507C22.6474 56.4507 22.7071 56.4346 22.7716 56.4313L25.8489 64.1248C24.8425 65.0135 24.1941 66.2957 24.1941 67.7408C24.1941 70.4085 26.3651 72.5795 29.0328 72.5795C30.6553 72.5795 32.0859 71.7698 32.9633 70.5408L46.8051 74.4956C46.9293 76.4601 48.2196 78.0987 50.0002 78.7342V90.6195C48.1276 91.2872 46.7744 93.0614 46.7744 95.1614C46.7744 97.8291 48.9454 100 51.613 100C54.2807 100 56.4517 97.8291 56.4517 95.1614C56.4517 93.0614 55.0985 91.2872 53.2259 90.6195V78.7342C55.0985 78.0665 56.4517 76.2923 56.4517 74.1924C56.4517 72.6472 55.7098 71.2827 54.5775 70.3973L56.5033 64.6199L70.9756 69.444C71.0144 71.5037 72.3466 73.2359 74.1917 73.894V90.6179C72.3192 91.2856 70.966 93.0598 70.966 95.1598C70.966 97.8275 73.1369 99.9984 75.8046 99.9984C78.4723 99.9984 80.6432 97.8275 80.6432 95.1598C80.6432 93.0598 79.29 91.2856 77.4175 90.6179V73.8956C79.29 73.2279 80.6432 71.4537 80.6432 69.3537C80.6432 68.765 80.5223 68.207 80.3287 67.6844L92.7043 57.3717C93.4269 57.8007 94.2607 58.0636 95.1607 58.0636C97.8284 58.0636 99.9994 55.8926 99.9994 53.2249C99.9994 51.125 98.6462 49.3508 96.7736 48.6831ZM27.4102 51.5218C27.407 51.3282 27.378 51.1427 27.3521 50.9556L40.5826 44.0961L44.6744 57.2781L27.4102 51.5218ZM23.8103 46.9509L21.5748 29.8092L32.6279 29.256C33.3295 30.956 34.973 32.1592 36.9052 32.2366L39.6132 40.9639L25.8764 48.0863C25.299 47.5492 24.5941 47.1589 23.8103 46.9509ZM9.3105 27.1931C9.20889 26.9463 9.07825 26.7141 8.93793 26.4899L16.1652 17.4562C16.3523 17.5207 16.5362 17.59 16.7314 17.632L17.9233 26.7625L9.3105 27.1931ZM19.9281 17.1965C21.4958 16.3949 22.5813 14.7804 22.5813 12.903C22.5813 12.703 22.5458 12.5111 22.5216 12.3175L30.5215 8.31761C31.3924 9.15469 32.5698 9.67726 33.8714 9.67726C34.8617 9.67726 35.7827 9.37566 36.5504 8.86276L46.5664 16.3739L39.3149 23.1416C38.6471 22.7964 37.9004 22.5803 37.0972 22.5803C34.9133 22.5803 33.0843 24.0432 32.4843 26.0351L21.1555 26.6012L19.9281 17.1965ZM56.8597 6.76925L48.9615 14.1401L38.7084 6.45151H56.7485C56.7872 6.55796 56.8146 6.66602 56.8597 6.76925ZM61.3564 29.6898L48.3776 36.4204L41.4503 29.4931C41.7519 28.8608 41.9358 28.1641 41.9358 27.4189C41.9358 26.7318 41.7874 26.0818 41.5293 25.4899L49.1873 18.3416L61.5306 27.5996C61.3887 28.0544 61.2903 28.5302 61.2903 29.0318C61.2903 29.2576 61.3274 29.4721 61.3564 29.6898ZM38.71 27.4189C38.71 28.3076 37.9875 29.0318 37.0972 29.0318C36.2068 29.0318 35.4843 28.3076 35.4843 27.4189C35.4843 26.5302 36.2068 25.806 37.0972 25.806C37.9875 25.806 38.71 26.5302 38.71 27.4189ZM45.3744 37.9768L42.5213 39.4558L40.5713 33.1737L45.3744 37.9768ZM43.4922 42.5864L47.7663 40.3703L55.3227 47.9266C55.0227 48.5573 54.8388 49.254 54.8388 49.9992C54.8388 51.5459 55.5807 52.9088 56.713 53.7943L54.4646 60.5393L48.4421 58.5313L43.4922 42.5864ZM59.6774 51.6121C58.7871 51.6121 58.0646 50.8879 58.0646 49.9992C58.0646 49.1105 58.7871 48.3863 59.6774 48.3863C60.5677 48.3863 61.2903 49.1105 61.2903 49.9992C61.2903 50.8879 60.5677 51.6121 59.6774 51.6121ZM59.6774 45.1606C58.9323 45.1606 58.2355 45.3428 57.6049 45.646L50.7711 38.8123L62.8354 32.5559C63.7 33.3656 64.8532 33.8704 66.1289 33.8704C67.0289 33.8704 67.8628 33.6075 68.5854 33.1769L75.9288 39.2961L62.8919 46.4073C62.0338 45.6412 60.9161 45.1606 59.6774 45.1606ZM79.9642 18.7497C80.6497 19.1239 81.4239 19.3545 82.2577 19.3545C82.8125 19.3545 83.3367 19.2416 83.8335 19.069L91.0608 28.1044C90.6011 28.8447 90.3221 29.7092 90.3221 30.6447C90.3221 30.9043 90.3592 31.156 90.3995 31.4043L78.9755 37.6365L70.6531 30.7011C70.8466 30.1785 70.9676 29.6205 70.9676 29.0318C70.9676 28.3753 70.8337 27.7512 70.5966 27.1802L79.9642 18.7497ZM92.7059 49.0782L81.64 39.8558L91.9479 34.2333C92.4108 34.6494 92.9511 34.972 93.5495 35.1849V48.6831C93.2527 48.7895 92.9721 48.9202 92.7059 49.0782ZM67.7418 29.0318C67.7418 29.9205 67.0192 30.6447 66.1289 30.6447C65.2386 30.6447 64.5161 29.9205 64.5161 29.0318C64.5161 28.1431 65.2386 27.4189 66.1289 27.4189C67.0192 27.4189 67.7418 28.1431 67.7418 29.0318ZM78.5933 41.5187L90.1511 51.1508L65.1096 48.8734L78.5933 41.5187ZM96.7736 30.6447C96.7736 31.5334 96.051 32.2575 95.1607 32.2575C94.2704 32.2575 93.5479 31.5334 93.5479 30.6447C93.5479 29.756 94.2704 29.0318 95.1607 29.0318C96.051 29.0318 96.7736 29.756 96.7736 30.6447ZM82.2577 12.903C83.148 12.903 83.8706 13.6272 83.8706 14.5159C83.8706 15.4046 83.148 16.1288 82.2577 16.1288C81.3674 16.1288 80.6448 15.4046 80.6448 14.5159C80.6448 13.6272 81.3674 12.903 82.2577 12.903ZM77.4626 14.0788C77.4497 14.2256 77.4191 14.3659 77.4191 14.5159C77.4191 15.1723 77.553 15.7965 77.79 16.3675L68.4208 24.798C67.737 24.4238 66.9628 24.1932 66.1289 24.1932C65.1386 24.1932 64.2177 24.4948 63.45 25.0077L51.5824 16.1062L59.0742 9.11437C59.7403 9.46275 60.4871 9.67726 61.2903 9.67726C62.6467 9.67726 63.8709 9.11276 64.7499 8.21116L77.4626 14.0788ZM61.2903 3.22575C62.1806 3.22575 62.9032 3.94994 62.9032 4.83863C62.9032 5.72733 62.1806 6.45151 61.2903 6.45151C60.4 6.45151 59.6774 5.72733 59.6774 4.83863C59.6774 3.94994 60.4 3.22575 61.2903 3.22575ZM33.8714 3.22575C34.7617 3.22575 35.4843 3.94994 35.4843 4.83863C35.4843 5.72733 34.7617 6.45151 33.8714 6.45151C32.9811 6.45151 32.2585 5.72733 32.2585 4.83863C32.2585 3.94994 32.9811 3.22575 33.8714 3.22575ZM17.7426 11.2901C18.6329 11.2901 19.3555 12.0143 19.3555 12.903C19.3555 13.7917 18.6329 14.5159 17.7426 14.5159C16.8523 14.5159 16.1297 13.7917 16.1297 12.903C16.1297 12.0143 16.8523 11.2901 17.7426 11.2901ZM4.83961 27.4189C5.72992 27.4189 6.45249 28.1431 6.45249 29.0318C6.45249 29.9205 5.72992 30.6447 4.83961 30.6447C3.9493 30.6447 3.22673 29.9205 3.22673 29.0318C3.22673 28.1431 3.9493 27.4189 4.83961 27.4189ZM4.83961 49.9992C3.9493 49.9992 3.22673 49.275 3.22673 48.3863C3.22673 47.4976 3.9493 46.7734 4.83961 46.7734C5.72992 46.7734 6.45249 47.4976 6.45249 48.3863C6.45249 49.275 5.72992 49.9992 4.83961 49.9992ZM6.45249 43.8445V33.572C7.8944 33.0575 9.0089 31.8882 9.45244 30.414L18.3426 29.9689L20.591 47.2105C19.6652 47.6299 18.9087 48.3363 18.4039 49.2105L9.60082 47.6121C9.31534 45.8573 8.08956 44.4283 6.45249 43.8445ZM20.9684 51.6121C20.9684 50.7234 21.691 49.9992 22.5813 49.9992C23.4716 49.9992 24.1941 50.7234 24.1941 51.6121C24.1941 52.5008 23.4716 53.2249 22.5813 53.2249C21.691 53.2249 20.9684 52.5008 20.9684 51.6121ZM25.7651 55.2265C25.9893 55.0298 26.1925 54.812 26.3764 54.5765L45.8518 61.0684L48.7276 70.3311C48.3276 70.6311 47.9728 70.9843 47.6825 71.3908L33.8408 67.436C33.6811 64.9135 31.5972 62.9022 29.0328 62.9022C28.9683 62.9022 28.907 62.9183 28.8441 62.9216L25.7651 55.2265ZM29.0328 69.3537C28.1425 69.3537 27.4199 68.6295 27.4199 67.7408C27.4199 66.8521 28.1425 66.128 29.0328 66.128C29.9231 66.128 30.6456 66.8521 30.6456 67.7408C30.6456 68.6295 29.9231 69.3537 29.0328 69.3537ZM51.613 96.7726C50.7227 96.7726 50.0002 96.0485 50.0002 95.1598C50.0002 94.2711 50.7227 93.5469 51.613 93.5469C52.5034 93.5469 53.2259 94.2711 53.2259 95.1598C53.2259 96.0485 52.5034 96.7726 51.613 96.7726ZM51.613 75.8052C50.7227 75.8052 50.0002 75.081 50.0002 74.1924C50.0002 73.3037 50.7227 72.5795 51.613 72.5795C52.5034 72.5795 53.2259 73.3037 53.2259 74.1924C53.2259 75.081 52.5034 75.8052 51.613 75.8052ZM51.6679 68.9279L49.6179 62.3248L53.4437 63.6006L51.6679 68.9279ZM59.7678 54.8281C61.6742 54.7927 63.3064 53.6507 64.0612 52.0169L90.4898 54.4201C90.5318 54.5814 90.5802 54.7394 90.6366 54.8943L78.261 65.207C77.5384 64.778 76.7062 64.5151 75.8062 64.5151C74.2611 64.5151 72.8966 65.257 72.0111 66.3893L57.5242 61.5603L59.7678 54.8281ZM75.8062 96.7726C74.9159 96.7726 74.1933 96.0485 74.1933 95.1598C74.1933 94.2711 74.9159 93.5469 75.8062 93.5469C76.6965 93.5469 77.4191 94.2711 77.4191 95.1598C77.4191 96.0485 76.6965 96.7726 75.8062 96.7726ZM75.8062 70.9666C74.9159 70.9666 74.1933 70.2424 74.1933 69.3537C74.1933 68.465 74.9159 67.7408 75.8062 67.7408C76.6965 67.7408 77.4191 68.465 77.4191 69.3537C77.4191 70.2424 76.6965 70.9666 75.8062 70.9666ZM95.1607 54.8378C94.2704 54.8378 93.5479 54.1136 93.5479 53.2249C93.5479 52.3363 94.2704 51.6121 95.1607 51.6121C96.051 51.6121 96.7736 52.3363 96.7736 53.2249C96.7736 54.1136 96.051 54.8378 95.1607 54.8378Z" fill="url(#paint0_linear)"/>
<defs>
<linearGradient id="paint0_linear" x1="0.000991883" y1="99.9999" x2="99.9994" y2="99.9999" gradientUnits="userSpaceOnUse">
<stop stop-color="#76C5FF"/>
<stop offset="1" stop-color="#1F83CB"/>
</linearGradient>
</defs>
</svg>
