<svg width="100" height="100" viewBox="0 0 100 100" fill="none" xmlns="http://www.w3.org/2000/svg">
<path d="M50 35.9375C42.2469 35.9375 35.9375 42.2469 35.9375 50C35.9375 57.7531 42.2469 64.0625 50 64.0625C57.7531 64.0625 64.0625 57.7531 64.0625 50C64.0625 42.2469 57.7531 35.9375 50 35.9375ZM50 60.9375C43.9688 60.9375 39.0625 56.0312 39.0625 50C39.0625 43.9688 43.9688 39.0625 50 39.0625C56.0312 39.0625 60.9375 43.9688 60.9375 50C60.9375 56.0312 56.0312 60.9375 50 60.9375Z" fill="url(#paint0_linear)"/>
<path d="M84.375 26.5625H96.875C97.7375 26.5625 98.4375 25.8625 98.4375 25V12.5C98.4375 11.6375 97.7375 10.9375 96.875 10.9375H84.375C83.5125 10.9375 82.8125 11.6375 82.8125 12.5V17.1875H78.125C77.2625 17.1875 76.5625 17.8875 76.5625 18.75V48.4375H75V46.875C75 46.0922 74.4203 45.4297 73.6438 45.3266L69.6359 44.7922C69.175 43.0484 68.4797 41.3781 67.5609 39.8047L70.0234 36.5859C70.4984 35.9641 70.4406 35.0859 69.8875 34.5328L65.4672 30.1125C64.9141 29.5578 64.0344 29.5 63.4141 29.9766L60.1953 32.4391C58.6219 31.5219 56.9516 30.8266 55.2078 30.3641L54.6734 26.3562C54.5703 25.5797 53.9078 25 53.125 25H46.875C46.0922 25 45.4297 25.5797 45.3266 26.3562L44.7922 30.3641C43.0484 30.825 41.3781 31.5203 39.8047 32.4391L36.5859 29.9766C35.9641 29.5016 35.0859 29.5594 34.5328 30.1125L30.1125 34.5328C29.5594 35.0859 29.5 35.9656 29.9766 36.5859L32.4391 39.8047C31.5219 41.3781 30.8266 43.0484 30.3641 44.7922L26.3563 45.3266C25.5797 45.4297 25 46.0922 25 46.875V48.4375H23.4375V18.75C23.4375 17.8875 22.7375 17.1875 21.875 17.1875H17.1875V12.5C17.1875 11.6375 16.4875 10.9375 15.625 10.9375H3.125C2.2625 10.9375 1.5625 11.6375 1.5625 12.5V25C1.5625 25.8625 2.2625 26.5625 3.125 26.5625H15.625C16.4875 26.5625 17.1875 25.8625 17.1875 25V20.3125H20.3125V48.4375H17.1875V43.75C17.1875 42.8875 16.4875 42.1875 15.625 42.1875H3.125C2.2625 42.1875 1.5625 42.8875 1.5625 43.75V56.25C1.5625 57.1125 2.2625 57.8125 3.125 57.8125H15.625C16.4875 57.8125 17.1875 57.1125 17.1875 56.25V51.5625H20.3125V79.6875H17.1875V75C17.1875 74.1375 16.4875 73.4375 15.625 73.4375H3.125C2.2625 73.4375 1.5625 74.1375 1.5625 75V87.5C1.5625 88.3625 2.2625 89.0625 3.125 89.0625H15.625C16.4875 89.0625 17.1875 88.3625 17.1875 87.5V82.8125H21.875C22.7375 82.8125 23.4375 82.1125 23.4375 81.25V51.5625H25V53.125C25 53.9078 25.5797 54.5703 26.3563 54.6734L30.3641 55.2078C30.825 56.9516 31.5203 58.6219 32.4391 60.1953L29.9766 63.4141C29.5016 64.0359 29.5594 64.9141 30.1125 65.4672L34.5328 69.8875C35.0859 70.4406 35.9625 70.4984 36.5859 70.0234L39.8047 67.5609C41.3781 68.4781 43.0484 69.1734 44.7922 69.6359L45.3266 73.6437C45.4297 74.4203 46.0922 75 46.875 75H53.125C53.9078 75 54.5703 74.4203 54.6734 73.6437L55.2078 69.6359C56.9516 69.175 58.6219 68.4797 60.1953 67.5609L63.4141 70.0234C64.0359 70.5 64.9156 70.4422 65.4672 69.8875L69.8875 65.4672C70.4406 64.9141 70.5 64.0344 70.0234 63.4141L67.5609 60.1953C68.4781 58.6219 69.1734 56.9516 69.6359 55.2078L73.6438 54.6734C74.4203 54.5703 75 53.9078 75 53.125V51.5625H76.5625V81.25C76.5625 82.1125 77.2625 82.8125 78.125 82.8125H82.8125V87.5C82.8125 88.3625 83.5125 89.0625 84.375 89.0625H96.875C97.7375 89.0625 98.4375 88.3625 98.4375 87.5V75C98.4375 74.1375 97.7375 73.4375 96.875 73.4375H84.375C83.5125 73.4375 82.8125 74.1375 82.8125 75V79.6875H79.6875V51.5625H82.8125V56.25C82.8125 57.1125 83.5125 57.8125 84.375 57.8125H96.875C97.7375 57.8125 98.4375 57.1125 98.4375 56.25V43.75C98.4375 42.8875 97.7375 42.1875 96.875 42.1875H84.375C83.5125 42.1875 82.8125 42.8875 82.8125 43.75V48.4375H79.6875V20.3125H82.8125V25C82.8125 25.8625 83.5125 26.5625 84.375 26.5625ZM85.9375 14.0625H95.3125V23.4375H85.9375V14.0625ZM14.0625 23.4375H4.6875V14.0625H14.0625V23.4375ZM14.0625 54.6875H4.6875V45.3125H14.0625V54.6875ZM14.0625 85.9375H4.6875V76.5625H14.0625V85.9375ZM71.875 51.7578L68.1562 52.2531C67.4984 52.3406 66.9672 52.8359 66.8328 53.4875C66.3984 55.6 65.5656 57.6 64.3609 59.4297C63.9953 59.9844 64.0219 60.7094 64.425 61.2375L66.7109 64.2266L64.2266 66.7109L61.2375 64.425C60.7094 64.0219 59.9828 63.9953 59.4297 64.3609C57.6 65.5656 55.6 66.3984 53.4875 66.8328C52.8359 66.9672 52.3422 67.4984 52.2531 68.1562L51.7578 71.875H48.2437L47.7484 68.1562C47.6609 67.4984 47.1656 66.9672 46.5141 66.8328C44.4016 66.3984 42.4016 65.5656 40.5719 64.3609C40.0187 63.9969 39.2938 64.0219 38.7641 64.425L35.775 66.7109L33.2906 64.2266L35.5766 61.2375C35.9797 60.7094 36.0062 59.9844 35.6406 59.4297C34.4359 57.6 33.6031 55.6 33.1688 53.4875C33.0344 52.8359 32.5031 52.3422 31.8453 52.2531L28.125 51.7578V48.2437L31.8437 47.7484C32.5016 47.6609 33.0328 47.1656 33.1672 46.5141C33.6016 44.4016 34.4344 42.4016 35.6391 40.5719C36.0047 40.0172 35.9781 39.2922 35.575 38.7641L33.2891 35.775L35.7734 33.2906L38.7625 35.5766C39.2891 35.9797 40.0156 36.0047 40.5703 35.6406C42.4 34.4359 44.4 33.6031 46.5125 33.1688C47.1641 33.0344 47.6578 32.5031 47.7469 31.8453L48.2422 28.125H51.7563L52.2516 31.8437C52.3391 32.5016 52.8344 33.0328 53.4859 33.1672C55.5984 33.6016 57.5984 34.4344 59.4281 35.6391C59.9844 36.0047 60.7094 35.9797 61.2359 35.575L64.225 33.2891L66.7094 35.7734L64.4234 38.7625C64.0203 39.2906 63.9937 40.0156 64.3594 40.5703C65.5641 42.4 66.3969 44.4 66.8312 46.5125C66.9656 47.1641 67.4969 47.6578 68.1547 47.7469L71.875 48.2422V51.7578ZM85.9375 76.5625H95.3125V85.9375H85.9375V76.5625ZM85.9375 45.3125H95.3125V54.6875H85.9375V45.3125Z" fill="url(#paint1_linear)"/>
<defs>
<linearGradient id="paint0_linear" x1="35.9375" y1="64.0625" x2="64.0625" y2="64.0625" gradientUnits="userSpaceOnUse">
<stop stop-color="#76C5FF"/>
<stop offset="1" stop-color="#1F83CB"/>
</linearGradient>
<linearGradient id="paint1_linear" x1="1.56251" y1="89.0624" x2="98.4375" y2="89.0624" gradientUnits="userSpaceOnUse">
<stop stop-color="#76C5FF"/>
<stop offset="1" stop-color="#1F83CB"/>
</linearGradient>
</defs>
</svg>
