<svg width="30" height="30" viewBox="0 0 30 30" fill="none" xmlns="http://www.w3.org/2000/svg">
<g clip-path="url(#clip0)">
<path d="M28.4617 1.75977H19.1082C18.259 1.75977 17.5698 2.44897 17.5698 3.29817V12.6517C17.5698 13.5009 18.259 14.1901 19.1082 14.1901H23.5849C23.5265 16.6392 22.9573 18.5991 21.8804 20.0729C21.0312 21.236 19.7451 22.199 18.0251 22.959C17.2344 23.3067 16.8929 24.242 17.2621 25.0236L18.3697 27.3619C18.7266 28.1126 19.6097 28.4419 20.3727 28.1126C22.4096 27.2327 24.1296 26.1189 25.5326 24.7651C27.2433 23.1128 28.4155 21.2483 29.0494 19.1684C29.6832 17.0884 30.0001 14.2516 30.0001 10.6517V3.29817C30.0001 2.449 29.3109 1.75977 28.4617 1.75977Z" fill="url(#paint0_linear)"/>
<path d="M3.26256 28.1065C5.27479 27.2296 6.9855 26.1158 8.39775 24.7651C10.1238 23.1128 11.3023 21.2544 11.9361 19.1899C12.5699 17.1254 12.8868 14.2793 12.8868 10.6517V3.29817C12.8868 2.44897 12.1976 1.75977 11.3484 1.75977H1.99488C1.14568 1.75977 0.456479 2.44897 0.456479 3.29817V12.6517C0.456479 13.5009 1.14568 14.1901 1.99488 14.1901H6.47164C6.41318 16.6392 5.84397 18.5991 4.76709 20.0729C3.91789 21.236 2.63178 22.199 0.911846 22.959C0.121106 23.3067 -0.22042 24.242 0.148798 25.0236L1.25337 27.3558C1.61031 28.1065 2.49951 28.4388 3.26256 28.1065Z" fill="url(#paint1_linear)"/>
</g>
<defs>
<linearGradient id="paint0_linear" x1="17.1133" y1="28.2401" x2="30.0001" y2="28.2401" gradientUnits="userSpaceOnUse">
<stop stop-color="#76C5FF"/>
<stop offset="1" stop-color="#1F83CB"/>
</linearGradient>
<linearGradient id="paint1_linear" x1="1.97429e-06" y1="28.2352" x2="12.8868" y2="28.2352" gradientUnits="userSpaceOnUse">
<stop stop-color="#76C5FF"/>
<stop offset="1" stop-color="#1F83CB"/>
</linearGradient>
<clipPath id="clip0">
<rect width="30" height="30" fill="white"/>
</clipPath>
</defs>
</svg>
