<svg width="304" height="304" viewBox="0 0 304 304" fill="none" xmlns="http://www.w3.org/2000/svg">
<g opacity="0.2" clip-path="url(#clip0)">
<path d="M139.33 291.135C62.5088 291.135 0 228.628 0 151.807C0 74.9863 62.5088 12.4775 139.33 12.4775C166.043 12.4775 192.033 20.0894 214.49 34.5036C218.899 37.3424 220.191 43.2194 217.352 47.6399C214.504 52.0604 208.639 53.3383 204.218 50.5019C184.838 38.0497 162.395 31.4769 139.33 31.4769C72.9826 31.4769 18.9994 85.4601 18.9994 151.807C18.9994 218.152 72.9826 272.135 139.33 272.135C205.675 272.135 259.658 218.152 259.658 151.807C259.658 147.841 259.468 143.915 259.101 140.053C258.596 134.821 262.42 130.185 267.638 129.679C272.882 129.197 277.505 132.998 278.012 138.216C278.441 142.688 278.657 147.222 278.657 151.807C278.657 228.628 216.151 291.135 139.33 291.135Z" fill="#878EA5"/>
<path d="M155.161 183.472C152.731 183.472 150.298 182.547 148.449 180.687L91.4511 123.688C87.7403 119.975 87.7403 113.959 91.4511 110.248C95.1619 106.537 101.178 106.537 104.889 110.248L155.175 160.534L287.777 27.9306C291.49 24.2198 297.506 24.2198 301.217 27.9306C304.928 31.6414 304.928 37.6576 301.217 41.3684L161.887 180.698C160.025 182.547 157.594 183.472 155.161 183.472Z" fill="#878EA5"/>
</g>
<defs>
<clipPath id="clip0">
<rect width="304" height="304" fill="white"/>
</clipPath>
</defs>
</svg>
