<svg width="50" height="50" viewBox="0 0 50 50" fill="none" xmlns="http://www.w3.org/2000/svg">
<path d="M12.5 0C10.7812 0 9.375 1.40625 9.375 3.125V46.875C9.375 48.5938 10.7812 50 12.5 50H43.75C45.4688 50 46.875 48.5938 46.875 46.875V12.5L34.375 0H12.5Z" fill="#E2E5E7"/>
<path d="M37.5 12.5H46.875L34.375 0V9.375C34.375 11.0938 35.7812 12.5 37.5 12.5Z" fill="#B0B7BD"/>
<path d="M46.875 21.875L37.5 12.5H46.875V21.875Z" fill="#CAD1D8"/>
<path d="M40.625 40.625C40.625 41.4844 39.9219 42.1875 39.0625 42.1875H4.6875C3.82812 42.1875 3.125 41.4844 3.125 40.625V25C3.125 24.1406 3.82812 23.4375 4.6875 23.4375H39.0625C39.9219 23.4375 40.625 24.1406 40.625 25V40.625Z" fill="#84BD5A"/>
<path d="M14.0948 31.8544L16.2682 29.1309C16.9182 28.2809 18.1807 29.3669 17.4682 30.1794C16.7198 31.0669 15.9323 32.0294 15.1823 33.0153L17.7307 36.1888C18.4182 37.1263 17.0448 38.0247 16.3698 37.0997L14.0698 34.1513L11.8088 37.1638C11.1713 38.0747 9.75881 37.0513 10.4713 36.2013L12.9823 33.0153C12.1948 32.0278 11.4323 31.0669 10.6713 30.1794C9.88538 29.2419 11.3463 28.2809 11.9213 29.1575L14.0948 31.8544Z" fill="white"/>
<path d="M19.2734 29.6043C19.2734 29.1918 19.6234 28.8418 20.0609 28.8418C20.4609 28.8418 20.7984 29.1934 20.7984 29.6043V35.8637H24.1969C25.4203 35.8637 25.4469 37.4996 24.1969 37.4996H20.0625C19.625 37.4996 19.275 37.1887 19.275 36.7387V29.6043H19.2734Z" fill="white"/>
<path d="M26.565 30.7295C26.8525 28.3045 30.5119 27.8685 32.2369 29.1935C33.0869 29.8795 32.1869 30.967 31.4369 30.417C30.5119 29.831 28.4134 29.556 28.1509 30.8529C27.8134 32.9029 33.2478 31.7295 33.1603 35.0529C33.0728 38.2263 28.4759 38.2998 26.7509 36.8763C26.3369 36.5388 26.3509 35.9904 26.5759 35.6513C26.9009 35.3279 27.2619 35.2154 27.6884 35.5654C28.7119 36.2638 31.3494 36.7888 31.5353 35.0138C31.3744 33.167 26.1775 34.2779 26.565 30.7295Z" fill="white"/>
<path d="M39.0625 42.1875H9.375V43.75H39.0625C39.9219 43.75 40.625 43.0469 40.625 42.1875V40.625C40.625 41.4844 39.9219 42.1875 39.0625 42.1875Z" fill="#CAD1D8"/>
</svg>
