<?xml version="1.0" encoding="utf-8"?><svg xmlns="http://www.w3.org/2000/svg" xmlns:xlink="http://www.w3.org/1999/xlink"><symbol viewBox="0 0 19 19" id="alarm" xmlns="http://www.w3.org/2000/svg"><path fill-rule="evenodd" clip-rule="evenodd" d="M5.155 2.53l-1.06-1.06L1.47 4.095l1.06 1.06L5.155 2.53zm8.69 0l1.06-1.06 2.625 2.625-1.06 1.06-2.625-2.625zM9.5 17a7.5 7.5 0 110-15 7.5 7.5 0 010 15zm0-1.5a6 6 0 100-12 6 6 0 000 12zm3.75-6.75h-3V5h-1.5v5.25h4.5v-1.5z"/></symbol><symbol viewBox="0 0 15 17" id="asc" xmlns="http://www.w3.org/2000/svg"><path d="M0 5h5v2H0zm0 4h10v2H0zm0 4h15v2H0z"/></symbol><symbol viewBox="0 0 71 70" id="benefit-crash" xmlns="http://www.w3.org/2000/svg"><path d="M65 36h-1.519l1.2-3H65a1 1 0 000-2h-1a1 1 0 00-.929.628l-2 5a1 1 0 00.93 1.372H65a1 1 0 100-2zm-41 8a4 4 0 100 8 4 4 0 000-8zm0 6a2 2 0 110-4 2 2 0 010 4z"/><path d="M41 48a2.973 2.973 0 00-2-2.86V29a1 1 0 00-.293-.707l-1.77-1.77-1.95-12.675A1 1 0 0034 13H16v-3a1 1 0 00-1-1H7a1 1 0 000 2h7v29H7a1 1 0 000 2h8a1 1 0 001-1V15h17.146l1.87 12.152c.032.21.13.404.28.555L37 29.414V45h-5.585a7.988 7.988 0 00-15.342 4H7a1 1 0 000 2h9.589a7.992 7.992 0 0014.822 0H38.2a2.91 2.91 0 002.8-3zm-17 6a6 6 0 110-12 6 6 0 010 12zm14.975-5.775A1.025 1.025 0 0138.2 49H32v-2h6.2c.552.124.899.672.775 1.225zM65 49h-1.09a5.993 5.993 0 00-11.82 0H50v-3a1 1 0 00-1-1h-2v-6.087L57.094 38a1 1 0 00.824-.59L61.654 29H65a1 1 0 000-2h-4a1 1 0 00-.914.594l-3.76 8.463L45.913 37A1 1 0 0045 38v7.106A2.955 2.955 0 0043 48a2.85 2.85 0 002.666 3h6.424a5.993 5.993 0 0011.82 0H65a1 1 0 000-2zm-17 0h-2.33c-.315 0-.666-.411-.666-1 0-.59.351-1 .666-1H48v2zm10 5a4 4 0 110-8 4 4 0 010 8z"/><path d="M32 26.89l-1-9a1 1 0 00-1-.89H20a1 1 0 00-1 1v9a1 1 0 001 1h11a1 1 0 001-1.11zM21 26v-7h8.105l.778 7H21zm13 12a1 1 0 00-1 1v3a1 1 0 002 0v-3a1 1 0 00-1-1zm16.714 19.292l-3.003-3a1 1 0 00-1.511.108l-2.03 2.7-2.27-4.547a1 1 0 00-1.546-.313L35 56.825V54a1 1 0 00-2 0v5a1 1 0 001.651.76l6.027-5.166 2.427 4.853a1 1 0 001.7.153l2.308-3.078 2.187 2.185a1 1 0 001.414-1.414zm3.416-33.284a1 1 0 00-.774.233l-5.966 5.114-2.464-5.749a1 1 0 00-1.889.151l-2 8a1 1 0 00.723 1.213 1 1 0 001.213-.727l1.28-5.12 1.831 4.271a1 1 0 001.57.365l5.036-4.317-.679 5.434A1 1 0 0053.004 34a1 1 0 00.995-.876l1-8a1 1 0 00-.868-1.116z"/></symbol><symbol viewBox="0 0 71 70" id="benefit-crash-2" xmlns="http://www.w3.org/2000/svg"><path d="M15.502 46.936a3.507 3.507 0 10.006-7.014 3.507 3.507 0 00-.006 7.014zM14.263 42.6a1.488 1.488 0 011.237-.646 1.5 1.5 0 011.479 1.226 1.492 1.492 0 01-1.208 1.734 1.5 1.5 0 01-1.749-1.2c-.072-.388.015-.79.241-1.114zm41.27-3.112a3.506 3.506 0 10.006-7.012 3.506 3.506 0 00-.006 7.012zm-1.235-4.341a1.5 1.5 0 011.237-.644 1.5 1.5 0 011.477 1.225 1.492 1.492 0 01-1.208 1.735 1.5 1.5 0 01-1.747-1.2c-.073-.39.014-.791.24-1.116zm-32.19 7.271a3.007 3.007 0 003.49 2.41L47.261 40.9a2.995 2.995 0 002.416-3.483l-.358-1.962a3.008 3.008 0 00-3.49-2.409l-21.663 3.93a3 3 0 00-2.416 3.481l.358 1.962zm12.98-1.343l-3.94.714-.716-3.917 3.94-.714.715 3.917zM36.34 36.8l3.94-.714.716 3.917-3.94.714-.716-3.917zm9.847-1.784a1 1 0 011.165.799l.358 1.962a.995.995 0 01-.806 1.156l-3.94.714-.716-3.918 3.939-.713zm-22.309 4.34a1 1 0 01.645-.415l3.941-.714.715 3.918-3.937.713a1 1 0 01-1.166-.8l-.358-1.958a.977.977 0 01.16-.742v-.002zm7.998-19l-2.828-1.245a1.98 1.98 0 00-1.872.144l-2.856 1.826-.678-3.852 2.142-1.2a1 1 0 00-.98-1.744l-2.142 1.2a2.024 2.024 0 00-1 2.126l.592 3.32-2.212-1.133a1.983 1.983 0 00-1.87.037l-2.315 1.295a1 1 0 00.976 1.746l2.3-1.3 2.34 1.192-3.55 1.992a2 2 0 00-.954 1.206l-1.137 3.974a1 1 0 101.923.551l1.148-3.985 4.23-2.365 1.1 2.47c.201.458.567.824 1.024 1.026l2.957 1.3a1 1 0 10.806-1.83l-2.969-1.309-1.193-2.689 3.382-2.17 2.83 1.245a1 1 0 00.806-1.83v.002z"/><path d="M63.004 55h-.107a2.977 2.977 0 00.79-2.6l-.87-4.737.782-.142a2.987 2.987 0 002.355-3.492l-2.55-14.11a2.987 2.987 0 00-3.051-2.488c-.281.013-.561.039-.842.054L49.596 6.72a3.015 3.015 0 00-3.246-1.674l-32.455 6.021a3.043 3.043 0 00-2.449 2.711L9.356 36.6c-.44.14-.884.263-1.322.406a3.007 3.007 0 00-1.982 3.4l2.01 11.112v.033c0 .013.01.022.012.034l.528 2.932c.033.173.081.344.143.51A2.993 2.993 0 006.002 58v4a3 3 0 003 3h54.002a3 3 0 003-3v-4a3 3 0 00-3-3zM51.01 49.822l.86 4.718c.032.156.077.31.134.46H22.709l28.3-5.178zm10.71 2.939a1 1 0 01-.8 1.154l-5.9 1.069a1 1 0 01-1.174-.8l-.861-4.717 7.874-1.442.862 4.736zM13.439 13.957c.036-.459.375-.838.827-.924L46.71 7.014a.992.992 0 011.081.566l1.012 2.118-6.3 5.265a.987.987 0 01-.45.214l-4.407.821a1 1 0 00.364 1.967l4.414-.819a3.001 3.001 0 001.37-.647l5.9-4.935 3.239 6.784-6.11 1.133a2.988 2.988 0 00-1.124.46L39.686 24a1 1 0 001.117 1.66l6.016-4.06a.96.96 0 01.368-.151l6.637-1.23 3.534 7.4a199.742 199.742 0 00-45.937 8.344l2.017-22.005zM8.652 38.9a197.797 197.797 0 0151.792-9.47 1 1 0 01.99.845L63.27 40.43l-48.01 8.788a1 1 0 00.36 1.965L63.626 42.4l.359 1.985a.984.984 0 01-.747 1.17l-51.562 9.43a.923.923 0 01-.675-.15 1.04 1.04 0 01-.427-.674l-.36-1.99 1.464-.27a1 1 0 10-.364-1.966l-1.459.266L8.02 40.05a1 1 0 01.632-1.152zM64.004 62a1 1 0 01-1 1H9.002a1 1 0 01-1-1v-4a1 1 0 011-1h54.002a1 1 0 011 1v4z"/></symbol><symbol viewBox="0 0 71 70" id="benefit-flask" xmlns="http://www.w3.org/2000/svg"><path d="M56.354 56.983L43.666 26.057a14.111 14.111 0 01-1.06-5.38v-8.175c0-.88.343-1.708.965-2.33A3.993 3.993 0 0044.75 7.33V6.172c0-.647-.525-1.172-1.172-1.172H27.215c-.647 0-1.172.525-1.172 1.172V7.33c0 1.073.418 2.083 1.177 2.842a3.27 3.27 0 01.965 2.33v8.175c0 1.854-.356 3.664-1.06 5.38l-3.487 8.498-.004.01-9.197 22.418a5.802 5.802 0 00.55 5.443A5.801 5.801 0 0019.813 65h31.165c1.94 0 3.745-.962 4.827-2.575a5.803 5.803 0 00.55-5.442zm-27.06-30.036c.82-2 1.235-4.109 1.235-6.27v-8.175a5.602 5.602 0 00-1.651-3.987 1.666 1.666 0 01-.491-1.171h14.018a1.665 1.665 0 01-.491 1.17 5.604 5.604 0 00-1.652 3.988v8.175c0 2.16.416 4.27 1.236 6.27l2.83 6.896H26.463l2.83-6.896zM53.857 61.12a3.416 3.416 0 01-2.88 1.536H19.813a3.417 3.417 0 01-2.88-1.536 3.412 3.412 0 01-.554-2.433h1.931a1.172 1.172 0 000-2.344h-1.077l1.346-3.281h1.977a1.172 1.172 0 000-2.344H19.54l1.346-3.281h2.032a1.172 1.172 0 000-2.344h-1.07l1.346-3.281h2.087a1.172 1.172 0 000-2.344h-1.126l1.346-3.281H45.29l8.897 21.686a3.417 3.417 0 01-.328 3.247z"/><path d="M50.566 57.056a1.172 1.172 0 00-2.169.888l.006.015a1.172 1.172 0 002.17-.888l-.007-.014zm-1.655-4.036l-4.197-10.23a1.171 1.171 0 10-2.168.89l4.197 10.229a1.172 1.172 0 102.168-.89z"/></symbol><symbol viewBox="0 0 71 70" id="benefit-glass" xmlns="http://www.w3.org/2000/svg"><g clip-path="url(#afclip0)"><path d="M69.334 43.167a3.5 3.5 0 01-3.5-3.5 1.167 1.167 0 00-2.334 0 3.5 3.5 0 01-2.333 3.285V8.167C61.167 7.522 60.644 7 60 7H11c-.644 0-1.166.522-1.166 1.167v17.285A3.5 3.5 0 017.5 22.167a1.167 1.167 0 00-2.333 0 3.5 3.5 0 01-3.5 3.5 1.167 1.167 0 100 2.333 3.5 3.5 0 013.5 3.5 1.167 1.167 0 002.333 0 3.5 3.5 0 012.334-3.285v33.618c0 .645.522 1.167 1.166 1.167h49c.645 0 1.167-.522 1.167-1.167V45.715A3.5 3.5 0 0163.5 49a1.167 1.167 0 002.334 0 3.5 3.5 0 013.5-3.5 1.167 1.167 0 000-2.333zM6.334 28a5.857 5.857 0 00-1.167-1.167 5.857 5.857 0 001.167-1.166A5.83 5.83 0 007.5 26.833 5.857 5.857 0 006.334 28zm52.5 25.667v7H34.817l8.508-8.509a1.167 1.167 0 00-1.65-1.65L31.517 60.667h-3.7l15.508-15.509a1.167 1.167 0 00-1.65-1.65L24.517 60.667h-12.35V9.333h34.517l-8.509 8.509a1.167 1.167 0 001.622 1.678l.028-.029L49.983 9.333h3.7L38.176 24.842a1.167 1.167 0 101.65 1.65l17.157-17.16h1.85v44.334zm5.833-8.167a5.855 5.855 0 00-1.167-1.167 5.854 5.854 0 001.167-1.166 5.86 5.86 0 001.167 1.166 5.857 5.857 0 00-1.167 1.167z"/><path d="M57.667 52.5a3.5 3.5 0 01-3.5-3.5 1.167 1.167 0 00-2.333 0 3.5 3.5 0 01-3.5 3.5 1.167 1.167 0 100 2.333 3.5 3.5 0 013.5 3.5 1.167 1.167 0 102.333 0 3.5 3.5 0 013.5-3.5 1.167 1.167 0 000-2.333zM53 54.833a5.86 5.86 0 00-1.166-1.167A5.856 5.856 0 0053 52.5a5.86 5.86 0 001.167 1.166A5.86 5.86 0 0053 54.833zM22.667 16.334a3.5 3.5 0 01-3.5-3.5 1.167 1.167 0 00-2.333 0 3.5 3.5 0 01-3.5 3.5 1.167 1.167 0 100 2.333 3.5 3.5 0 013.5 3.5 1.167 1.167 0 102.333 0 3.5 3.5 0 013.5-3.5 1.167 1.167 0 000-2.333zM18 18.667a5.857 5.857 0 00-1.166-1.167A5.856 5.856 0 0018 16.334a5.86 5.86 0 001.167 1.166A5.857 5.857 0 0018 18.667z"/></g><defs><clipPath id="afclip0"><path transform="translate(.5)" d="M0 0h70v70H0z"/></clipPath></defs></symbol><symbol viewBox="0 0 71 70" id="benefit-rain" xmlns="http://www.w3.org/2000/svg"><g clip-path="url(#agclip0)"><path d="M65.026 24.615a9.77 9.77 0 00.06-1.067c0-5.418-4.408-9.828-9.829-9.833a22.322 22.322 0 00-7.693-9.592A22.229 22.229 0 0034.62 0a22.412 22.412 0 00-14.223 5.101 22.465 22.465 0 00-7.434 11.63C5.87 16.94.167 22.771.167 29.908c0 7.268 5.916 13.181 13.189 13.181h15.658a1.367 1.367 0 000-2.734H13.356c-5.765 0-10.455-4.687-10.455-10.447 0-5.76 4.69-10.448 10.455-10.448 2.565 0 5.031.938 6.946 2.64a1.363 1.363 0 001.93-.113 1.367 1.367 0 00-.114-1.932 13.166 13.166 0 00-6.377-3.112C18.13 8.627 25.844 2.735 34.62 2.735c8.203 0 15.614 5.171 18.442 12.867.217.588.805.953 1.428.889a7.23 7.23 0 01.757-.042c3.917 0 7.104 3.184 7.104 7.099 0 .52-.059 1.046-.175 1.562-.146.652.2 1.315.82 1.567a7.072 7.072 0 014.436 6.579c0 3.914-3.187 7.099-7.104 7.099h-19.01a1.367 1.367 0 000 2.734h19.01c5.425 0 9.839-4.41 9.839-9.833a9.789 9.789 0 00-5.14-8.64zM10.649 56.898A1.367 1.367 0 019.28 55.53v-7.748a1.367 1.367 0 012.735 0v7.748c0 .755-.612 1.367-1.367 1.367zm9.843 2.888a1.367 1.367 0 01-1.367-1.367V47.783a1.367 1.367 0 012.735 0V58.42c0 .755-.613 1.367-1.368 1.367zm9.844-7.799a1.367 1.367 0 01-1.367-1.367v-2.837a1.367 1.367 0 012.734 0v2.837c0 .755-.612 1.367-1.367 1.367zm9.844 6.575a1.367 1.367 0 01-1.367-1.368v-9.41a1.367 1.367 0 012.734 0v9.41c0 .755-.612 1.368-1.367 1.368zm9.844-2.166a1.367 1.367 0 01-1.367-1.367v-7.246a1.367 1.367 0 012.734 0v7.246c0 .755-.612 1.367-1.367 1.367zm0 13.604a1.367 1.367 0 01-1.367-1.367V61a1.367 1.367 0 012.734 0v7.633c0 .755-.612 1.368-1.367 1.368zm-29.532 0a1.367 1.367 0 01-1.367-1.367V64.39a1.367 1.367 0 012.735 0v4.243c0 .755-.613 1.367-1.368 1.367zm9.844-7.382a1.367 1.367 0 01-1.367-1.367v-4.66a1.367 1.367 0 012.734 0v4.66c0 .755-.612 1.367-1.367 1.367zm9.844 4.147a1.367 1.367 0 01-1.367-1.367v-2.233a1.367 1.367 0 012.734 0v2.233c0 .755-.612 1.367-1.367 1.367zm19.687-9.867A1.367 1.367 0 0158.5 55.53v-7.748a1.367 1.367 0 012.735 0v7.748c0 .755-.613 1.367-1.368 1.367z"/><path d="M35.167 43.09c-.36 0-.712-.146-.966-.4a1.378 1.378 0 01-.401-.967c0-.361.146-.713.4-.967.255-.254.608-.4.967-.4.36 0 .712.146.967.4.254.254.4.607.4.967s-.146.71-.4.966a1.38 1.38 0 01-.967.4z"/></g><defs><clipPath id="agclip0"><path transform="translate(.167)" d="M0 0h70v70H0z"/></clipPath></defs></symbol><symbol viewBox="0 0 85 70" id="benefit-sand" xmlns="http://www.w3.org/2000/svg"><g clip-path="url(#ahclip0)"><path d="M8.331 23.4h4.666a1.22 1.22 0 000-2.442H8.33a1.221 1.221 0 000 2.443zm23.83-7.415a1.22 1.22 0 001.221-1.22 6.195 6.195 0 016.188-6.188 6.195 6.195 0 016.188 6.187c0 3.47-2.647 6.188-6.026 6.188l-21.077.006a1.22 1.22 0 000 2.441l21.078-.005c4.747 0 8.466-3.79 8.466-8.63 0-4.758-3.87-8.63-8.63-8.63-4.758 0-8.629 3.872-8.629 8.63a1.22 1.22 0 001.221 1.221zm-9.497 29.046a1.221 1.221 0 000 2.442l4.884.001a1.221 1.221 0 000-2.442h-4.884zm42.796.007l-32.231-.006a1.22 1.22 0 100 2.442l32.231.006c3.379 0 6.025 2.718 6.025 6.187a6.195 6.195 0 01-6.188 6.188 6.195 6.195 0 01-6.187-6.188 1.22 1.22 0 00-2.442 0c0 4.759 3.871 8.63 8.63 8.63 4.758 0 8.629-3.871 8.629-8.63 0-4.838-3.719-8.629-8.467-8.629zM34.772 55.959l-25.049-.004a1.22 1.22 0 100 2.442l25.049.004c1.477 0 2.633 1.194 2.633 2.72 0 1.499-1.22 2.72-2.72 2.72a2.727 2.727 0 01-2.664-2.171 1.22 1.22 0 10-2.392.49 5.177 5.177 0 005.057 4.122 5.167 5.167 0 005.161-5.162c0-2.894-2.23-5.161-5.075-5.161zM54.188 34.21a1.22 1.22 0 00-1.221-1.22l-51.148.005a1.22 1.22 0 100 2.441l51.148-.005a1.22 1.22 0 001.221-1.221zM70.611 8.732c-7.36 0-13.348 5.989-13.348 13.349a1.22 1.22 0 102.442 0c0-6.014 4.892-10.907 10.906-10.907s10.907 4.893 10.907 10.907-4.893 10.907-10.907 10.907l-11.956.001a1.22 1.22 0 100 2.442l11.956-.001c7.36 0 13.349-5.989 13.349-13.349S77.972 8.732 70.61 8.732zm-50.17 6.348a4.181 4.181 0 004.177-4.176 4.181 4.181 0 00-4.177-4.176 4.181 4.181 0 00-4.176 4.176 4.181 4.181 0 004.176 4.177zm0-5.91c.957 0 1.735.778 1.735 1.734 0 .957-.778 1.735-1.735 1.735a1.737 1.737 0 01-1.735-1.735c0-.956.779-1.735 1.735-1.735zm29.678 51.552a4.181 4.181 0 00-4.177 4.176 4.181 4.181 0 004.177 4.177 4.181 4.181 0 004.177-4.177 4.181 4.181 0 00-4.177-4.176zm0 5.911a1.737 1.737 0 01-1.735-1.735c0-.956.779-1.734 1.735-1.734.956 0 1.735.778 1.735 1.734 0 .957-.778 1.735-1.735 1.735zm5.315-58.219a4.181 4.181 0 004.177-4.177A4.181 4.181 0 0055.434.061a4.181 4.181 0 00-4.176 4.176 4.181 4.181 0 004.176 4.177zm0-5.912c.957 0 1.735.778 1.735 1.735 0 .957-.778 1.735-1.735 1.735A1.737 1.737 0 0153.7 4.237c0-.957.778-1.735 1.734-1.735zm-41.598 43.75a4.182 4.182 0 00-4.177-4.177 4.181 4.181 0 00-4.177 4.177 4.181 4.181 0 004.177 4.177 4.182 4.182 0 004.177-4.177zm-5.912 0c0-.957.778-1.735 1.735-1.735.957 0 1.735.778 1.735 1.735 0 .957-.778 1.735-1.735 1.735a1.737 1.737 0 01-1.735-1.735z"/></g><defs><clipPath id="ahclip0"><path transform="translate(.599)" d="M0 0h83.803v70H0z"/></clipPath></defs></symbol><symbol viewBox="0 0 71 70" id="benefit-shield" xmlns="http://www.w3.org/2000/svg"><path d="M58.33 8.821A1.111 1.111 0 0056.761 7.8a20.38 20.38 0 01-21.28-2.523 1.111 1.111 0 00-1.467 0A20.659 20.659 0 0112.734 7.8a1.111 1.111 0 00-1.567 1.022c0 .234.078 23.148 0 30.738-.044 4.056 9.424 17.224 23.014 25.292a1.11 1.11 0 001.112 0c13.613-8.068 23.08-21.236 23.036-25.292-.078-7.59 0-30.504 0-30.738zM56.106 39.57c0 2.445-7.78 14.724-21.359 23.025-13.624-8.29-21.38-20.57-21.358-23.014.066-6.412.022-23.67 0-29.115A22.98 22.98 0 0034.748 7.51a22.98 22.98 0 0021.359 2.956c0 5.434-.056 22.703 0 29.104z"/><path d="M52.528 15.578a1.111 1.111 0 00-1.567-1.023 14.813 14.813 0 01-15.48-1.778 1.111 1.111 0 00-1.467 0A15.002 15.002 0 0118.569 14.6a1.111 1.111 0 00-1.567 1.022c0 .167.056 17.136 0 22.759-.033 3.056 7.034 12.946 17.18 18.97.344.198.768.198 1.111 0 10.169-6.024 17.236-15.914 17.236-19.015-.055-5.623 0-22.58 0-22.758zm-2.222 22.758c0 1.567-5.557 10.602-15.558 16.67-9.924-6.102-15.558-15.136-15.558-16.67.078-4.534 0-16.668 0-21.114A17.013 17.013 0 0034.748 15a17.013 17.013 0 0015.558 2.222v21.114z"/></symbol><symbol viewBox="0 0 71 70" id="benefit-thermometer" xmlns="http://www.w3.org/2000/svg"><path d="M41.275 38.58V9.183a9.183 9.183 0 10-18.367 0v29.384c-7.937 5.064-10.267 15.604-5.203 23.541a17.048 17.048 0 0014.34 7.879l.092.013c9.415-.018 17.034-7.665 17.016-17.08a17.048 17.048 0 00-7.878-14.34zM24.918 65.462c-6.911-3.99-9.28-12.828-5.289-19.74a14.45 14.45 0 015.29-5.288c.405-.235.654-.668.652-1.136V9.183a6.572 6.572 0 1113.145 0v30.115c-.002.468.247.901.653 1.136 6.911 3.99 9.28 12.828 5.289 19.74-3.99 6.91-12.828 9.279-19.74 5.288z"/><path d="M33.442 43.567V23.764a1.305 1.305 0 00-2.61 0v19.803a9.02 9.02 0 001.305 17.948 9.02 9.02 0 001.305-17.948zm-1.305 15.325a6.41 6.41 0 01-6.41-6.41 6.422 6.422 0 016.41-6.409 6.41 6.41 0 110 12.819zM54.002 8.975h-8.159a1.305 1.305 0 000 2.61h8.159a1.305 1.305 0 000-2.61zm-1.736 6.526h-4.79a1.305 1.305 0 000 2.61h4.79a1.305 1.305 0 000-2.61zm1.736 6.527h-8.159a1.305 1.305 0 000 2.611h8.159a1.305 1.305 0 000-2.61zm-1.736 6.527h-4.79a1.305 1.305 0 000 2.61h4.79a1.305 1.305 0 000-2.61zm1.736 6.527h-8.159a1.305 1.305 0 000 2.61h8.159a1.305 1.305 0 000-2.61z"/></symbol><symbol viewBox="0 0 71 70" id="benefit-time" xmlns="http://www.w3.org/2000/svg"><g clip-path="url(#akclip0)"><path d="M63.364 13.39h2.163a1.366 1.366 0 000-2.733h-5.192c-.754 0-1.366.612-1.366 1.367v5.191a1.366 1.366 0 002.733 0v-1.503A32.162 32.162 0 0168.1 35c0 17.792-14.475 32.267-32.268 32.267C18.041 67.267 3.566 52.792 3.566 35S18.04 2.733 35.833 2.733c1.316 0 2.64.08 3.937.237A1.367 1.367 0 0040.1.257 35.495 35.495 0 0035.833 0c-9.349 0-18.138 3.64-24.748 10.251C4.473 16.861.832 25.651.832 35c0 9.349 3.64 18.138 10.252 24.749C17.695 66.359 26.485 70 35.833 70c9.35 0 18.138-3.64 24.749-10.251 6.61-6.61 10.251-15.4 10.251-24.749 0-7.89-2.635-15.463-7.469-21.61z"/><path d="M15.654 20.633a1.367 1.367 0 00-1.886.423c-3.119 4.927-4.5 10.851-3.888 16.682a26.157 26.157 0 007.5 15.715c5.088 5.087 11.77 7.631 18.453 7.631S49.2 58.54 54.286 53.453c10.175-10.175 10.175-26.731 0-36.906A26.158 26.158 0 0038.597 9.05c-5.82-.617-11.738.753-16.663 3.857a1.366 1.366 0 001.457 2.312c9.283-5.85 21.192-4.51 28.963 3.26 9.11 9.11 9.11 23.932 0 33.041-9.11 9.11-23.932 9.11-33.041 0-7.663-7.663-9.024-19.86-3.236-29.002a1.367 1.367 0 00-.423-1.885z"/><path d="M53.596 36.389h1.685a1.366 1.366 0 000-2.733h-1.685a1.367 1.367 0 000 2.733zM15.02 34.978c0 .754.612 1.366 1.367 1.366h1.685a1.366 1.366 0 000-2.733h-1.685c-.755 0-1.367.612-1.367 1.367zm22.202-17.74v-1.685a1.366 1.366 0 00-2.733 0v1.685a1.366 1.366 0 002.733 0zm-2.777 35.524v1.685a1.366 1.366 0 002.732 0v-1.685a1.366 1.366 0 00-2.732 0zm-5.46-26.542a1.367 1.367 0 00-1.933 1.931l4.63 4.63A4.678 4.678 0 0031.127 35a4.712 4.712 0 004.707 4.707A4.712 4.712 0 0040.54 35a4.68 4.68 0 00-.557-2.218l9.343-9.343a1.366 1.366 0 10-1.932-1.933l-9.343 9.344a4.678 4.678 0 00-2.218-.557c-.801 0-1.557.202-2.218.557l-4.63-4.63zM37.807 35a1.976 1.976 0 01-1.974 1.974A1.976 1.976 0 0133.859 35c0-1.089.885-1.974 1.974-1.974s1.974.885 1.974 1.974zM19.312 18.479c.255-.254.401-.607.401-.966 0-.36-.146-.71-.401-.966a1.375 1.375 0 00-.966-.4c-.36 0-.712.146-.966.4s-.4.606-.4.966.146.712.4.966.607.4.966.4c.36 0 .712-.146.966-.4zM45.297 4.082c.361 0 .714-.145.968-.4.254-.254.4-.606.4-.966s-.146-.712-.4-.966a1.378 1.378 0 00-.968-.4c-.36 0-.712.146-.966.4s-.4.607-.4.966c0 .36.146.712.4.966.254.255.607.4.966.4z"/></g><defs><clipPath id="akclip0"><path transform="translate(.833)" d="M0 0h70v70H0z"/></clipPath></defs></symbol><symbol viewBox="0 0 20 20" id="call-phone" xmlns="http://www.w3.org/2000/svg"><path fill-rule="evenodd" clip-rule="evenodd" d="M9.311 10.187c-.609-.61-1.112-1.269-1.38-1.803a2.026 2.026 0 01-.166-.427l.54-.54c.12-.12.176-.177.25-.255.156-.163.286-.313.4-.468.515-.693.707-1.449.097-2.129-1.154-1.614-1.93-2.612-2.428-3.104-1.027-1.015-2.7-.879-3.59-.001-.43.424-.577.57-1.018 1.018-2.58 2.58-1.041 7.914 3.023 11.982 4.063 4.067 9.397 5.606 11.983 3.02.406-.392.753-.74 1.027-1.03.87-.918 1-2.519-.006-3.565-.48-.497-1.431-1.236-3.115-2.44-.616-.546-1.336-.428-1.976-.008-.288.19-.491.374-.873.756l-.54.54a2.027 2.027 0 01-.427-.166c-.533-.267-1.192-.77-1.8-1.38zM13 13.454l.67-.67c.115-.115.206-.204.28-.273 1.358.978 2.153 1.6 2.473 1.934.11.114.09.359-.006.46-.248.262-.572.586-.97.97-1.468 1.468-5.515.3-8.817-3.005-3.303-3.306-4.47-7.354-3.017-8.808.44-.446.577-.584 1-1 .067-.066.343-.088.432 0 .346.341.995 1.168 1.944 2.484l-.062.066c-.057.06-.105.109-.211.215l-.67.67c-1.29 1.29-.267 3.336 1.676 5.28 1.94 1.943 3.988 2.968 5.278 1.677z"/></symbol><symbol viewBox="0 0 30 30" id="cart" xmlns="http://www.w3.org/2000/svg"><path fill-rule="evenodd" clip-rule="evenodd" d="M7.59 5.003c-.223 0-.437.025-.64.073-.28-.615-.647-1.166-1.066-1.585C5.173 2.781 4.052 2.5 2.5 2.5V5c.948 0 1.494.136 1.616.259C4.59 5.73 5 6.69 5 7.5l.013.177 1.224 8.574c-2.05.106-3.637 1.697-3.735 3.687L2.5 21.25c.121 2.055 1.703 3.636 3.679 3.748h.284a3.752 3.752 0 007.074.002h2.926a3.752 3.752 0 007.287-1.25 3.75 3.75 0 00-7.287-1.25h-2.926a3.752 3.752 0 00-7.074 0H6.25c-.637-.038-1.21-.61-1.252-1.325L5 20c.034-.648.602-1.216 1.312-1.252l2.468.001.018.001h12.598l.185-.058a3.282 3.282 0 002.065-1.939l.132-.26.428-.848 1.317-2.615c1.056-2.104 1.72-3.44 1.868-3.769.755-1.685-.775-2.983-2.34-3.01L7.589 5.002zM20.961 16.25H8.892a.213.213 0 01-.154-.175L7.513 7.501l17.354 1.243c-.304.619-.856 1.725-1.579 3.164l-.018.036-1.296 2.575-.428.846-.162.321-.06.142a.782.782 0 01-.362.422zM20 25a1.25 1.25 0 100-2.5 1.25 1.25 0 000 2.5zm-8.75-1.25a1.25 1.25 0 11-2.5 0 1.25 1.25 0 012.5 0z"/></symbol><symbol viewBox="0 0 61 61" id="check" xmlns="http://www.w3.org/2000/svg"><g clip-path="url(#anclip0)"><path d="M59.976 15.406a2.348 2.348 0 00-1.672-.692h-.648a.864.864 0 100 1.729h.648a.63.63 0 01.635.635v28.65c0 .35-.285.634-.635.634h-47.45v-29.92h32.76a.864.864 0 100-1.728H3.033a2.366 2.366 0 00-2.364 2.363v28.65a2.366 2.366 0 002.364 2.364h55.272a2.366 2.366 0 002.364-2.363v-28.65c0-.632-.246-1.225-.692-1.672zM9.125 46.362H3.032a.635.635 0 01-.635-.634v-28.65c0-.35.285-.635.635-.635h6.093v29.92z"/><path d="M56.12 40.725H38.793a.864.864 0 100 1.728H56.12a.864.864 0 000-1.728zm-27.035 0H13.228a.864.864 0 100 1.728h15.857a.864.864 0 100-1.728zM58.148 7.87c-.08-.418-.32-.78-.672-1.019l-1.232-.833a1.587 1.587 0 00-1.197-.246c-.418.081-.78.32-1.02.673L52.51 8.69a2.21 2.21 0 00-2.56.844L33.232 34.239l-.011.02a.83.83 0 00-.047.083l-.016.032a.842.842 0 00-.043.117l-2.263 8.15a1.28 1.28 0 002.012 1.361l6.723-5.13a.857.857 0 00.093-.085l.023-.026a.854.854 0 00.062-.076l.013-.016 13.459-19.89.49-.724 1.097.743-7.029 10.387a.865.865 0 001.432.969l7.117-10.517a1.574 1.574 0 00-.422-2.183l-1.226-.83 1.8-2.66c.56-.828.48-1.901-.122-2.637l1.529-2.26c.24-.352.326-.778.245-1.196zM32.874 41.82l1.585-5.707 3.123 2.113-4.708 3.594zm5.957-4.836l-3.683-2.492 12.49-18.458 3.683 2.492-12.49 18.458zM52.854 16.26a.253.253 0 01.004-.006l-.004.006zm-.564.834l-3.683-2.492.723-1.068 3.683 2.492-.723 1.068zm2.774-4.1l-1.082 1.6-3.683-2.492 1.082-1.6a.481.481 0 01.667-.128l2.887 1.954a.48.48 0 01.129.667zm-.07-2.713l-1.01-.685 1.401-2.072 1.012.684-1.402 2.073z"/><path d="M56.119 35.032H43.84a.864.864 0 000 1.729h12.278a.864.864 0 100-1.729zm-25.812 0h-17.08a.864.864 0 100 1.729h17.08a.865.865 0 000-1.729zm-12.716-10.78v-3.315c1.144.081 1.568.604 1.96.604.49 0 .719-.62.719-.931 0-.8-1.568-1.143-2.679-1.176v-.441c0-.196-.245-.376-.49-.376-.277 0-.473.18-.473.376v.474c-1.552.163-3.104.98-3.104 3.038 0 2.09 1.634 2.678 3.104 3.201v3.838c-1.666-.13-2.107-1.274-2.646-1.274-.409 0-.752.54-.752.931 0 .8 1.372 1.895 3.398 1.928v.506c0 .196.196.376.473.376.245 0 .49-.18.49-.376v-.555c1.764-.245 2.973-1.356 2.973-3.365 0-2.221-1.552-2.94-2.973-3.463zm-.865-.31c-.866-.327-1.568-.67-1.568-1.6 0-.85.653-1.258 1.568-1.373v2.973zm.768 5.57v-3.447c.8.343 1.437.8 1.437 1.83 0 .93-.555 1.453-1.437 1.617z"/></g><defs><clipPath id="anclip0"><path transform="translate(.668 .667)" d="M0 0h60v60H0z"/></clipPath></defs></symbol><symbol viewBox="0 0 20 18" id="chevron-bottom" xmlns="http://www.w3.org/2000/svg"><path fill-rule="evenodd" clip-rule="evenodd" d="M15.855 4.83l1.591 1.59-7.545 7.546-7.546-7.545L3.946 4.83l5.955 5.954 5.954-5.954z"/></symbol><symbol viewBox="0 0 18 18" id="chevron-left" xmlns="http://www.w3.org/2000/svg"><path fill-rule="evenodd" clip-rule="evenodd" d="M7.266 9l5.789-5.79-1.547-1.546L4.172 9l7.336 7.336 1.547-1.547L7.265 9z"/></symbol><symbol viewBox="0 0 27 27" id="chevron-right" xmlns="http://www.w3.org/2000/svg"><path fill-rule="evenodd" clip-rule="evenodd" d="M16.102 13.5L7.418 4.816l2.32-2.32L20.742 13.5 9.738 24.504l-2.32-2.32 8.684-8.684z"/></symbol><symbol viewBox="0 0 29 29" id="close" xmlns="http://www.w3.org/2000/svg"><path fill-rule="evenodd" clip-rule="evenodd" d="M14.25 17.781L3.531 28.5 0 24.969 10.719 14.25 0 3.531 3.531 0 14.25 10.719 24.969 0 28.5 3.531 17.781 14.25 28.5 24.969 24.969 28.5 14.25 17.781z"/></symbol><symbol viewBox="0 0 71 71" id="credit-card" xmlns="http://www.w3.org/2000/svg"><g clip-path="url(#asclip0)"><path d="M61.147 22.672l-6.842-17.79A6.526 6.526 0 0045.722 1.2L11.53 15.373a6.495 6.495 0 00-3.608 8.311l.94 2.51H6.705a6.38 6.38 0 00-6.373 6.372V55.51a6.38 6.38 0 006.373 6.373h43.336a6.38 6.38 0 006.373-6.373V32.566a6.262 6.262 0 00-.091-1.032l1.184-.479a6.55 6.55 0 003.64-8.383zm-54.442 5.56h43.336a4.327 4.327 0 014.309 4.08H2.396a4.327 4.327 0 014.308-4.08zm10.249-6.142l6.815-3.409 1.401 3.505-6.815 3.408-1.401-3.504zm37.421 33.42a4.339 4.339 0 01-4.334 4.333H6.705a4.339 4.339 0 01-4.334-4.334v-13h52.004v13zm0-15.041H2.371v-6.118h52.004v6.118zm2.367-11.298l-1.066.431a6.376 6.376 0 00-5.635-3.409H21.717l5.205-2.603a1.02 1.02 0 00.492-1.29l-2.163-5.405a1.02 1.02 0 00-1.403-.533l-8.646 4.325a1.02 1.02 0 00-.49 1.291l1.686 4.215h-5.36l-1.207-3.22a4.464 4.464 0 012.48-5.71L46.502 3.09A4.48 4.48 0 0152.4 5.62l6.842 17.789a4.502 4.502 0 01-2.5 5.762z"/><path d="M37.01 56.976a6.118 6.118 0 006.147 0 6.118 6.118 0 100-10.58 6.118 6.118 0 10-6.146 10.58zm7.852-9.12c.434-.16.892-.244 1.354-.25a4.079 4.079 0 010 8.158 4.037 4.037 0 01-1.354-.248 6.093 6.093 0 000-7.66zm-1.705 1.16a4.004 4.004 0 010 5.34 4.004 4.004 0 010-5.34zm-3.059-1.41c.463.006.92.09 1.354.25a6.094 6.094 0 000 7.66c-.433.16-.891.244-1.354.248a4.079 4.079 0 010-8.157zm3.245-25.86l.829 1.863 9.728-4.324-.829-1.863-9.727 4.324zm7.56-8.641l-14.051 6.486.854 1.85 14.05-6.485-.853-1.85z"/></g><defs><clipPath id="asclip0"><path transform="translate(.332 .667)" d="M0 0h70v70H0z"/></clipPath></defs></symbol><symbol viewBox="0 0 62 55" id="cup" xmlns="http://www.w3.org/2000/svg"><path d="M45.759 40.744h.732c8.431-.01 15.264-6.843 15.274-15.275a7.137 7.137 0 00-7.128-7.128h-3.192c.086-1.352.137-2.71.137-4.073 0-.562-.456-1.018-1.018-1.018H1.686c-.562 0-1.018.456-1.018 1.018a62.954 62.954 0 0010.12 34.27l.228.352h-9.33c-.562 0-1.018.456-1.018 1.018A5.098 5.098 0 005.759 55h40.732a5.098 5.098 0 005.091-5.092c0-.562-.456-1.018-1.018-1.018h-9.33l.228-.351a63.292 63.292 0 004.297-7.795zm5.52-20.366h3.358a5.098 5.098 0 015.091 5.091c-.01 7.24-5.828 13.13-13.067 13.23a61.25 61.25 0 00.83-2.08 11.211 11.211 0 0010.2-11.15 3.055 3.055 0 00-3.054-3.054h-3.59c.089-.68.166-1.358.232-2.037zm-.53 4.073h3.888c.562 0 1.018.456 1.018 1.018a9.177 9.177 0 01-7.387 8.989 62.88 62.88 0 002.48-10.007zM49.37 50.926a3.06 3.06 0 01-2.88 2.037H5.759a3.06 3.06 0 01-2.88-2.037H49.37zm-9.62-3.493l-.942 1.457H13.44l-.943-1.457a60.91 60.91 0 01-9.785-32.146h46.825a60.91 60.91 0 01-9.786 32.146zM27.306 5.778a4.023 4.023 0 00-.614-.503 1.992 1.992 0 01-.305-3.066l.458-.458a1.018 1.018 0 10-1.44-1.44l-.458.458a4.028 4.028 0 00.61 6.2 1.992 1.992 0 01.306 3.067l-.458.458a1.018 1.018 0 101.44 1.44l.458-.459a4.028 4.028 0 00.003-5.697zm6.109 0a4.032 4.032 0 00-.614-.503 1.992 1.992 0 01-.305-3.066l.458-.458a1.018 1.018 0 10-1.44-1.44l-.458.458a4.028 4.028 0 00.611 6.2 1.992 1.992 0 01.306 3.067l-.459.458a1.018 1.018 0 101.415 1.465l.025-.025.458-.459a4.028 4.028 0 00.003-5.697zm-12.219 0a4.028 4.028 0 00-.613-.503 1.992 1.992 0 01-.306-3.066l.458-.458a1.018 1.018 0 10-1.44-1.44l-.458.458a4.028 4.028 0 00.611 6.2 1.992 1.992 0 01.306 3.067l-.458.458a1.018 1.018 0 101.44 1.44l.458-.459a4.028 4.028 0 00.002-5.697z"/><path d="M10.517 35.284h.002a61.157 61.157 0 01-2.723-9.014 1.018 1.018 0 10-1.989.436 63.122 63.122 0 002.81 9.315 1.019 1.019 0 001.9-.737zm2.264 5.12c-.183-.369-.363-.74-.54-1.113a1.018 1.018 0 10-1.84.87c.18.384.366.767.556 1.148a1.018 1.018 0 001.824-.905z"/></symbol><symbol viewBox="0 0 70 70" id="headlight_1" xmlns="http://www.w3.org/2000/svg"><path d="M25.156 51.953C11.284 51.953 0 40.67 0 26.797a1.093 1.093 0 112.188 0c0 12.664 10.304 22.969 22.968 22.969a1.093 1.093 0 110 2.187zm28.438 0a1.093 1.093 0 110-2.187c7.84 0 14.218-6.38 14.218-14.22a1.093 1.093 0 112.188 0c0 9.047-7.36 16.407-16.406 16.407z"/><path d="M1.094 27.89A1.093 1.093 0 010 26.798a3.285 3.285 0 013.281-3.281 1.093 1.093 0 110 2.187c-.603 0-1.094.49-1.094 1.094 0 .605-.488 1.094-1.093 1.094z"/><path d="M66.719 25.703H3.28a1.093 1.093 0 110-2.187h63.44a1.093 1.093 0 110 2.187z"/><path d="M68.906 27.892a1.093 1.093 0 01-1.094-1.094c0-.604-.49-1.094-1.093-1.094a1.093 1.093 0 110-2.187A3.285 3.285 0 0170 26.797c0 .606-.489 1.095-1.094 1.095zm-67.812-5.47A1.093 1.093 0 010 21.328a3.285 3.285 0 013.281-3.281 1.093 1.093 0 110 2.187c-.603 0-1.094.49-1.094 1.094 0 .605-.488 1.094-1.093 1.094z"/><path d="M66.719 20.234H3.28a1.093 1.093 0 110-2.187h63.44a1.093 1.093 0 110 2.187z"/><path d="M68.906 22.423a1.093 1.093 0 01-1.094-1.094c0-.604-.49-1.094-1.093-1.094a1.093 1.093 0 110-2.187A3.285 3.285 0 0170 21.329c0 .605-.489 1.094-1.094 1.094z"/><path d="M68.906 36.64a1.093 1.093 0 01-1.094-1.093V21.329a1.093 1.093 0 112.188 0v14.218c0 .605-.489 1.094-1.094 1.094zM53.594 51.953H25.156a1.093 1.093 0 110-2.187h28.438a1.093 1.093 0 110 2.187zm-26.258-3.281c-6.031 0-10.938-4.907-10.938-10.938 0-6.03 4.907-10.937 10.938-10.937 6.03 0 10.937 4.906 10.937 10.937s-4.906 10.938-10.937 10.938zm0-19.688c-4.825 0-8.75 3.926-8.75 8.75 0 4.825 3.925 8.75 8.75 8.75s8.75-3.925 8.75-8.75c0-4.824-3.925-8.75-8.75-8.75z"/><path d="M27.336 45.39c-4.22 0-7.656-3.435-7.656-7.656 0-4.22 3.435-7.656 7.656-7.656 4.22 0 7.656 3.436 7.656 7.656 0 4.221-3.434 7.657-7.656 7.657zm0-13.124a5.475 5.475 0 00-5.469 5.468 5.475 5.475 0 005.469 5.47 5.475 5.475 0 005.469-5.47 5.475 5.475 0 00-5.47-5.468zm21.883 16.406c-6.031 0-10.938-4.907-10.938-10.938 0-6.03 4.907-10.937 10.938-10.937 6.03 0 10.937 4.906 10.937 10.937S55.25 48.672 49.22 48.672zm0-19.688c-4.825 0-8.75 3.926-8.75 8.75 0 4.825 3.925 8.75 8.75 8.75 4.824 0 8.75-3.925 8.75-8.75 0-4.824-3.926-8.75-8.75-8.75z"/><path d="M49.219 45.39c-4.221 0-7.657-3.435-7.657-7.656 0-4.22 3.436-7.656 7.657-7.656 4.22 0 7.656 3.436 7.656 7.656 0 4.221-3.435 7.657-7.656 7.657zm0-13.124a5.475 5.475 0 00-5.469 5.468 5.475 5.475 0 005.469 5.47 5.475 5.475 0 005.468-5.47 5.475 5.475 0 00-5.468-5.468zM1.094 27.89A1.093 1.093 0 010 26.798v-5.469a1.093 1.093 0 112.188 0v5.469c0 .605-.49 1.094-1.094 1.094z"/></symbol><symbol viewBox="0 0 65 65" id="help" xmlns="http://www.w3.org/2000/svg"><path d="M32.5 65C14.579 65 0 50.421 0 32.5 0 14.58 14.58 0 32.5 0S65 14.58 65 32.5C65 50.421 50.421 65 32.5 65zm0-62.5c-16.543 0-30 13.459-30 30s13.459 30 30 30 30-13.459 30-30-13.459-30-30-30z"/><path d="M35.66 16.092c.057 1.742-1.22 3.133-3.25 3.133-1.797 0-3.074-1.393-3.074-3.133 0-1.797 1.335-3.19 3.19-3.19 1.916 0 3.135 1.393 3.135 3.19zM29.977 52.06V23.982h5.104V52.06h-5.104z"/></symbol><symbol viewBox="0 0 16 16" id="home" xmlns="http://www.w3.org/2000/svg"><path fill-rule="evenodd" clip-rule="evenodd" d="M3.925 6.666l4.001-4 4 4v6.667h-8V6.666zM2.593 8l-.985.984-.942-.942 6.318-6.318c.52-.52 1.364-.52 1.884 0l6.318 6.318-.942.942L13.259 8v5.334c0 .736-.597 1.333-1.333 1.333h-8a1.333 1.333 0 01-1.333-1.333V7.999z"/></symbol><symbol viewBox="0 0 24 24" id="instagramm" xmlns="http://www.w3.org/2000/svg"><path d="M15.948 7.2H8.65c-.824 0-1.452.628-1.452 1.452v7.297c0 .824.628 1.451 1.452 1.451h7.297c.823 0 1.451-.627 1.451-1.451V8.652c0-.824-.628-1.452-1.451-1.452zm-3.649 8.16c1.687 0 3.06-1.334 3.06-2.942a2.8 2.8 0 00-.117-.824h.863v4.159a.393.393 0 01-.393.392H8.886a.393.393 0 01-.392-.393v-4.197h.902a3 3 0 00-.118.824c-.039 1.647 1.334 2.981 3.021 2.981zm0-1.177c-1.098 0-1.961-.863-1.961-1.922 0-1.06.863-1.922 1.961-1.922 1.099 0 1.962.863 1.962 1.922 0 1.098-.863 1.922-1.962 1.922zm3.766-4.197a.435.435 0 01-.431.431h-1.099a.435.435 0 01-.431-.431v-1.06c0-.235.196-.431.431-.431h1.099c.235 0 .431.196.431.431v1.06z"/></symbol><symbol viewBox="0 0 60 60" id="left-arrow" xmlns="http://www.w3.org/2000/svg"><g clip-path="url(#ayclip0)"><path d="M43.414.383a1.304 1.304 0 011.844 1.843L17.493 29.994 45.26 57.758a1.304 1.304 0 11-1.844 1.844L14.728 30.914a1.304 1.304 0 010-1.844L43.414.383z"/><path d="M44.336 59.985a1.304 1.304 0 00.923-2.227L17.492 29.993 45.26 2.23A1.306 1.306 0 1043.413.382L14.725 29.07a1.304 1.304 0 000 1.844l28.688 28.688c.245.245.577.383.923.383z"/></g><defs><clipPath id="ayclip0"><path transform="matrix(-1 0 0 1 60 0)" d="M0 0h60v60H0z"/></clipPath></defs></symbol><symbol viewBox="0 0 24 24" id="location" xmlns="http://www.w3.org/2000/svg"><path fill-rule="evenodd" clip-rule="evenodd" d="M10.454 22.621L12 24l1.546-1.378C18.483 18.221 21 14.313 21 10.655 21 5.46 17.014 1.5 12 1.5c-5.014 0-9 3.96-9 9.155 0 3.658 2.517 7.566 7.454 11.966zM12 4.5c3.361 0 6 2.622 6 6.155 0 2.504-1.947 5.615-6 9.32-4.053-3.705-6-6.816-6-9.32C6 7.122 8.639 4.5 12 4.5zM12 6a4.5 4.5 0 110 9 4.5 4.5 0 010-9zm-1.5 4.5a1.5 1.5 0 113 0 1.5 1.5 0 01-3 0z"/></symbol><symbol viewBox="0 0 24 24" id="mail" xmlns="http://www.w3.org/2000/svg"><path fill-rule="evenodd" clip-rule="evenodd" d="M3 3h18a3 3 0 013 3v12a3 3 0 01-3 3H3a3 3 0 01-3-3V6a3 3 0 013-3zm0 7.5V18h18v-7.658L12 15l-9-4.5zm0-3l9 4.482L21 7.5V6H3v1.5z"/></symbol><symbol viewBox="0 0 70 70" id="materials" xmlns="http://www.w3.org/2000/svg"><g clip-path="url(#bbclip0)"><path d="M52.904 62.706c-.562 0-1.018.456-1.018 1.018v3.9a.34.34 0 01-.339.34H19.114a.34.34 0 01-.34-.34v-20.91a1.018 1.018 0 10-2.036 0v20.91A2.378 2.378 0 0019.114 70h32.433a2.378 2.378 0 002.376-2.376v-3.9c0-.562-.456-1.018-1.019-1.018z"/><path d="M64.177 56.624c-.282-.426-.574-.867-.736-1.482-.122-.465-.017-.62.296-1.08.34-.502.806-1.188.806-2.315 0-1.168-.402-1.818-.695-2.292-.244-.395-.391-.633-.391-1.223 0-.59.147-.828.39-1.222.294-.475.696-1.125.696-2.293 0-1.168-.402-1.818-.695-2.293-.244-.394-.391-.632-.391-1.222s.147-.828.39-1.222c.294-.475.696-1.125.696-2.293 0-1.168-.402-1.818-.696-2.292-.243-.395-.39-.633-.39-1.222 0-.59.147-.828.39-1.223.294-.474.696-1.124.696-2.292 0-1.167-.402-1.818-.696-2.292-.243-.395-.39-.633-.39-1.222 0-.445.284-.869.586-1.318.47-.699 1.343-2 .042-3.3-1.301-1.301-2.602-.427-3.3.042-.45.302-.874.586-1.319.586-.59 0-.828-.147-1.223-.39-.474-.294-1.125-.696-2.293-.696-1.168 0-1.818.402-2.292.695-.395.244-.633.391-1.223.391-.59 0-.828-.147-1.222-.39-.475-.294-1.125-.696-2.293-.696-1.168 0-1.818.402-2.292.695-.395.244-.633.391-1.223.391-.59 0-.828-.147-1.222-.39-.276-.171-.613-.378-1.075-.522.367-2.185.35-4.397-.054-6.58l-.482-2.598a16.828 16.828 0 01-.1-5.551l.585-3.937a2.845 2.845 0 00-.81-2.453 2.847 2.847 0 00-2.453-.81l-2.753.41a1.018 1.018 0 10.299 2.013l2.753-.409a.827.827 0 01.714.236c.19.19.275.45.236.714l-.585 3.937a18.86 18.86 0 00.112 6.222l.481 2.598a16.81 16.81 0 01.007 6.112c-.67.13-1.112.403-1.46.618-.395.244-.633.39-1.222.39-.59 0-.828-.146-1.222-.39-.475-.294-1.125-.695-2.292-.695-1.168 0-1.818.401-2.293.695-.394.244-.632.39-1.222.39-.445 0-.869-.284-1.318-.586-.698-.47-2-1.343-3.3-.042-1.3 1.301-.427 2.602.043 3.301.301.449.586.873.586 1.318 0 .59-.148.828-.391 1.223-.293.475-.695 1.125-.695 2.293 0 1.168.402 1.818.695 2.293.244.394.39.632.39 1.222s-.146.828-.39 1.222a5.94 5.94 0 00-.337.601 16.81 16.81 0 01-5.436-.112c-2.843-.589-5.93-1.098-8.815-.593l-3.938.585a.829.829 0 01-.714-.236.828.828 0 01-.236-.714l.585-3.936a18.86 18.86 0 00-.112-6.222l-.48-2.593a16.802 16.802 0 010-6.148l.48-2.593c.382-2.058.42-4.152.112-6.222l-.584-3.938a.828.828 0 01.236-.714.827.827 0 01.714-.235l3.936.584c2.07.308 4.164.27 6.222-.112l2.593-.48a16.808 16.808 0 016.148 0l2.594.48c.967.18 1.956.284 2.939.31a1.018 1.018 0 10.055-2.035A16.929 16.929 0 0130.305.8L27.713.318a18.827 18.827 0 00-6.89 0l-2.594.48a16.798 16.798 0 01-5.552.1L8.741.313a2.846 2.846 0 00-2.453.81 2.846 2.846 0 00-.81 2.453l.584 3.938a16.792 16.792 0 01-.1 5.551l-.48 2.593a18.83 18.83 0 000 6.89l.48 2.594c.341 1.836.375 3.704.1 5.551l-.584 3.937c-.135.909.16 1.803.81 2.453.65.65 1.544.945 2.452.81l3.938-.585c1.35-.2 2.71-.235 4.06-.107v4.966a1.018 1.018 0 102.036 0V37.51l2.049.38c1.14.21 2.292.317 3.444.317.674 0 1.349-.04 2.022-.112.08.92.42 1.472.678 1.89.244.394.39.632.39 1.222s-.146.827-.39 1.222c-.293.475-.695 1.125-.695 2.293 0 1.167.402 1.817.695 2.292.244.394.39.633.39 1.222 0 .59-.146.828-.39 1.222-.293.475-.695 1.125-.695 2.292 0 1.168.402 1.818.695 2.293.244.394.39.632.39 1.221 0 .446-.284.87-.585 1.319-.47.698-1.344 2-.043 3.3.506.506 1.012.683 1.482.683.74 0 1.392-.438 1.82-.725.448-.302.872-.587 1.318-.587.59 0 .827.147 1.222.391.475.294 1.125.695 2.293.695 1.168 0 1.818-.401 2.293-.695.394-.244.633-.39 1.222-.39.59 0 .828.146 1.223.39.474.294 1.124.695 2.292.695 1.168 0 1.818-.401 2.293-.695.394-.244.633-.39 1.222-.39.59 0 .828.146 1.222.39.475.294 1.125.695 2.293.695 1.168 0 1.818-.401 2.293-.695.394-.244.632-.39 1.222-.39s.827.146 1.222.39c.474.294 1.124.695 2.292.695 1.168 0 1.818-.401 2.292-.695.395-.244.633-.39 1.222-.39.445 0 .87.284 1.318.586.699.469 2 1.343 3.3.042 1.354-1.353.564-2.546.093-3.258zM62.675 58.4a.239.239 0 01-.288.046c-.146-.08-.329-.204-.467-.297-.585-.393-1.388-.932-2.453-.932-1.168 0-1.818.402-2.292.695-.395.244-.633.391-1.222.391-.59 0-.828-.147-1.222-.39-.475-.294-1.125-.696-2.293-.696-1.167 0-1.817.402-2.292.695-.394.244-.633.391-1.222.391-.59 0-.828-.147-1.222-.39-.475-.294-1.125-.696-2.293-.696-1.168 0-1.818.402-2.292.695-.395.244-.633.391-1.223.391-.59 0-.828-.147-1.222-.39-.475-.294-1.125-.696-2.293-.696-1.168 0-1.818.402-2.293.695-.394.244-.632.391-1.222.391s-.828-.147-1.223-.39c-.474-.294-1.124-.696-2.292-.696-1.066 0-1.868.539-2.454.932a6.043 6.043 0 01-.516.323.176.176 0 01-.204-.033l-.003-.002a.176.176 0 01-.033-.204c.078-.151.22-.362.323-.516.393-.586.932-1.388.932-2.453 0-1.168-.401-1.818-.695-2.293-.244-.394-.39-.632-.39-1.221 0-.59.146-.828.39-1.222.293-.475.695-1.125.695-2.293 0-1.168-.401-1.818-.695-2.292-.244-.395-.39-.633-.39-1.222 0-.59.146-.828.39-1.222.293-.475.695-1.125.695-2.293 0-1.168-.401-1.818-.695-2.293-.244-.394-.39-.632-.39-1.222s.146-.828.39-1.223c.293-.474.695-1.124.695-2.292 0-1.168-.401-1.818-.695-2.293-.244-.394-.39-.633-.39-1.222 0-.59.146-.828.39-1.223.293-.475.695-1.125.695-2.293 0-1.066-.539-1.868-.932-2.453-.105-.157-.249-.37-.326-.522a.175.175 0 01.032-.203l.003-.002a.175.175 0 01.202-.032c.152.077.365.22.521.326.586.393 1.388.932 2.454.932 1.168 0 1.817-.402 2.292-.695.394-.244.632-.391 1.222-.391s.827.147 1.222.39c.474.294 1.124.696 2.292.696 1.168 0 1.818-.402 2.293-.695.394-.244.632-.391 1.222-.391s.828.147 1.222.39c.475.294 1.125.696 2.293.696 1.168 0 1.818-.402 2.292-.695.395-.244.633-.391 1.223-.391.59 0 .828.147 1.222.39.475.294 1.125.696 2.293.696 1.167 0 1.818-.402 2.292-.695.395-.244.633-.391 1.223-.391.59 0 .828.147 1.222.39.475.294 1.125.696 2.293.696 1.066 0 1.868-.54 2.454-.932a6.06 6.06 0 01.516-.324.176.176 0 01.204.034l.003.002a.176.176 0 01.033.204c-.078.151-.22.362-.323.516-.393.586-.932 1.388-.932 2.453 0 1.168.401 1.818.695 2.292.244.395.39.633.39 1.222 0 .59-.146.828-.39 1.222-.293.475-.695 1.125-.695 2.293 0 1.167.401 1.817.695 2.292.244.394.39.633.39 1.222 0 .59-.146.828-.39 1.223-.294.474-.695 1.124-.695 2.292 0 1.168.401 1.818.695 2.293.244.394.39.632.39 1.222s-.146.828-.39 1.223c-.294.474-.695 1.124-.695 2.292 0 1.168.401 1.818.695 2.293.244.394.39.633.39 1.222 0 .502-.18.768-.453 1.17-.397.584-.94 1.383-.58 2.743.247.94.686 1.604 1.007 2.088a8.5 8.5 0 01.232.363.238.238 0 01-.033.286l-.004.003z"/><path d="M38.528 46.965a1.536 1.536 0 100-3.071 1.536 1.536 0 000 3.07zm6.882 0a1.536 1.536 0 100-3.071 1.536 1.536 0 000 3.07zm6.88 0a1.536 1.536 0 100-3.072 1.536 1.536 0 000 3.072zm-17.204 4.773a1.536 1.536 0 100-3.071 1.536 1.536 0 000 3.071zm6.884 0a1.536 1.536 0 100-3.071 1.536 1.536 0 000 3.071zm6.878 0a1.536 1.536 0 100-3.071 1.536 1.536 0 000 3.071zm6.882 0a1.536 1.536 0 10.001-3.071 1.536 1.536 0 000 3.071zm-20.644-19.14a1.536 1.536 0 100-3.072 1.536 1.536 0 000 3.072zm6.884 0a1.536 1.536 0 100-3.072 1.536 1.536 0 000 3.072zm6.878 0a1.536 1.536 0 100-3.072 1.536 1.536 0 000 3.072zm6.882 0a1.536 1.536 0 10.001-3.072 1.536 1.536 0 000 3.072zm-17.202 4.797a1.536 1.536 0 100-3.072 1.536 1.536 0 000 3.072zm6.882 0a1.536 1.536 0 100-3.072 1.536 1.536 0 000 3.072zm6.88 0a1.536 1.536 0 100-3.072 1.536 1.536 0 000 3.072zm-17.204 4.773a1.536 1.536 0 100-3.071 1.536 1.536 0 000 3.07zm6.884 0a1.536 1.536 0 100-3.071 1.536 1.536 0 000 3.07zm6.878 0a1.536 1.536 0 100-3.071 1.536 1.536 0 000 3.07zm6.882 0a1.536 1.536 0 10.001-3.071 1.536 1.536 0 000 3.07zM16.34 9.14a1.018 1.018 0 10-2.035 0v1.918a1.018 1.018 0 102.036 0V9.14zm5.958 0a1.018 1.018 0 10-2.036 0v1.918a1.018 1.018 0 102.036 0V9.14zm5.664 0a1.018 1.018 0 10-2.036 0v1.918a1.018 1.018 0 102.036 0V9.14zm5.957 0a1.018 1.018 0 10-2.036 0v1.918a1.018 1.018 0 102.036 0V9.14zM16.34 17.316a1.018 1.018 0 10-2.035 0v1.918a1.018 1.018 0 102.036 0v-1.918zm5.958 0a1.018 1.018 0 10-2.036 0v1.918a1.018 1.018 0 102.036 0v-1.918zm4.646-1.018c-.563 0-1.018.456-1.018 1.018v1.918a1.018 1.018 0 102.036 0v-1.918c0-.562-.456-1.018-1.018-1.018zm5.956 0c-.561 0-1.017.456-1.017 1.018v1.918a1.018 1.018 0 102.036 0v-1.918c0-.562-.456-1.018-1.018-1.018zm-17.577 8.026c-.563 0-1.018.456-1.018 1.018v1.918a1.018 1.018 0 102.036 0v-1.918c0-.562-.456-1.018-1.018-1.018zm5.957 0c-.563 0-1.018.456-1.018 1.018v1.918a1.018 1.018 0 102.036 0v-1.918c0-.562-.456-1.018-1.018-1.018z"/></g><defs><clipPath id="bbclip0"><path d="M0 0h70v70H0z"/></clipPath></defs></symbol><symbol viewBox="0 0 31 9" id="next-arrow" xmlns="http://www.w3.org/2000/svg"><path fill-rule="evenodd" clip-rule="evenodd" d="M27.672.965l3.182 3.182a.5.5 0 010 .707l-3.182 3.182a.5.5 0 11-.707-.707L29.293 5H.5V4h28.793l-2.328-2.328a.5.5 0 11.707-.707z"/></symbol><symbol viewBox="0 0 17 16" id="question" xmlns="http://www.w3.org/2000/svg"><path fill-rule="evenodd" clip-rule="evenodd" d="M.871 8a7.333 7.333 0 1014.667 0A7.333 7.333 0 00.87 8zm13.336 0a6 6 0 11-12 0 6 6 0 0112 0zm-6.005 3.331a.667.667 0 100-1.333.667.667 0 000 1.333zm-.667-1.998H8.87c0-.532.083-.63.631-.903.952-.476 1.369-.962 1.369-2.097C10.869 4.88 9.725 4 8.202 4a2.667 2.667 0 00-2.667 2.667H6.87c0-.737.597-1.334 1.333-1.334.851 0 1.333.371 1.333 1 0 .533-.083.63-.631.904-.952.476-1.369.962-1.369 2.096z" opacity=".7"/></symbol><symbol viewBox="0 0 60 60" id="right-arrow" xmlns="http://www.w3.org/2000/svg"><g clip-path="url(#beclip0)"><path d="M16.586.383a1.304 1.304 0 00-1.844 1.843l27.765 27.768L14.74 57.758a1.304 1.304 0 101.844 1.844l28.688-28.688a1.304 1.304 0 000-1.844L16.586.383z"/><path d="M15.664 59.985a1.304 1.304 0 01-.923-2.227l27.767-27.765L14.74 2.23A1.306 1.306 0 1116.587.382L45.275 29.07c.509.51.509 1.335 0 1.844L16.587 59.602a1.304 1.304 0 01-.923.383z"/></g><defs><clipPath id="beclip0"><path d="M0 0h60v60H0z"/></clipPath></defs></symbol><symbol viewBox="0 0 14 15" id="search" xmlns="http://www.w3.org/2000/svg"><path fill-rule="evenodd" clip-rule="evenodd" d="M5.835 11A4.667 4.667 0 119.52 9.195l3.143 3.143-.825.825-3.143-3.143c-.79.614-1.783.98-2.861.98zm3.5-4.666a3.5 3.5 0 11-7 0 3.5 3.5 0 017 0z"/></symbol><symbol viewBox="0 0 70 70" id="service-1" xmlns="http://www.w3.org/2000/svg"><g clip-path="url(#bgclip0)"><path d="M69.64 23.832c-.436-.497-10.918-12.165-34.64-12.165S.796 23.335.36 23.832a1.457 1.457 0 00-.309 1.343l8.75 32.083a1.462 1.462 0 002.294.775C11.169 57.978 18.56 52.5 35 52.5c1.642 0 3.168.067 4.631.166l-1.768 2.75H37.2a1.457 1.457 0 100 2.918h5.834a1.458 1.458 0 100-2.917H41.33l1.577-2.453c10.917 1.318 15.938 5.023 15.997 5.07a1.472 1.472 0 001.353.22c.46-.155.814-.527.942-.996l8.75-32.083a1.457 1.457 0 00-.31-1.343zM58.9 54.601c-2.318-1.278-6.984-3.302-14.253-4.344l7.933-12.34h2.65l-2.79 10.23a1.458 1.458 0 102.814.766L61.2 27.112a1.458 1.458 0 10-2.814-.766L56.025 35h-4.242c-.495 0-.958.252-1.226.67l-9.144 14.225A69.887 69.887 0 0035 49.584c-13.02 0-20.682 3.242-23.9 5.017L3.085 25.215C5.409 22.985 15.465 14.584 35 14.584c19.453 0 29.574 8.405 31.914 10.635L58.9 54.601z"/><path d="M13.778 23.487a1.462 1.462 0 00-1.957.653l-2.917 5.833a1.458 1.458 0 102.61 1.305l2.916-5.834c.36-.72.069-1.596-.652-1.957zm5.831 0a1.463 1.463 0 00-1.957.653l-5.834 11.666a1.458 1.458 0 102.61 1.305l5.833-11.667a1.46 1.46 0 00-.652-1.957z"/></g><defs><clipPath id="bgclip0"><path d="M0 0h70v70H0z"/></clipPath></defs></symbol><symbol viewBox="0 0 71 70" id="service-2" xmlns="http://www.w3.org/2000/svg"><path d="M65.177 12.31A7.754 7.754 0 0058.203 8H33.981a16.263 16.263 0 00-12.147 5.454L10.096 26.657C7.448 29.634 5.99 33.47 6 37.614l2.09 16.133h.001a10.667 10.667 0 003.022 6.143 10.55 10.55 0 007.51 3.11h42.376c2.758 0 5-2.243 5-5V15.795c0-1.203-.284-2.41-.822-3.486zM63.5 58c0 1.378-1.122 2.5-2.5 2.5H18.63a8.067 8.067 0 01-5.74-2.378 8.152 8.152 0 01-2.31-4.697L8.5 37.453c0-3.372 1.234-6.615 3.473-9.136l11.736-13.203A13.765 13.765 0 0133.986 10.5h24.219a5.266 5.266 0 014.736 2.927 5.32 5.32 0 01.559 2.368V58z"/><path d="M60.704 14.545a2.776 2.776 0 00-2.5-1.545H33.987a11.26 11.26 0 00-8.408 3.776L13.84 29.979C12.366 31.64 11 33.61 11 36.749c0 .692.56 1.25 1.25 1.25h47.5c.69 0 1.25-.558 1.25-1.25V15.796a2.81 2.81 0 00-.296-1.25zM58.5 35.5H13.6c.23-1.323.87-2.465 2.11-3.861l11.735-13.202a8.762 8.762 0 016.54-2.937h24.22c.116 0 .212.059.295.295V35.5zm1.25 7.5h-7.5a1.25 1.25 0 100 2.5h7.5a1.25 1.25 0 100-2.5z"/><path d="M40.28 19.366a1.25 1.25 0 011.768 0l2.5 2.5a1.25 1.25 0 11-1.768 1.768l-2.5-2.5a1.25 1.25 0 010-1.768zm1.836 6.417a1.25 1.25 0 011.768 0l2.5 2.5a1.25 1.25 0 11-1.768 1.768l-2.5-2.5a1.25 1.25 0 010-1.768zm-9.168-7.333a1.25 1.25 0 011.768 0l2.5 2.5a1.25 1.25 0 11-1.768 1.767l-2.5-2.5a1.25 1.25 0 010-1.768zm13.75 1.832a1.25 1.25 0 011.768 0l2.5 2.5a1.25 1.25 0 11-1.768 1.768l-2.5-2.5a1.25 1.25 0 010-1.768z"/><path d="M44.97 13.866a1.25 1.25 0 00-1.768 0l-7.5 7.5a1.25 1.25 0 101.768 1.768l7.5-7.5a1.25 1.25 0 000-1.768zm2.746 6.417a1.25 1.25 0 00-1.768 0l-7.5 7.5a1.25 1.25 0 101.768 1.768l7.5-7.5a1.25 1.25 0 000-1.768zM59.75 50.5h-45a1.25 1.25 0 100 2.5h45a1.25 1.25 0 100-2.5z"/></symbol><symbol viewBox="0 0 70 70" id="service-3" xmlns="http://www.w3.org/2000/svg"><g clip-path="url(#biclip0)"><path d="M68.907 46.483a1.093 1.093 0 01-1.093-1.093c0-16.284-13.248-29.532-29.533-29.532a1.093 1.093 0 110-2.187c17.49 0 31.72 14.23 31.72 31.719 0 .605-.489 1.093-1.094 1.093z"/><path d="M63.001 45.499a1 1 0 01-1-1c0-13.233-10.767-24-24.001-24a1 1 0 110-2c14.337 0 26.001 11.663 26.001 26a1 1 0 01-1 1zm5.905 10.831a1.093 1.093 0 01-1.094-1.094V45.39a1.093 1.093 0 112.188 0v9.846c0 .604-.489 1.093-1.094 1.093z"/><path d="M63 51.498a1 1 0 01-1-1v-5.999a1 1 0 112 0v5.999a1 1 0 01-1 1zm5.906 4.832H1.094a1.093 1.093 0 110-2.188h67.812a1.093 1.093 0 110 2.187zM38.28 15.858H1.094a1.093 1.093 0 110-2.187H38.28a1.093 1.093 0 110 2.187z"/><path d="M1.094 56.33A1.093 1.093 0 010 55.235v-40.47a1.093 1.093 0 112.188 0v40.47c0 .605-.49 1.094-1.094 1.094zM7 44.491a1 1 0 01-1-1V19.499a1 1 0 112 0v23.992a1 1 0 01-1 1z"/><path d="M37.999 20.499H7a1 1 0 110-2h30.999a1 1 0 110 2zm24.999 30.999H14a1 1 0 110-2h48.998a1 1 0 110 2z"/><path d="M13.998 51.498a.997.997 0 01-.707-.293l-6.998-7.002a.999.999 0 111.414-1.414l6.998 7.002a.999.999 0 01-.707 1.707z"/><path d="M14 51.498a1 1 0 01-1-1l.001-6.999a1 1 0 112 0L15 50.498a1 1 0 01-1 1z"/><path d="M14.003 44.499H7a1 1 0 110-2h7.003a1 1 0 110 2z"/></g><defs><clipPath id="biclip0"><path d="M0 0h70v70H0z"/></clipPath></defs></symbol><symbol viewBox="0 0 70 70" id="service-4" xmlns="http://www.w3.org/2000/svg"><path d="M58.162 8.821A1.111 1.111 0 0056.595 7.8a20.38 20.38 0 01-21.28-2.523 1.111 1.111 0 00-1.467 0A20.659 20.659 0 0112.567 7.8 1.111 1.111 0 0011 8.821c0 .234.078 23.148 0 30.738-.044 4.056 9.424 17.224 23.014 25.292a1.11 1.11 0 001.112 0c13.613-8.068 23.08-21.236 23.036-25.292-.078-7.59 0-30.504 0-30.738zM55.94 39.57c0 2.445-7.78 14.724-21.359 23.025-13.624-8.29-21.38-20.57-21.358-23.014.066-6.412.022-23.67 0-29.115A22.98 22.98 0 0034.58 7.51a22.98 22.98 0 0021.359 2.956c0 5.434-.056 22.703 0 29.104z"/><path d="M52.363 15.578a1.111 1.111 0 00-1.567-1.023 14.813 14.813 0 01-15.48-1.778 1.111 1.111 0 00-1.467 0A15.002 15.002 0 0118.404 14.6a1.111 1.111 0 00-1.567 1.022c0 .167.056 17.136 0 22.759-.033 3.056 7.034 12.946 17.18 18.97.344.198.768.198 1.111 0 10.168-6.024 17.236-15.914 17.236-19.015-.056-5.623 0-22.58 0-22.758zm-2.222 22.758c0 1.567-5.557 10.602-15.558 16.67-9.924-6.102-15.558-15.136-15.558-16.67.078-4.534 0-16.668 0-21.114A17.013 17.013 0 0034.583 15a17.013 17.013 0 0015.558 2.222v21.114z"/></symbol><symbol viewBox="0 0 70 70" id="service-5" xmlns="http://www.w3.org/2000/svg"><path d="M25.156 51.953C11.284 51.953 0 40.67 0 26.797a1.093 1.093 0 112.188 0c0 12.664 10.304 22.969 22.968 22.969a1.093 1.093 0 110 2.187zm28.438 0a1.093 1.093 0 110-2.187c7.84 0 14.218-6.38 14.218-14.22a1.093 1.093 0 112.188 0c0 9.047-7.36 16.407-16.406 16.407z"/><path d="M1.094 27.89A1.093 1.093 0 010 26.798a3.285 3.285 0 013.281-3.281 1.093 1.093 0 110 2.187c-.603 0-1.094.49-1.094 1.094 0 .605-.488 1.094-1.093 1.094z"/><path d="M66.719 25.703H3.28a1.093 1.093 0 110-2.187h63.44a1.093 1.093 0 110 2.187z"/><path d="M68.906 27.892a1.093 1.093 0 01-1.094-1.094c0-.604-.49-1.094-1.093-1.094a1.093 1.093 0 110-2.187A3.285 3.285 0 0170 26.797c0 .606-.489 1.095-1.094 1.095zm-67.812-5.47A1.093 1.093 0 010 21.328a3.285 3.285 0 013.281-3.281 1.093 1.093 0 110 2.187c-.603 0-1.094.49-1.094 1.094 0 .605-.488 1.094-1.093 1.094z"/><path d="M66.719 20.234H3.28a1.093 1.093 0 110-2.187h63.44a1.093 1.093 0 110 2.187z"/><path d="M68.906 22.423a1.093 1.093 0 01-1.094-1.094c0-.604-.49-1.094-1.093-1.094a1.093 1.093 0 110-2.187A3.285 3.285 0 0170 21.329c0 .605-.489 1.094-1.094 1.094z"/><path d="M68.906 36.64a1.093 1.093 0 01-1.094-1.093V21.329a1.093 1.093 0 112.188 0v14.218c0 .605-.489 1.094-1.094 1.094zM53.594 51.953H25.156a1.093 1.093 0 110-2.187h28.438a1.093 1.093 0 110 2.187zm-26.258-3.281c-6.031 0-10.938-4.907-10.938-10.938 0-6.03 4.907-10.937 10.938-10.937 6.03 0 10.937 4.906 10.937 10.937s-4.906 10.938-10.937 10.938zm0-19.688c-4.825 0-8.75 3.926-8.75 8.75 0 4.825 3.925 8.75 8.75 8.75s8.75-3.925 8.75-8.75c0-4.824-3.925-8.75-8.75-8.75z"/><path d="M27.336 45.39c-4.22 0-7.656-3.435-7.656-7.656 0-4.22 3.435-7.656 7.656-7.656 4.22 0 7.656 3.436 7.656 7.656 0 4.221-3.434 7.657-7.656 7.657zm0-13.124a5.475 5.475 0 00-5.469 5.468 5.475 5.475 0 005.469 5.47 5.475 5.475 0 005.469-5.47 5.475 5.475 0 00-5.47-5.468zm21.883 16.406c-6.031 0-10.938-4.907-10.938-10.938 0-6.03 4.907-10.937 10.938-10.937 6.03 0 10.937 4.906 10.937 10.937S55.25 48.672 49.22 48.672zm0-19.688c-4.825 0-8.75 3.926-8.75 8.75 0 4.825 3.925 8.75 8.75 8.75 4.824 0 8.75-3.925 8.75-8.75 0-4.824-3.926-8.75-8.75-8.75z"/><path d="M49.219 45.39c-4.221 0-7.657-3.435-7.657-7.656 0-4.22 3.436-7.656 7.657-7.656 4.22 0 7.656 3.436 7.656 7.656 0 4.221-3.435 7.657-7.656 7.657zm0-13.124a5.475 5.475 0 00-5.469 5.468 5.475 5.475 0 005.469 5.47 5.475 5.475 0 005.468-5.47 5.475 5.475 0 00-5.468-5.468zM1.094 27.89A1.093 1.093 0 010 26.798v-5.469a1.093 1.093 0 112.188 0v5.469c0 .605-.49 1.094-1.094 1.094z"/></symbol><symbol viewBox="0 0 70 70" id="service-6" xmlns="http://www.w3.org/2000/svg"><path d="M69.094 35.92C68.093 18.806 53.893 5.19 36.314 4.542V1.235a1.235 1.235 0 10-2.47 0v3.303C16.19 5.11 1.909 18.754.904 35.92a1.238 1.238 0 00.868 1.252 1.238 1.238 0 001.423-.541C4.886 33.836 8 31.944 11.59 31.945c3.989-.001 7.398 2.333 8.904 5.644a1.234 1.234 0 002.25-.002c1.924-4.245 6.116-7.317 11.101-7.73v31.495a6.15 6.15 0 01-1.81 4.367 6.153 6.153 0 01-4.366 1.81 6.15 6.15 0 01-4.367-1.81 6.152 6.152 0 01-1.81-4.367 1.235 1.235 0 10-2.47 0A8.649 8.649 0 0027.669 70a8.649 8.649 0 008.647-8.647v-31.48c4.914.467 9.036 3.515 10.94 7.714a1.234 1.234 0 002.249.002c1.505-3.311 4.916-5.645 8.905-5.644 3.59 0 6.704 1.89 8.394 4.686a1.237 1.237 0 002.29-.711zm-46.66-15.591c-1.02 3.857-1.7 8.235-1.954 12.92a12.286 12.286 0 00-8.891-3.775 12.297 12.297 0 00-7.732 2.716C6.2 19.861 16.07 10.082 28.682 7.597a16.643 16.643 0 00-1.416 1.7c-2.013 2.775-3.646 6.555-4.833 11.032zm12.564 7.005c-4.799 0-9.102 2.089-12.013 5.392.444-7.014 1.887-13.247 3.927-17.807 1.152-2.585 2.499-4.624 3.896-5.963.699-.672 1.406-1.167 2.105-1.492a4.894 4.894 0 012.086-.484 4.89 4.89 0 012.086.484c1.22.565 2.475 1.67 3.648 3.285 1.761 2.418 3.318 5.948 4.443 10.21.925 3.494 1.559 7.483 1.83 11.76-2.91-3.298-7.21-5.384-12.008-5.385zm23.41 2.14a12.288 12.288 0 00-8.895 3.776c-.408-7.532-1.909-14.265-4.172-19.338-1.147-2.563-2.488-4.702-4.031-6.316C53.925 10.08 63.796 19.86 66.14 32.19a12.303 12.303 0 00-7.732-2.715z"/></symbol><symbol viewBox="0 0 19 19" id="star" xmlns="http://www.w3.org/2000/svg"><g clip-path="url(#bmclip0)"><path d="M18.547 7.405a.955.955 0 00-.824-.658l-5.195-.472-2.054-4.808a.957.957 0 00-1.76 0L6.66 6.276l-5.196.472A.957.957 0 00.92 8.42l3.927 3.444-1.158 5.101A.956.956 0 005.112 18l4.482-2.679L14.074 18a.957.957 0 001.424-1.034l-1.159-5.101 3.927-3.443a.957.957 0 00.28-1.017z"/></g><defs><clipPath id="bmclip0"><path transform="translate(.594 .5)" d="M0 0h18v18H0z"/></clipPath></defs></symbol><symbol viewBox="0 0 70 70" id="trophy" xmlns="http://www.w3.org/2000/svg"><path d="M66.244 12.172a3.4 3.4 0 00-3.404-3.115h-8.843V7.754h.172a2.293 2.293 0 002.29-2.29V2.29A2.293 2.293 0 0054.17 0H28.143a1.025 1.025 0 100 2.05H54.17a.24.24 0 01.24.24v3.174a.24.24 0 01-.24.24H15.834a.24.24 0 01-.24-.24V2.29a.24.24 0 01.24-.24h7.502a1.025 1.025 0 100-2.05h-7.502a2.292 2.292 0 00-2.29 2.29v3.174a2.292 2.292 0 002.29 2.29h.172v1.303H7.163a3.4 3.4 0 00-3.404 3.115c-.02.232-.481 5.758 1.782 11.879 2.07 5.6 6.82 12.75 17.704 15.557a18.98 18.98 0 005.924 3.17l.516.851c.975 1.61 1.49 3.514 1.49 5.505a10.95 10.95 0 01-.576 3.532l-.716 2.112h-2.384a4.443 4.443 0 00-4.438 4.438v2.148h-3.732c-1.053 0-1.91.857-1.91 1.91v4.816c0 1.053.857 1.91 1.91 1.91h31.345c1.053 0 1.91-.857 1.91-1.91v-4.816c0-1.053-.857-1.91-1.91-1.91h-3.731v-2.148a4.443 4.443 0 00-4.438-4.438H40.12l-.716-2.112a10.965 10.965 0 01-.577-3.532c0-1.99.516-3.895 1.492-5.505l.516-.852a18.978 18.978 0 005.923-3.17c10.884-2.806 15.634-9.956 17.705-15.556 2.263-6.12 1.802-11.647 1.781-11.88zM16.386 28.485c-1.912-1.79-3.377-4.01-4.378-6.657-.696-1.838-1.152-3.835-1.355-5.935h5.353V24.7c0 1.296.131 2.562.38 3.786zM7.464 23.34C5.36 17.647 5.783 12.567 5.802 12.354a1.36 1.36 0 011.361-1.246h8.843v2.734h-5.438a1.977 1.977 0 00-1.964 2.159c.215 2.313.715 4.518 1.486 6.553 1.52 4.02 3.983 7.158 7.354 9.392a19 19 0 002.592 4.437C12.608 33.304 9.11 27.788 7.464 23.34zm43.07 40.074v4.535H19.47v-4.535h31.063zm-8.03-6.585a2.39 2.39 0 012.388 2.387v2.148h-19.78v-2.148a2.39 2.39 0 012.387-2.387h15.006zm-5.042-3.504l.493 1.453h-5.907l.493-1.453c.455-1.34.685-2.75.685-4.19 0-2.018-.45-3.965-1.308-5.692a19.043 19.043 0 006.167 0 12.792 12.792 0 00-1.308 5.691c0 1.441.23 2.851.685 4.19zm-2.46-11.681c-9.344 0-16.945-7.602-16.945-16.945V7.754h33.89V24.7c0 9.343-7.602 16.945-16.945 16.945zM62.539 23.34c-1.645 4.448-5.143 9.965-12.573 13.044a19.012 19.012 0 002.597-4.446c2.894-1.922 5.123-4.51 6.657-7.751a1.025 1.025 0 10-1.853-.878c-.95 2.007-2.203 3.736-3.75 5.182.249-1.226.38-2.494.38-3.792v-8.806h5.353a24.372 24.372 0 01-.504 3.112 1.025 1.025 0 101.999.46A26.48 26.48 0 0061.4 16a1.977 1.977 0 00-1.965-2.158h-5.438v-2.735h8.843a1.36 1.36 0 011.362 1.246c.018.213.442 5.293-1.663 10.986z"/><path d="M41.743 19.914l-2.94-.427a.394.394 0 01-.296-.215l-1.315-2.665a2.429 2.429 0 00-2.191-1.362 2.43 2.43 0 00-2.192 1.362l-1.315 2.665a.393.393 0 01-.296.215l-2.94.427a2.428 2.428 0 00-1.973 1.663 2.429 2.429 0 00.619 2.505l2.127 2.074c.093.09.135.22.114.348l-.503 2.928c-.158.924.214 1.84.972 2.39a2.43 2.43 0 002.574.186l2.63-1.382a.393.393 0 01.366 0l2.63 1.382a2.435 2.435 0 002.574-.186 2.428 2.428 0 00.971-2.39l-.502-2.928a.393.393 0 01.113-.348l2.128-2.074a2.429 2.429 0 00.618-2.505 2.429 2.429 0 00-1.973-1.663zm-.077 2.7l-2.127 2.074a2.444 2.444 0 00-.703 2.163l.502 2.928a.378.378 0 01-.156.385.377.377 0 01-.414.03l-2.63-1.383a2.443 2.443 0 00-2.275 0l-2.63 1.383a.378.378 0 01-.413-.03.378.378 0 01-.157-.385l.503-2.928a2.443 2.443 0 00-.703-2.163l-2.128-2.074a.377.377 0 01-.1-.403.377.377 0 01.318-.268l2.94-.427a2.443 2.443 0 001.84-1.337l1.315-2.664a.378.378 0 01.352-.22.38.38 0 01.353.22l1.315 2.664a2.443 2.443 0 001.84 1.337l2.94.427c.21.03.29.181.318.268a.377.377 0 01-.1.403z"/></symbol><symbol viewBox="0 0 24 24" id="vk" xmlns="http://www.w3.org/2000/svg"><path d="M17.884 15.07c0-.05-.05-.05-.05-.1-.199-.399-.647-.897-1.245-1.445-.299-.249-.448-.448-.548-.548-.15-.199-.15-.348-.1-.548.05-.149.25-.398.598-.846.2-.25.299-.399.448-.548.748-.997 1.096-1.644.997-1.943l-.05-.05c-.05-.05-.1-.1-.2-.1-.099-.05-.248-.05-.398 0h-2.242l-.05.05c-.05.05-.05.05-.05.1-.198.548-.447.996-.697 1.494-.149.25-.298.498-.448.698-.15.199-.249.348-.348.448-.1.1-.2.15-.25.25-.05.049-.149.099-.149.049-.05 0-.1 0-.1-.05l-.15-.15c-.049-.05-.049-.149-.099-.248V9.091c0-.049-.05-.149-.05-.198l-.149-.15c-.05-.05-.15-.05-.2-.1-.248-.05-.547-.1-.896-.1-.797.001-1.345.05-1.544.15-.1.05-.2.1-.25.2-.099.1-.099.15-.049.15.25.049.448.149.548.298l.05.1c.05.05.05.149.1.298.05.15.05.3.05.499v.797c0 .249-.05.398-.05.548 0 .149-.05.249-.1.299-.05.1-.05.149-.1.149 0 0 0 .05-.05.05s-.1.05-.199.05a.38.38 0 01-.2-.1.6.6 0 01-.248-.25c-.1-.099-.2-.248-.3-.447-.099-.2-.248-.399-.348-.698l-.1-.2a6.961 6.961 0 01-.249-.547c-.1-.25-.199-.448-.298-.697-.05-.1-.1-.15-.15-.2h-.05s-.05-.05-.1-.05-.099-.05-.149-.05H5.88c-.2 0-.299.05-.349.1l-.05.05v.1c0 .05 0 .1.05.199.25.598.548 1.196.847 1.793.299.548.598 1.046.797 1.395.25.349.448.697.698.996.249.3.398.498.448.598l.2.2.149.149c.1.1.249.249.448.398.2.15.448.3.697.449.25.15.548.249.847.348.349.1.648.15.947.1h.747c.15 0 .249-.05.348-.15l.05-.05c0-.05.05-.05.05-.099v-.2c0-.199 0-.348.05-.497.05-.15.05-.25.1-.349.05-.1.1-.15.149-.2l.1-.099h.05c.099-.05.248 0 .348.1.15.1.299.249.399.398.1.15.249.3.448.498.2.2.349.35.448.399l.15.1c.1.05.199.1.348.149.15.05.25.05.35.05l1.693-.05c.15 0 .299-.05.398-.1.1-.05.15-.1.15-.199v-.2c-.1-.099-.1-.149-.1-.199z"/></symbol><symbol viewBox="0 0 60 61" id="wallet" xmlns="http://www.w3.org/2000/svg"><g clip-path="url(#bpclip0)"><path d="M57.139 35.81h-.898v-8.087c0-1.28-.638-2.414-1.61-3.103v-1.1a2.9 2.9 0 00-2.898-2.897h-.67l2.565-3.764a2.772 2.772 0 00-.729-3.848L35.493 1.15a2.75 2.75 0 00-2.075-.433 2.751 2.751 0 00-1.773 1.162L16.622 23.923h-4.18l1.008-10.21a.303.303 0 01.19-.254 6.5 6.5 0 003.171-2.577.3.3 0 01.284-.133l6.558.648a.855.855 0 00.168-1.702l-6.558-.648a2 2 0 00-1.894.917 4.778 4.778 0 01-2.332 1.895 1.998 1.998 0 00-1.289 1.686l-1.025 10.378h-1.09l1.595-16.149a1.06 1.06 0 011.158-.95l13.251 1.31a.856.856 0 00.168-1.702l-13.25-1.31a2.773 2.773 0 00-3.029 2.484L8.241 20.622H6.05a2.9 2.9 0 00-2.897 2.897v.751a3.804 3.804 0 00-2.216 3.453v29.144c0 2.095 1.704 3.8 3.8 3.8H52.44c2.095 0 3.8-1.705 3.8-3.8V48.78h.898c1.06 0 1.921-.863 1.921-1.922v-9.125c0-1.06-.862-1.922-1.922-1.922zm-5.406-13.478c.655 0 1.187.532 1.187 1.187v.436a3.813 3.813 0 00-.48-.032h-3.627l1.084-1.59h1.836zM33.06 2.84a1.053 1.053 0 01.877-.463c.21 0 .416.063.594.185l17.406 11.861c.483.33.608.99.28 1.472l-5.472 8.028h-1.313l2.682-3.936a2 2 0 00.094-2.12 4.778 4.778 0 01-.573-2.95A2 2 0 0046.769 13l-9.023-6.15a2 2 0 00-2.103-.102 4.78 4.78 0 01-2.954.545 2.024 2.024 0 00-1.939.862l-10.746 15.77h-1.313L33.06 2.84zm.376 14.519c-3.723 0-6.78 2.903-7.028 6.564h-4.334l10.09-14.806a.305.305 0 01.289-.131 6.5 6.5 0 004.018-.742.302.302 0 01.313.019l9.023 6.149a.302.302 0 01.132.284 6.498 6.498 0 00.78 4.011.304.304 0 01-.017.317l-3.339 4.9h-2.898c-.25-3.662-3.306-6.565-7.029-6.565zm5.314 6.564H28.121a5.344 5.344 0 015.314-4.854c2.78 0 5.07 2.137 5.314 4.854zM4.864 23.52c0-.655.532-1.187 1.187-1.187h2.02l-.156 1.591H4.864v-.404zm-2.217 4.204c0-1.152.938-2.09 2.09-2.09h47.704c1.152 0 2.09.938 2.09 2.09v2.372H2.647v-2.372zm51.884 29.144c0 1.153-.938 2.09-2.09 2.09H4.738a2.092 2.092 0 01-2.09-2.09v-2.372h4.61a.855.855 0 100-1.71h-4.61v-20.98H54.53v4.006H46.4a6.492 6.492 0 00-5.832 3.654l-.011.021-.025.056a6.447 6.447 0 00-.324.827v.002a6.492 6.492 0 006.193 8.408h8.129v4.006H12.732a.855.855 0 100 1.71h41.799v2.372zm2.82-10.01a.212.212 0 01-.212.213H46.401a4.779 4.779 0 01-4.484-6.415 4.828 4.828 0 01.287-.634 4.779 4.779 0 014.197-2.5h10.736c.117 0 .213.095.213.212v9.125z"/><path d="M46.602 38.826a3.473 3.473 0 00-3.47 3.469 3.473 3.473 0 003.47 3.468 3.473 3.473 0 003.468-3.468 3.473 3.473 0 00-3.468-3.469zm0 5.228a1.76 1.76 0 01-1.76-1.76c0-.969.79-1.758 1.76-1.758s1.758.79 1.758 1.759a1.76 1.76 0 01-1.758 1.759z"/></g><defs><clipPath id="bpclip0"><path transform="translate(0 .667)" d="M0 0h60v60H0z"/></clipPath></defs></symbol><symbol viewBox="0 0 24 24" id="watsapp" xmlns="http://www.w3.org/2000/svg"><path d="M16.756 7.238A6.257 6.257 0 0012.322 5.4c-3.468 0-6.278 2.8-6.278 6.257 0 1.093.307 2.187.834 3.106L6 18l3.337-.875a6.42 6.42 0 002.985.744c3.468 0 6.278-2.8 6.278-6.256-.044-1.619-.659-3.194-1.844-4.375zm-1.405 6.65c-.132.35-.746.7-1.053.744a2.461 2.461 0 01-.966-.044c-.22-.088-.527-.175-.878-.35-1.58-.656-2.59-2.231-2.678-2.363-.088-.087-.659-.83-.659-1.618 0-.788.395-1.138.527-1.313.132-.175.307-.175.439-.175h.307c.088 0 .22-.044.351.263.132.306.44 1.093.483 1.137a.278.278 0 010 .263.915.915 0 01-.175.262c-.088.088-.176.219-.22.263-.088.087-.175.175-.088.306.088.175.396.656.879 1.094.614.525 1.097.7 1.273.787.175.088.263.044.35-.044.089-.087.396-.437.484-.612.088-.175.22-.131.351-.088.132.044.922.438 1.054.525.175.088.263.132.307.175.044.132.044.438-.088.788z"/></symbol></svg>