<?xml version="1.0" encoding="utf-8"?><svg xmlns="http://www.w3.org/2000/svg" xmlns:xlink="http://www.w3.org/1999/xlink"><symbol viewBox="0 0 44 44" id="comment-checked" xmlns="http://www.w3.org/2000/svg"><path fill-rule="evenodd" clip-rule="evenodd" d="M22.159 33l-11.16 6.974V33H7.334a3.667 3.667 0 01-3.667-3.667v-22a3.667 3.667 0 013.667-3.666h29.334a3.667 3.667 0 013.666 3.666v22A3.667 3.667 0 0136.667 33H22.159zm-7.492.359l6.44-4.026h15.56v-22H7.332v22h7.333v4.026zm13.37-21.822l-7.87 7.87-4.204-4.203-2.593 2.592 6.797 6.797L30.63 14.13l-2.593-2.593z"/></symbol><symbol viewBox="0 0 13 13" id="facebook" xmlns="http://www.w3.org/2000/svg"><path d="M12.75 2.364c0-1.123-.99-2.114-2.114-2.114H2.114C.991.25 0 1.24 0 2.364v8.522C0 12.009.99 13 2.114 13h4.294V8.177H4.823V6.063h1.585v-.858c0-1.454 1.057-2.709 2.378-2.709h1.718V4.61H8.786c-.198 0-.396.198-.396.595v.858h2.114v2.114H8.39V13h2.246c1.123 0 2.114-.99 2.114-2.114V2.364z"/></symbol><symbol viewBox="0 0 44 44" id="grid-dynamic" xmlns="http://www.w3.org/2000/svg"><path fill-rule="evenodd" clip-rule="evenodd" d="M7.333 3.667h29.334a3.667 3.667 0 013.666 3.666v29.334a3.667 3.667 0 01-3.666 3.666H7.332a3.667 3.667 0 01-3.667-3.666V7.333a3.667 3.667 0 013.667-3.666zm0 3.666v7.334h12.834V7.333H7.332zm16.5 0v29.334h12.834v-7.334H23.832v-3.666h12.834V7.333H23.832zm-3.666 29.334V18.333H7.332v18.334h12.833z"/></symbol><symbol viewBox="0 0 65 65" id="lightning" xmlns="http://www.w3.org/2000/svg"><path fill-rule="evenodd" clip-rule="evenodd" d="M10.615 40.625h13.76v21.262l30.01-37.512h-13.76V3.112l-30.01 37.513zm19.177-5.418h-7.907l13.323-16.654v11.238h7.907L29.792 46.445V35.207z"/></symbol><symbol viewBox="0 0 24 24" id="location" xmlns="http://www.w3.org/2000/svg"><path fill-rule="evenodd" clip-rule="evenodd" d="M12 23.328l.658-.575C18.188 17.923 21 13.707 21 10c0-5.25-4.097-9-9-9s-9 3.75-9 9c0 3.707 2.811 7.924 8.342 12.753l.658.575zm0-2.665C7.307 16.433 5 12.85 5 10c0-4.103 3.164-7 7-7s7 2.897 7 7c0 2.85-2.307 6.433-7 10.663zM12 5a5 5 0 110 10 5 5 0 010-10zm-3 5a3 3 0 116 0 3 3 0 01-6 0z"/></symbol><symbol viewBox="0 0 24 24" id="mail" xmlns="http://www.w3.org/2000/svg"><path fill-rule="evenodd" clip-rule="evenodd" d="M3 3h18a2 2 0 012 2v14a2 2 0 01-2 2H3a2 2 0 01-2-2V5a2 2 0 012-2zm0 6.618V19h18V9.619l-9 4.5-9-4.5zm0-2.236l9 4.5 9-4.5V5H3v2.382z"/></symbol><symbol viewBox="0 0 42 40" id="next" xmlns="http://www.w3.org/2000/svg"><path fill-rule="evenodd" clip-rule="evenodd" d="M21 39.219C9.862 39.219.833 30.563.833 19.885.833 9.207 9.862.55 21 .55c11.137 0 20.166 8.656 20.166 19.334 0 10.678-9.029 19.334-20.166 19.334zm0-3.516c9.112 0 16.5-7.082 16.5-15.818 0-8.737-7.388-15.82-16.5-15.82-9.113 0-16.5 7.083-16.5 15.82 0 8.736 7.387 15.818 16.5 15.818zm-2.37-24.092l-2.593 2.486 6.037 5.788-6.037 5.787 2.593 2.486 8.63-8.273-8.63-8.274z"/></symbol><symbol viewBox="0 0 16 17" id="phone" xmlns="http://www.w3.org/2000/svg"><path fill-rule="evenodd" clip-rule="evenodd" d="M7.238 6.058c.345-.465.469-.956.078-1.389C6.44 3.443 5.85 2.684 5.48 2.32c-.703-.695-1.86-.6-2.468 0-.327.322-.438.432-.774.773-1.87 1.872-.73 5.828 2.303 8.863 3.032 3.035 6.987 4.176 8.862 2.3.31-.298.572-.56.779-.78.597-.63.687-1.735-.004-2.454-.354-.368-1.078-.929-2.356-1.843-.391-.35-.856-.274-1.281.005-.205.134-.354.27-.635.552l-.511.51c-.067.068-.981-.39-1.868-1.277-.887-.888-1.344-1.802-1.277-1.87l.51-.51c.09-.09.133-.133.187-.19.114-.12.209-.23.29-.34zm3.1 5.13l.51-.51c.155-.156.255-.251.337-.317 1.12.804 1.768 1.31 2.033 1.585.16.166.134.467-.004.613-.191.202-.44.451-.745.745-1.212 1.213-4.405.292-6.986-2.291-2.58-2.584-3.502-5.778-2.299-6.981.335-.34.44-.446.763-.764.12-.119.45-.146.597 0 .285.28.813.957 1.59 2.04-.04.05-.09.106-.152.17a8.87 8.87 0 01-.164.167l-.51.51c-.87.87-.13 2.348 1.277 3.755 1.405 1.407 2.884 2.147 3.752 1.278z"/></symbol><symbol viewBox="0 0 42 40" id="prev" xmlns="http://www.w3.org/2000/svg"><path fill-rule="evenodd" clip-rule="evenodd" d="M21 39.218C9.862 39.218.833 30.563.833 19.884.833 9.206 9.862.55 21 .55c11.137 0 20.166 8.656 20.166 19.334 0 10.678-9.029 19.334-20.166 19.334zm0-3.515c9.112 0 16.5-7.082 16.5-15.819 0-8.736-7.388-15.818-16.5-15.818-9.113 0-16.5 7.082-16.5 15.818 0 8.737 7.387 15.82 16.5 15.82zm.537-7.545l2.593-2.486-6.037-5.788 6.037-5.787-2.593-2.486-8.63 8.273 8.63 8.274z"/></symbol><symbol viewBox="0 0 65 65" id="service-1" xmlns="http://www.w3.org/2000/svg"><path fill-rule="evenodd" clip-rule="evenodd" d="M50.527 56.596l6.005-6.005-2.115-7.683.922-2.2 6.953-3.924v-8.492l-6.934-3.94-.906-2.196 2.142-7.687-6.01-6-7.683 2.114-2.196-.92-3.923-6.955H28.29l-3.94 6.934-2.196.905-7.686-2.144-6 6 2.115 7.685-.92 2.196-6.955 3.924v8.489l6.928 3.948.906 2.199-2.14 7.686 6.001 6.002 7.685-2.115 2.196.92 3.924 6.952h8.49l3.945-6.928 2.198-.906 7.686 2.141zm.532-19.693l-2.36 5.639 1.774 6.448-1.54 1.54-6.434-1.793-5.641 2.326-3.309 5.81h-2.178l-3.282-5.813-5.633-2.362-6.451 1.775-1.537-1.537 1.793-6.434-2.327-5.641-5.809-3.311v-2.18l5.815-3.28 2.362-5.634-1.775-6.451 1.534-1.534 6.434 1.795 5.643-2.327 3.304-5.814h2.176L36.9 13.94l5.633 2.362 6.453-1.776 1.54 1.539-1.792 6.433 2.328 5.643 5.813 3.304v2.176l-5.816 3.282zM32.5 43.333c-5.983 0-10.833-4.85-10.833-10.833 0-5.983 4.85-10.833 10.833-10.833 5.983 0 10.834 4.85 10.834 10.833 0 5.983-4.85 10.833-10.834 10.833zM37.917 32.5a5.417 5.417 0 11-10.833 0 5.417 5.417 0 0110.833 0z"/></symbol><symbol viewBox="0 0 65 65" id="service-2" xmlns="http://www.w3.org/2000/svg"><path fill-rule="evenodd" clip-rule="evenodd" d="M16.443 10.84a5.997 5.997 0 00-1.385.157c-.604-1.331-1.402-2.525-2.31-3.433-1.54-1.54-3.968-2.147-7.331-2.147v5.416c2.054 0 3.236.296 3.502.561 1.023 1.024 1.915 3.104 1.915 4.856l.027.383 2.654 18.577c-4.44.23-7.88 3.679-8.095 7.99l-.003 2.842c.262 4.452 3.69 7.877 7.971 8.12l.615.001a8.128 8.128 0 0015.327.004h6.341a8.125 8.125 0 100-5.417H29.33a8.128 8.128 0 00-15.326 0h-.462c-1.381-.083-2.62-1.32-2.713-2.87l.005-2.547c.073-1.404 1.303-2.635 2.842-2.711l5.347.001.039.002h27.296l.4-.127a7.11 7.11 0 004.476-4.2l.285-.564.345-.683.582-1.154c.96-1.9 1.918-3.805 2.853-5.666 2.29-4.557 3.729-7.454 4.048-8.165 1.637-3.652-1.68-6.463-5.07-6.523L16.443 10.84zm28.974 24.368H19.264a.46.46 0 01-.332-.379l-2.654-18.577 37.6 2.693a948.424 948.424 0 01-3.42 6.855l-.039.078c-.893 1.78-1.851 3.681-2.809 5.58l-.581 1.152-.345.682-.35.694-.133.308a1.692 1.692 0 01-.784.914zm-2.083 18.959a2.708 2.708 0 100-5.417 2.708 2.708 0 000 5.417zm-18.959-2.709a2.708 2.708 0 11-5.416 0 2.708 2.708 0 015.416 0z"/></symbol><symbol viewBox="0 0 65 65" id="service-3" xmlns="http://www.w3.org/2000/svg"><path fill-rule="evenodd" clip-rule="evenodd" d="M54.166 35.208H40.625a5.417 5.417 0 00-5.417 5.417v13.542a5.417 5.417 0 005.417 5.416h13.541a5.417 5.417 0 005.417-5.416V40.625a5.417 5.417 0 00-5.417-5.417zM40.625 54.167V40.625h13.541v13.542H40.625zM29.79 10.833v43.334a5.417 5.417 0 01-5.416 5.416H10.833a5.417 5.417 0 01-5.417-5.416V10.833a5.417 5.417 0 015.417-5.416h13.542a5.417 5.417 0 015.416 5.416zm-5.416 0H10.833v43.334h13.542V10.833zm29.791-5.416h-13.54a5.417 5.417 0 00-5.417 5.416v13.542a5.417 5.417 0 005.417 5.417h13.541a5.417 5.417 0 005.417-5.417V10.833a5.417 5.417 0 00-5.417-5.416zm-13.54 18.958V10.833h13.542v13.542H40.625z"/></symbol><symbol viewBox="0 0 65 65" id="service-4" xmlns="http://www.w3.org/2000/svg"><path fill-rule="evenodd" clip-rule="evenodd" d="M54.166 2.708v32.484c.024 4.123-2.276 5.428-8.69 7.35-3.759 1.127-4.851 1.745-4.851 2.145 0 2.08.19 3.475.596 5.099-.079-.314.384 1.474.486 1.951.18.838.272 1.601.272 2.43 0 4.498-4.231 8.125-9.48 8.125-5.247 0-9.479-3.627-9.479-8.125 0-.829.093-1.592.272-2.43.102-.477.565-2.265.486-1.951.406-1.624.597-3.02.597-5.099 0-.402-1.09-1.02-4.841-2.145-6.405-1.922-8.701-3.223-8.701-7.334v-32.5h43.333zM21.09 37.354c-3.75-1.126-4.84-1.743-4.84-2.146v-5.416h32.499v5.416c.003.408-1.082 1.023-4.828 2.145l-.011.004c-6.402 1.918-8.702 3.221-8.702 7.33 0 2.548.25 4.38.758 6.413a85.23 85.23 0 01.445 1.772c.104.487.151.877.151 1.295 0 1.305-1.637 2.708-4.062 2.708-2.426 0-4.063-1.403-4.063-2.708 0-.418.047-.808.152-1.295.074-.346.493-1.966.444-1.773.508-2.032.758-3.864.758-6.412 0-4.11-2.296-5.412-8.7-7.333zm-4.84-12.98V8.125h5.416v10.834h5.417V8.125H32.5v8.125h5.416V8.125H48.75v16.25h-32.5z"/></symbol><symbol viewBox="0 0 65 65" id="service-5" xmlns="http://www.w3.org/2000/svg"><path fill-rule="evenodd" clip-rule="evenodd" d="M35.209 29.792c-5.048 0-9.29-3.453-10.492-8.125h-19.3V16.25h19.3c1.202-4.672 5.444-8.125 10.492-8.125 5.983 0 10.833 4.85 10.833 10.833 0 5.983-4.85 10.834-10.833 10.834zm16.25-13.542h8.125v5.417h-8.125V16.25zM21.667 56.875c-5.048 0-9.29-3.453-10.492-8.125H5.417v-5.417h5.758c1.202-4.672 5.444-8.125 10.492-8.125 5.983 0 10.833 4.85 10.833 10.834 0 5.983-4.85 10.833-10.833 10.833zm16.25-8.125h21.667v-5.417H37.917v5.417zm-10.833-2.708a5.417 5.417 0 11-10.834 0 5.417 5.417 0 0110.834 0zm13.541-27.084a5.417 5.417 0 11-10.833 0 5.417 5.417 0 0110.833 0z"/></symbol><symbol viewBox="0 0 65 65" id="service-6" xmlns="http://www.w3.org/2000/svg"><path fill-rule="evenodd" clip-rule="evenodd" d="M16.25 54.167V48.75h5.417v2.708a5.417 5.417 0 005.416 5.417h8.125a5.417 5.417 0 005.417-5.417v-5.416h8.125v2.708a5.417 5.417 0 005.417 5.417h5.416A5.417 5.417 0 0065 48.75V10.833a5.417 5.417 0 00-5.417-5.416H5.417A5.417 5.417 0 000 10.833v43.334a5.417 5.417 0 005.417 5.416h5.416a5.417 5.417 0 005.417-5.416zm-10.833 0V10.833h54.166V48.75h-5.416V37.917H48.75v2.708h-8.125v-2.708h-5.417v13.541h-8.125V37.917h-5.416v5.416H16.25v-5.416h-5.417v16.25H5.417zM51.458 16.25v5.417H13.542V16.25h37.916zM43.333 32.5v-5.417H13.542V32.5h29.791z"/></symbol><symbol viewBox="0 0 65 65" id="service-7" xmlns="http://www.w3.org/2000/svg"><path fill-rule="evenodd" clip-rule="evenodd" d="M14.62 59.04C7.178 53.45 2.708 44.698 2.708 35.208c0-16.453 13.338-29.791 29.792-29.791 16.453 0 29.791 13.338 29.791 29.791 0 9.49-4.47 18.24-11.912 23.832l-.723.543H15.343l-.723-.543zm33.202-4.873a24.321 24.321 0 009.053-18.959c0-13.461-10.913-24.375-24.375-24.375S8.125 21.747 8.125 35.208a24.321 24.321 0 009.052 18.959h30.645zm-.916-33.655l-4.438-3.107-7.13 10.188a8.125 8.125 0 104.166 3.494l7.402-10.575zM35.208 35.208a2.708 2.708 0 11-5.416 0 2.708 2.708 0 015.416 0z"/></symbol><symbol viewBox="0 0 44 44" id="shield-lock" xmlns="http://www.w3.org/2000/svg"><path fill-rule="evenodd" clip-rule="evenodd" d="M5.5 27.5c0 4.877 5.5 9.766 16.5 14.667 11-4.89 16.5-9.778 16.5-14.667 0-.7.003-2.194.007-4.043.011-5.422.03-13.892-.007-14.29 0-1.408-.54-1.735-2.035-2.64-.452-.274-.993-.6-1.632-1.027C32.083 3.667 27.491 1.833 22 1.833c-6.3 0-12.537 3.47-12.833 3.667-.64.426-1.18.753-1.632 1.027C6.04 7.432 5.5 7.76 5.5 9.167V27.5zm29.337-2.283l-.004 2.283c0 2.776-4.084 6.552-12.831 10.637C13.253 34.043 9.167 30.265 9.167 27.5V9.833l.234-.146a81.49 81.49 0 001.8-1.136C12.886 7.427 18.036 5.5 22 5.5c4.144 0 8.093 1.246 10.8 3.05.434.29 1.206.77 1.799 1.137l.252.157c.004 1.086.006 4.598-.001 8.69l-.006 3.102-.007 3.58zM16.5 16.5v-3.667a5.5 5.5 0 1111 0V16.5a3.667 3.667 0 013.667 3.667V27.5a3.667 3.667 0 01-3.667 3.667h-11a3.667 3.667 0 01-3.667-3.667v-7.333A3.667 3.667 0 0116.5 16.5zm7.333-3.667V16.5h-3.666v-3.667a1.833 1.833 0 013.666 0zM16.5 27.5v-7.333h11V27.5h-11zm3.667-3.667a1.833 1.833 0 103.666 0 1.833 1.833 0 00-3.666 0z"/></symbol><symbol viewBox="0 0 44 44" id="site-type-1" xmlns="http://www.w3.org/2000/svg"><path fill-rule="evenodd" clip-rule="evenodd" d="M5.167 9.5h33.667c1.84 0 3.333 1.642 3.333 3.667v22c0 2.025-1.493 3.666-3.334 3.666H5.168c-1.841 0-3.333-1.641-3.333-3.666v-22c0-2.025 1.492-3.667 3.333-3.667zm.333 3.667v22h33v-22h-33zm3.667 14.666V31.5h3.667v-3.667H9.167zm5.5 3.667v-3.667h5.5V31.5h-5.5zm16.5-3.667V31.5h3.666v-3.667h-3.666zm-5.5 3.667v-3.667h3.666V31.5h-3.666zm-11-12.833h-5.5v5.5h5.5v-5.5z"/></symbol><symbol viewBox="0 0 44 44" id="site-type-2" xmlns="http://www.w3.org/2000/svg"><path fill-rule="evenodd" clip-rule="evenodd" d="M3.667 11.689L16.5 26.355v15.707l11-4.125V26.356l12.833-14.667V7.333a3.667 3.667 0 00-3.666-3.666H7.332a3.667 3.667 0 00-3.667 3.666v4.356zm33-4.356v1.834H7.332V7.333h29.334zm-27.127 5.5h24.92l-9.625 11h-5.67l-9.625-11zM20.167 27.5v9.271l3.666-1.375V27.5h-3.666z"/></symbol><symbol viewBox="0 0 44 44" id="site-type-3" xmlns="http://www.w3.org/2000/svg"><path fill-rule="evenodd" clip-rule="evenodd" d="M18.333 5.5h7.334a3.667 3.667 0 013.666 3.667V11h7.334a3.667 3.667 0 013.666 3.667v20.166a3.667 3.667 0 01-3.666 3.667H7.332a3.667 3.667 0 01-3.667-3.667V14.667A3.667 3.667 0 017.333 11h7.333V9.167A3.667 3.667 0 0118.334 5.5zm-11 29.333V27.5h12.833v1.833h3.667V27.5h12.834v7.333H7.332zm16.5-11h12.834v-9.166H7.332v9.166h16.5zm1.834-14.666V11h-7.334V9.167h7.334z"/></symbol><symbol viewBox="0 0 44 44" id="site-type-4" xmlns="http://www.w3.org/2000/svg"><path fill-rule="evenodd" clip-rule="evenodd" d="M11.13 7.338c-.325 0-.639.036-.937.106-.41-.901-.95-1.71-1.563-2.324-1.043-1.042-2.687-1.453-4.964-1.453v3.666c1.391 0 2.191.2 2.37.38.694.693 1.297 2.1 1.297 3.287l.019.26 1.796 12.574c-3.006.156-5.334 2.49-5.48 5.408l-.002 1.925c.178 3.014 2.499 5.332 5.396 5.497h.417a5.502 5.502 0 0010.375.003h4.292a5.502 5.502 0 0010.687-1.834A5.5 5.5 0 0024.146 33h-4.293A5.502 5.502 0 009.48 33h-.313c-.934-.056-1.773-.894-1.836-1.943l.003-1.724c.05-.95.883-1.784 1.924-1.835h3.62l.026.002H31.38l.27-.086a4.812 4.812 0 003.03-2.843l.193-.382.233-.462.395-.781c.649-1.287 1.298-2.576 1.93-3.836 1.55-3.085 2.525-5.045 2.74-5.527 1.11-2.472-1.136-4.375-3.43-4.416L11.13 7.338zm19.614 16.495H13.04a.312.312 0 01-.225-.256L11.02 11l25.452 1.823a629.91 629.91 0 01-2.315 4.64l-.026.053c-.605 1.205-1.254 2.492-1.902 3.777l-.394.78-.233.462-.237.47-.09.208a1.146 1.146 0 01-.53.62zm-1.41 12.834a1.833 1.833 0 100-3.667 1.833 1.833 0 000 3.667zM16.5 34.833a1.833 1.833 0 11-3.667 0 1.833 1.833 0 013.667 0z"/></symbol><symbol viewBox="0 0 44 44" id="step-1" xmlns="http://www.w3.org/2000/svg"><path fill-rule="evenodd" clip-rule="evenodd" d="M5.5 5.5h33a3.667 3.667 0 013.667 3.667v25.666A3.667 3.667 0 0138.5 38.5h-33a3.667 3.667 0 01-3.667-3.667V9.167A3.667 3.667 0 015.5 5.5zm0 3.667v25.666h33V9.167h-33zm7.334 22H16.5v-11h-3.666v11zm11 0h-3.667V12.833h3.666v18.334zm3.666 0h3.667V18.333H27.5v12.834z"/></symbol><symbol viewBox="0 0 44 44" id="step-2" xmlns="http://www.w3.org/2000/svg"><path fill-rule="evenodd" clip-rule="evenodd" d="M22 42.167c-11.138 0-20.167-9.03-20.167-20.167C1.833 10.862 10.862 1.834 22 1.834c11.137 0 20.166 9.028 20.166 20.166S33.137 42.167 22 42.167zm0-3.667c9.112 0 16.5-7.387 16.5-16.5S31.112 5.5 22 5.5C12.887 5.5 5.5 12.887 5.5 22S12.887 38.5 22 38.5zm6.037-23.296l-9.704 9.703-4.203-4.203-2.593 2.593 6.796 6.796L30.63 17.797l-2.593-2.593z"/></symbol><symbol viewBox="0 0 44 44" id="step-3" xmlns="http://www.w3.org/2000/svg"><path fill-rule="evenodd" clip-rule="evenodd" d="M9.167 1.833h19.092L38.5 12.075V38.5a3.667 3.667 0 01-3.667 3.667H9.167A3.667 3.667 0 015.5 38.5v-33a3.667 3.667 0 013.667-3.667zM23.833 5.5H9.167v33h25.666v-22H27.5a3.667 3.667 0 01-3.667-3.667V5.5zm3.667.76v6.573h6.574L27.5 6.26zM14.667 31.166V27.5h11v3.667h-11zm0-11v3.666h14.666v-3.666H14.667z"/></symbol><symbol viewBox="0 0 44 44" id="step-4" xmlns="http://www.w3.org/2000/svg"><path fill-rule="evenodd" clip-rule="evenodd" d="M40.334 36.666V23.834h-3.667v12.834H7.334V7.332h12.833V3.666H7.334a3.667 3.667 0 00-3.667 3.667v29.334a3.667 3.667 0 003.667 3.666h29.333a3.667 3.667 0 003.667-3.666zM35.16 4.994a4.503 4.503 0 00-6.385.002L13.432 20.338c-1.37 1.208-2.27 3.005-2.426 4.939L11 31.17v1.833h7.58c2.08-.142 3.895-1.05 5.176-2.527l15.256-15.25a4.513 4.513 0 000-6.383l-3.852-3.85zm-16.709 24.35c.98-.07 1.891-.526 2.623-1.363l11.114-11.114-5.05-5.05-11.195 11.191c-.743.657-1.202 1.576-1.276 2.417v3.915l3.784.003zm11.28-20.12l5.05 5.05 1.638-1.639a.847.847 0 000-1.197L32.562 7.58a.836.836 0 00-1.187 0l-1.644 1.644z"/></symbol><symbol viewBox="0 0 44 44" id="step-5" xmlns="http://www.w3.org/2000/svg"><path fill-rule="evenodd" clip-rule="evenodd" d="M38.881 12.38c1.937 1.076 1.937 3.497 0 4.572l-2.485 1.381 2.485 1.38c1.937 1.077 1.937 3.497 0 4.573l-2.485 1.38 2.485 1.381c1.937 1.076 1.937 3.496 0 4.572l-14.76 8.2c-1.233.685-3.008.685-4.241 0l-14.76-8.2c-1.937-1.076-1.937-3.496 0-4.572l2.485-1.38-2.486-1.381c-1.936-1.076-1.936-3.496 0-4.572l2.486-1.38-2.486-1.381c-1.936-1.076-1.936-3.497 0-4.572l14.76-8.2c1.234-.686 3.009-.686 4.242 0l14.76 8.2zm-14.76 12.773l8.5-4.723L35.446 22l-2.825 1.57-3.775 2.096-6.506 3.615c-.126.07-.554.07-.68 0l-6.505-3.614-3.775-2.098L8.555 22l2.825-1.569 8.5 4.723c1.233.685 3.008.685 4.24 0zm-12.741 2.61l-2.825 1.57 13.106 7.281c.125.07.553.07.679 0l13.106-7.28-2.825-1.57-8.5 4.722c-1.233.685-3.008.685-4.241 0l-8.5-4.722zM21.66 7.387c.126-.07.554-.07.68 0l13.106 7.28-13.106 7.282c-.126.07-.554.07-.68 0L8.556 14.667 21.66 7.386z"/></symbol><symbol viewBox="0 0 44 44" id="step-6" xmlns="http://www.w3.org/2000/svg"><path fill-rule="evenodd" clip-rule="evenodd" d="M12.492 3.667c1.38-1.168 3.38-1.833 5.508-1.833s4.128.665 5.508 1.833h1.825A3.667 3.667 0 0129 7.334h1.833A3.667 3.667 0 0134.5 11v27.5a3.667 3.667 0 01-3.667 3.667H5.167A3.667 3.667 0 011.5 38.5V11a3.667 3.667 0 013.667-3.667H7a3.667 3.667 0 013.667-3.666h1.825zm12.841 9.166A3.665 3.665 0 0028.51 11h2.323v27.5H5.167V11H7.49a3.665 3.665 0 003.176 1.834h14.666zm-1.296 6.037l-7.87 7.87-4.204-4.203L9.37 25.13l6.797 6.796L26.63 21.463l-2.593-2.593zM14.072 7.335l.549-.632C15.223 6.008 16.514 5.5 18 5.5s2.777.508 3.38 1.202l.548.632h3.405v1.833H10.667V7.334h3.405z"/></symbol><symbol viewBox="0 0 16 12" id="twitter" xmlns="http://www.w3.org/2000/svg"><path d="M15.2 1.425a6.486 6.486 0 01-1.725.45c.6-.375 1.125-.975 1.35-1.65-.6.375-1.2.6-1.95.75A2.951 2.951 0 0010.7 0c-1.65 0-3 1.35-3 3 0 .225 0 .45.075.675A8.84 8.84 0 011.55.525c-.225.45-.375.975-.375 1.5 0 1.05.525 1.95 1.35 2.475a2.59 2.59 0 01-1.35-.375c0 1.425 1.05 2.7 2.4 2.925-.225.075-.525.075-.825.075-.225 0-.375 0-.6-.075.375 1.2 1.5 2.1 2.85 2.1-1.05.825-2.325 1.275-3.75 1.275-.225 0-.45 0-.75-.075 1.35.825 2.925 1.35 4.65 1.35 5.55 0 8.55-4.575 8.55-8.55v-.375c.6-.225 1.125-.75 1.5-1.35z"/></symbol><symbol viewBox="0 0 65 65" id="up" xmlns="http://www.w3.org/2000/svg"><path fill-rule="evenodd" clip-rule="evenodd" d="M59.583 32.497c0-4.556-3.061-8.125-8.125-8.125h-8.323l.076-.205c.075-.203.287-.763.493-1.306l.434-1.146c.515-1.382.89-2.496 1.194-3.599.46-1.666.71-3.168.71-4.577 0-3.987-2.46-6.463-6.099-7.522-1.641-.478-3.07-.603-4.735-.603h-1.299l-.813 1.013c-.918 1.144-2.722 3.205-4.802 5.582-3.837 4.384-8.613 9.842-10.5 12.59a5.42 5.42 0 00-1.545-.224h-5.416a5.417 5.417 0 00-5.417 5.417v24.375a5.417 5.417 0 005.417 5.416h5.416a5.411 5.411 0 004.478-2.368 13.23 13.23 0 002.735 1.332c2.282.816 4.544 1.067 6.422 1.032l18.866.002c7.462 0 10.833-10.986 10.833-27.084zm-34.296 20.95c-2.397-.858-3.621-2.256-3.621-4.7V29.79c0-.65.12-1.227.384-1.842.473-1.105 4.767-6.004 8.837-10.647 2.1-2.397 4.141-4.725 5.566-6.429a9.482 9.482 0 011.975.346c1.552.452 2.196 1.1 2.196 2.322 0 .857-.173 1.902-.514 3.138-.254.923-.584 1.9-1.049 3.147l-.405 1.071v.003c-.214.56-.442 1.162-.526 1.39-.352.953-.584 1.654-.743 2.29-.675 2.71.002 5.21 3.237 5.21h10.834c1.872 0 2.708.976 2.708 2.71 0 12.974-2.667 21.666-5.417 21.666H29.791a71.647 71.647 0 00-.1.001c-1.185.022-2.85-.163-4.404-.719zm-14.455.72V29.79h5.417v24.375h-5.417z"/></symbol><symbol viewBox="0 0 65 65" id="user" xmlns="http://www.w3.org/2000/svg"><path fill-rule="evenodd" clip-rule="evenodd" d="M32.5 62.292c-16.453 0-29.79-13.338-29.79-29.792C2.709 16.047 16.047 2.71 32.5 2.71c16.454 0 29.792 13.338 29.792 29.791 0 16.454-13.338 29.792-29.792 29.792zm20.04-15.913a24.263 24.263 0 004.335-13.88c0-13.461-10.913-24.374-24.375-24.374S8.125 19.038 8.125 32.5c0 5.157 1.602 9.94 4.335 13.88 3.048-4.027 10.21-5.755 20.04-5.755 9.83 0 16.992 1.728 20.04 5.754zm-3.886 4.374c-.793-2.85-6.487-4.712-16.154-4.712s-15.362 1.862-16.154 4.713a24.283 24.283 0 0016.154 6.12 24.283 24.283 0 0016.154-6.12zM32.5 16.25c-6.556 0-10.833 4.755-10.833 10.833 0 9.283 4.77 13.542 10.834 13.542 6.007 0 10.833-4.118 10.833-13 0-6.17-4.295-11.375-10.834-11.375zm-5.416 10.834c0 6.146 2.215 8.125 5.416 8.125 3.19 0 5.417-1.9 5.417-7.584 0-3.384-2.124-5.958-5.417-5.958-3.43 0-5.416 2.21-5.416 5.417z"/></symbol><symbol viewBox="0 0 17 12" id="vk" xmlns="http://www.w3.org/2000/svg"><path d="M16.005 9.657c0-.062-.063-.062-.063-.125-.249-.498-.81-1.12-1.556-1.805-.374-.312-.56-.56-.685-.685-.187-.25-.187-.436-.125-.685.062-.187.311-.498.747-1.059.25-.311.374-.498.56-.685.935-1.245 1.37-2.054 1.246-2.428l-.062-.062c-.063-.063-.125-.125-.25-.125-.124-.062-.31-.062-.497 0h-2.802l-.063.062c-.062.063-.062.063-.062.125-.249.685-.56 1.245-.872 1.868-.187.311-.373.623-.56.872-.187.249-.312.436-.436.56-.125.125-.25.187-.311.311-.063.063-.187.125-.187.063-.062 0-.125 0-.125-.063l-.186-.186c-.063-.063-.063-.187-.125-.312V2.185c0-.062-.062-.187-.062-.25-.063-.061-.125-.124-.187-.186s-.187-.062-.25-.124a5.585 5.585 0 00-1.12-.125c-.996 0-1.681.062-1.93.187-.125.062-.25.124-.312.249-.124.124-.124.187-.062.187.312.062.56.186.685.373l.062.125c.063.062.063.187.125.373.062.187.062.374.062.623v.996c0 .312-.062.498-.062.685 0 .187-.062.312-.125.374-.062.124-.062.187-.124.187 0 0 0 .062-.062.062-.063 0-.125.062-.25.062a.472.472 0 01-.249-.124.75.75 0 01-.31-.312 2.173 2.173 0 01-.374-.56c-.125-.25-.312-.498-.436-.872l-.125-.249c-.062-.124-.187-.373-.311-.685-.125-.311-.25-.56-.374-.872a.86.86 0 00-.187-.249h-.062s-.062-.062-.124-.062c-.063 0-.125-.062-.187-.062H.998c-.249 0-.373.062-.436.124L.5 2.123v.124c0 .062 0 .125.062.25.312.746.685 1.494 1.059 2.24.373.686.747 1.309.996 1.744.311.436.56.872.872 1.246.311.373.498.622.56.747l.25.249.186.187c.125.124.311.311.56.498.25.187.56.374.872.56.312.187.685.312 1.059.436.436.125.81.187 1.183.125h.934a.565.565 0 00.436-.187l.062-.062c0-.063.062-.063.062-.125v-.249c0-.249 0-.436.063-.623.062-.186.062-.31.124-.435a.86.86 0 01.187-.25l.124-.124h.063c.124-.062.311 0 .436.124.186.125.373.312.498.499.124.186.311.373.56.622.25.25.436.436.56.498l.187.125c.125.062.25.124.436.187.187.062.312.062.436.062l2.117-.062c.187 0 .374-.063.498-.125.125-.062.187-.124.187-.249v-.249c-.125-.124-.125-.187-.125-.249z"/></symbol><symbol viewBox="0 0 35 36" id="x" xmlns="http://www.w3.org/2000/svg"><path fill-rule="evenodd" clip-rule="evenodd" d="M17.25 21.05l-9.257 9.256-3.05-3.05L14.2 18 4.944 8.743l3.05-3.049 9.256 9.257 9.256-9.257 3.05 3.05L20.299 18l9.257 9.256-3.05 3.05-9.256-9.257z"/></symbol></svg>