<?xml version="1.0" encoding="utf-8"?><svg xmlns="http://www.w3.org/2000/svg" xmlns:xlink="http://www.w3.org/1999/xlink"><symbol viewBox="0 0 18 20" id="chevron-bottom" xmlns="http://www.w3.org/2000/svg"><path fill-rule="evenodd" clip-rule="evenodd" d="M14.955 5.31l1.59 1.592L9 14.447 1.455 6.902l1.59-1.591L9 11.265l5.955-5.954z"/></symbol><symbol viewBox="0 0 13 12" id="close" xmlns="http://www.w3.org/2000/svg"><path fill-rule="evenodd" clip-rule="evenodd" d="M6.414 7.487L1.901 12 .414 10.513 4.927 6 .414 1.487 1.901 0l4.513 4.513L10.927 0l1.487 1.487L7.901 6l4.513 4.513L10.927 12 6.414 7.487z"/></symbol><symbol viewBox="0 0 16 16" id="home" xmlns="http://www.w3.org/2000/svg"><path fill-rule="evenodd" clip-rule="evenodd" d="M3.926 6.667l4.001-4.001 4 4v6.667h-8V6.667zM2.594 7.999l-.985.985-.942-.942 6.318-6.318c.52-.52 1.364-.52 1.884 0l6.318 6.318-.942.942-.985-.985v5.334c0 .737-.597 1.334-1.333 1.334h-8a1.333 1.333 0 01-1.333-1.334V8z"/></symbol><symbol viewBox="0 0 12 17" id="left-arrow" xmlns="http://www.w3.org/2000/svg"><path fill-rule="evenodd" clip-rule="evenodd" d="M11.36 2.568L8.82.029.37 8.48l8.45 8.45 2.54-2.539-5.912-5.91 5.911-5.912z"/></symbol><symbol viewBox="0 0 17 16" id="link" xmlns="http://www.w3.org/2000/svg"><path fill-rule="evenodd" clip-rule="evenodd" d="M8.204 9.707l6.293-6.293V7h2V0h-7v2h3.586L6.79 8.293l1.414 1.414zM15.5 14v-4h-2v4h-11V3h4V1h-4a2 2 0 00-2 2v11a2 2 0 002 2h11a2 2 0 002-2z"/></symbol><symbol viewBox="0 0 12 17" id="right-arrow" xmlns="http://www.w3.org/2000/svg"><path fill-rule="evenodd" clip-rule="evenodd" d="M.64 2.568L3.18.029l8.45 8.45-8.45 8.45L.64 14.39l5.912-5.91L.64 2.567z"/></symbol><symbol viewBox="0 0 25 25" id="search" xmlns="http://www.w3.org/2000/svg"><path d="M24.112 19.7l-4.115-4.114c.748-1.496 1.247-3.242 1.247-4.988A10.59 10.59 0 0010.645 0 10.59 10.59 0 00.047 10.598a10.59 10.59 0 0010.598 10.599c1.746 0 3.492-.499 4.988-1.247l4.115 4.115c1.246 1.247 3.117 1.247 4.364 0a3.25 3.25 0 000-4.364zm-13.467-.997A8.089 8.089 0 012.541 10.6a8.089 8.089 0 018.104-8.105 8.089 8.089 0 018.105 8.104 8.088 8.088 0 01-8.105 8.105z"/></symbol><symbol viewBox="-1 0 136 136.219" id="zoom" xmlns="http://www.w3.org/2000/svg"><path d="M93.148 80.832c16.352-23.09 10.883-55.062-12.207-71.41S25.88-1.461 9.531 21.632C-6.816 44.723-1.352 76.693 21.742 93.04a51.226 51.226 0 0055.653 2.3l37.77 37.544c4.077 4.293 10.862 4.465 15.155.387 4.293-4.075 4.465-10.86.39-15.153a9.21 9.21 0 00-.39-.39zm-41.84 3.5c-18.245.004-33.038-14.777-33.05-33.023-.004-18.246 14.777-33.04 33.027-33.047 18.223-.008 33.008 14.75 33.043 32.972.031 18.25-14.742 33.067-32.996 33.098h-.023zm0 0"/></symbol></svg>