<svg width="71" height="18" viewBox="0 0 71 18" fill="none" xmlns="http://www.w3.org/2000/svg">
<g clip-path="url(#clip0)">
<path d="M18.1632 6.59734L59.5902 6.0681L57.7619 3.03666L50.6892 0.438477L27.2089 1.06436L21.9165 3.08532L18.1152 5.53886L18.1632 6.59734Z" fill="white"/>
<path d="M69.8624 9.37406C69.7599 9.23294 69.6828 9.07506 69.6344 8.90748L68.8386 6.108C68.7683 5.85987 68.6269 5.63776 68.4318 5.46908C68.2367 5.30041 67.9965 5.19256 67.7408 5.15884L64.6747 4.75292C63.5136 4.59942 62.3834 4.2671 61.324 3.76777L55.741 1.13292C54.6362 0.611665 53.4398 0.312501 52.2197 0.252419C48.6057 0.0771176 44.821 -0.0141988 40.8778 0.00179827C36.9125 0.0184618 33.1105 0.143772 29.4859 0.351067C28.3876 0.415046 27.2971 0.575863 26.2271 0.831645L26.0938 0.863639C24.7072 1.20816 23.3743 1.74126 22.1326 2.44801L18.6219 4.43964C17.3223 5.17673 15.8926 5.65607 14.4113 5.85138C12.6752 6.08289 10.9073 6.33751 9.10765 6.61524C7.02226 6.94051 4.98752 7.28667 3.00345 7.65371C2.50179 7.74654 2.03532 7.97551 1.65503 8.31559L1.6397 8.32959C1.27496 8.65601 1.00275 9.07284 0.850512 9.53803L0.383932 10.9678C0.349845 11.0757 0.300222 11.1781 0.236626 11.2717C0.092728 11.479 0.0184953 11.7267 0.0246648 11.9789L0.0499935 12.9421L0.00533506 13.4446C-0.0249779 13.7835 0.0746751 14.1212 0.284095 14.3892C0.493514 14.6573 0.797032 14.8358 1.13313 14.8884L4.08791 15.355C3.89078 14.7419 3.82885 14.0933 3.90637 13.454C3.98389 12.8147 4.19904 12.1998 4.53699 11.6516C4.87494 11.1034 5.32767 10.6349 5.86402 10.2785C6.40036 9.92202 7.00758 9.68601 7.64388 9.58672C8.28018 9.48742 8.93044 9.52718 9.54989 9.70328C10.1693 9.87937 10.7433 10.1876 11.2322 10.6068C11.7211 11.0259 12.1134 11.5461 12.382 12.1314C12.6506 12.7167 12.7893 13.3532 12.7883 13.9972C12.7888 14.491 12.7077 14.9815 12.5483 15.4489H53.6874L53.934 15.4209C53.7267 14.8083 53.6551 14.1579 53.7243 13.5148C53.7935 12.8717 54.0018 12.2514 54.3347 11.6969C54.6676 11.1424 55.1171 10.6669 55.6522 10.3035C56.1872 9.94009 56.7949 9.69745 57.4331 9.5924C58.0713 9.48735 58.7247 9.52241 59.348 9.69514C59.9713 9.86788 60.5495 10.1742 61.0426 10.5927C61.5357 11.0113 61.9318 11.5321 62.2034 12.1191C62.4751 12.7061 62.6158 13.3451 62.6157 13.9919C62.6158 14.2112 62.5995 14.4302 62.5671 14.6471L62.889 14.6178L68.3307 13.6259C68.7721 13.5449 69.1789 13.3328 69.4981 13.0173C69.8174 12.7017 70.0342 12.2974 70.1203 11.8569L70.263 11.1337C70.3211 10.8287 70.3155 10.5149 70.2465 10.212C70.1776 9.90924 70.0468 9.62394 69.8624 9.37406ZM19.1425 5.96536C19.1088 5.96765 19.0751 5.96259 19.0437 5.95053C19.0122 5.93847 18.9838 5.91971 18.9603 5.89554C18.9368 5.87137 18.9189 5.84238 18.9078 5.81058C18.8966 5.77878 18.8926 5.74494 18.8958 5.71141C18.9028 5.65039 18.9329 5.59435 18.9798 5.55477C20.2103 4.4883 21.4694 3.75044 24.3602 2.71596C26.2716 2.02602 28.2778 1.63396 30.3084 1.55351C30.3547 1.55197 30.4008 1.56067 30.4433 1.579C30.4859 1.59732 30.5238 1.62482 30.5545 1.65952C30.5852 1.69422 30.6079 1.73528 30.6209 1.77975C30.6339 1.82422 30.6369 1.87101 30.6297 1.91678C30.437 3.15721 30.2444 4.21169 30.0518 5.45346C30.0412 5.52389 30.0071 5.58865 29.9548 5.6371C29.9026 5.68555 29.8355 5.71481 29.7645 5.72007L19.1425 5.96536ZM43.6173 5.42546L31.0036 5.67008C30.959 5.67099 30.9147 5.66239 30.8737 5.64487C30.8326 5.62736 30.7958 5.60131 30.7656 5.56847C30.7354 5.53563 30.7126 5.49674 30.6985 5.45439C30.6845 5.41203 30.6797 5.36718 30.6843 5.32281L31.0676 1.84612C31.0755 1.76983 31.1111 1.69906 31.1675 1.64714C31.224 1.59522 31.2975 1.56571 31.3742 1.56418L43.9919 1.30489C44.0366 1.30388 44.081 1.31242 44.1222 1.32993C44.1633 1.34745 44.2003 1.37354 44.2306 1.40647C44.2608 1.4394 44.2837 1.4784 44.2978 1.52088C44.3118 1.56337 44.3165 1.60835 44.3118 1.65283L43.9252 5.14418C43.9172 5.22063 43.8814 5.2915 43.8247 5.34335C43.7679 5.39519 43.6941 5.42441 43.6173 5.42546ZM44.5071 5.05553L44.7497 1.6195C44.7548 1.53952 44.7903 1.46452 44.8489 1.40987C44.9076 1.35522 44.9849 1.32505 45.065 1.32555L50.1807 1.34955C50.244 1.34955 50.3087 1.34955 50.374 1.35288C52.8316 1.41954 55.1485 2.27671 56.7882 4.10837L57.6127 5.02953C57.6405 5.06076 57.6588 5.09937 57.6652 5.14072C57.6717 5.18207 57.666 5.22441 57.649 5.26263C57.632 5.30085 57.6042 5.33335 57.5692 5.3562C57.5341 5.37906 57.4932 5.3913 57.4514 5.39147H44.8217C44.7786 5.39137 44.736 5.38245 44.6964 5.36526C44.6569 5.34806 44.6213 5.32296 44.5918 5.29149C44.5623 5.26002 44.5396 5.22285 44.525 5.18227C44.5105 5.14169 44.5044 5.09856 44.5071 5.05553Z" fill="#00A0E3"/>
<path d="M12.1897 14.585C12.484 12.4253 10.9719 10.4359 8.81217 10.1416C6.65248 9.84734 4.66313 11.3595 4.36882 13.5192C4.07452 15.6789 5.58671 17.6683 7.7464 17.9626C9.90609 18.2569 11.8954 16.7447 12.1897 14.585Z" fill="#00A0E3"/>
<path d="M10.8194 14.2343C10.9192 12.832 9.86331 11.6143 8.461 11.5146C7.05868 11.4148 5.841 12.4707 5.74122 13.873C5.64144 15.2753 6.69735 16.493 8.09966 16.5928C9.50197 16.6926 10.7197 15.6367 10.8194 14.2343Z" fill="white"/>
<path d="M62.0452 14.585C62.3395 12.4253 60.8273 10.4359 58.6676 10.1416C56.5079 9.84734 54.5186 11.3595 54.2243 13.5192C53.93 15.6789 55.4422 17.6683 57.6019 17.9626C59.7616 18.2569 61.7509 16.7447 62.0452 14.585Z" fill="#00A0E3"/>
<path d="M60.6808 14.2343C60.7805 12.832 59.7246 11.6143 58.3223 11.5146C56.92 11.4148 55.7023 12.4707 55.6025 13.873C55.5028 15.2753 56.5587 16.493 57.961 16.5928C59.3633 16.6926 60.581 15.6367 60.6808 14.2343Z" fill="white"/>
</g>
<defs>
<clipPath id="clip0">
<rect width="70.3063" height="18" fill="white"/>
</clipPath>
</defs>
</svg>
