<svg width="60" height="18" viewBox="0 0 60 18" fill="none" xmlns="http://www.w3.org/2000/svg">
<g clip-path="url(#clip0)">
<path d="M17.7559 5.42968L20.7904 3.33992L24.9812 1.45673L29.4593 0.529544L34.719 0.326172L41.2109 0.903459L48.9166 2.86832V5.76436H17.7703C17.7703 5.76436 17.7623 5.42968 17.7559 5.42968Z" fill="white"/>
<path d="M14.3223 14.3565C14.7307 11.9697 13.1269 9.70375 10.7401 9.29533C8.35333 8.88692 6.08736 10.4907 5.67895 12.8775C5.27054 15.2643 6.87434 17.5303 9.26114 17.9387C11.6479 18.3471 13.9139 16.7433 14.3223 14.3565Z" fill="#00A0E3"/>
<path d="M12.804 13.9977C13.0146 12.4501 11.9308 11.0248 10.3832 10.8142C8.83564 10.6035 7.41033 11.6874 7.19972 13.235C6.9891 14.7825 8.07293 16.2078 9.62051 16.4185C11.1681 16.6291 12.5934 15.5453 12.804 13.9977Z" fill="white"/>
<path d="M50.9962 14.3565C51.4046 11.9697 49.8008 9.70375 47.414 9.29534C45.0272 8.88692 42.7612 10.4907 42.3528 12.8775C41.9444 15.2643 43.5482 17.5303 45.935 17.9387C48.3218 18.3471 50.5878 16.7433 50.9962 14.3565Z" fill="#00A0E3"/>
<path d="M49.4759 13.9977C49.6865 12.4501 48.6027 11.0248 47.0551 10.8142C45.5075 10.6035 44.0822 11.6874 43.8716 13.235C43.661 14.7825 44.7448 16.2078 46.2924 16.4185C47.84 16.6291 49.2653 15.5453 49.4759 13.9977Z" fill="white"/>
<path d="M59.1012 10.8747L59.0147 10.1149L58.9883 9.87946C58.9691 9.71132 57.6832 5.52218 57.6832 5.52218C57.6617 5.48284 57.6532 5.43772 57.659 5.39327C57.6647 5.34882 57.6844 5.30734 57.7152 5.27477C57.7361 5.25267 57.7524 5.22662 57.7632 5.19814C57.7739 5.16966 57.7789 5.13933 57.7778 5.10891C57.7766 5.0785 57.7695 5.04861 57.7567 5.02099C57.7439 4.99338 57.7257 4.9686 57.7032 4.94809L57.5591 4.81598C57.516 4.77663 57.4645 4.74761 57.4085 4.73111L48.3505 2.14653C45.784 1.41372 43.1696 0.860183 40.5263 0.48993C39.6335 0.365024 38.7792 0.257734 38.1587 0.208092C36.7871 0.0991997 35.3379 -0.0120943 33.4243 -8.41085e-05C32.0575 0.009524 30.3817 0.0279395 28.2159 0.355416L28.1694 0.362622C26.145 0.672913 24.1793 1.28786 22.3389 2.18656L22.2092 2.24982C20.3044 3.1834 18.5261 4.15142 16.8631 5.13225C16.3718 5.42284 15.8154 5.58529 15.2449 5.60465C13.3786 5.6663 11.7892 5.82323 10.549 5.98017C5.36458 6.63272 3.21717 7.72644 2.48215 8.12758C1.96571 8.40942 1.52134 8.68805 1.16664 8.92826C0.870473 9.12904 0.646082 9.41906 0.526097 9.75615L0.520492 9.77137C0.277496 10.4473 0.138989 11.1563 0.109745 11.8739L0.0929307 12.2967C0.0810005 12.5815 0.0992508 12.8668 0.147377 13.1478C0.232248 13.6651 0.320323 14.1823 0.408397 14.6987L0.124157 14.8292C0.087148 14.8463 0.0558008 14.8737 0.0338119 14.908C0.0118229 14.9423 0.000109309 14.9822 5.22317e-05 15.023C-0.00111707 15.0791 0.0173783 15.1338 0.0523309 15.1777C0.0872835 15.2216 0.136489 15.2518 0.191414 15.2632L5.10356 15.7908H5.7353C5.3822 15.051 5.18203 14.3224 5.18203 13.5089C5.18139 12.2194 5.69232 10.9823 6.60272 10.0691C7.51312 9.1558 8.74862 8.641 10.0381 8.63761C12.7204 8.63761 14.895 10.8347 14.895 13.5161C14.895 14.3296 14.6949 15.051 14.3418 15.7908H41.5928L42.3134 15.6571C41.9709 14.9694 41.7963 14.2103 41.8038 13.4421C41.8114 12.6739 42.0008 11.9184 42.3567 11.2375C42.7125 10.5566 43.2247 9.96972 43.8511 9.52495C44.4775 9.08018 45.2004 8.79017 45.9605 8.67869C46.7207 8.5672 47.4964 8.63743 48.2242 8.88359C48.9519 9.12976 49.611 9.54487 50.1474 10.0949C50.6838 10.6449 51.0822 11.3142 51.31 12.0479C51.5378 12.7817 51.5885 13.5589 51.4579 14.316L51.8014 14.2656L58.15 13.1991C58.3014 13.1726 58.4411 13.1002 58.55 12.9916C58.6589 12.883 58.7317 12.7436 58.7585 12.5921L58.861 11.9932V11.4328C58.8663 11.3346 58.9097 11.2424 58.9819 11.1758C59.0229 11.1376 59.0548 11.0908 59.0755 11.0387C59.0961 10.9866 59.1049 10.9306 59.1012 10.8747ZM31.7757 1.22255C31.3887 2.45933 31.0022 3.69637 30.6163 4.93368C30.6036 4.9739 30.5789 5.00929 30.5456 5.03517C30.5123 5.06105 30.4719 5.0762 30.4297 5.0786L19.3764 5.61266C19.3337 5.61461 19.2914 5.60321 19.2555 5.58004C19.2196 5.55687 19.1917 5.52308 19.1759 5.48337C19.16 5.44366 19.157 5.4 19.1671 5.35845C19.1772 5.31691 19.2 5.27954 19.2323 5.25155C20.6392 4.03686 22.2281 3.05069 23.9411 2.32908C26.358 1.31857 28.9668 0.849599 31.5843 0.955123C31.6162 0.955888 31.6475 0.964053 31.6757 0.978972C31.7038 0.993892 31.7282 1.01516 31.7467 1.04109C31.7653 1.06703 31.7776 1.09692 31.7826 1.12841C31.7876 1.1599 31.7852 1.19213 31.7757 1.22255ZM41.7153 4.63503L32.9078 4.94089C32.8665 4.94245 32.8252 4.93503 32.787 4.91913C32.7488 4.90324 32.7144 4.87924 32.6863 4.84881C32.6583 4.81837 32.6371 4.78221 32.6244 4.74282C32.6116 4.70343 32.6075 4.66174 32.6124 4.62062L33.0496 1.18892C33.0587 1.11826 33.0937 1.05349 33.1478 1.00719C33.202 0.960882 33.2714 0.936335 33.3426 0.938308C34.4732 0.969535 35.6502 1.02718 36.8704 1.11926C37.9769 1.202 39.0432 1.30502 40.0691 1.42832C40.1105 1.43362 40.1502 1.44781 40.1856 1.46992C40.221 1.49204 40.2512 1.52155 40.2741 1.55643L41.9451 4.19386C41.9721 4.2364 41.9874 4.28529 41.9896 4.33562C41.9917 4.38596 41.9806 4.43598 41.9573 4.48066C41.934 4.52535 41.8994 4.56313 41.857 4.59022C41.8145 4.61732 41.7656 4.63277 41.7153 4.63503ZM48.0214 3.62858L43.0708 4.53014C43.0004 4.54265 42.9278 4.53413 42.8622 4.50565C42.7965 4.47717 42.7407 4.43 42.7017 4.37001L40.8978 1.64771C40.8853 1.62884 40.8788 1.60665 40.8791 1.58403C40.8794 1.56141 40.8864 1.5394 40.8994 1.52084C40.9123 1.50229 40.9305 1.48805 40.9517 1.47998C40.9728 1.4719 40.9959 1.47037 41.0179 1.47556L48.031 3.13536C48.087 3.14842 48.1368 3.18041 48.172 3.22592C48.2072 3.27144 48.2255 3.32769 48.224 3.38519C48.2225 3.44269 48.2012 3.49791 48.1637 3.54152C48.1262 3.58513 48.0748 3.61447 48.0182 3.62458L48.0214 3.62858Z" fill="#00A0E3"/>
</g>
<defs>
<clipPath id="clip0">
<rect width="59.1027" height="18" fill="white"/>
</clipPath>
</defs>
</svg>
