<svg width="49" height="18" viewBox="0 0 49 18" fill="none" xmlns="http://www.w3.org/2000/svg">
<g clip-path="url(#clip0)">
<path d="M14.0754 5.87169L21.2865 0.804258L42.6467 0.741227L43.3704 0.566406L43.9067 0.8881L46.4393 5.54999L46.0742 6.45621H14.0332L14.0754 5.87169Z" fill="white"/>
<path d="M48.7062 7.11838C48.5189 6.47445 48.219 5.86885 47.8202 5.32973C47.74 5.22093 47.6355 5.13235 47.515 5.07103C47.3945 5.00971 47.2614 4.97735 47.1262 4.97652L45.7188 4.96582C45.9011 7.08587 46.0839 9.20671 46.267 11.3284L48.1698 11.1993C48.2357 11.1947 48.2989 11.1717 48.3523 11.1329C48.4057 11.0941 48.4471 11.0411 48.4719 10.9799C48.7389 10.3133 49.2021 8.8315 48.7062 7.11838Z" fill="#00A0E3"/>
<path d="M47.2299 10.8531C47.498 10.1901 47.9613 8.70824 47.4677 6.99452C47.2803 6.35079 46.9805 5.74526 46.5823 5.20588C46.5121 5.10927 46.4226 5.02828 46.3195 4.96803L45.7207 4.96387C45.8975 7.01494 46.0743 9.06581 46.2511 11.1165L46.9308 11.0701C46.9959 11.0653 47.0584 11.0425 47.1112 11.0042C47.164 10.9658 47.2051 10.9135 47.2299 10.8531Z" fill="#00A0E3"/>
<path d="M48.7062 7.11838C48.5189 6.47445 48.219 5.86886 47.8202 5.32973C47.7399 5.22093 47.6355 5.13235 47.515 5.07103C47.3945 5.00971 47.2614 4.97735 47.1262 4.97652L45.7188 4.96582L46.8152 4.97415C46.9509 4.97507 47.0845 5.0077 47.2053 5.06944C47.3261 5.13118 47.4307 5.22032 47.511 5.32973C47.9093 5.86914 48.2092 6.47465 48.3969 7.11838C48.8923 8.8315 48.4291 10.3133 48.1591 10.9769C48.1345 11.0381 48.0932 11.0911 48.0399 11.1299C47.9865 11.1687 47.9234 11.1917 47.8576 11.1963L46.264 11.3046V11.3254L48.1668 11.1963C48.2327 11.1917 48.2959 11.1687 48.3493 11.1299C48.4027 11.0911 48.4441 11.0381 48.4689 10.9769C48.7389 10.3133 49.2021 8.8315 48.7062 7.11838Z" fill="#00A0E3"/>
<path d="M48.4148 10.904C48.3969 10.813 48.3528 10.7293 48.2879 10.6631C48.2231 10.5968 48.1403 10.551 48.0497 10.5312C47.8957 10.4884 47.7429 10.4568 47.5889 10.4122C47.4029 10.3458 47.2065 10.3138 47.0091 10.3177H41.7579C41.687 10.3156 41.6163 10.3276 41.5501 10.353C41.4838 10.3784 41.4233 10.4167 41.372 10.4658L41.1895 10.6442C41.6717 10.8618 42.3627 11.5189 42.8181 12.4988C43.2005 13.1654 43.6863 14.6728 43.7333 15.1021C43.7358 15.1131 43.7415 15.1231 43.7495 15.1311C43.7576 15.139 43.7677 15.1444 43.7787 15.1468C43.7898 15.1492 43.8013 15.1484 43.8118 15.1444C43.8224 15.1405 43.8317 15.1337 43.8385 15.1247L44.5675 14.0627C44.6179 14.0037 44.6882 13.9654 44.765 13.955L47.4604 13.6221C47.7021 13.5927 47.928 13.4866 48.105 13.3194C48.3033 13.1302 48.4261 12.8753 48.4505 12.6023C48.4707 12.3727 48.4743 12.1046 48.4838 11.8067C48.4946 11.5041 48.4715 11.2014 48.4148 10.904Z" fill="#00A0E3"/>
<path d="M43.7054 14.9495C43.707 14.9565 43.7101 14.9632 43.7143 14.9691C43.709 14.9411 43.7024 14.9096 43.6953 14.8799C43.6971 14.9055 43.7007 14.9292 43.7054 14.9495Z" fill="#535054"/>
<path d="M26.4705 1.01855L25.7207 6.29529L27.8084 6.23404L27.6009 1.01855H26.4705Z" fill="#00A0E3"/>
<path d="M46.4463 5.68865L46.4385 5.67676H46.4355" fill="#00A0E3"/>
<path d="M45.244 5.84864L42.875 0.812132L42.9487 0.770508L45.3171 5.80642L45.244 5.84864Z" fill="#00A0E3"/>
<path d="M45.1647 6.09472L42.6465 0.7395L43.0259 0.522461L45.5447 5.87828L45.1647 6.09472Z" fill="#00A0E3"/>
<path d="M47.3794 8.88548C47.3794 7.70336 47.0107 6.46356 47.0107 6.46356L46.8264 6.21084V4.99363H46.2318L44.018 0.719444C44.0119 0.64249 43.9918 0.567306 43.9585 0.497648C43.9289 0.434584 43.8886 0.377064 43.8396 0.327584C43.7261 0.218894 43.5768 0.155448 43.4198 0.149195L42.4089 0.0927057C37.6174 -0.0607084 32.833 -0.0095704 27.4475 0.11768C25.7088 0.189036 24.2608 0.215199 22.6678 0.296069C22.2234 0.318843 21.7817 0.378512 21.3472 0.474457C19.9355 0.786043 19.2862 0.975729 19.0281 1.18325C19.0168 1.19277 12.4622 5.89866 12.4622 5.89866L12.4319 5.91947C10.4074 6.26872 8.3359 6.6576 6.21744 7.08613C4.85256 7.36363 3.51168 7.65024 2.19477 7.94596C1.83601 8.02707 1.49791 8.18154 1.20174 8.39967C1.11612 8.4627 1.03882 8.52692 0.96865 8.58995C0.729427 8.79913 0.55266 9.07035 0.457864 9.37367L0.0654091 10.6783C0.0221752 10.8197 0.000132953 10.9668 0 11.1147V13.1846C0.000209635 13.4869 0.0911491 13.782 0.261042 14.032C0.399284 14.2359 0.585386 14.4029 0.803071 14.5182C1.02076 14.6336 1.26339 14.6939 1.50976 14.6938H3.23418L3.4869 15.1986L3.86925 15.1891C3.81848 14.9208 3.793 14.6482 3.79314 14.3751C3.79284 13.7704 3.91967 13.1724 4.16542 12.6198C4.41116 12.0673 4.77031 11.5726 5.21958 11.1679C5.66885 10.7631 6.19819 10.4573 6.77327 10.2703C7.34834 10.0834 7.9563 10.0194 8.5577 10.0825C9.15911 10.1457 9.74051 10.3346 10.2642 10.6369C10.7879 10.9393 11.2422 11.3484 11.5976 11.8376C11.9529 12.3269 12.2015 12.8854 12.3271 13.4769C12.4527 14.0684 12.4526 14.6797 12.3266 15.2712L13.2008 15.2807L34.0776 15.314L34.0829 15.3253L34.8339 15.311C34.6952 14.6872 34.6968 14.0403 34.8386 13.4171C34.9805 12.7939 35.259 12.21 35.6541 11.7077C36.0491 11.2053 36.5509 10.797 37.1231 10.5122C37.6953 10.2275 38.3236 10.0735 38.9626 10.0612C39.6016 10.049 40.2353 10.1789 40.8179 10.4416C41.4006 10.7042 41.9176 11.093 42.3316 11.5799C42.7456 12.0668 43.0463 12.6396 43.2118 13.2569C43.3774 13.8742 43.4037 14.5206 43.289 15.1493L43.8021 15.1392V14.2472L47.2414 11.6535C47.2414 11.6535 47.3806 10.0724 47.3794 8.88548ZM36.0636 5.51631C36.0475 5.62939 35.9912 5.73288 35.9051 5.80789C35.8189 5.88289 35.7087 5.9244 35.5945 5.92482L17.4226 6.28993C17.0504 6.29766 16.8619 5.87368 17.1253 5.62572L20.5367 2.32673C21.2425 1.67799 22.4443 1.28672 23.429 1.25639L27.0859 1.14341H33.537C33.695 1.14285 33.8506 1.18204 33.9894 1.25738C34.1282 1.33271 34.2459 1.44178 34.3315 1.57452C34.5866 1.97887 34.8417 2.42543 35.0831 2.91243C35.4715 3.69111 35.7925 4.50157 36.0428 5.33495C36.062 5.39335 36.0691 5.45507 36.0636 5.51631ZM43.0559 0.95908L44.6976 4.62497L43.0327 1.06254C43.0245 1.04518 43.0223 1.02557 43.0265 1.00683C43.0307 0.988082 43.041 0.971278 43.0559 0.95908ZM39.7753 5.6614C39.555 5.65819 39.3396 5.59499 39.1525 5.47859C38.9654 5.3622 38.8136 5.197 38.7133 5.00077L36.7897 1.35094C36.7752 1.32312 36.7681 1.29204 36.7691 1.26068C36.7701 1.22932 36.7791 1.19875 36.7954 1.17192C36.8116 1.14508 36.8345 1.12289 36.8619 1.10748C36.8892 1.09207 36.92 1.08397 36.9514 1.08395H43.0392L44.9949 5.31354V5.6614H39.7753Z" fill="#00A0E3"/>
<path d="M11.8439 14.5756C12.0621 12.4783 10.5387 10.6011 8.44138 10.3829C6.34401 10.1647 4.46686 11.688 4.24864 13.7854C4.03042 15.8828 5.55376 17.7599 7.65113 17.9781C9.74849 18.1964 11.6256 16.673 11.8439 14.5756Z" fill="#00A0E3"/>
<path d="M10.5009 14.3842C10.6131 13.0286 9.60505 11.8388 8.24943 11.7266C6.89381 11.6144 5.70393 12.6224 5.59177 13.9781C5.4796 15.3337 6.48762 16.5235 7.84324 16.6357C9.19886 16.7479 10.3887 15.7399 10.5009 14.3842Z" fill="white"/>
<path d="M42.7618 14.5756C42.98 12.4783 41.4567 10.6011 39.3593 10.3829C37.262 10.1647 35.3848 11.688 35.1666 13.7854C34.9484 15.8828 36.4717 17.7599 38.5691 17.9781C40.6664 18.1964 42.5436 16.673 42.7618 14.5756Z" fill="#00A0E3"/>
<path d="M41.4208 14.3842C41.533 13.0286 40.525 11.8388 39.1693 11.7266C37.8137 11.6144 36.6239 12.6224 36.5117 13.9781C36.3995 15.3337 37.4075 16.5235 38.7632 16.6357C40.1188 16.7479 41.3086 15.7399 41.4208 14.3842Z" fill="white"/>
</g>
<defs>
<clipPath id="clip0">
<rect width="48.9248" height="18" fill="white"/>
</clipPath>
</defs>
</svg>
