<svg width="52" height="18" viewBox="0 0 52 18" fill="none" xmlns="http://www.w3.org/2000/svg">
<g clip-path="url(#clip0)">
<path d="M14.5898 6.51333L16.1227 4.61736L20.2917 0.962072L28.4373 0.475586L43.4342 0.567949L44.9677 2.8941L44.9196 6.51333H14.5898Z" fill="white"/>
<path d="M50.886 11.9233C50.8885 12.0965 50.8569 12.2685 50.793 12.4294C50.8458 12.3699 50.8793 12.2958 50.8891 12.2169C50.9081 12.0796 50.9277 11.9423 50.9467 11.8057C50.9273 11.8183 50.9114 11.8359 50.9008 11.8565C50.8901 11.8771 50.885 11.9001 50.886 11.9233Z" fill="#00A0E3"/>
<path d="M48.9924 12.7733C48.9712 12.7736 48.9507 12.7658 48.935 12.7516C48.9193 12.7374 48.9095 12.7179 48.9076 12.6968L48.8184 10.098C48.8161 10.0351 48.7925 9.97481 48.7514 9.92715L48.5369 9.6741L48.2838 9.38183C48.2823 9.37943 48.2803 9.37739 48.2779 9.37586C48.2755 9.37434 48.2728 9.37335 48.2699 9.37297C48.2237 9.37297 48.1833 9.23569 48.1833 9.16231V7.39097C48.1909 6.62331 48.0729 5.85957 47.834 5.12997C47.7176 4.78646 47.5899 4.39993 47.4545 4.05894C47.4425 4.05894 47.4298 4.00644 47.4178 3.97481C47.2419 3.52122 47.049 3.0613 46.8351 2.58304C46.5821 2.01368 46.3176 1.48417 46.0526 0.980604C46.0361 0.949606 46.0032 0.88318 46.0032 0.88318C45.9495 0.789552 45.8963 0.685802 45.8426 0.587746C45.7635 0.446101 45.6486 0.327747 45.5094 0.244574C45.3701 0.161401 45.2114 0.116338 45.0492 0.113912C40.228 -0.0195718 35.2101 -0.0410809 30.0087 0.077852C27.0834 0.14491 24.2208 0.251823 21.4208 0.398592C20.7365 0.434876 20.0804 0.683408 19.5438 1.10966L19.4394 1.19253H19.4565H19.4356C19.3926 1.22986 19.4034 1.21974 19.354 1.26149C18.8694 1.64865 18.3798 2.05437 17.8851 2.47865C16.5389 3.63572 15.5039 4.79658 14.4563 5.91189C14.4285 5.94153 14.3992 5.96962 14.3683 5.99603C14.2823 6.0596 14.192 6.1173 14.0982 6.16874C13.9804 6.20732 13.8586 6.23216 13.7351 6.24276C11.7423 6.32879 9.4497 6.4996 7.20832 6.80389C5.87011 6.98567 4.592 7.19485 3.374 7.43145C3.00137 7.50197 2.65547 7.67404 2.37445 7.92869C2.14619 8.13772 1.9319 8.36152 1.73297 8.59864C1.13504 9.31623 0.683683 10.1442 0.404467 11.0355C0.403686 11.0381 0.402625 11.0407 0.401303 11.0431L0.36904 11.1165C0.36904 11.1222 0.363979 11.1272 0.362081 11.1329C0.338674 11.1861 0.286166 11.3056 0.285534 11.3063C0.274146 11.3379 0.244413 11.4031 0.244413 11.4031L0.189375 11.5897C0.189375 11.5935 0.17356 11.6529 0.165968 11.6839C0.165968 11.6903 0.162805 11.6972 0.160907 11.7036C0.152683 11.7327 0.145092 11.7618 0.1375 11.7921C0.1375 11.7959 0.1375 11.7997 0.1375 11.8035C0.128643 11.837 0.120419 11.8712 0.112828 11.9066C0.112828 11.9129 0.112828 11.9193 0.108399 11.9256C0.102706 11.9534 0.0963796 11.9813 0.090686 12.0104C0.090686 12.0211 0.0862577 12.0319 0.0843598 12.0433C0.0792988 12.0686 0.0742378 12.0945 0.0698095 12.1211L0.0641159 12.154C0.0577896 12.1907 0.0520961 12.2274 0.0464025 12.2653C0.0407089 12.3033 0.0356479 12.3488 0.0312195 12.3918C0.0267912 12.4349 0.0204649 12.4627 0.0173018 12.5019C0.0173018 12.5127 0.0173018 12.5234 0.0141387 12.5336C0.0141387 12.5658 0.00971037 12.5968 0.0078125 12.6284C0.0078125 12.6474 0.0078125 12.667 0.0078125 12.686C0.0078125 12.705 0.0078125 12.7328 0.0078125 12.7562C0.0078125 12.7999 0.0078125 12.8435 0.0078125 12.8859C0.0078125 12.9163 0.0078125 12.9492 0.0078125 12.9764C0.0078125 12.9833 0.0078125 12.9909 0.0078125 12.9979C0.0078125 13.027 0.0122409 13.0561 0.0160366 13.0852V13.101C0.0191997 13.1251 0.0229954 13.1491 0.0267912 13.1731C0.0267912 13.1814 0.0267912 13.1902 0.0312195 13.1991C0.0362805 13.225 0.0419741 13.2516 0.0483003 13.2775L0.0558918 13.3072C0.0603201 13.325 0.0653811 13.3427 0.0704421 13.3604C0.0755031 13.3781 0.0767683 13.3832 0.080564 13.3939C0.0875229 13.4167 0.0951144 13.4395 0.103338 13.4616C0.111563 13.4837 0.11346 13.4888 0.119154 13.5027C0.124848 13.5166 0.128643 13.5255 0.133072 13.5375C0.143826 13.5628 0.155213 13.5875 0.166601 13.6128C0.171029 13.6204 0.174825 13.6286 0.17862 13.6368L0.203293 13.6849L0.212782 13.702C0.22923 13.7317 0.246311 13.7608 0.264657 13.7893C0.264657 13.7937 0.274779 13.7988 0.277942 13.8039C0.288697 13.8203 0.314634 13.8361 0.314634 13.8519H0.308308C0.332348 13.8867 0.356387 13.9209 0.38359 13.9538C0.388018 13.9588 0.391182 13.9645 0.394977 13.9696L0.430404 14.0107C0.438628 14.0196 0.44622 14.0284 0.454444 14.0367L0.486707 14.0708L0.543643 14.1259L0.567683 14.1474L0.61513 14.1872L0.637904 14.2056C0.661311 14.2246 0.685351 14.2429 0.710023 14.26C0.818201 14.3359 0.933339 14.4118 1.05543 14.4865C1.4119 14.7034 1.78939 14.8838 2.18213 15.0248C2.25295 15.0502 2.31618 15.0931 2.36596 15.1495C2.41573 15.2059 2.45043 15.274 2.46681 15.3475L2.50477 15.6796L3.78773 15.6606C3.58084 15.0731 3.50472 14.4475 3.56467 13.8275C3.62463 13.2075 3.81921 12.608 4.13485 12.071C4.45048 11.5341 4.87954 11.0724 5.39206 10.7184C5.90459 10.3645 6.48822 10.1266 7.10218 10.0216C7.71615 9.91653 8.34564 9.94678 8.9467 10.1102C9.54776 10.2737 10.1059 10.5664 10.5821 10.9679C11.0583 11.3694 11.4411 11.87 11.7038 12.4348C11.9665 12.9996 12.1027 13.6149 12.1029 14.2378C12.1057 14.7162 12.0261 15.1915 11.8676 15.6429H33.521C33.3689 15.191 33.2898 14.7178 33.2869 14.241C33.28 13.6747 33.3856 13.1127 33.5975 12.5876C33.8095 12.0624 34.1236 11.5845 34.5216 11.1817C34.9196 10.7788 35.3936 10.4589 35.9161 10.2406C36.4387 10.0223 36.9993 9.90991 37.5656 9.90991C38.132 9.90991 38.6926 10.0223 39.2152 10.2406C39.7377 10.4589 40.2117 10.7788 40.6097 11.1817C41.0077 11.5845 41.3218 12.0624 41.5337 12.5876C41.7457 13.1127 41.8513 13.6747 41.8444 14.241C41.8418 14.7174 41.7627 15.1903 41.6103 15.6416L43.3817 15.6359C43.4076 15.6081 43.4342 15.5796 43.4601 15.5499C43.5456 15.4514 43.6249 15.3477 43.6973 15.2393C43.7059 15.2267 43.7152 15.2147 43.7252 15.2032C43.729 15.1983 43.7333 15.1936 43.7378 15.1893L43.753 15.1735C43.7668 15.1602 43.7814 15.1477 43.7967 15.1362C43.8719 15.0803 43.9636 15.0509 44.0573 15.0527L46.3183 15.0856C46.6314 15.0907 46.9436 15.0502 47.2451 14.9654C47.892 14.7831 48.4888 14.4555 48.9898 14.0076L48.9949 14.0025L49.1556 13.845C49.1973 13.8052 49.2228 13.7513 49.2271 13.6938V12.9941C49.2246 12.9339 49.1987 12.8771 49.1548 12.8358C49.1109 12.7945 49.0526 12.7721 48.9924 12.7733ZM25.815 6.19404C22.4577 6.263 18.7088 6.30159 15.3508 6.29716C15.4141 6.21555 16.8577 4.50811 17.7389 3.66798C18.4352 3.0039 19.1783 2.39078 19.9626 1.83338C20.4226 1.50589 20.9658 1.31509 21.5296 1.283C23.0795 1.1957 24.6575 1.12252 26.2635 1.06348L25.815 6.19404ZM28.3183 6.13078C27.8544 6.14343 27.3917 6.15545 26.9303 6.16684L26.9733 1.03817C28.328 0.992624 29.7014 0.958251 31.0936 0.935055C32.8253 0.906798 34.5285 0.896887 36.2033 0.905322L36.4215 5.82902C33.7207 5.9547 31.0196 6.05508 28.3183 6.13015V6.13078ZM44.3774 4.97435C44.355 5.04828 44.3189 5.11737 44.2711 5.17805C44.2105 5.25133 44.1353 5.31109 44.0502 5.35348C43.9651 5.39587 43.872 5.41994 43.777 5.42414C41.697 5.55657 39.6163 5.6734 37.535 5.77462L36.8872 0.90975C38.9204 0.924933 40.9106 0.964788 42.8578 1.02932C42.9451 1.03203 43.0303 1.05584 43.1064 1.09869C43.1824 1.14155 43.2469 1.20218 43.2943 1.27541C43.9679 2.31178 44.3513 3.50981 44.4046 4.74471C44.4091 4.82226 44.3999 4.89999 44.3774 4.97435Z" fill="#00A0E3"/>
<path d="M51.5486 10.2333C51.5486 10.2143 51.5486 10.1953 51.5486 10.1757C51.5486 10.1336 51.5505 10.0893 51.5543 10.0429C51.5543 10.0157 51.5543 9.98848 51.5543 9.96128C51.5543 9.93407 51.5543 9.90814 51.5543 9.88093C51.5543 9.85373 51.5543 9.82273 51.5543 9.793C51.5543 9.76327 51.5543 9.74935 51.5543 9.72974C51.5543 9.65509 51.5574 9.57981 51.5574 9.50389V9.5001C51.5572 8.92308 51.5251 8.34651 51.4613 7.77304C51.4562 7.74141 51.4511 7.6908 51.4461 7.64651C51.4461 7.6307 51.4423 7.61741 51.4404 7.6016C51.4385 7.58578 51.4404 7.58831 51.4372 7.58135C51.4303 7.52505 51.4227 7.46938 51.4151 7.41244C51.3651 7.05185 51.3018 6.70897 51.2329 6.38317C51.2242 6.31794 51.2069 6.25413 51.1816 6.19338C51.1506 6.09123 51.1128 5.99127 51.0684 5.89415C50.9409 5.59562 50.7486 5.32918 50.5054 5.11413C50.3096 4.93397 50.054 4.83277 49.788 4.83008H48.7011C48.5165 4.83199 48.3355 4.88122 48.1754 4.97305C48.1252 5.00303 48.0776 5.03709 48.0331 5.0749L47.5637 5.45827V7.07083C47.5588 7.13565 47.5694 7.20072 47.5947 7.26061V7.7724H47.675C47.818 8.64859 47.9616 9.51275 48.1046 10.3801V10.3934C48.2311 11.1639 48.3576 11.9348 48.4841 12.7062C48.4968 12.7859 48.5101 12.8656 48.5234 12.9447C48.8987 13.1272 49.3183 13.1989 49.7329 13.1516C49.9726 13.1222 50.2055 13.0525 50.4219 12.9454C50.5682 12.8189 50.6851 12.6619 50.7642 12.4853C50.8434 12.3088 50.8828 12.1171 50.8799 11.9237C50.8792 11.8972 50.8862 11.8711 50.9002 11.8487C50.9141 11.8262 50.9343 11.8083 50.9583 11.7971C50.9668 11.7937 50.9754 11.791 50.9843 11.7889C50.9936 11.7869 51.0032 11.7859 51.0127 11.7858C51.0875 11.7859 51.16 11.7604 51.2183 11.7135C51.2765 11.6667 51.3169 11.6013 51.3328 11.5283C51.3809 11.309 51.4288 11.0897 51.4764 10.8704C51.5006 10.7597 51.5169 10.6474 51.5252 10.5344L51.5346 10.3864C51.5346 10.3693 51.5346 10.3529 51.5346 10.3364C51.5448 10.3029 51.5467 10.2687 51.5486 10.2333Z" fill="#00A0E3"/>
<path d="M11.6401 14.5465C11.8602 12.4308 10.3236 10.5373 8.20794 10.3172C6.09229 10.0971 4.19877 11.6337 3.97865 13.7494C3.75852 15.865 5.29515 17.7585 7.4108 17.9786C9.52645 18.1988 11.42 16.6621 11.6401 14.5465Z" fill="#00A0E3"/>
<path d="M10.2785 14.431C10.4338 13.0678 9.45458 11.8368 8.09135 11.6815C6.72812 11.5262 5.4971 12.5054 5.34178 13.8686C5.18646 15.2318 6.16566 16.4628 7.52889 16.6181C8.89211 16.7735 10.1231 15.7943 10.2785 14.431Z" fill="white"/>
<path d="M41.435 14.5465C41.6552 12.4308 40.1185 10.5373 38.0029 10.3172C35.8872 10.0971 33.9937 11.6337 33.7736 13.7494C33.5534 15.865 35.0901 17.7585 37.2057 17.9786C39.3214 18.1988 41.2149 16.6621 41.435 14.5465Z" fill="#00A0E3"/>
<path d="M40.0773 14.431C40.2326 13.0678 39.2534 11.8368 37.8902 11.6815C36.5269 11.5262 35.2959 12.5054 35.1406 13.8686C34.9853 15.2318 35.9645 16.4628 37.3277 16.6181C38.6909 16.7735 39.922 15.7943 40.0773 14.431Z" fill="white"/>
</g>
<defs>
<clipPath id="clip0">
<rect width="51.5714" height="18" fill="white"/>
</clipPath>
</defs>
</svg>
