<svg width="53" height="18" viewBox="0 0 53 18" fill="none" xmlns="http://www.w3.org/2000/svg">
<g clip-path="url(#clip0)">
<path d="M14.8586 6.28985L21.6843 2.13035L25.1687 1.17026L32.5986 0.743409L41.2729 0.601562L45.6813 0.85045L47.9567 4.72495L47.8503 6.39624L17.4539 7.1429L14.7168 7.21382L14.8586 6.28985Z" fill="white"/>
<path d="M52.4164 10.1175C52.4052 10.0353 52.3758 9.95653 52.3304 9.88705L52.1655 9.63619C52.1136 9.55741 52.0433 9.49238 51.9607 9.44664C51.8782 9.4009 51.7858 9.37581 51.6914 9.37351L51.7045 9.12528L51.6816 7.74885C51.6713 7.10093 51.5401 6.46062 51.2948 5.86085C51.1247 5.44582 50.9323 5.01503 50.7129 4.57373C50.1441 3.43037 49.4636 2.34613 48.6811 1.33688C48.5572 1.17588 48.4184 1.02681 48.2667 0.891645L49.1434 0.393871C49.1869 0.369336 49.2232 0.333901 49.2487 0.291062C49.2743 0.248222 49.2882 0.199459 49.2892 0.14958C49.2897 0.130917 49.2863 0.112358 49.2793 0.0950476C49.2723 0.0777372 49.2619 0.0620435 49.2486 0.0489355C49.2353 0.0358275 49.2194 0.0255835 49.202 0.0188359C49.1846 0.0120884 49.166 0.00898051 49.1474 0.00970426L46.6099 0.114119C46.4795 0.093644 46.3479 0.0813616 46.2159 0.0773438C42.9114 -0.0244439 39.4119 -0.0316675 35.7363 0.0911344C33.147 0.177818 29.9712 0.328201 27.8672 0.427362C26.4159 0.497628 25.727 0.535717 24.2987 0.797081H24.2902C23.4145 0.95739 22.5685 1.25083 21.7816 1.6672C21.5491 1.79066 21.316 1.91543 21.0822 2.04152C21.0931 2.07077 21.0994 2.10159 21.1006 2.1328C21.0993 2.10223 21.0931 2.07206 21.0822 2.04349C21.0336 2.06574 20.9866 2.09141 20.9417 2.12032C20.1024 2.573 19.2533 3.04517 18.3943 3.53681C17.056 4.3058 14.093 5.97577 13.9873 6.03685C13.665 6.16531 13.3289 6.2561 12.9858 6.30741C11.8202 6.47092 4.69372 7.91434 4.60966 7.93141C4.0495 8.04436 3.32714 8.42656 2.71444 8.80285C1.84463 9.33303 1.14693 10.1037 0.705613 11.0218C0.667047 11.0974 0.634761 11.176 0.609079 11.2569H0.502037C0.426344 11.2592 0.352277 11.2794 0.285985 11.316C0.208645 11.3562 0.143884 11.417 0.0988173 11.4916C0.0537507 11.5662 0.0301229 11.6518 0.0305304 11.7389V11.7764C0.0305304 11.7882 0.0305304 11.8 0.0305304 11.8118L0.17369 13.7248C0.178275 13.8003 0.212215 13.871 0.268254 13.9218C0.333867 13.9803 0.37686 14.06 0.389743 14.147L0.422577 14.3749C0.430156 14.4296 0.41606 14.485 0.383299 14.5295C0.350538 14.5739 0.301709 14.6037 0.24724 14.6126C0.181893 14.6231 0.121991 14.6553 0.0772514 14.704C0.0325121 14.7528 0.00556086 14.8152 0.000770436 14.8812C-0.00401999 14.9472 0.0136315 15.0129 0.050861 15.0676C0.0880905 15.1223 0.142714 15.1629 0.205868 15.1826L1.07139 15.4644C1.53491 15.6143 2.01162 15.7198 2.49511 15.7796L5.56187 16.1644C5.60359 16.1696 5.64593 16.1639 5.68481 16.1479C5.72369 16.1319 5.75778 16.1062 5.7838 16.0732C5.80982 16.0401 5.82688 16.001 5.83332 15.9594C5.83977 15.9179 5.83539 15.8754 5.82061 15.836C5.81207 15.8137 5.80354 15.7901 5.79566 15.7658H5.80879C5.69315 15.4415 5.61257 15.1058 5.56844 14.7643C5.52569 14.4025 5.51997 14.0372 5.55136 13.6742C5.60239 13.1466 5.74064 12.6311 5.96049 12.1487C6.1259 11.8343 6.31862 11.535 6.53641 11.2543H6.49569C6.74733 10.9339 7.03885 10.6471 7.36319 10.4006C8.85454 9.2842 10.8883 9.20803 12.448 10.1169C14.2434 11.1637 15.1404 13.361 14.5934 15.4735L37.4818 15.5024C37.4044 15.2181 36.837 12.9768 38.2758 11.1164C38.5096 10.8143 39.427 9.66509 41.0792 9.39387C42.918 9.09179 44.2662 10.1031 44.5256 10.306C44.9164 10.6118 45.2514 10.9828 45.5158 11.4027C46.3512 12.7575 46.1653 14.1424 46.0964 14.4951C47.3003 14.3749 48.4961 14.1832 49.6773 13.9211C50.1823 13.8088 50.6676 13.6873 51.1326 13.5599C51.3288 13.5073 51.5113 13.4126 51.6673 13.2824C51.8234 13.1523 51.9492 12.9897 52.0362 12.8061C52.0856 12.7001 52.1327 12.5876 52.1774 12.4685C52.2755 12.2044 52.3492 11.9318 52.3974 11.6542C52.4798 11.1442 52.4862 10.6248 52.4164 10.113V10.1175ZM46.8791 5.12733L15.432 7.05013C15.4027 7.05202 15.3732 7.04786 15.3456 7.03792C15.3179 7.02797 15.2926 7.01245 15.2712 6.99232C15.2497 6.97219 15.2327 6.94788 15.221 6.92088C15.2094 6.89389 15.2034 6.86479 15.2035 6.83539C15.2031 6.76978 15.2176 6.70494 15.2458 6.6457C15.274 6.58646 15.3152 6.53435 15.3663 6.49325C16.8401 5.3317 18.41 4.29762 20.0591 3.40219C21.0185 2.88143 21.9458 2.43947 22.8224 2.0645C23.6783 1.69833 24.5873 1.47153 25.5149 1.3927C28.3255 1.15432 31.2938 0.981612 34.4039 0.902152C38.1366 0.806275 41.6722 0.85487 44.9852 1.00263C45.1192 1.00846 45.2506 1.04158 45.3713 1.09996C45.492 1.15834 45.5995 1.24075 45.6872 1.34214C46.4704 2.25311 47.0345 3.33141 47.3362 4.49427C47.3549 4.56645 47.3575 4.64187 47.3437 4.71516C47.3299 4.78844 47.3001 4.85778 47.2565 4.91824C47.2128 4.9787 47.1564 5.02878 47.0912 5.06492C47.0259 5.10106 46.9535 5.12237 46.8791 5.12733Z" fill="#171E29"/>
<path d="M28.7021 0.997247L27.0078 6.51151L29.3791 6.3631L29.7837 0.863281L28.7021 0.997247Z" fill="#171E29"/>
<path d="M40.2858 7.03392C40.3515 5.53009 39.8504 4.48923 38.8706 3.26975L36.6582 0.489301L37.6098 0.333008L39.6186 2.83304C40.6988 4.1773 41.2472 5.36592 41.1782 7.02407L40.2858 7.03392Z" fill="#171E29"/>
<path d="M13.9082 14.4819C14.1182 12.34 12.5521 10.4334 10.4102 10.2234C8.26835 10.0134 6.36176 11.5795 6.15175 13.7214C5.94173 15.8633 7.50783 17.7699 9.64971 17.9799C11.7916 18.1899 13.6982 16.6238 13.9082 14.4819Z" fill="#171E29"/>
<path d="M12.5268 14.393C12.6873 13.0139 11.6995 11.7659 10.3205 11.6053C8.94147 11.4448 7.6934 12.4326 7.53286 13.8116C7.37233 15.1907 8.36012 16.4387 9.73915 16.5993C11.1182 16.7598 12.3663 15.772 12.5268 14.393Z" fill="white"/>
<path d="M45.625 14.4819C45.835 12.34 44.2689 10.4334 42.127 10.2234C39.9851 10.0134 38.0786 11.5795 37.8685 13.7214C37.6585 15.8633 39.2246 17.7699 41.3665 17.9799C43.5084 18.1899 45.415 16.6238 45.625 14.4819Z" fill="#171E29"/>
<path d="M44.2456 14.393C44.4061 13.0139 43.4183 11.7659 42.0393 11.6053C40.6602 11.4448 39.4121 12.4326 39.2516 13.8116C39.0911 15.1907 40.0789 16.4387 41.4579 16.5993C42.8369 16.7598 44.085 15.772 44.2456 14.393Z" fill="white"/>
</g>
<defs>
<clipPath id="clip0">
<rect width="52.4646" height="18" fill="white"/>
</clipPath>
</defs>
</svg>
