<svg width="59" height="18" viewBox="0 0 59 18" fill="none" xmlns="http://www.w3.org/2000/svg">
<g clip-path="url(#clip0)">
<path d="M19.122 5.44861L26.5712 0.654297H39.8515L45.6703 3.44112V6.10033H19.041C19.041 6.10033 19.2023 5.44861 19.122 5.44861Z" fill="white"/>
<path d="M58.8366 11.4234C58.8223 11.2298 58.7018 11.1108 58.5226 11.1115C58.3792 11.1115 58.2358 11.1165 58.0924 11.1172C58.172 10.9624 58.4351 10.0504 58.4702 9.92852L58.4767 9.90056C58.5809 9.31726 58.6253 8.72485 58.6093 8.13253C58.6093 8.09669 58.6093 8.01925 58.6093 8.01925C58.6036 7.78696 58.5986 7.63281 58.5943 7.43923C58.5943 7.3618 58.5943 7.32309 58.5943 7.32309C58.5821 6.82121 58.5721 6.48998 58.5656 6.28349C58.5595 6.17837 58.515 6.07915 58.4406 6.00462C58.3662 5.93009 58.2671 5.88544 58.1619 5.87913L54.0753 5.47118L52.1624 5.23171L51.9832 5.20088C51.9631 5.20088 51.943 5.193 51.9237 5.18798C51.7836 5.15209 51.6468 5.10411 51.515 5.04459L45.1843 1.89785C44.3179 1.46468 43.4151 1.10864 42.4863 0.83388L42.3551 0.795881C41.4367 0.535481 40.4998 0.345178 39.5525 0.226615C37.5866 -0.0293401 36.5449 0.0272997 33.3702 5.52519e-05C31.2265 -0.014284 29.1946 0.0488085 27.2875 0.168541C26.4408 0.221596 25.6184 0.514116 24.8864 0.942141L17.4537 5.3156H17.4358L17.2852 5.39948C17.2375 5.42685 17.1879 5.45081 17.1368 5.47118H17.1024C16.9805 5.54861 16.8529 5.5357 16.7217 5.55076C16.7217 5.55076 3.2127 7.22701 1.47479 7.75398C1.2554 7.82066 1.07759 7.87801 0.972915 7.91673C0.867406 7.95888 0.774767 8.02792 0.704205 8.11697C0.633644 8.20602 0.587617 8.31199 0.5707 8.42434C0.567873 8.44116 0.566435 8.45818 0.566398 8.47524L0.501872 10.7279V10.743L0.224409 10.8491C0.161054 10.8741 0.106468 10.9173 0.0674547 10.9731C0.0284416 11.0289 0.00672738 11.095 0.00501872 11.1631L0 12.5253C0.0138452 12.7319 0.103161 12.926 0.250936 13.071L1.34788 14.1242L1.41958 14.1321C1.44423 14.1526 1.46445 14.1778 1.47903 14.2064C1.4936 14.2349 1.50222 14.2662 1.50437 14.2981C1.50651 14.3301 1.50214 14.3622 1.49151 14.3924C1.48088 14.4227 1.46421 14.4504 1.44252 14.474L1.29913 14.5837C1.25827 14.6318 1.19804 14.6798 1.19804 14.7429V15.0089C1.19842 15.094 1.23238 15.1754 1.29253 15.2356C1.35269 15.2958 1.43417 15.3297 1.51924 15.3301H4.65235C4.45131 14.6195 4.41935 13.8718 4.55904 13.1467C4.69872 12.4216 5.00617 11.7392 5.4568 11.1542C5.90742 10.5692 6.4887 10.0978 7.15415 9.77765C7.81959 9.45752 8.55072 9.29757 9.28905 9.3106C10.0274 9.32363 10.7524 9.50928 11.4061 9.8527C12.0599 10.1961 12.6242 10.6878 13.0539 11.2883C13.4836 11.8889 13.7667 12.5816 13.8807 13.3112C13.9948 14.0408 13.9364 14.787 13.7104 15.49L14.6984 15.5072L40.172 15.457L41.0574 15.4434C40.8397 14.7413 40.7884 13.9981 40.9079 13.2728C41.0273 12.5475 41.314 11.8599 41.7454 11.2647C42.1767 10.6695 42.7408 10.183 43.3929 9.8437C44.045 9.50442 44.7672 9.32174 45.5022 9.31014C46.2372 9.29853 46.9648 9.45832 47.6273 9.77684C48.2898 10.0954 48.869 10.5638 49.3189 11.1451C49.7689 11.7264 50.0772 12.4046 50.2194 13.1258C50.3617 13.847 50.334 14.5914 50.1385 15.3L50.6719 15.2914H57.9461C58.0609 15.2914 58.1419 15.148 58.1024 15.0397L57.9418 14.5794C57.9293 14.55 57.9271 14.5171 57.9354 14.4862C57.9437 14.4553 57.9621 14.428 57.9877 14.4088L58.0594 14.3744L58.7499 13.5965C58.8216 13.5248 58.8309 13.3757 58.8309 13.2717V12.2744L58.8366 11.4234ZM43.9238 4.52838L43.6457 4.99727C43.5411 5.16398 43.3955 5.30101 43.2227 5.39518C43.05 5.48935 42.8559 5.53749 42.6591 5.53499L20.5502 5.62604C20.5279 5.62831 20.5055 5.62294 20.4866 5.6108C20.4678 5.59866 20.4536 5.58047 20.4465 5.55923C20.4393 5.53798 20.4396 5.51493 20.4472 5.49385C20.4549 5.47277 20.4694 5.45492 20.4886 5.44322L26.3605 1.77525C26.798 1.50609 27.2964 1.35172 27.8094 1.32643C29.4685 1.23825 31.2121 1.18304 33.0332 1.18304C35.0909 1.1773 37.0482 1.23251 38.9044 1.33217C39.3732 1.35548 39.8295 1.49096 40.2351 1.72721L43.7109 3.77055C43.7755 3.80547 43.8324 3.85298 43.8783 3.91029C43.9242 3.96759 43.9582 4.03352 43.9782 4.10418C43.9982 4.17483 44.0038 4.24877 43.9947 4.32163C43.9856 4.3945 43.962 4.4648 43.9253 4.52838H43.9238Z" fill="#00A0E3"/>
<path d="M32.1209 0.942383C32.1209 1.00404 30.332 5.7919 30.332 5.7919H32.8615L33.7025 0.942383H32.1209Z" fill="#00A0E3"/>
<path d="M13.2589 14.4342C13.5534 12.1881 11.9713 10.1285 9.72522 9.83398C7.47913 9.53948 5.41956 11.1216 5.12505 13.3677C4.83054 15.6137 6.41262 17.6733 8.65872 17.9678C10.9048 18.2623 12.9644 16.6803 13.2589 14.4342Z" fill="#00A0E3"/>
<path d="M11.8289 14.1002C11.9403 12.6434 10.8495 11.3721 9.39262 11.2608C7.93576 11.1494 6.66448 12.2402 6.55315 13.6971C6.44182 15.1539 7.53259 16.4252 8.98945 16.5365C10.4463 16.6479 11.7176 15.5571 11.8289 14.1002Z" fill="white"/>
<path d="M49.6124 14.4342C49.9069 12.1881 48.3248 10.1285 46.0787 9.834C43.8326 9.53949 41.7731 11.1216 41.4786 13.3677C41.1841 15.6137 42.7661 17.6733 45.0122 17.9678C47.2583 18.2623 49.3179 16.6803 49.6124 14.4342Z" fill="#00A0E3"/>
<path d="M48.1785 14.1002C48.2899 12.6434 47.1991 11.3721 45.7422 11.2608C44.2854 11.1494 43.0141 12.2402 42.9028 13.6971C42.7914 15.1539 43.8822 16.4252 45.3391 16.5365C46.7959 16.6479 48.0672 15.5571 48.1785 14.1002Z" fill="white"/>
</g>
<defs>
<clipPath id="clip0">
<rect width="58.8366" height="18" fill="white"/>
</clipPath>
</defs>
</svg>
