<svg width="38" height="18" viewBox="0 0 38 18" fill="none" xmlns="http://www.w3.org/2000/svg">
<g clip-path="url(#clip0)">
<path d="M37.0078 10.703C36.8829 10.1754 36.7014 9.66279 36.4663 9.17416C36.1835 8.57861 35.9861 7.94618 35.8798 7.29553L35.5435 5.29112C35.4617 4.8057 35.3066 4.33555 35.0834 3.89678L33.6709 1.12155C33.5705 0.924887 33.4226 0.75635 33.2407 0.631164C33.0588 0.505978 32.8486 0.428088 32.629 0.404532C27.7171 -0.130938 22.7615 -0.130938 17.8495 0.404532C17.3679 0.457115 16.8976 0.58608 16.4565 0.786581C15.1638 1.37445 13.8172 2.0316 12.4289 2.76543C11.0843 3.47505 9.82046 4.1961 8.63866 4.91109C8.04786 5.26801 7.39722 5.51482 6.71833 5.63954C5.46345 5.87227 4.24305 6.2628 3.08618 6.80183C2.52496 7.06101 2.07163 7.50769 1.80417 8.06501C1.80417 8.07039 1.79946 8.0751 1.79744 8.07981C1.66101 8.37191 1.56789 8.68234 1.52099 9.0013C1.47584 9.29069 1.3552 9.56306 1.17123 9.79096C0.719607 10.3592 0.381214 11.0088 0.174407 11.7046C-0.145155 12.9268 -0.022956 14.2227 0.519462 15.3636H2.1055C1.95668 14.8127 1.92734 14.2363 2.01945 13.6732C2.11155 13.11 2.32297 12.573 2.63954 12.0982C2.9561 11.6234 3.3705 11.2217 3.85496 10.9202C4.33942 10.6186 4.88275 10.424 5.44853 10.3496C6.01431 10.2751 6.58947 10.3224 7.13547 10.4884C7.68147 10.6543 8.18569 10.9351 8.61434 11.3118C9.04298 11.6885 9.38616 12.1525 9.62085 12.6726C9.85555 13.1928 9.97635 13.7571 9.97516 14.3278C9.97516 14.6863 9.86821 15.1269 9.7801 15.4571C9.7801 15.4571 27.4646 15.4955 27.8554 15.4571C27.7209 15.0589 27.6496 14.7704 27.6496 14.3278C27.6633 13.2747 28.0912 12.2694 28.8407 11.5296C29.5902 10.7897 30.6009 10.3749 31.6541 10.3749C32.7072 10.3749 33.718 10.7897 34.4674 11.5296C35.2169 12.2694 35.6449 13.2747 35.6585 14.3278C35.658 14.4955 35.6472 14.6631 35.6262 14.8296L36.8665 14.7078C37.2632 13.4082 37.3119 12.0273 37.0078 10.703Z" fill="#00A0E3"/>
<path d="M12.3341 5.17835C12.2704 5.17872 12.2081 5.15963 12.1556 5.12363C12.103 5.08763 12.0627 5.03643 12.04 4.9769C12.0173 4.91736 12.0134 4.85232 12.0287 4.79047C12.044 4.72863 12.0778 4.67293 12.1256 4.63083C13.8913 3.06067 15.9395 1.84061 18.161 1.03567C20.8296 0.696109 23.5285 0.667669 26.2036 0.950922C26.4114 0.972731 26.6062 1.06277 26.7574 1.20697C26.9087 1.35117 27.0079 1.54142 27.0396 1.74798C27.1742 2.64481 27.3087 3.53894 27.4432 4.43039C27.4558 4.51431 27.4503 4.59996 27.4269 4.68154C27.4036 4.76313 27.363 4.83875 27.3079 4.90329C27.2528 4.96783 27.1845 5.01978 27.1076 5.05563C27.0306 5.09148 26.9469 5.11039 26.8621 5.11108L12.3341 5.17835Z" fill="white"/>
<path d="M9.57839 14.7262C9.74015 12.7629 8.27972 11.0402 6.31642 10.8785C4.35312 10.7167 2.63043 12.1772 2.46867 14.1405C2.30691 16.1037 3.76735 17.8264 5.73064 17.9882C7.69394 18.15 9.41664 16.6895 9.57839 14.7262Z" fill="#00A0E3"/>
<path d="M8.31124 14.6825C8.44937 13.4192 7.53724 12.2832 6.27395 12.145C5.01065 12.0069 3.87457 12.919 3.73644 14.1823C3.5983 15.4456 4.51043 16.5817 5.77373 16.7198C7.03703 16.858 8.17311 15.9458 8.31124 14.6825Z" fill="white"/>
<path d="M35.1389 14.7253C35.3007 12.762 33.8402 11.0393 31.877 10.8775C29.9137 10.7157 28.191 12.1762 28.0292 14.1395C27.8675 16.1028 29.3279 17.8255 31.2912 17.9872C33.2545 18.149 34.9772 16.6885 35.1389 14.7253Z" fill="#00A0E3"/>
<path d="M33.8698 14.6825C34.008 13.4192 33.0958 12.2832 31.8325 12.145C30.5692 12.0069 29.4332 12.919 29.295 14.1823C29.1569 15.4456 30.069 16.5817 31.3323 16.7198C32.5956 16.858 33.7317 15.9458 33.8698 14.6825Z" fill="white"/>
</g>
<defs>
<clipPath id="clip0">
<rect width="37.2074" height="18" fill="white"/>
</clipPath>
</defs>
</svg>
