<svg width="279" height="279" viewBox="0 0 279 279" fill="none" xmlns="http://www.w3.org/2000/svg">
<path d="M271.424 200.121H239.597V162.28C239.597 160.023 237.767 158.194 235.51 158.194H152.112C150.803 154.165 147.616 150.977 143.587 149.668V124.439H174.095C178.999 124.439 182.989 120.45 182.989 115.545V96.0125H225.553C235.955 96.0125 245.038 87.7324 245.107 76.5692C245.107 63.8714 235.196 53.3805 222.543 52.6858C222.027 52.6569 221.566 52.2248 221.47 51.6788C218.427 34.3333 199.983 23.9624 183.639 30.1069C182.971 30.3598 182.197 30.0802 181.948 29.4176C175.352 11.8221 158.293 0 139.5 0C120.707 0 103.648 11.8221 97.0511 29.4171C96.801 30.0835 96.0261 30.3571 95.3602 30.1069C79.0126 23.9624 60.5724 34.3339 57.529 51.6788C57.4331 52.2242 56.9727 52.6569 56.4566 52.6858C44.0657 53.3664 33.8609 63.557 33.8925 76.792C33.99 87.3902 42.7611 96.012 53.4459 96.012H96.0103V115.545C96.0103 120.449 100 124.439 104.905 124.439H135.413V149.668C131.384 150.977 128.196 154.164 126.887 158.193H43.4897C41.2321 158.193 39.4028 160.022 39.4028 162.28V200.121C33.3819 200.121 15.6954 200.121 8.8953 200.121C3.98992 200.121 0 204.111 0 209.016V270.105C0 275.01 3.98992 279 8.89476 279H78.0846C82.9889 279 86.9788 275.01 86.9788 270.105C86.9788 264.04 86.9788 213.982 86.9788 207.698C86.9788 203.52 83.5807 200.122 79.4033 200.122H47.5766V166.368H126.887C128.196 170.397 131.384 173.584 135.413 174.893V200.122C129.392 200.122 111.706 200.122 104.905 200.122C100.001 200.122 96.0109 204.112 96.0109 209.016V270.105C96.0109 275.01 100.001 279 104.905 279H129.964C132.221 279 134.051 277.171 134.051 274.913C134.051 272.655 132.221 270.826 129.964 270.826H104.905C104.508 270.826 104.185 270.503 104.185 270.105V209.016C104.185 208.618 104.508 208.295 104.905 208.295H121.321C121.581 208.295 121.822 208.436 121.949 208.663L128.572 220.425C130.145 223.22 133.115 224.956 136.323 224.956H174.095C174.492 224.956 174.815 225.279 174.815 225.677V270.105C174.815 270.502 174.492 270.826 174.095 270.826H149.036C146.779 270.826 144.949 272.655 144.949 274.913C144.949 277.17 146.779 278.999 149.036 278.999H174.095C178.999 278.999 182.989 275.01 182.989 270.105C182.989 264.04 182.989 213.981 182.989 207.697C182.989 203.52 179.591 200.121 175.414 200.121H143.587V174.893C147.616 173.584 150.803 170.396 152.112 166.367H231.423V200.121C225.402 200.121 207.715 200.121 200.915 200.121C196.011 200.121 192.021 204.111 192.021 209.016V270.105C192.021 275.01 196.011 278.999 200.915 278.999H270.105C275.01 278.999 279 275.01 279 270.105V254.688C279 252.431 277.171 250.601 274.913 250.601C272.655 250.601 270.826 252.431 270.826 254.688V270.105C270.826 270.502 270.503 270.826 270.105 270.826H200.915C200.518 270.826 200.194 270.502 200.194 270.105V209.016C200.194 208.618 200.518 208.295 200.915 208.295H217.331C217.591 208.295 217.831 208.436 217.959 208.663L224.581 220.425C226.155 223.22 229.124 224.956 232.332 224.956H270.105C270.502 224.956 270.826 225.279 270.826 225.677V235.616C270.826 237.874 272.655 239.703 274.913 239.703C277.17 239.703 278.999 237.874 278.999 235.616C278.999 227.234 278.999 215.975 278.999 207.697C279 203.52 275.602 200.121 271.424 200.121ZM78.805 270.105C78.805 270.503 78.4818 270.826 78.0846 270.826H8.89476C8.49751 270.826 8.17383 270.503 8.17383 270.105V209.016C8.17383 208.618 8.49751 208.295 8.89476 208.295H25.3105C25.5705 208.295 25.8108 208.436 25.9383 208.663L32.5607 220.425C34.1339 223.22 37.1037 224.956 40.3117 224.956H78.084C78.4813 224.956 78.8044 225.279 78.8044 225.677V270.105H78.805ZM78.805 208.295V216.811C78.5668 216.792 78.3271 216.782 78.0846 216.782H40.3122C40.0523 216.782 39.812 216.641 39.6845 216.415L35.1126 208.295H78.805ZM174.816 62.2502C174.578 62.2312 174.338 62.2214 174.095 62.2214H136.323C136.063 62.2214 135.822 62.0802 135.695 61.8541L131.123 53.7347H174.816V62.2502H174.816ZM96.0103 54.4557V87.8387H53.4459C47.3406 87.8387 42.0887 82.9823 42.0658 76.5692C42.0658 68.2101 48.5841 61.3043 56.9046 60.8465C61.1844 60.6117 64.8321 57.3503 65.5792 53.0912C67.7327 40.8185 80.9035 33.4048 92.4836 37.7582C97.3677 39.594 102.859 37.204 104.704 32.2872C110.112 17.8642 124.095 8.17383 139.5 8.17383C154.905 8.17383 168.888 17.8642 174.295 32.2877C176.136 37.1942 181.621 39.5978 186.516 37.7582C198.097 33.4026 211.268 40.8223 213.42 53.0901C214.166 57.3498 217.815 60.6122 222.095 60.8465C230.389 61.3026 236.995 68.1948 236.933 76.7168C236.876 82.8494 231.772 87.8381 225.554 87.8381H182.99C182.99 84.4231 182.99 56.8926 182.99 53.1364V53.1359C182.99 48.9585 179.592 45.5604 175.414 45.5604H104.905C100.001 45.5604 96.0103 49.5508 96.0103 54.4557ZM104.905 116.265C104.508 116.265 104.185 115.942 104.185 115.545C104.185 108.578 104.185 60.7784 104.185 54.4557C104.185 54.0584 104.508 53.7353 104.905 53.7353H121.321C121.581 53.7353 121.822 53.8764 121.949 54.1026L128.572 65.8652C130.145 68.6602 133.115 70.3957 136.323 70.3957H174.095C174.492 70.3957 174.815 70.7189 174.815 71.1161V115.545C174.815 115.942 174.492 116.265 174.095 116.265H104.905ZM174.816 208.295V216.811C174.578 216.792 174.338 216.782 174.095 216.782H136.323C136.063 216.782 135.822 216.641 135.695 216.415L131.123 208.295H174.816ZM139.5 167.366C136.696 167.366 134.414 165.085 134.414 162.28C134.414 159.476 136.696 157.195 139.5 157.195C142.304 157.195 144.586 159.476 144.586 162.28C144.586 165.085 142.304 167.366 139.5 167.366ZM270.826 216.811C270.588 216.792 270.348 216.782 270.105 216.782H232.333C232.073 216.782 231.833 216.641 231.705 216.415L227.133 208.295H270.826V216.811Z" fill="url(#paint0_linear_1883:1213)"/>
<defs>
<linearGradient id="paint0_linear_1883:1213" x1="4.27435e-05" y1="279" x2="279" y2="279" gradientUnits="userSpaceOnUse">
<stop stop-color="#76C5FF"/>
<stop offset="1" stop-color="#1F83CB"/>
</linearGradient>
</defs>
</svg>
