<svg width="140" height="140" viewBox="0 0 140 140" fill="none" xmlns="http://www.w3.org/2000/svg">
<g clip-path="url(#clip0_1883:981)">
<path d="M79.7585 104.679H29.3045V95.0591C29.3045 93.9265 28.3863 93.0083 27.2537 93.0083C26.1211 93.0083 25.2029 93.9265 25.2029 95.0591V105.171C25.2029 107.161 26.8225 108.781 28.8136 108.781H41.0601V121.667C41.0601 121.857 40.9056 122.011 40.7158 122.011H30.4934V119.981C30.4934 117.487 28.4645 115.458 25.9704 115.458H17.8083C15.3143 115.458 13.2852 117.487 13.2852 119.981V128.143C13.2852 130.637 15.3141 132.667 17.8083 132.667H25.9704C28.4645 132.667 30.4934 130.638 30.4934 128.143V126.113H40.7158C43.1672 126.113 45.1616 124.119 45.1616 121.667V108.781H67.9485V122.792H65.9182C63.4242 122.792 61.395 124.821 61.395 127.316V135.478C61.395 137.972 63.4239 140.001 65.9182 140.001H74.0803C76.5743 140.001 78.6035 137.972 78.6035 135.478V127.316C78.6035 124.822 76.5746 122.792 74.0803 122.792H72.05V108.781H79.7585C80.8911 108.781 81.8093 107.863 81.8093 106.73C81.8093 105.598 80.8911 104.679 79.7585 104.679ZM26.3918 128.143C26.3918 128.376 26.2029 128.565 25.9704 128.565H17.8083C17.5759 128.565 17.3867 128.376 17.3867 128.143V119.981C17.3867 119.749 17.5757 119.56 17.8083 119.56H25.9704C26.2029 119.56 26.3918 119.749 26.3918 119.981V128.143ZM74.08 126.894C74.3127 126.894 74.5017 127.083 74.5017 127.316V135.478C74.5017 135.71 74.3127 135.899 74.08 135.899H65.9179C65.6855 135.899 65.4963 135.71 65.4963 135.478V127.316C65.4963 127.083 65.6852 126.894 65.9179 126.894H74.08Z" fill="url(#paint0_linear_1883:981)"/>
<path d="M80.0155 37.9033H38.7227C37.5901 37.9033 36.6719 38.8215 36.6719 39.9541C36.6719 41.0867 37.5901 42.0049 38.7227 42.0049H80.0155C81.148 42.0049 82.0662 41.0867 82.0662 39.9541C82.0662 38.8215 81.148 37.9033 80.0155 37.9033Z" fill="url(#paint1_linear_1883:981)"/>
<path d="M88.6914 37.5518C87.5588 37.5518 86.6406 38.47 86.6406 39.6025V39.8265C86.6406 40.9593 87.5588 41.8773 88.6914 41.8773C89.824 41.8773 90.7422 40.9591 90.7422 39.8265V39.6025C90.7422 38.47 89.824 37.5518 88.6914 37.5518Z" fill="url(#paint2_linear_1883:981)"/>
<path d="M94.9844 37.5518C93.8518 37.5518 92.9336 38.47 92.9336 39.6025V39.8265C92.9336 40.9593 93.8518 41.8773 94.9844 41.8773C96.1169 41.8773 97.0351 40.9591 97.0351 39.8265V39.6025C97.0351 38.47 96.1169 37.5518 94.9844 37.5518Z" fill="url(#paint3_linear_1883:981)"/>
<path d="M101.277 37.5518C100.145 37.5518 99.2266 38.47 99.2266 39.6025V39.8265C99.2266 40.9593 100.145 41.8773 101.277 41.8773C102.41 41.8773 103.328 40.9591 103.328 39.8265V39.6025C103.328 38.47 102.41 37.5518 101.277 37.5518Z" fill="url(#paint4_linear_1883:981)"/>
<path d="M122.19 7.3351H114.028C111.534 7.3351 109.505 9.36401 109.505 11.8583V13.8886H99.283C96.8316 13.8886 94.8372 15.883 94.8372 18.3344V31.2212H72.05V17.2092H74.0803C76.5743 17.2092 78.6035 15.1803 78.6035 12.686V4.5239C78.6032 2.02988 76.5743 0.000976562 74.0803 0.000976562H65.9182C63.4242 0.000976562 61.395 2.02988 61.395 4.52417V12.6863C61.395 15.1803 63.4239 17.2095 65.9182 17.2095H67.9485V31.2215H45.1616V18.3344C45.1616 15.883 43.1672 13.8886 40.7158 13.8886H30.4934V11.8583C30.4934 9.36428 28.4645 7.3351 25.9704 7.3351H17.8084C15.3143 7.3351 13.2852 9.36401 13.2852 11.8583V20.0204C13.2852 22.5144 15.3141 24.5436 17.8084 24.5436H25.9704C28.4645 24.5436 30.4934 22.5147 30.4934 20.0204V17.9901H40.7158C40.9056 17.9901 41.0601 18.1446 41.0601 18.3344V31.2212H30.6662C27.6537 31.2212 25.2029 33.672 25.2029 36.6842V86.6871C25.2029 87.8196 26.1211 88.7378 27.2537 88.7378C28.3863 88.7378 29.3045 87.8196 29.3045 86.6871V48.2082H110.693V56.4269C110.693 57.5595 111.611 58.4777 112.743 58.4777C113.876 58.4777 114.794 57.5595 114.794 56.4269V36.6842C114.794 33.6717 112.343 31.2212 109.331 31.2212H98.9385V18.3344C98.9385 18.1446 99.093 17.9901 99.2827 17.9901H109.505V20.0204C109.505 22.5144 111.534 24.5436 114.028 24.5436H122.19C124.684 24.5436 126.713 22.5147 126.713 20.0204V11.8583C126.713 9.36428 124.684 7.3351 122.19 7.3351ZM26.3918 20.0201C26.3918 20.2525 26.2029 20.4418 25.9704 20.4418H17.8084C17.5759 20.4418 17.3867 20.2528 17.3867 20.0201V11.858C17.3867 11.6256 17.5757 11.4364 17.8084 11.4364H25.9704C26.2029 11.4364 26.3918 11.6253 26.3918 11.858V20.0201ZM65.9185 13.1076C65.6858 13.1076 65.4969 12.9184 65.4969 12.686V4.5239C65.4969 4.29148 65.6858 4.10226 65.9185 4.10226H74.0806C74.313 4.10226 74.5022 4.2912 74.5022 4.5239V12.686C74.5022 12.9184 74.3133 13.1076 74.0806 13.1076H65.9185ZM109.331 35.3227C110.082 35.3227 110.693 35.9336 110.693 36.6842V44.1066H29.3045V36.6842C29.3045 35.9333 29.9153 35.3227 30.6662 35.3227H109.331ZM122.612 20.0201C122.612 20.2525 122.423 20.4418 122.19 20.4418H114.028C113.796 20.4418 113.607 20.2528 113.607 20.0201V11.858C113.607 11.6256 113.796 11.4364 114.028 11.4364H122.19C122.423 11.4364 122.612 11.6253 122.612 11.858V20.0201Z" fill="url(#paint5_linear_1883:981)"/>
<path d="M122.192 115.457H114.03C111.536 115.457 109.507 117.486 109.507 119.98V122.011H99.2849C99.0952 122.011 98.9407 121.856 98.9407 121.666V108.78H111.186C113.177 108.78 114.797 107.161 114.797 105.17V64.7978C114.797 63.6653 113.879 62.7471 112.746 62.7471C111.613 62.7471 110.695 63.6653 110.695 64.7978V104.679H88.1328C87.0002 104.679 86.082 105.597 86.082 106.729C86.082 107.862 87.0002 108.78 88.1328 108.78H94.8391V121.666C94.8391 124.118 96.8336 126.112 99.2849 126.112H109.507V128.143C109.507 130.637 111.536 132.666 114.03 132.666H122.192C124.686 132.666 126.716 130.637 126.716 128.143V119.98C126.715 117.486 124.686 115.457 122.192 115.457ZM122.614 128.142C122.614 128.375 122.425 128.564 122.192 128.564H114.03C113.798 128.564 113.609 128.375 113.609 128.142V119.98C113.609 119.748 113.798 119.559 114.03 119.559H122.192C122.425 119.559 122.614 119.747 122.614 119.98V128.142Z" fill="url(#paint6_linear_1883:981)"/>
<path d="M44.0761 75.7489L51.7446 68.0804C52.5455 67.2792 52.5455 65.9807 51.7446 65.1798C50.9437 64.3789 49.6451 64.3789 48.8445 65.1798L39.7257 74.2986C38.9248 75.0995 38.9248 76.3981 39.7257 77.1987L48.8445 86.3175C49.2448 86.7179 49.7698 86.9183 50.2946 86.9183C50.8193 86.9183 51.3443 86.7181 51.7446 86.3175C52.5455 85.5166 52.5455 84.2181 51.7446 83.4175L44.0761 75.7489Z" fill="url(#paint7_linear_1883:981)"/>
<path d="M100.276 74.2986L91.157 65.1798C90.3561 64.3789 89.0575 64.3789 88.2569 65.1798C87.456 65.9807 87.456 67.2792 88.2569 68.0798L95.9255 75.7484L88.2569 83.4169C87.456 84.2181 87.456 85.5166 88.2569 86.3175C88.6572 86.7179 89.1822 86.9183 89.707 86.9183C90.2317 86.9183 90.7567 86.7181 91.157 86.3175L100.276 77.1987C101.077 76.3978 101.077 75.0992 100.276 74.2986Z" fill="url(#paint8_linear_1883:981)"/>
<path d="M68.0875 66.0323C67.0884 65.4988 65.8462 65.8758 65.3124 66.8753L56.2187 83.9014C55.6853 84.9002 56.0626 86.1427 57.0617 86.6765C57.3694 86.8408 57.6999 86.9187 58.0261 86.9187C58.7587 86.9187 59.4674 86.5253 59.8368 85.8337L68.9305 68.8076C69.464 67.8085 69.0867 66.566 68.0875 66.0323Z" fill="url(#paint9_linear_1883:981)"/>
<path d="M69.4219 82.3838C68.2893 82.3838 67.3711 83.302 67.3711 84.4346V84.6416C67.3711 85.7741 68.2893 86.6923 69.4219 86.6923C70.5545 86.6923 71.4727 85.7741 71.4727 84.6416V84.4346C71.4727 83.302 70.5545 82.3838 69.4219 82.3838Z" fill="url(#paint10_linear_1883:981)"/>
<path d="M76.0977 82.3838C74.9651 82.3838 74.0469 83.302 74.0469 84.4346V84.6416C74.0469 85.7741 74.9651 86.6923 76.0977 86.6923C77.2302 86.6923 78.1484 85.7741 78.1484 84.6416V84.4346C78.1484 83.302 77.2302 82.3838 76.0977 82.3838Z" fill="url(#paint11_linear_1883:981)"/>
<path d="M82.7773 82.3838C81.6448 82.3838 80.7266 83.302 80.7266 84.4346V84.6416C80.7266 85.7741 81.6448 86.6923 82.7773 86.6923C83.9099 86.6923 84.8281 85.7741 84.8281 84.6416V84.4346C84.8281 83.302 83.9099 82.3838 82.7773 82.3838Z" fill="url(#paint12_linear_1883:981)"/>
</g>
<defs>
<linearGradient id="paint0_linear_1883:981" x1="13.2852" y1="140.001" x2="81.8093" y2="140.001" gradientUnits="userSpaceOnUse">
<stop stop-color="#76C5FF"/>
<stop offset="1" stop-color="#1F83CB"/>
</linearGradient>
<linearGradient id="paint1_linear_1883:981" x1="36.6719" y1="42.0049" x2="82.0662" y2="42.0049" gradientUnits="userSpaceOnUse">
<stop stop-color="#76C5FF"/>
<stop offset="1" stop-color="#1F83CB"/>
</linearGradient>
<linearGradient id="paint2_linear_1883:981" x1="86.6406" y1="41.8773" x2="90.7422" y2="41.8773" gradientUnits="userSpaceOnUse">
<stop stop-color="#76C5FF"/>
<stop offset="1" stop-color="#1F83CB"/>
</linearGradient>
<linearGradient id="paint3_linear_1883:981" x1="92.9336" y1="41.8773" x2="97.0351" y2="41.8773" gradientUnits="userSpaceOnUse">
<stop stop-color="#76C5FF"/>
<stop offset="1" stop-color="#1F83CB"/>
</linearGradient>
<linearGradient id="paint4_linear_1883:981" x1="99.2266" y1="41.8773" x2="103.328" y2="41.8773" gradientUnits="userSpaceOnUse">
<stop stop-color="#76C5FF"/>
<stop offset="1" stop-color="#1F83CB"/>
</linearGradient>
<linearGradient id="paint5_linear_1883:981" x1="13.2852" y1="88.7378" x2="126.713" y2="88.7378" gradientUnits="userSpaceOnUse">
<stop stop-color="#76C5FF"/>
<stop offset="1" stop-color="#1F83CB"/>
</linearGradient>
<linearGradient id="paint6_linear_1883:981" x1="86.082" y1="132.666" x2="126.716" y2="132.666" gradientUnits="userSpaceOnUse">
<stop stop-color="#76C5FF"/>
<stop offset="1" stop-color="#1F83CB"/>
</linearGradient>
<linearGradient id="paint7_linear_1883:981" x1="39.125" y1="86.9183" x2="52.3453" y2="86.9183" gradientUnits="userSpaceOnUse">
<stop stop-color="#76C5FF"/>
<stop offset="1" stop-color="#1F83CB"/>
</linearGradient>
<linearGradient id="paint8_linear_1883:981" x1="87.6563" y1="86.9183" x2="100.877" y2="86.9183" gradientUnits="userSpaceOnUse">
<stop stop-color="#76C5FF"/>
<stop offset="1" stop-color="#1F83CB"/>
</linearGradient>
<linearGradient id="paint9_linear_1883:981" x1="55.9766" y1="86.9187" x2="69.1727" y2="86.9187" gradientUnits="userSpaceOnUse">
<stop stop-color="#76C5FF"/>
<stop offset="1" stop-color="#1F83CB"/>
</linearGradient>
<linearGradient id="paint10_linear_1883:981" x1="67.3711" y1="86.6923" x2="71.4727" y2="86.6923" gradientUnits="userSpaceOnUse">
<stop stop-color="#76C5FF"/>
<stop offset="1" stop-color="#1F83CB"/>
</linearGradient>
<linearGradient id="paint11_linear_1883:981" x1="74.0469" y1="86.6923" x2="78.1484" y2="86.6923" gradientUnits="userSpaceOnUse">
<stop stop-color="#76C5FF"/>
<stop offset="1" stop-color="#1F83CB"/>
</linearGradient>
<linearGradient id="paint12_linear_1883:981" x1="80.7266" y1="86.6923" x2="84.8281" y2="86.6923" gradientUnits="userSpaceOnUse">
<stop stop-color="#76C5FF"/>
<stop offset="1" stop-color="#1F83CB"/>
</linearGradient>
<clipPath id="clip0_1883:981">
<rect width="140" height="140" fill="white" transform="translate(0 0.000976562)"/>
</clipPath>
</defs>
</svg>
