<?xml version="1.0" encoding="UTF-8" standalone="no"?><!-- Generator: Gravit.io --><svg xmlns="http://www.w3.org/2000/svg" xmlns:xlink="http://www.w3.org/1999/xlink" style="isolation:isolate" viewBox="661 438 140 140" width="140pt" height="140pt"><defs><clipPath id="_clipPath_pfE5emDzho3ydo1h08qlzbJiffexgv7G"><rect x="661" y="438" width="140" height="140"/></clipPath></defs><g clip-path="url(#_clipPath_pfE5emDzho3ydo1h08qlzbJiffexgv7G)"><clipPath id="_clipPath_BgXlfDA2MVZJEVtGlfeaZlRp88stMUS8"><rect x="661" y="438" width="140" height="140" transform="matrix(1,0,0,1,0,0)" fill="rgb(255,255,255)"/></clipPath><g clip-path="url(#_clipPath_BgXlfDA2MVZJEVtGlfeaZlRp88stMUS8)"><g><linearGradient id="_lgradient_28" x1="0" y1="1.0000000000000002" x2="1.0000000000000002" y2="1.0000000000000002" gradientTransform="matrix(68.524,0,0,46.993,674.285,531.007)" gradientUnits="userSpaceOnUse"><stop offset="0%" stop-opacity="1" style="stop-color:rgb(118,197,255)"/><stop offset="100%" stop-opacity="1" style="stop-color:rgb(31,131,203)"/></linearGradient><path d=" M 740.759 542.678 L 690.305 542.678 L 690.305 533.058 C 690.305 531.926 689.386 531.007 688.254 531.007 C 687.121 531.007 686.203 531.926 686.203 533.058 L 686.203 543.17 C 686.203 545.16 687.823 546.78 689.814 546.78 L 702.06 546.78 L 702.06 559.666 C 702.06 559.856 701.906 560.01 701.716 560.01 L 691.493 560.01 L 691.493 557.98 C 691.493 555.486 689.465 553.457 686.97 553.457 L 678.808 553.457 C 676.314 553.457 674.285 555.486 674.285 557.98 L 674.285 566.142 C 674.285 568.636 676.314 570.666 678.808 570.666 L 686.97 570.666 C 689.465 570.666 691.493 568.637 691.493 566.142 L 691.493 564.112 L 701.716 564.112 C 704.167 564.112 706.162 562.118 706.162 559.666 L 706.162 546.78 L 728.949 546.78 L 728.949 560.791 L 726.918 560.791 C 724.424 560.791 722.395 562.82 722.395 565.315 L 722.395 573.477 C 722.395 575.971 724.424 578 726.918 578 L 735.08 578 C 737.574 578 739.603 575.971 739.603 573.477 L 739.603 565.315 C 739.603 562.821 737.575 560.791 735.08 560.791 L 733.05 560.791 L 733.05 546.78 L 740.759 546.78 C 741.891 546.78 742.809 545.862 742.809 544.729 C 742.809 543.597 741.891 542.678 740.759 542.678 Z  M 687.392 566.142 C 687.392 566.375 687.203 566.564 686.97 566.564 L 678.808 566.564 C 678.576 566.564 678.387 566.375 678.387 566.142 L 678.387 557.98 C 678.387 557.748 678.576 557.559 678.808 557.559 L 686.97 557.559 C 687.203 557.559 687.392 557.748 687.392 557.98 L 687.392 566.142 Z  M 735.08 564.893 C 735.313 564.893 735.502 565.082 735.502 565.315 L 735.502 573.477 C 735.502 573.709 735.313 573.898 735.08 573.898 L 726.918 573.898 C 726.686 573.898 726.496 573.709 726.496 573.477 L 726.496 565.315 C 726.496 565.082 726.685 564.893 726.918 564.893 L 735.08 564.893 Z " fill="url(#_lgradient_28)"/><linearGradient id="_lgradient_29" x1="0" y1="1" x2="1" y2="1" gradientTransform="matrix(45.394,0,0,4.102,697.672,475.902)" gradientUnits="userSpaceOnUse"><stop offset="0%" stop-opacity="1" style="stop-color:rgb(118,197,255)"/><stop offset="100%" stop-opacity="1" style="stop-color:rgb(31,131,203)"/></linearGradient><path d=" M 741.016 475.902 L 699.723 475.902 C 698.59 475.902 697.672 476.821 697.672 477.953 C 697.672 479.086 698.59 480.004 699.723 480.004 L 741.016 480.004 C 742.148 480.004 743.066 479.086 743.066 477.953 C 743.066 476.821 742.148 475.902 741.016 475.902 Z " fill="url(#_lgradient_29)"/><linearGradient id="_lgradient_30" x1="0" y1="1" x2="1" y2="1" gradientTransform="matrix(4.102,0,0,4.325,747.641,475.551)" gradientUnits="userSpaceOnUse"><stop offset="0%" stop-opacity="1" style="stop-color:rgb(118,197,255)"/><stop offset="100%" stop-opacity="1" style="stop-color:rgb(31,131,203)"/></linearGradient><path d=" M 749.691 475.551 C 748.559 475.551 747.641 476.469 747.641 477.602 L 747.641 477.826 C 747.641 478.958 748.559 479.876 749.691 479.876 C 750.824 479.876 751.742 478.958 751.742 477.826 L 751.742 477.602 C 751.742 476.469 750.824 475.551 749.691 475.551 Z " fill="url(#_lgradient_30)"/><linearGradient id="_lgradient_31" x1="0" y1="1" x2="1" y2="1" gradientTransform="matrix(4.102,0,0,4.325,753.934,475.551)" gradientUnits="userSpaceOnUse"><stop offset="0%" stop-opacity="1" style="stop-color:rgb(118,197,255)"/><stop offset="100%" stop-opacity="1" style="stop-color:rgb(31,131,203)"/></linearGradient><path d=" M 755.984 475.551 C 754.852 475.551 753.934 476.469 753.934 477.602 L 753.934 477.826 C 753.934 478.958 754.852 479.876 755.984 479.876 C 757.117 479.876 758.035 478.958 758.035 477.826 L 758.035 477.602 C 758.035 476.469 757.117 475.551 755.984 475.551 Z " fill="url(#_lgradient_31)"/><linearGradient id="_lgradient_32" x1="0" y1="1" x2="1" y2="1" gradientTransform="matrix(4.101,0,0,4.325,760.227,475.551)" gradientUnits="userSpaceOnUse"><stop offset="0%" stop-opacity="1" style="stop-color:rgb(118,197,255)"/><stop offset="100%" stop-opacity="1" style="stop-color:rgb(31,131,203)"/></linearGradient><path d=" M 762.277 475.551 C 761.145 475.551 760.227 476.469 760.227 477.602 L 760.227 477.826 C 760.227 478.958 761.145 479.876 762.277 479.876 C 763.41 479.876 764.328 478.958 764.328 477.826 L 764.328 477.602 C 764.328 476.469 763.41 475.551 762.277 475.551 Z " fill="url(#_lgradient_32)"/><linearGradient id="_lgradient_33" x1="0" y1="1" x2="0.9999999999999999" y2="1" gradientTransform="matrix(113.428,0,0,88.737,674.285,438)" gradientUnits="userSpaceOnUse"><stop offset="0%" stop-opacity="1" style="stop-color:rgb(118,197,255)"/><stop offset="100%" stop-opacity="1" style="stop-color:rgb(31,131,203)"/></linearGradient><path d=" M 783.19 445.334 L 775.028 445.334 C 772.534 445.334 770.505 447.363 770.505 449.857 L 770.505 451.888 L 760.283 451.888 C 757.832 451.888 755.837 453.882 755.837 456.333 L 755.837 469.22 L 733.05 469.22 L 733.05 455.208 L 735.08 455.208 C 737.574 455.208 739.603 453.179 739.603 450.685 L 739.603 442.523 C 739.603 440.029 737.574 438 735.08 438 L 726.918 438 C 724.424 438 722.395 440.029 722.395 442.523 L 722.395 450.685 C 722.395 453.179 724.424 455.209 726.918 455.209 L 728.949 455.209 L 728.949 469.221 L 706.162 469.221 L 706.162 456.333 C 706.162 453.882 704.167 451.888 701.716 451.888 L 691.493 451.888 L 691.493 449.857 C 691.493 447.363 689.465 445.334 686.97 445.334 L 678.808 445.334 C 676.314 445.334 674.285 447.363 674.285 449.857 L 674.285 458.019 C 674.285 460.513 676.314 462.543 678.808 462.543 L 686.97 462.543 C 689.465 462.543 691.493 460.514 691.493 458.019 L 691.493 455.989 L 701.716 455.989 C 701.906 455.989 702.06 456.144 702.06 456.333 L 702.06 469.22 L 691.666 469.22 C 688.654 469.22 686.203 471.671 686.203 474.683 L 686.203 524.686 C 686.203 525.819 687.121 526.737 688.254 526.737 C 689.386 526.737 690.305 525.819 690.305 524.686 L 690.305 486.207 L 771.693 486.207 L 771.693 494.426 C 771.693 495.559 772.611 496.477 773.743 496.477 C 774.876 496.477 775.794 495.559 775.794 494.426 L 775.794 474.683 C 775.794 471.671 773.343 469.22 770.331 469.22 L 759.939 469.22 L 759.939 456.333 C 759.939 456.144 760.093 455.989 760.283 455.989 L 770.505 455.989 L 770.505 458.019 C 770.505 460.513 772.534 462.543 775.028 462.543 L 783.19 462.543 C 785.684 462.543 787.713 460.514 787.713 458.019 L 787.713 449.857 C 787.713 447.363 785.684 445.334 783.19 445.334 Z  M 687.392 458.019 C 687.392 458.252 687.203 458.441 686.97 458.441 L 678.808 458.441 C 678.576 458.441 678.387 458.252 678.387 458.019 L 678.387 449.857 C 678.387 449.625 678.576 449.435 678.808 449.435 L 686.97 449.435 C 687.203 449.435 687.392 449.624 687.392 449.857 L 687.392 458.019 Z  M 726.919 451.107 C 726.686 451.107 726.497 450.917 726.497 450.685 L 726.497 442.523 C 726.497 442.291 726.686 442.101 726.919 442.101 L 735.081 442.101 C 735.313 442.101 735.502 442.29 735.502 442.523 L 735.502 450.685 C 735.502 450.917 735.313 451.107 735.081 451.107 L 726.919 451.107 Z  M 770.331 473.322 C 771.082 473.322 771.693 473.933 771.693 474.683 L 771.693 482.106 L 690.305 482.106 L 690.305 474.683 C 690.305 473.932 690.915 473.322 691.666 473.322 L 770.331 473.322 Z  M 783.612 458.019 C 783.612 458.252 783.423 458.441 783.19 458.441 L 775.028 458.441 C 774.796 458.441 774.607 458.252 774.607 458.019 L 774.607 449.857 C 774.607 449.625 774.796 449.435 775.028 449.435 L 783.19 449.435 C 783.423 449.435 783.612 449.624 783.612 449.857 L 783.612 458.019 Z " fill="url(#_lgradient_33)"/><linearGradient id="_lgradient_34" x1="0" y1="0.9999999999999999" x2="1" y2="0.9999999999999999" gradientTransform="matrix(40.634,0,0,69.919,747.082,500.746)" gradientUnits="userSpaceOnUse"><stop offset="0%" stop-opacity="1" style="stop-color:rgb(118,197,255)"/><stop offset="100%" stop-opacity="1" style="stop-color:rgb(31,131,203)"/></linearGradient><path d=" M 783.192 553.456 L 775.03 553.456 C 772.536 553.456 770.507 555.485 770.507 557.979 L 770.507 560.01 L 760.285 560.01 C 760.095 560.01 759.941 559.855 759.941 559.665 L 759.941 546.779 L 772.186 546.779 C 774.177 546.779 775.797 545.16 775.797 543.169 L 775.797 502.797 C 775.797 501.664 774.879 500.746 773.746 500.746 C 772.613 500.746 771.695 501.664 771.695 502.797 L 771.695 542.678 L 749.133 542.678 C 748 542.678 747.082 543.596 747.082 544.728 C 747.082 545.861 748 546.779 749.133 546.779 L 755.839 546.779 L 755.839 559.665 C 755.839 562.117 757.834 564.111 760.285 564.111 L 770.507 564.111 L 770.507 566.142 C 770.507 568.636 772.536 570.665 775.03 570.665 L 783.192 570.665 C 785.686 570.665 787.716 568.636 787.716 566.142 L 787.716 557.979 C 787.715 555.485 785.686 553.456 783.192 553.456 Z  M 783.614 566.141 C 783.614 566.374 783.425 566.563 783.192 566.563 L 775.03 566.563 C 774.798 566.563 774.609 566.374 774.609 566.141 L 774.609 557.979 C 774.609 557.747 774.798 557.558 775.03 557.558 L 783.192 557.558 C 783.425 557.558 783.614 557.746 783.614 557.979 L 783.614 566.141 Z " fill="url(#_lgradient_34)"/><linearGradient id="_lgradient_35" x1="-0.0000018910383685621923" y1="1" x2="1.0000018910383695" y2="1" gradientTransform="matrix(13.22,0,0,22.339,700.125,502.578)" gradientUnits="userSpaceOnUse"><stop offset="0%" stop-opacity="1" style="stop-color:rgb(118,197,255)"/><stop offset="100%" stop-opacity="1" style="stop-color:rgb(31,131,203)"/></linearGradient><path d=" M 705.076 513.748 L 712.745 506.079 C 713.546 505.278 713.546 503.98 712.745 503.179 C 711.944 502.378 710.645 502.378 709.845 503.179 L 700.726 512.298 C 699.925 513.099 699.925 514.397 700.726 515.198 L 709.845 524.317 C 710.245 524.717 710.77 524.917 711.295 524.917 C 711.819 524.917 712.344 524.717 712.745 524.317 C 713.546 523.516 713.546 522.217 712.745 521.417 L 705.076 513.748 Z " fill="url(#_lgradient_35)"/><linearGradient id="_lgradient_36" x1="0.000005672997100525379" y1="1" x2="1.0000189099903363" y2="1" gradientTransform="matrix(13.221,0,0,22.339,748.656,502.578)" gradientUnits="userSpaceOnUse"><stop offset="0%" stop-opacity="1" style="stop-color:rgb(118,197,255)"/><stop offset="100%" stop-opacity="1" style="stop-color:rgb(31,131,203)"/></linearGradient><path d=" M 761.276 512.298 L 752.157 503.179 C 751.356 502.378 750.058 502.378 749.257 503.179 C 748.456 503.98 748.456 505.278 749.257 506.079 L 756.926 513.747 L 749.257 521.416 C 748.456 522.217 748.456 523.516 749.257 524.317 C 749.657 524.717 750.182 524.917 750.707 524.917 C 751.232 524.917 751.757 524.717 752.157 524.317 L 761.276 515.198 C 762.077 514.397 762.077 513.098 761.276 512.298 Z " fill="url(#_lgradient_36)"/><linearGradient id="_lgradient_37" x1="0.0000018800528600593225" y1="1" x2="1.0000008533900937" y2="1" gradientTransform="matrix(13.196,0,0,21.129,716.977,503.789)" gradientUnits="userSpaceOnUse"><stop offset="0%" stop-opacity="1" style="stop-color:rgb(118,197,255)"/><stop offset="100%" stop-opacity="1" style="stop-color:rgb(31,131,203)"/></linearGradient><path d=" M 729.088 504.031 C 728.088 503.498 726.846 503.875 726.312 504.874 L 717.219 521.9 C 716.685 522.899 717.063 524.142 718.062 524.676 C 718.369 524.84 718.7 524.918 719.026 524.918 C 719.759 524.918 720.467 524.524 720.837 523.833 L 729.93 506.807 C 730.464 505.808 730.087 504.565 729.088 504.031 Z " fill="url(#_lgradient_37)"/><linearGradient id="_lgradient_38" x1="0" y1="0.9999999999999964" x2="1" y2="0.9999999999999964" gradientTransform="matrix(4.102,0,0,4.309,728.371,520.383)" gradientUnits="userSpaceOnUse"><stop offset="0%" stop-opacity="1" style="stop-color:rgb(118,197,255)"/><stop offset="100%" stop-opacity="1" style="stop-color:rgb(31,131,203)"/></linearGradient><path d=" M 730.422 520.383 C 729.289 520.383 728.371 521.301 728.371 522.434 L 728.371 522.641 C 728.371 523.773 729.289 524.691 730.422 524.691 C 731.555 524.691 732.473 523.773 732.473 522.641 L 732.473 522.434 C 732.473 521.301 731.555 520.383 730.422 520.383 Z " fill="url(#_lgradient_38)"/><linearGradient id="_lgradient_39" x1="0" y1="1" x2="1" y2="1" gradientTransform="matrix(4.102,0,0,4.309,735.047,520.383)" gradientUnits="userSpaceOnUse"><stop offset="0%" stop-opacity="1" style="stop-color:rgb(118,197,255)"/><stop offset="100%" stop-opacity="1" style="stop-color:rgb(31,131,203)"/></linearGradient><path d=" M 737.098 520.383 C 735.965 520.383 735.047 521.301 735.047 522.434 L 735.047 522.641 C 735.047 523.773 735.965 524.691 737.098 524.691 C 738.23 524.691 739.148 523.773 739.148 522.641 L 739.148 522.434 C 739.148 521.301 738.23 520.383 737.098 520.383 Z " fill="url(#_lgradient_39)"/><linearGradient id="_lgradient_40" x1="0" y1="1" x2="1" y2="1" gradientTransform="matrix(4.102,0,0,4.309,741.727,520.383)" gradientUnits="userSpaceOnUse"><stop offset="0%" stop-opacity="1" style="stop-color:rgb(118,197,255)"/><stop offset="100%" stop-opacity="1" style="stop-color:rgb(31,131,203)"/></linearGradient><path d=" M 743.777 520.383 C 742.645 520.383 741.727 521.301 741.727 522.434 L 741.727 522.641 C 741.727 523.773 742.645 524.691 743.777 524.691 C 744.91 524.691 745.828 523.773 745.828 522.641 L 745.828 522.434 C 745.828 521.301 744.91 520.383 743.777 520.383 Z " fill="url(#_lgradient_40)"/></g></g></g></svg>