<?xml version="1.0" encoding="UTF-8" standalone="no"?><!-- Generator: Gravit.io --><svg xmlns="http://www.w3.org/2000/svg" xmlns:xlink="http://www.w3.org/1999/xlink" style="isolation:isolate" viewBox="746 416 140 130.988" width="140pt" height="130.988pt"><defs><clipPath id="_clipPath_dmUIU5Mad0TW8eNahlgtpGTQybybrvnF"><rect x="746" y="416" width="140" height="130.988"/></clipPath></defs><g clip-path="url(#_clipPath_dmUIU5Mad0TW8eNahlgtpGTQybybrvnF)"><g><linearGradient id="_lgradient_9" x1="0" y1="1" x2="1" y2="1" gradientTransform="matrix(58.728,0,0,58.756,770.832,443.12)" gradientUnits="userSpaceOnUse"><stop offset="0%" stop-opacity="1" style="stop-color:rgb(118,197,255)"/><stop offset="100%" stop-opacity="1" style="stop-color:rgb(31,131,203)"/></linearGradient><path d=" M 825.041 463.459 L 823.332 463.459 C 823.222 463.156 823.084 462.825 822.946 462.522 L 824.159 461.309 C 825.923 459.545 825.923 456.679 824.159 454.915 L 817.765 448.522 C 816.001 446.758 813.135 446.758 811.371 448.522 L 810.159 449.734 C 809.856 449.597 809.525 449.459 809.222 449.348 L 809.222 447.64 C 809.222 445.16 807.182 443.12 804.702 443.12 L 795.663 443.12 C 793.182 443.12 791.143 445.132 791.143 447.64 L 791.143 449.348 C 790.84 449.459 790.509 449.597 790.206 449.734 L 788.993 448.522 C 787.23 446.758 784.364 446.758 782.6 448.522 L 776.206 454.915 C 774.442 456.679 774.442 459.545 776.206 461.309 L 777.446 462.522 C 777.308 462.825 777.171 463.156 777.06 463.459 L 775.352 463.459 C 772.871 463.459 770.832 465.471 770.832 467.978 L 770.832 477.018 C 770.832 479.498 772.871 481.537 775.352 481.537 L 777.06 481.537 C 777.171 481.841 777.308 482.171 777.446 482.474 L 776.234 483.687 C 774.47 485.451 774.47 488.317 776.234 490.081 L 782.627 496.474 C 784.391 498.238 787.257 498.238 789.021 496.474 L 790.234 495.262 C 790.537 495.4 790.868 495.537 791.171 495.648 L 791.171 497.356 C 791.171 499.837 793.21 501.876 795.69 501.876 L 804.702 501.876 C 807.182 501.876 809.222 499.864 809.222 497.356 L 809.222 495.648 C 809.525 495.537 809.856 495.4 810.159 495.262 L 811.371 496.474 C 813.135 498.238 816.001 498.238 817.765 496.474 L 824.159 490.081 C 825.923 488.317 825.923 485.451 824.159 483.687 L 822.946 482.474 C 823.084 482.171 823.222 481.841 823.332 481.537 L 825.041 481.537 C 827.521 481.537 829.56 479.526 829.56 477.018 L 829.56 467.978 C 829.56 465.498 827.521 463.459 825.041 463.459 Z  M 825.013 476.99 L 820.053 476.99 L 819.556 478.561 C 819.226 479.663 818.757 480.766 818.179 481.841 L 817.407 483.301 L 820.907 486.801 L 814.513 493.195 L 811.041 489.723 L 809.58 490.494 C 808.478 491.073 807.375 491.514 806.301 491.872 L 804.73 492.368 L 804.73 497.329 L 795.69 497.329 L 795.69 492.368 L 794.119 491.872 C 793.017 491.541 791.915 491.073 790.84 490.494 L 789.379 489.723 L 785.852 493.25 L 779.458 486.856 L 782.958 483.356 L 782.186 481.896 C 781.608 480.793 781.139 479.691 780.808 478.616 L 780.312 477.045 L 775.352 477.045 L 775.352 468.006 L 780.312 468.006 L 780.808 466.435 C 781.139 465.333 781.608 464.23 782.186 463.156 L 782.958 461.695 L 779.458 458.195 L 785.824 451.719 L 789.324 455.246 L 790.785 454.474 C 791.887 453.896 792.99 453.455 794.064 453.097 L 795.635 452.6 L 795.635 447.64 L 804.702 447.64 L 804.702 452.6 L 806.273 453.097 C 807.375 453.427 808.478 453.896 809.553 454.474 L 811.013 455.246 L 814.513 451.746 L 820.907 458.14 L 817.407 461.64 L 818.179 463.1 C 818.757 464.203 819.226 465.305 819.556 466.38 L 820.053 467.951 L 825.013 467.951 L 825.013 476.99 Z " fill="url(#_lgradient_9)"/><linearGradient id="_lgradient_10" x1="0" y1="1" x2="0.9999999999999998" y2="1" gradientTransform="matrix(31.638,0,0,31.638,784.363,456.652)" gradientUnits="userSpaceOnUse"><stop offset="0%" stop-opacity="1" style="stop-color:rgb(118,197,255)"/><stop offset="100%" stop-opacity="1" style="stop-color:rgb(31,131,203)"/></linearGradient><path d=" M 800.182 456.652 C 791.446 456.652 784.363 463.734 784.363 472.471 C 784.363 481.207 791.474 488.289 800.182 488.289 C 808.891 488.289 816.001 481.207 816.001 472.471 C 816.001 463.734 808.918 456.652 800.182 456.652 Z  M 800.182 483.797 C 793.954 483.797 788.883 478.726 788.883 472.498 C 788.883 466.27 793.981 461.199 800.182 461.199 C 806.411 461.199 811.481 466.27 811.481 472.498 C 811.481 478.726 806.411 483.797 800.182 483.797 Z " fill="url(#_lgradient_10)"/><linearGradient id="_lgradient_11" x1="0" y1="1" x2="1" y2="1" gradientTransform="matrix(18.079,0,0,18.079,831.793,427.301)" gradientUnits="userSpaceOnUse"><stop offset="0%" stop-opacity="1" style="stop-color:rgb(118,197,255)"/><stop offset="100%" stop-opacity="1" style="stop-color:rgb(31,131,203)"/></linearGradient><path d=" M 840.832 427.301 C 835.844 427.301 831.793 431.352 831.793 436.34 C 831.793 441.329 835.872 445.38 840.832 445.38 C 845.821 445.38 849.872 441.329 849.872 436.34 C 849.872 431.352 845.821 427.301 840.832 427.301 Z  M 840.832 440.86 C 838.352 440.86 836.313 438.848 836.313 436.34 C 836.313 433.833 838.352 431.821 840.832 431.821 C 843.313 431.821 845.352 433.833 845.352 436.34 C 845.352 438.848 843.313 440.86 840.832 440.86 Z " fill="url(#_lgradient_11)"/><linearGradient id="_lgradient_12" x1="1.5320285714285715e-7" y1="1" x2="1" y2="1" gradientTransform="matrix(140,0,0,130.988,746,416)" gradientUnits="userSpaceOnUse"><stop offset="0%" stop-opacity="1" style="stop-color:rgb(118,197,255)"/><stop offset="100%" stop-opacity="1" style="stop-color:rgb(31,131,203)"/></linearGradient><path d=" M 861.169 434.079 L 861.169 433.335 C 861.169 431.268 859.488 429.559 857.394 429.559 L 857.173 429.559 L 857.339 429.421 C 858.055 428.705 858.441 427.768 858.441 426.748 C 858.441 425.728 858.055 424.791 857.339 424.075 L 853.094 419.831 C 851.661 418.398 849.181 418.398 847.776 419.831 L 847.638 419.969 L 847.638 419.776 C 847.638 417.709 845.957 416 843.862 416 L 837.854 416 C 835.787 416 834.079 417.681 834.079 419.776 L 834.079 419.969 L 833.941 419.831 C 833.224 419.114 832.287 418.728 831.295 418.728 C 830.303 418.728 829.339 419.114 828.622 419.831 L 824.35 424.075 C 823.634 424.791 823.248 425.728 823.248 426.748 C 823.248 427.768 823.634 428.705 824.35 429.421 L 824.488 429.559 L 824.268 429.559 C 822.201 429.559 820.492 431.24 820.492 433.335 L 820.492 434.079 L 746 434.079 L 746 528.909 L 788.909 528.909 L 788.909 542.468 L 770.831 542.468 L 770.831 546.988 L 788.882 546.988 L 843.063 546.988 L 861.114 546.988 L 861.114 542.468 L 843.063 542.468 L 843.063 528.909 L 886 528.909 L 886 434.079 L 861.169 434.079 Z  M 825.039 434.079 L 828.126 434.079 L 828.622 432.508 C 828.843 431.819 829.118 431.13 829.476 430.441 L 830.248 428.98 L 828.071 426.776 L 831.268 423.579 L 833.472 425.783 L 834.933 425.012 C 835.622 424.654 836.311 424.35 837 424.158 L 838.571 423.661 L 838.571 420.547 L 843.091 420.547 L 843.091 423.634 L 844.661 424.13 C 845.35 424.35 846.039 424.626 846.728 424.984 L 848.189 425.756 L 850.394 423.551 L 853.591 426.748 L 851.386 428.953 L 852.157 430.413 C 852.516 431.102 852.819 431.791 853.012 432.48 L 853.508 434.051 L 856.622 434.051 L 856.622 438.571 L 853.508 438.571 L 853.012 440.142 C 852.791 440.831 852.516 441.52 852.157 442.209 L 851.386 443.669 L 853.591 445.874 L 850.394 449.071 L 848.189 446.866 L 846.728 447.638 C 846.039 447.996 845.35 448.299 844.661 448.492 L 843.091 448.988 L 843.091 452.102 L 838.571 452.102 L 838.571 448.988 L 837 448.492 C 836.311 448.272 835.622 447.996 834.933 447.638 L 833.472 446.866 L 831.268 449.071 L 828.071 445.874 L 830.276 443.669 L 829.504 442.209 C 829.146 441.52 828.843 440.831 828.65 440.142 L 828.154 438.571 L 825.039 438.571 L 825.039 434.079 Z  M 838.598 542.468 L 838.571 542.468 L 793.429 542.468 L 793.429 528.909 L 838.598 528.909 L 838.598 542.468 Z  M 881.48 524.417 L 843.091 524.417 L 788.909 524.417 L 750.52 524.417 L 750.52 510.858 L 881.48 510.858 L 881.48 524.417 Z  M 881.48 506.366 L 750.52 506.366 L 750.52 438.598 L 820.52 438.598 L 820.52 439.343 C 820.52 441.409 822.201 443.118 824.295 443.118 L 824.488 443.118 L 824.35 443.256 C 823.634 443.972 823.248 444.909 823.248 445.929 C 823.248 446.949 823.634 447.886 824.35 448.602 L 828.622 452.874 C 830.055 454.28 832.535 454.28 833.941 452.874 L 834.079 452.736 L 834.079 452.929 C 834.079 454.996 835.76 456.705 837.854 456.705 L 843.862 456.705 C 845.929 456.705 847.638 455.024 847.638 452.929 L 847.638 452.736 L 847.776 452.874 C 849.209 454.307 851.689 454.307 853.094 452.874 L 857.339 448.63 C 858.055 447.913 858.441 446.976 858.441 445.957 C 858.441 444.965 858.055 444 857.339 443.283 L 857.201 443.146 L 857.394 443.146 C 859.461 443.146 861.169 441.465 861.169 439.37 L 861.169 438.626 L 881.48 438.626 L 881.48 506.366 Z " fill="url(#_lgradient_12)"/><linearGradient id="_lgradient_13" x1="0" y1="1" x2="1" y2="1" gradientTransform="matrix(4.52,0,0,4.519,813.742,515.379)" gradientUnits="userSpaceOnUse"><stop offset="0%" stop-opacity="1" style="stop-color:rgb(118,197,255)"/><stop offset="100%" stop-opacity="1" style="stop-color:rgb(31,131,203)"/></linearGradient><path d=" M 818.262 515.379 L 813.742 515.379 L 813.742 519.898 L 818.262 519.898 L 818.262 515.379 Z " fill="url(#_lgradient_13)"/><linearGradient id="_lgradient_14" x1="0.000022125362303171414" y1="1" x2="1" y2="1" gradientTransform="matrix(4.52,0,0,4.519,822.781,515.379)" gradientUnits="userSpaceOnUse"><stop offset="0%" stop-opacity="1" style="stop-color:rgb(118,197,255)"/><stop offset="100%" stop-opacity="1" style="stop-color:rgb(31,131,203)"/></linearGradient><path d=" M 827.301 515.379 L 822.781 515.379 L 822.781 519.898 L 827.301 519.898 L 827.301 515.379 Z " fill="url(#_lgradient_14)"/><linearGradient id="_lgradient_15" x1="0" y1="1" x2="1" y2="1" gradientTransform="matrix(4.52,0,0,4.519,804.699,515.379)" gradientUnits="userSpaceOnUse"><stop offset="0%" stop-opacity="1" style="stop-color:rgb(118,197,255)"/><stop offset="100%" stop-opacity="1" style="stop-color:rgb(31,131,203)"/></linearGradient><path d=" M 809.219 515.379 L 804.699 515.379 L 804.699 519.898 L 809.219 519.898 L 809.219 515.379 Z " fill="url(#_lgradient_15)"/><linearGradient id="_lgradient_16" x1="0" y1="1" x2="0.9999999999999998" y2="1" gradientTransform="matrix(15.819,0,0,4.52,757.301,445.379)" gradientUnits="userSpaceOnUse"><stop offset="0%" stop-opacity="1" style="stop-color:rgb(118,197,255)"/><stop offset="100%" stop-opacity="1" style="stop-color:rgb(31,131,203)"/></linearGradient><path d=" M 773.12 445.379 L 757.301 445.379 L 757.301 449.899 L 773.12 449.899 L 773.12 445.379 Z " fill="url(#_lgradient_16)"/><linearGradient id="_lgradient_17" x1="0" y1="1" x2="1" y2="1" gradientTransform="matrix(9.039,0,0,4.52,757.301,454.418)" gradientUnits="userSpaceOnUse"><stop offset="0%" stop-opacity="1" style="stop-color:rgb(118,197,255)"/><stop offset="100%" stop-opacity="1" style="stop-color:rgb(31,131,203)"/></linearGradient><path d=" M 766.34 454.418 L 757.301 454.418 L 757.301 458.938 L 766.34 458.938 L 766.34 454.418 Z " fill="url(#_lgradient_17)"/><linearGradient id="_lgradient_18" x1="0" y1="1" x2="1" y2="1" gradientTransform="matrix(15.819,0,0,4.52,856.648,495.07)" gradientUnits="userSpaceOnUse"><stop offset="0%" stop-opacity="1" style="stop-color:rgb(118,197,255)"/><stop offset="100%" stop-opacity="1" style="stop-color:rgb(31,131,203)"/></linearGradient><path d=" M 872.467 495.07 L 856.648 495.07 L 856.648 499.59 L 872.467 499.59 L 872.467 495.07 Z " fill="url(#_lgradient_18)"/><linearGradient id="_lgradient_19" x1="0" y1="1" x2="1" y2="1" gradientTransform="matrix(9.039,0,0,4.52,863.43,486.031)" gradientUnits="userSpaceOnUse"><stop offset="0%" stop-opacity="1" style="stop-color:rgb(118,197,255)"/><stop offset="100%" stop-opacity="1" style="stop-color:rgb(31,131,203)"/></linearGradient><path d=" M 872.469 486.031 L 863.43 486.031 L 863.43 490.551 L 872.469 490.551 L 872.469 486.031 Z " fill="url(#_lgradient_19)"/></g></g></svg>