<?xml version="1.0" encoding="UTF-8" standalone="no"?><!-- Generator: Gravit.io --><svg xmlns="http://www.w3.org/2000/svg" xmlns:xlink="http://www.w3.org/1999/xlink" style="isolation:isolate" viewBox="450 224 262.913 262.913" width="262.913pt" height="262.913pt"><defs><clipPath id="_clipPath_w09ZJoQqlYApU5E1O9GcXUbCgCRT1xPi"><rect x="450" y="224" width="262.913" height="262.913"/></clipPath></defs><g clip-path="url(#_clipPath_w09ZJoQqlYApU5E1O9GcXUbCgCRT1xPi)"><g><linearGradient id="_lgradient_0" x1="-0.5768844008002479" y1="22.80881302089966" x2="1.1068192705037925" y2="22.80881302089966" gradientTransform="matrix(156.152,0,0,11.307,540.081,229.006)" gradientUnits="userSpaceOnUse"><stop offset="0%" stop-opacity="1" style="stop-color:rgb(118,197,255)"/><stop offset="100%" stop-opacity="1" style="stop-color:rgb(31,131,203)"/></linearGradient><path d=" M 540.081 229.006 L 540.081 237.082 L 688.157 237.082 L 688.157 240.313 L 696.233 240.313 L 696.233 229.006 L 540.081 229.006 Z " fill="url(#_lgradient_0)"/><linearGradient id="_lgradient_1" x1="6.141367654382938e-7" y1="1.0000000000000004" x2="4.006565205837728" y2="1.0000000000000004" gradientTransform="matrix(65.621,0,0,69.987,450,416.926)" gradientUnits="userSpaceOnUse"><stop offset="0%" stop-opacity="1" style="stop-color:rgb(118,197,255)"/><stop offset="100%" stop-opacity="1" style="stop-color:rgb(31,131,203)"/></linearGradient><path d=" M 486.236 421.293 L 486.236 416.926 L 478.159 416.926 L 478.159 421.293 L 450 421.293 L 450 486.913 L 515.621 486.913 L 515.621 421.293 L 486.236 421.293 Z  M 507.544 478.836 L 458.077 478.836 L 458.077 429.37 L 507.544 429.37 L 507.544 478.836 Z " fill="url(#_lgradient_1)"/><linearGradient id="_lgradient_2" x1="-3.0065989362999064" y1="1" x2="1.0000000000000009" y2="1" gradientTransform="matrix(65.62,0,0,69.987,647.293,416.926)" gradientUnits="userSpaceOnUse"><stop offset="0%" stop-opacity="1" style="stop-color:rgb(118,197,255)"/><stop offset="100%" stop-opacity="1" style="stop-color:rgb(31,131,203)"/></linearGradient><path d=" M 683.849 421.293 L 683.849 416.926 L 675.772 416.926 L 675.772 421.293 L 647.293 421.293 L 647.293 486.913 L 712.913 486.913 L 712.913 421.293 L 683.849 421.293 Z  M 704.836 478.836 L 655.37 478.836 L 655.37 429.37 L 704.836 429.37 L 704.836 478.836 Z " fill="url(#_lgradient_2)"/><linearGradient id="_lgradient_3" x1="-1.5032843680185795" y1="1.0000000000000004" x2="2.5032779340633895" y2="1.0000000000000004" gradientTransform="matrix(65.621,0,0,69.987,548.646,416.926)" gradientUnits="userSpaceOnUse"><stop offset="0%" stop-opacity="1" style="stop-color:rgb(118,197,255)"/><stop offset="100%" stop-opacity="1" style="stop-color:rgb(31,131,203)"/></linearGradient><path d=" M 584.235 421.293 L 584.235 416.926 L 576.158 416.926 L 576.158 421.293 L 548.646 421.293 L 548.646 486.913 L 614.267 486.913 L 614.267 421.293 L 584.235 421.293 Z  M 606.19 478.836 L 556.723 478.836 L 556.723 429.37 L 606.19 429.37 L 606.19 478.836 Z " fill="url(#_lgradient_3)"/><linearGradient id="_lgradient_4" x1="-0.05175378549399039" y1="1.3899194365583523" x2="1.0517562106613347" y2="1.3899194365583523" gradientTransform="matrix(238.252,0,0,189.157,462.33,224)" gradientUnits="userSpaceOnUse"><stop offset="0%" stop-opacity="1" style="stop-color:rgb(118,197,255)"/><stop offset="100%" stop-opacity="1" style="stop-color:rgb(31,131,203)"/></linearGradient><path d=" M 700.582 388.267 L 700.582 244.551 L 536.171 244.551 L 536.17 224 L 462.33 224 L 462.33 388.267 L 576.157 388.267 L 576.157 397.542 L 478.159 397.542 L 478.159 413.157 L 486.236 413.157 L 486.236 405.619 L 576.158 405.619 L 576.158 413.157 L 584.234 413.157 L 584.234 405.619 L 675.771 405.619 L 675.771 413.157 L 683.848 413.157 L 683.848 397.542 L 584.234 397.542 L 584.234 388.267 L 700.582 388.267 Z  M 470.407 380.19 L 470.407 232.077 L 528.094 232.077 L 528.096 252.628 L 692.506 252.628 L 692.506 380.191 L 470.407 380.19 Z " fill="url(#_lgradient_4)"/><linearGradient id="_lgradient_5" x1="-0.9560690568783845" y1="2.4113019794358426" x2="1.9560588422289693" y2="2.4113019794358426" gradientTransform="matrix(90.282,0,0,90.283,536.316,269.213)" gradientUnits="userSpaceOnUse"><stop offset="0%" stop-opacity="1" style="stop-color:rgb(118,197,255)"/><stop offset="100%" stop-opacity="1" style="stop-color:rgb(31,131,203)"/></linearGradient><path d=" M 581.457 269.213 C 556.566 269.213 536.316 289.463 536.316 314.354 C 536.316 339.245 556.566 359.496 581.457 359.496 C 606.348 359.496 626.598 339.246 626.598 314.354 C 626.598 289.463 606.348 269.213 581.457 269.213 Z  M 581.457 351.419 C 561.02 351.419 544.393 334.792 544.393 314.354 C 544.393 293.917 561.019 277.29 581.457 277.29 C 601.894 277.29 618.522 293.916 618.522 314.354 C 618.522 334.792 601.894 351.419 581.457 351.419 Z " fill="url(#_lgradient_5)"/><linearGradient id="_lgradient_6" x1="-1.503284368018579" y1="3.129606912368659" x2="2.503277934063388" y2="3.129606912368659" gradientTransform="matrix(65.621,0,0,65.622,548.646,281.544)" gradientUnits="userSpaceOnUse"><stop offset="0%" stop-opacity="1" style="stop-color:rgb(118,197,255)"/><stop offset="100%" stop-opacity="1" style="stop-color:rgb(31,131,203)"/></linearGradient><path d=" M 581.457 281.544 C 563.365 281.544 548.646 296.262 548.646 314.354 C 548.646 332.447 563.365 347.165 581.457 347.165 C 599.549 347.165 614.267 332.447 614.267 314.354 C 614.267 296.262 599.548 281.544 581.457 281.544 Z  M 581.457 339.088 C 567.819 339.088 556.723 327.992 556.723 314.354 C 556.723 300.716 567.819 289.62 581.457 289.62 C 595.095 289.62 606.191 300.715 606.191 314.354 C 606.19 327.992 595.095 339.088 581.457 339.088 Z " fill="url(#_lgradient_6)"/><linearGradient id="_lgradient_7" x1="-2.9061517904337455" y1="6.306507225671739" x2="3.9061253044514697" y2="6.306507225671739" gradientTransform="matrix(38.594,0,0,29.118,562.16,303.278)" gradientUnits="userSpaceOnUse"><stop offset="0%" stop-opacity="1" style="stop-color:rgb(118,197,255)"/><stop offset="100%" stop-opacity="1" style="stop-color:rgb(31,131,203)"/></linearGradient><path d=" M 595.042 303.278 L 577.347 320.974 L 567.872 311.498 L 562.16 317.21 L 577.347 332.396 L 600.754 308.99 L 595.042 303.278 Z " fill="url(#_lgradient_7)"/><linearGradient id="_lgradient_8" x1="-3.5532719483960435" y1="30.464584184526245" x2="28.9979571370204" y2="30.464584184526245" gradientTransform="matrix(8.077,0,0,8.077,478.699,240.854)" gradientUnits="userSpaceOnUse"><stop offset="0%" stop-opacity="1" style="stop-color:rgb(118,197,255)"/><stop offset="100%" stop-opacity="1" style="stop-color:rgb(31,131,203)"/></linearGradient><path d=" M 486.776 240.854 L 478.699 240.854 L 478.699 248.931 L 486.776 248.931 L 486.776 240.854 Z " fill="url(#_lgradient_8)"/><linearGradient id="_lgradient_9" x1="-5.553271948396042" y1="30.464584184526245" x2="26.997957137020396" y2="30.464584184526245" gradientTransform="matrix(8.077,0,0,8.077,494.853,240.854)" gradientUnits="userSpaceOnUse"><stop offset="0%" stop-opacity="1" style="stop-color:rgb(118,197,255)"/><stop offset="100%" stop-opacity="1" style="stop-color:rgb(31,131,203)"/></linearGradient><path d=" M 502.93 240.854 L 494.853 240.854 L 494.853 248.931 L 502.93 248.931 L 502.93 240.854 Z " fill="url(#_lgradient_9)"/><linearGradient id="_lgradient_10" x1="-7.081418711549615" y1="30.464584184526245" x2="23.436633778293654" y2="30.464584184526245" gradientTransform="matrix(8.615,0,0,8.077,511.006,240.854)" gradientUnits="userSpaceOnUse"><stop offset="0%" stop-opacity="1" style="stop-color:rgb(118,197,255)"/><stop offset="100%" stop-opacity="1" style="stop-color:rgb(31,131,203)"/></linearGradient><path d=" M 519.621 240.854 L 511.006 240.854 L 511.006 248.931 L 519.621 248.931 L 519.621 240.854 Z " fill="url(#_lgradient_10)"/></g></g></svg>