<svg width="140" height="140" viewBox="0 0 140 140" fill="none" xmlns="http://www.w3.org/2000/svg">
<path d="M79.0407 51.9636H77.332C77.2218 51.6604 77.084 51.3297 76.9462 51.0266L78.1588 49.814C79.9226 48.0502 79.9226 45.1841 78.1588 43.4203L71.7651 37.0266C70.0013 35.2628 67.1352 35.2628 65.3714 37.0266L64.1588 38.2392C63.8557 38.1014 63.5249 37.9636 63.2218 37.8533V36.1447C63.2218 33.6644 61.1824 31.625 58.7021 31.625H49.6627C47.1824 31.625 45.1431 33.6368 45.1431 36.1447V37.8533C44.8399 37.9636 44.5092 38.1014 44.206 38.2392L42.9934 37.0266C41.2297 35.2628 38.3635 35.2628 36.5997 37.0266L30.206 43.4203C28.4423 45.1841 28.4423 48.0502 30.206 49.814L31.4462 51.0266C31.3084 51.3297 31.1706 51.6604 31.0604 51.9636H29.3517C26.8714 51.9636 24.832 53.9754 24.832 56.4833V65.5226C24.832 68.003 26.8714 70.0423 29.3517 70.0423H31.0604C31.1706 70.3455 31.3084 70.6762 31.4462 70.9793L30.2336 72.1919C28.4698 73.9557 28.4698 76.8218 30.2336 78.5856L36.6273 84.9793C38.3911 86.7431 41.2572 86.7431 43.021 84.9793L44.2336 83.7667C44.5368 83.9045 44.8675 84.0423 45.1706 84.1526V85.8612C45.1706 88.3415 47.21 90.3809 49.6903 90.3809H58.7021C61.1824 90.3809 63.2218 88.3691 63.2218 85.8612V84.1526C63.5249 84.0423 63.8557 83.9045 64.1588 83.7667L65.3714 84.9793C67.1352 86.7431 70.0013 86.7431 71.7651 84.9793L78.1588 78.5856C79.9226 76.8218 79.9226 73.9557 78.1588 72.1919L76.9462 70.9793C77.084 70.6762 77.2218 70.3455 77.332 70.0423H79.0407C81.521 70.0423 83.5604 68.0305 83.5604 65.5226V56.4833C83.5604 54.003 81.521 51.9636 79.0407 51.9636ZM79.0131 65.4951H74.0525L73.5564 67.0659C73.2257 68.1683 72.7572 69.2707 72.1785 70.3455L71.4068 71.8061L74.9068 75.3061L68.5131 81.6998L65.0407 78.2274L63.5801 78.999C62.4777 79.5778 61.3753 80.0187 60.3005 80.377L58.7297 80.873V85.8337H49.6903V80.873L48.1194 80.377C47.0171 80.0463 45.9147 79.5778 44.8399 78.999L43.3793 78.2274L39.8517 81.7549L33.458 75.3612L36.958 71.8612L36.1864 70.4006C35.6076 69.2982 35.1391 68.1959 34.8084 67.1211L34.3123 65.5502H29.3517V56.5108H34.3123L34.8084 54.94C35.1391 53.8376 35.6076 52.7352 36.1864 51.6604L36.958 50.1998L33.458 46.6998L39.8242 40.2234L43.3242 43.751L44.7848 42.9793C45.8871 42.4006 46.9895 41.9596 48.0643 41.6014L49.6352 41.1053V36.1447H58.7021V41.1053L60.273 41.6014C61.3753 41.9321 62.4777 42.4006 63.5525 42.9793L65.0131 43.751L68.5131 40.251L74.9068 46.6447L71.4068 50.1447L72.1785 51.6053C72.7572 52.7077 73.2257 53.81 73.5564 54.8848L74.0525 56.4557H79.0131V65.4951Z" fill="url(#paint0_linear_1883:941)"/>
<path d="M54.1822 45.1565C45.446 45.1565 38.3633 52.2392 38.3633 60.9754C38.3633 69.7116 45.4735 76.7943 54.1822 76.7943C62.8908 76.7943 70.0011 69.7116 70.0011 60.9754C70.0011 52.2392 62.9184 45.1565 54.1822 45.1565ZM54.1822 72.3022C47.9538 72.3022 42.883 67.2313 42.883 61.0029C42.883 54.7746 47.9814 49.7037 54.1822 49.7037C60.4105 49.7037 65.4814 54.7746 65.4814 61.0029C65.4814 67.2313 60.4105 72.3022 54.1822 72.3022Z" fill="url(#paint1_linear_1883:941)"/>
<path d="M94.8323 15.8059C89.8442 15.8059 85.793 19.8571 85.793 24.8453C85.793 29.8335 89.8717 33.8846 94.8323 33.8846C99.8205 33.8846 103.872 29.8335 103.872 24.8453C103.872 19.8571 99.8205 15.8059 94.8323 15.8059ZM94.8323 29.365C92.352 29.365 90.3127 27.3532 90.3127 24.8453C90.3127 22.3374 92.352 20.3256 94.8323 20.3256C97.3127 20.3256 99.352 22.3374 99.352 24.8453C99.352 27.3532 97.3127 29.365 94.8323 29.365Z" fill="url(#paint2_linear_1883:941)"/>
<path d="M115.169 22.5836V21.8395C115.169 19.7726 113.488 18.0639 111.394 18.0639H111.173L111.339 17.9261C112.055 17.2096 112.441 16.2726 112.441 15.2529C112.441 14.2332 112.055 13.2962 111.339 12.5797L107.094 8.33559C105.661 6.90252 103.181 6.90252 101.776 8.33559L101.638 8.47339V8.28047C101.638 6.21354 99.9567 4.50488 97.8622 4.50488H91.8543C89.7874 4.50488 88.0787 6.18598 88.0787 8.28047V8.47339L87.9409 8.33559C87.2244 7.61906 86.2874 7.23323 85.2953 7.23323C84.3031 7.23323 83.3386 7.61906 82.622 8.33559L78.3504 12.5797C77.6339 13.2962 77.248 14.2332 77.248 15.2529C77.248 16.2726 77.6339 17.2096 78.3504 17.9261L78.4882 18.0639H78.2677C76.2008 18.0639 74.4921 19.745 74.4921 21.8395V22.5836H0V117.414H42.9094V130.973H24.8307V135.493H42.8819H97.063H115.114V130.973H97.063V117.414H140V22.5836H115.169ZM79.0394 22.5836H82.126L82.622 21.0128C82.8425 20.3238 83.1181 19.6348 83.4764 18.9458L84.248 17.4852L82.0709 15.2805L85.2677 12.0836L87.4724 14.2883L88.9331 13.5167C89.622 13.1584 90.311 12.8553 91 12.6624L92.5709 12.1663V9.05213H97.0905V12.1387L98.6614 12.6348C99.3504 12.8553 100.039 13.1309 100.728 13.4891L102.189 14.2608L104.394 12.0561L107.591 15.2529L105.386 17.4576L106.157 18.9183C106.516 19.6072 106.819 20.2962 107.012 20.9852L107.508 22.5561H110.622V27.0758H107.508L107.012 28.6466C106.791 29.3356 106.516 30.0246 106.157 30.7135L105.386 32.1742L107.591 34.3789L104.394 37.5758L102.189 35.371L100.728 36.1427C100.039 36.5009 99.3504 36.8041 98.6614 36.997L97.0905 37.4931V40.6072H92.5709V37.4931L91 36.997C90.311 36.7765 89.622 36.5009 88.9331 36.1427L87.4724 35.371L85.2677 37.5758L82.0709 34.3789L84.2756 32.1742L83.5039 30.7135C83.1457 30.0246 82.8425 29.3356 82.6496 28.6466L82.1535 27.0758H79.0394V22.5836ZM92.5984 130.973H92.5709H47.4291V117.414H92.5984V130.973ZM135.48 112.922H97.0905H42.9094H4.51968V99.3632H135.48V112.922ZM135.48 94.871H4.51968V27.1033H74.5197V27.8474C74.5197 29.9143 76.2008 31.623 78.2953 31.623H78.4882L78.3504 31.7608C77.6339 32.4773 77.248 33.4143 77.248 34.434C77.248 35.4537 77.6339 36.3907 78.3504 37.1072L82.622 41.3789C84.0551 42.7844 86.5354 42.7844 87.9409 41.3789L88.0787 41.2411V41.434C88.0787 43.5009 89.7598 45.2096 91.8543 45.2096H97.8622C99.9291 45.2096 101.638 43.5285 101.638 41.434V41.2411L101.776 41.3789C103.209 42.812 105.689 42.812 107.094 41.3789L111.339 37.1348C112.055 36.4183 112.441 35.4813 112.441 34.4616C112.441 33.4695 112.055 32.5049 111.339 31.7883L111.201 31.6506H111.394C113.461 31.6506 115.169 29.9695 115.169 27.875V27.1309H135.48V94.871Z" fill="url(#paint3_linear_1883:941)"/>
<path d="M72.2619 103.884H67.7422V108.403H72.2619V103.884Z" fill="url(#paint4_linear_1883:941)"/>
<path d="M81.3009 103.884H76.7812V108.403H81.3009V103.884Z" fill="url(#paint5_linear_1883:941)"/>
<path d="M63.2189 103.884H58.6992V108.403H63.2189V103.884Z" fill="url(#paint6_linear_1883:941)"/>
<path d="M27.1197 33.8838H11.3008V38.4035H27.1197V33.8838Z" fill="url(#paint7_linear_1883:941)"/>
<path d="M20.3402 42.9229H11.3008V47.4425H20.3402V42.9229Z" fill="url(#paint8_linear_1883:941)"/>
<path d="M126.467 83.5752H110.648V88.0949H126.467V83.5752Z" fill="url(#paint9_linear_1883:941)"/>
<path d="M126.469 74.5361H117.43V79.0558H126.469V74.5361Z" fill="url(#paint10_linear_1883:941)"/>
<defs>
<linearGradient id="paint0_linear_1883:941" x1="24.832" y1="90.3809" x2="83.5604" y2="90.3809" gradientUnits="userSpaceOnUse">
<stop stop-color="#76C5FF"/>
<stop offset="1" stop-color="#1F83CB"/>
</linearGradient>
<linearGradient id="paint1_linear_1883:941" x1="38.3633" y1="76.7943" x2="70.0011" y2="76.7943" gradientUnits="userSpaceOnUse">
<stop stop-color="#76C5FF"/>
<stop offset="1" stop-color="#1F83CB"/>
</linearGradient>
<linearGradient id="paint2_linear_1883:941" x1="85.793" y1="33.8846" x2="103.872" y2="33.8846" gradientUnits="userSpaceOnUse">
<stop stop-color="#76C5FF"/>
<stop offset="1" stop-color="#1F83CB"/>
</linearGradient>
<linearGradient id="paint3_linear_1883:941" x1="2.14484e-05" y1="135.493" x2="140" y2="135.493" gradientUnits="userSpaceOnUse">
<stop stop-color="#76C5FF"/>
<stop offset="1" stop-color="#1F83CB"/>
</linearGradient>
<linearGradient id="paint4_linear_1883:941" x1="67.7422" y1="108.403" x2="72.2619" y2="108.403" gradientUnits="userSpaceOnUse">
<stop stop-color="#76C5FF"/>
<stop offset="1" stop-color="#1F83CB"/>
</linearGradient>
<linearGradient id="paint5_linear_1883:941" x1="76.7813" y1="108.403" x2="81.3009" y2="108.403" gradientUnits="userSpaceOnUse">
<stop stop-color="#76C5FF"/>
<stop offset="1" stop-color="#1F83CB"/>
</linearGradient>
<linearGradient id="paint6_linear_1883:941" x1="58.6992" y1="108.403" x2="63.2189" y2="108.403" gradientUnits="userSpaceOnUse">
<stop stop-color="#76C5FF"/>
<stop offset="1" stop-color="#1F83CB"/>
</linearGradient>
<linearGradient id="paint7_linear_1883:941" x1="11.3008" y1="38.4035" x2="27.1197" y2="38.4035" gradientUnits="userSpaceOnUse">
<stop stop-color="#76C5FF"/>
<stop offset="1" stop-color="#1F83CB"/>
</linearGradient>
<linearGradient id="paint8_linear_1883:941" x1="11.3008" y1="47.4425" x2="20.3402" y2="47.4425" gradientUnits="userSpaceOnUse">
<stop stop-color="#76C5FF"/>
<stop offset="1" stop-color="#1F83CB"/>
</linearGradient>
<linearGradient id="paint9_linear_1883:941" x1="110.648" y1="88.0949" x2="126.467" y2="88.0949" gradientUnits="userSpaceOnUse">
<stop stop-color="#76C5FF"/>
<stop offset="1" stop-color="#1F83CB"/>
</linearGradient>
<linearGradient id="paint10_linear_1883:941" x1="117.43" y1="79.0558" x2="126.469" y2="79.0558" gradientUnits="userSpaceOnUse">
<stop stop-color="#76C5FF"/>
<stop offset="1" stop-color="#1F83CB"/>
</linearGradient>
</defs>
</svg>
