<?xml version="1.0" encoding="UTF-8" standalone="no"?><!-- Generator: Gravit.io --><svg xmlns="http://www.w3.org/2000/svg" xmlns:xlink="http://www.w3.org/1999/xlink" style="isolation:isolate" viewBox="685 449 354.723 300" width="354.723pt" height="300pt"><defs><clipPath id="_clipPath_VF1jiGUZoGoGrMwETpmfTxVPzKiFLjqr"><rect x="685" y="449" width="354.723" height="300"/></clipPath></defs><g clip-path="url(#_clipPath_VF1jiGUZoGoGrMwETpmfTxVPzKiFLjqr)"><clipPath id="_clipPath_UgqIeJ5QDjPN7K2iHr1T2RKWiHqM7WVC"><rect x="685" y="449" width="354.723" height="300" transform="matrix(1,0,0,1,0,0)" fill="rgb(255,255,255)"/></clipPath><g clip-path="url(#_clipPath_UgqIeJ5QDjPN7K2iHr1T2RKWiHqM7WVC)"><g><linearGradient id="_lgradient_1" x1="1.5320263980627135e-7" y1="8.238884159815413" x2="0.9999999999999999" y2="8.238884159815413" gradientTransform="matrix(354.723,0,0,36.334,685,449.321)" gradientUnits="userSpaceOnUse"><stop offset="0%" stop-opacity="1" style="stop-color:rgb(118,197,255)"/><stop offset="100%" stop-opacity="1" style="stop-color:rgb(31,131,203)"/></linearGradient><path d=" M 1027.599 485.655 L 697.124 485.655 C 690.439 485.655 685 480.222 685 473.544 L 685 461.432 C 685 454.754 690.439 449.321 697.124 449.321 L 741.68 449.321 C 744.551 449.321 746.876 451.644 746.876 454.511 C 746.876 457.378 744.551 459.702 741.68 459.702 L 697.124 459.702 C 696.169 459.702 695.392 460.477 695.392 461.432 L 695.392 473.544 C 695.392 474.498 696.169 475.274 697.124 475.274 L 1027.599 475.274 C 1028.554 475.274 1029.331 474.498 1029.331 473.544 L 1029.331 461.432 C 1029.331 460.477 1028.554 459.702 1027.599 459.702 L 765.598 459.702 C 762.727 459.702 760.402 457.378 760.402 454.511 C 760.402 451.644 762.727 449.321 765.598 449.321 L 1027.599 449.321 C 1034.284 449.321 1039.723 454.754 1039.723 461.432 L 1039.723 473.544 C 1039.723 480.222 1034.284 485.655 1027.599 485.655 Z " fill="url(#_lgradient_1)"/><linearGradient id="_lgradient_2" x1="-0.18169650738625318" y1="2.622448873932177" x2="3.4873603117927674" y2="2.622448873932177" gradientTransform="matrix(96.68,0,0,96.575,702.566,495.412)" gradientUnits="userSpaceOnUse"><stop offset="0%" stop-opacity="1" style="stop-color:rgb(118,197,255)"/><stop offset="100%" stop-opacity="1" style="stop-color:rgb(31,131,203)"/></linearGradient><path d=" M 787.122 591.987 L 714.691 591.987 C 708.006 591.987 702.566 586.554 702.566 579.876 L 702.566 507.523 C 702.566 500.845 708.006 495.412 714.691 495.412 L 787.122 495.412 C 793.807 495.412 799.246 500.845 799.246 507.523 L 799.246 579.876 C 799.246 586.554 793.808 591.987 787.122 591.987 Z  M 714.691 505.793 C 713.735 505.793 712.959 506.569 712.959 507.523 L 712.959 579.876 C 712.959 580.831 713.735 581.606 714.691 581.606 L 787.122 581.606 C 788.078 581.606 788.854 580.831 788.854 579.876 L 788.854 507.523 C 788.854 506.569 788.078 505.793 787.122 505.793 L 714.691 505.793 Z " fill="url(#_lgradient_2)"/><linearGradient id="_lgradient_3" x1="-1.3345015634457646" y1="2.622448873932177" x2="2.334502125546902" y2="2.622448873932177" gradientTransform="matrix(96.681,0,0,96.575,814.021,495.412)" gradientUnits="userSpaceOnUse"><stop offset="0%" stop-opacity="1" style="stop-color:rgb(118,197,255)"/><stop offset="100%" stop-opacity="1" style="stop-color:rgb(31,131,203)"/></linearGradient><path d=" M 898.577 591.987 L 826.146 591.987 C 819.461 591.987 814.021 586.554 814.021 579.876 L 814.021 507.523 C 814.021 500.845 819.461 495.412 826.146 495.412 L 898.578 495.412 C 905.263 495.412 910.702 500.845 910.702 507.523 L 910.702 579.876 C 910.701 586.554 905.263 591.987 898.577 591.987 Z  M 826.146 505.793 C 825.19 505.793 824.414 506.569 824.414 507.523 L 824.414 579.876 C 824.414 580.831 825.19 581.606 826.146 581.606 L 898.578 581.606 C 899.533 581.606 900.31 580.831 900.31 579.876 L 900.31 507.523 C 900.31 506.569 899.533 505.793 898.578 505.793 L 826.146 505.793 Z " fill="url(#_lgradient_3)"/><linearGradient id="_lgradient_4" x1="-2.487313387899381" y1="2.622448873932177" x2="1.1816903010932864" y2="2.622448873932177" gradientTransform="matrix(96.681,0,0,96.575,925.476,495.412)" gradientUnits="userSpaceOnUse"><stop offset="0%" stop-opacity="1" style="stop-color:rgb(118,197,255)"/><stop offset="100%" stop-opacity="1" style="stop-color:rgb(31,131,203)"/></linearGradient><path d=" M 1010.032 591.987 L 937.601 591.987 C 930.916 591.987 925.476 586.554 925.476 579.876 L 925.476 507.523 C 925.476 500.845 930.916 495.412 937.601 495.412 L 1010.032 495.412 C 1016.717 495.412 1022.157 500.845 1022.157 507.523 L 1022.157 579.876 C 1022.157 586.554 1016.717 591.987 1010.032 591.987 Z  M 937.601 505.793 C 936.645 505.793 935.869 506.569 935.869 507.523 L 935.869 579.876 C 935.869 580.831 936.645 581.606 937.601 581.606 L 1010.032 581.606 C 1010.988 581.606 1011.764 580.831 1011.764 579.876 L 1011.764 507.523 C 1011.764 506.569 1010.988 505.793 1010.032 505.793 L 937.601 505.793 Z " fill="url(#_lgradient_4)"/><linearGradient id="_lgradient_5" x1="1.5320263980627135e-7" y1="3.9265701546760603" x2="0.9999999999999999" y2="3.9265701546760603" gradientTransform="matrix(354.723,0,0,36.334,685,606.007)" gradientUnits="userSpaceOnUse"><stop offset="0%" stop-opacity="1" style="stop-color:rgb(118,197,255)"/><stop offset="100%" stop-opacity="1" style="stop-color:rgb(31,131,203)"/></linearGradient><path d=" M 1027.599 642.341 L 697.124 642.341 C 690.439 642.341 685 636.908 685 630.23 L 685 618.118 C 685 611.44 690.439 606.007 697.124 606.007 L 1027.599 606.007 C 1034.284 606.007 1039.723 611.44 1039.723 618.118 L 1039.723 630.23 C 1039.723 636.908 1034.284 642.341 1027.599 642.341 Z  M 697.124 616.388 C 696.169 616.388 695.392 617.164 695.392 618.118 L 695.392 630.23 C 695.392 631.184 696.169 631.96 697.124 631.96 L 1027.599 631.96 C 1028.554 631.96 1029.331 631.184 1029.331 630.23 L 1029.331 618.118 C 1029.331 617.164 1028.554 616.388 1027.599 616.388 L 697.124 616.388 Z " fill="url(#_lgradient_5)"/><linearGradient id="_lgradient_6" x1="-0.1816946280380966" y1="1" x2="3.487324240850802" y2="1" gradientTransform="matrix(96.681,0,0,96.576,702.566,652.099)" gradientUnits="userSpaceOnUse"><stop offset="0%" stop-opacity="1" style="stop-color:rgb(118,197,255)"/><stop offset="100%" stop-opacity="1" style="stop-color:rgb(31,131,203)"/></linearGradient><path d=" M 787.122 748.675 L 771.832 748.675 C 768.962 748.675 766.636 746.351 766.636 743.484 C 766.636 740.617 768.962 738.294 771.832 738.294 L 787.122 738.294 C 788.078 738.294 788.854 737.518 788.854 736.563 L 788.854 664.21 C 788.854 663.256 788.078 662.48 787.122 662.48 L 714.691 662.48 C 713.735 662.48 712.959 663.256 712.959 664.21 L 712.959 736.563 C 712.959 737.518 713.735 738.294 714.691 738.294 L 747.915 738.294 C 750.785 738.294 753.111 740.617 753.111 743.484 C 753.111 746.351 750.785 748.675 747.915 748.675 L 714.691 748.675 C 708.006 748.675 702.566 743.241 702.566 736.563 L 702.566 664.21 C 702.566 657.533 708.006 652.099 714.691 652.099 L 787.122 652.099 C 793.807 652.099 799.247 657.533 799.247 664.21 L 799.247 736.563 C 799.247 743.241 793.808 748.675 787.122 748.675 Z " fill="url(#_lgradient_6)"/><linearGradient id="_lgradient_7" x1="-1.3345015634457646" y1="1" x2="2.334502125546902" y2="1" gradientTransform="matrix(96.681,0,0,96.576,814.021,652.099)" gradientUnits="userSpaceOnUse"><stop offset="0%" stop-opacity="1" style="stop-color:rgb(118,197,255)"/><stop offset="100%" stop-opacity="1" style="stop-color:rgb(31,131,203)"/></linearGradient><path d=" M 898.577 748.675 L 826.146 748.675 C 819.461 748.675 814.021 743.242 814.021 736.564 L 814.021 664.21 C 814.021 657.533 819.461 652.099 826.146 652.099 L 898.578 652.099 C 905.263 652.099 910.702 657.533 910.702 664.21 L 910.702 736.564 C 910.702 743.242 905.263 748.675 898.577 748.675 Z  M 826.146 662.48 C 825.19 662.48 824.414 663.256 824.414 664.21 L 824.414 736.564 C 824.414 737.518 825.19 738.294 826.146 738.294 L 898.578 738.294 C 899.533 738.294 900.31 737.518 900.31 736.564 L 900.31 664.21 C 900.31 663.256 899.533 662.48 898.578 662.48 L 826.146 662.48 Z " fill="url(#_lgradient_7)"/><linearGradient id="_lgradient_8" x1="-2.487313387899381" y1="1" x2="1.1816903010932864" y2="1" gradientTransform="matrix(96.681,0,0,96.576,925.476,652.099)" gradientUnits="userSpaceOnUse"><stop offset="0%" stop-opacity="1" style="stop-color:rgb(118,197,255)"/><stop offset="100%" stop-opacity="1" style="stop-color:rgb(31,131,203)"/></linearGradient><path d=" M 1010.032 748.675 L 937.601 748.675 C 930.916 748.675 925.476 743.242 925.476 736.564 L 925.476 664.211 C 925.476 657.533 930.916 652.099 937.601 652.099 L 1010.032 652.099 C 1016.717 652.099 1022.157 657.533 1022.157 664.211 L 1022.157 689.802 C 1022.157 692.669 1019.831 694.992 1016.96 694.992 C 1014.09 694.992 1011.764 692.669 1011.764 689.802 L 1011.764 664.211 C 1011.764 663.256 1010.988 662.48 1010.032 662.48 L 937.601 662.48 C 936.645 662.48 935.869 663.256 935.869 664.211 L 935.869 736.564 C 935.869 737.518 936.645 738.294 937.601 738.294 L 1010.032 738.294 C 1010.988 738.294 1011.764 737.518 1011.764 736.564 L 1011.764 713.694 C 1011.764 710.826 1014.09 708.503 1016.96 708.503 C 1019.831 708.503 1022.157 710.826 1022.157 713.694 L 1022.157 736.564 C 1022.157 743.242 1016.717 748.675 1010.032 748.675 Z " fill="url(#_lgradient_8)"/></g></g></g></svg>