<?xml version="1.0" encoding="UTF-8" standalone="no"?><!-- Generator: Gravit.io --><svg xmlns="http://www.w3.org/2000/svg" xmlns:xlink="http://www.w3.org/1999/xlink" style="isolation:isolate" viewBox="803 306 135.625 135.625" width="135.625pt" height="135.625pt"><defs><clipPath id="_clipPath_Tvd3perBkLb1pz02e77h093ZrD1waQpx"><rect x="803" y="306" width="135.625" height="135.625"/></clipPath></defs><g clip-path="url(#_clipPath_Tvd3perBkLb1pz02e77h093ZrD1waQpx)"><g><linearGradient id="_lgradient_11" x1="0" y1="1" x2="1.0000000000000009" y2="1" gradientTransform="matrix(4.375,0,0,4.375,820.5,428.5)" gradientUnits="userSpaceOnUse"><stop offset="0%" stop-opacity="1" style="stop-color:rgb(118,197,255)"/><stop offset="100%" stop-opacity="1" style="stop-color:rgb(31,131,203)"/></linearGradient><path d=" M 820.5 428.5 L 824.875 428.5 L 824.875 432.875 L 820.5 432.875 L 820.5 428.5 Z " fill="url(#_lgradient_11)"/><linearGradient id="_lgradient_12" x1="0" y1="1" x2="1" y2="1" gradientTransform="matrix(4.375,0,0,4.375,811.75,428.5)" gradientUnits="userSpaceOnUse"><stop offset="0%" stop-opacity="1" style="stop-color:rgb(118,197,255)"/><stop offset="100%" stop-opacity="1" style="stop-color:rgb(31,131,203)"/></linearGradient><path d=" M 811.75 428.5 L 816.125 428.5 L 816.125 432.875 L 811.75 432.875 L 811.75 428.5 Z " fill="url(#_lgradient_12)"/><linearGradient id="_lgradient_13" x1="0" y1="1" x2="1" y2="1" gradientTransform="matrix(4.375,0,0,4.375,851.125,397.875)" gradientUnits="userSpaceOnUse"><stop offset="0%" stop-opacity="1" style="stop-color:rgb(118,197,255)"/><stop offset="100%" stop-opacity="1" style="stop-color:rgb(31,131,203)"/></linearGradient><path d=" M 851.125 397.875 L 855.5 397.875 L 855.5 402.25 L 851.125 402.25 L 851.125 397.875 Z " fill="url(#_lgradient_13)"/><linearGradient id="_lgradient_14" x1="0" y1="1" x2="1" y2="1" gradientTransform="matrix(4.375,0,0,4.375,859.875,397.875)" gradientUnits="userSpaceOnUse"><stop offset="0%" stop-opacity="1" style="stop-color:rgb(118,197,255)"/><stop offset="100%" stop-opacity="1" style="stop-color:rgb(31,131,203)"/></linearGradient><path d=" M 859.875 397.875 L 864.25 397.875 L 864.25 402.25 L 859.875 402.25 L 859.875 397.875 Z " fill="url(#_lgradient_14)"/><linearGradient id="_lgradient_15" x1="0" y1="1" x2="1.0000000000000009" y2="1" gradientTransform="matrix(4.375,0,0,4.375,820.5,367.25)" gradientUnits="userSpaceOnUse"><stop offset="0%" stop-opacity="1" style="stop-color:rgb(118,197,255)"/><stop offset="100%" stop-opacity="1" style="stop-color:rgb(31,131,203)"/></linearGradient><path d=" M 820.5 367.25 L 824.875 367.25 L 824.875 371.625 L 820.5 371.625 L 820.5 367.25 Z " fill="url(#_lgradient_15)"/><linearGradient id="_lgradient_16" x1="0" y1="1" x2="1" y2="1" gradientTransform="matrix(4.375,0,0,4.375,811.75,367.25)" gradientUnits="userSpaceOnUse"><stop offset="0%" stop-opacity="1" style="stop-color:rgb(118,197,255)"/><stop offset="100%" stop-opacity="1" style="stop-color:rgb(31,131,203)"/></linearGradient><path d=" M 811.75 367.25 L 816.125 367.25 L 816.125 371.625 L 811.75 371.625 L 811.75 367.25 Z " fill="url(#_lgradient_16)"/><linearGradient id="_lgradient_17" x1="1.4746598144335654e-7" y1="0.9999926267520313" x2="1.000007373299072" y2="0.9999926267520313" gradientTransform="matrix(135.625,0,0,135.625,803,306)" gradientUnits="userSpaceOnUse"><stop offset="0%" stop-opacity="1" style="stop-color:rgb(118,197,255)"/><stop offset="100%" stop-opacity="1" style="stop-color:rgb(31,131,203)"/></linearGradient><path d=" M 938.625 362.875 L 938.625 341 L 925.501 341 L 925.501 323.189 C 929.265 322.212 932.063 318.814 932.063 314.75 C 932.063 309.924 928.139 306 923.313 306 C 919.246 306 915.851 308.8 914.874 312.563 L 879.252 312.563 C 878.274 308.8 874.879 306 870.813 306 C 866.746 306 863.351 308.8 862.373 312.563 L 839.877 312.563 C 838.899 308.8 835.504 306 831.438 306 C 826.612 306 822.688 309.924 822.688 314.75 C 822.688 318.814 825.485 322.212 829.25 323.189 L 829.25 358.5 L 809.563 358.5 C 805.944 358.5 803 361.444 803 365.063 L 803 373.813 C 803 377.431 805.944 380.375 809.563 380.375 L 809.563 389.125 C 805.944 389.125 803 392.069 803 395.688 L 803 404.437 C 803 408.055 805.944 411 809.563 411 L 809.563 419.75 C 805.944 419.75 803 422.694 803 426.312 L 803 435.062 C 803 438.68 805.944 441.625 809.563 441.625 L 866.438 441.625 C 870.056 441.625 873 438.68 873 435.062 L 873 426.312 C 873 422.694 870.056 419.75 866.438 419.75 L 866.438 411 C 870.056 411 873 408.055 873 404.437 L 873 395.688 C 873 394.918 872.843 394.187 872.598 393.5 L 879.077 393.5 L 880.637 387.371 C 881.332 387.11 882.032 386.819 882.728 386.496 L 888.173 389.733 L 899.858 378.048 L 896.623 372.603 C 896.944 371.909 897.238 371.209 897.498 370.512 L 903.625 368.95 L 903.625 352.423 L 897.496 350.863 C 897.235 350.166 896.942 349.466 896.621 348.77 L 899.856 343.325 L 888.17 331.64 L 882.726 334.877 C 882.032 334.556 881.33 334.263 880.634 334.002 L 879.075 327.875 L 862.548 327.875 L 860.988 334.004 C 860.293 334.265 859.591 334.556 858.897 334.879 L 853.453 331.642 L 841.767 343.328 L 845.002 348.772 C 844.681 349.468 844.388 350.166 844.127 350.866 L 838 352.425 L 838 358.5 L 833.625 358.5 L 833.625 323.189 C 836.685 322.393 839.081 319.998 839.877 316.938 L 862.373 316.938 C 863.351 320.7 866.746 323.5 870.813 323.5 C 874.879 323.5 878.274 320.7 879.252 316.938 L 914.874 316.938 C 915.67 319.998 918.065 322.393 921.125 323.189 L 921.125 341 L 908.001 341 L 908.001 362.875 L 921.125 362.875 L 921.125 371.625 L 908.001 371.625 L 908.001 393.5 L 921.125 393.5 L 921.125 402.25 L 908.001 402.25 L 908.001 424.125 L 938.625 424.125 L 938.625 402.25 L 925.501 402.25 L 925.501 393.5 L 938.625 393.5 L 938.625 371.625 L 925.501 371.625 L 925.501 362.875 L 938.625 362.875 Z  M 807.375 373.813 L 807.375 365.063 C 807.375 363.857 808.355 362.875 809.563 362.875 L 866.438 362.875 C 867.645 362.875 868.625 363.857 868.625 365.063 L 868.625 373.813 C 868.625 375.018 867.645 376 866.438 376 L 864.25 376 L 809.563 376 C 808.355 376 807.375 375.018 807.375 373.813 Z  M 866.438 358.5 L 864.653 358.5 C 865.558 355.96 867.964 354.125 870.813 354.125 C 874.431 354.125 877.375 357.069 877.375 360.688 C 877.375 363.536 875.54 365.942 873 366.848 L 873 365.063 C 873 361.444 870.056 358.5 866.438 358.5 Z  M 873 373.813 L 873 371.404 C 877.985 370.387 881.75 365.97 881.75 360.688 C 881.75 354.657 876.843 349.75 870.813 349.75 C 865.532 349.75 861.113 353.515 860.096 358.5 L 855.675 358.5 C 856.743 351.091 863.115 345.375 870.813 345.375 C 879.254 345.375 886.125 352.244 886.125 360.688 C 886.125 368.514 880.219 374.976 872.635 375.882 C 872.853 375.228 873 374.539 873 373.813 Z  M 813.938 380.375 L 862.063 380.375 L 862.063 389.125 L 813.938 389.125 L 813.938 380.375 Z  M 868.625 426.312 L 868.625 435.062 C 868.625 436.267 867.645 437.25 866.438 437.25 L 809.563 437.25 C 808.355 437.25 807.375 436.267 807.375 435.062 L 807.375 426.312 C 807.375 425.107 808.355 424.125 809.563 424.125 L 866.438 424.125 C 867.645 424.125 868.625 425.107 868.625 426.312 Z  M 862.063 419.75 L 813.938 419.75 L 813.938 411 L 862.063 411 L 862.063 419.75 Z  M 868.625 395.688 L 868.625 404.437 C 868.625 405.642 867.645 406.625 866.438 406.625 L 809.563 406.625 C 808.355 406.625 807.375 405.642 807.375 404.437 L 807.375 395.688 C 807.375 394.482 808.355 393.5 809.563 393.5 L 864.25 393.5 L 866.438 393.5 C 867.645 393.5 868.625 394.482 868.625 395.688 Z  M 842.375 355.825 L 847.524 354.514 L 847.892 353.359 C 848.283 352.139 848.802 350.898 849.434 349.678 L 849.992 348.599 L 847.266 344.017 L 854.142 337.141 L 858.724 339.867 L 859.801 339.311 C 861.026 338.679 862.264 338.163 863.489 337.771 L 864.644 337.402 L 865.95 332.25 L 875.673 332.25 L 876.981 337.399 L 878.136 337.769 C 879.361 338.161 880.599 338.677 881.824 339.309 L 882.901 339.865 L 887.483 337.139 L 894.359 344.014 L 891.633 348.597 L 892.191 349.676 C 892.823 350.898 893.342 352.137 893.733 353.357 L 894.101 354.512 L 899.25 355.825 L 899.25 365.548 L 894.101 366.858 L 893.733 368.013 C 893.342 369.236 892.823 370.474 892.193 371.695 L 891.633 372.773 L 894.359 377.358 L 887.483 384.234 L 882.903 381.51 L 881.824 382.064 C 880.595 382.698 879.355 383.214 878.136 383.604 L 876.981 383.973 L 875.675 389.125 L 866.438 389.125 L 866.438 380.375 L 870.813 380.375 C 881.669 380.375 890.5 371.542 890.5 360.688 C 890.5 349.833 881.669 341 870.813 341 C 860.695 341 852.346 348.672 851.254 358.5 L 842.375 358.5 L 842.375 355.825 Z  M 831.438 319.125 C 829.025 319.125 827.063 317.163 827.063 314.75 C 827.063 312.337 829.025 310.375 831.438 310.375 C 833.85 310.375 835.813 312.337 835.813 314.75 C 835.813 317.163 833.85 319.125 831.438 319.125 Z  M 870.813 319.125 C 868.4 319.125 866.438 317.163 866.438 314.75 C 866.438 312.337 868.4 310.375 870.813 310.375 C 873.225 310.375 875.188 312.337 875.188 314.75 C 875.188 317.163 873.225 319.125 870.813 319.125 Z  M 918.938 314.75 C 918.938 312.337 920.9 310.375 923.313 310.375 C 925.726 310.375 927.688 312.337 927.688 314.75 C 927.688 317.163 925.726 319.125 923.313 319.125 C 920.9 319.125 918.938 317.163 918.938 314.75 Z  M 934.251 419.75 L 912.375 419.75 L 912.375 406.625 L 934.251 406.625 L 934.251 419.75 Z  M 934.251 389.125 L 912.375 389.125 L 912.375 376 L 934.251 376 L 934.251 389.125 Z  M 912.375 345.375 L 934.251 345.375 L 934.251 358.5 L 912.375 358.5 L 912.375 345.375 Z " fill="url(#_lgradient_17)"/><linearGradient id="_lgradient_18" x1="0" y1="1" x2="1.000228623685409" y2="1" gradientTransform="matrix(4.374,0,0,4.375,925.501,349.75)" gradientUnits="userSpaceOnUse"><stop offset="0%" stop-opacity="1" style="stop-color:rgb(118,197,255)"/><stop offset="100%" stop-opacity="1" style="stop-color:rgb(31,131,203)"/></linearGradient><path d=" M 925.501 349.75 L 929.875 349.75 L 929.875 354.125 L 925.501 354.125 L 925.501 349.75 Z " fill="url(#_lgradient_18)"/><linearGradient id="_lgradient_19" x1="0" y1="1" x2="1.000228623685416" y2="1" gradientTransform="matrix(4.374,0,0,4.375,916.751,349.75)" gradientUnits="userSpaceOnUse"><stop offset="0%" stop-opacity="1" style="stop-color:rgb(118,197,255)"/><stop offset="100%" stop-opacity="1" style="stop-color:rgb(31,131,203)"/></linearGradient><path d=" M 916.751 349.75 L 921.125 349.75 L 921.125 354.125 L 916.751 354.125 L 916.751 349.75 Z " fill="url(#_lgradient_19)"/><linearGradient id="_lgradient_20" x1="0" y1="1" x2="1.000228623685416" y2="1" gradientTransform="matrix(4.374,0,0,4.375,916.751,380.375)" gradientUnits="userSpaceOnUse"><stop offset="0%" stop-opacity="1" style="stop-color:rgb(118,197,255)"/><stop offset="100%" stop-opacity="1" style="stop-color:rgb(31,131,203)"/></linearGradient><path d=" M 916.751 380.375 L 921.125 380.375 L 921.125 384.75 L 916.751 384.75 L 916.751 380.375 Z " fill="url(#_lgradient_20)"/><linearGradient id="_lgradient_21" x1="0" y1="1" x2="1.000228623685409" y2="1" gradientTransform="matrix(4.374,0,0,4.375,925.501,380.375)" gradientUnits="userSpaceOnUse"><stop offset="0%" stop-opacity="1" style="stop-color:rgb(118,197,255)"/><stop offset="100%" stop-opacity="1" style="stop-color:rgb(31,131,203)"/></linearGradient><path d=" M 925.501 380.375 L 929.875 380.375 L 929.875 384.75 L 925.501 384.75 L 925.501 380.375 Z " fill="url(#_lgradient_21)"/><linearGradient id="_lgradient_22" x1="0" y1="1" x2="1.000228623685409" y2="1" gradientTransform="matrix(4.374,0,0,4.375,925.501,411)" gradientUnits="userSpaceOnUse"><stop offset="0%" stop-opacity="1" style="stop-color:rgb(118,197,255)"/><stop offset="100%" stop-opacity="1" style="stop-color:rgb(31,131,203)"/></linearGradient><path d=" M 925.501 411 L 929.875 411 L 929.875 415.375 L 925.501 415.375 L 925.501 411 Z " fill="url(#_lgradient_22)"/><linearGradient id="_lgradient_23" x1="0" y1="1" x2="1.000228623685416" y2="1" gradientTransform="matrix(4.374,0,0,4.375,916.751,411)" gradientUnits="userSpaceOnUse"><stop offset="0%" stop-opacity="1" style="stop-color:rgb(118,197,255)"/><stop offset="100%" stop-opacity="1" style="stop-color:rgb(31,131,203)"/></linearGradient><path d=" M 916.751 411 L 921.125 411 L 921.125 415.375 L 916.751 415.375 L 916.751 411 Z " fill="url(#_lgradient_23)"/></g></g></svg>