<?xml version="1.0" encoding="UTF-8" standalone="no"?><!-- Generator: Gravit.io --><svg xmlns="http://www.w3.org/2000/svg" xmlns:xlink="http://www.w3.org/1999/xlink" style="isolation:isolate" viewBox="1077 346 34.833 28.5" width="34.833pt" height="28.5pt"><defs><clipPath id="_clipPath_Zt0K6hJh0VbITaKNhkkm0rnY0izzR3qX"><rect x="1077" y="346" width="34.833" height="28.5"/></clipPath></defs><g clip-path="url(#_clipPath_Zt0K6hJh0VbITaKNhkkm0rnY0izzR3qX)"><g><linearGradient id="_lgradient_0" x1="0" y1="1" x2="1" y2="1" gradientTransform="matrix(34.833,0,0,28.5,1077,346)" gradientUnits="userSpaceOnUse"><stop offset="0%" stop-opacity="1" style="stop-color:rgb(118,197,255)"/><stop offset="100%" stop-opacity="1" style="stop-color:rgb(31,131,203)"/></linearGradient><path d=" M 1080.167 346 L 1108.667 346 C 1110.416 346 1111.833 347.418 1111.833 349.167 L 1111.833 371.333 C 1111.833 373.082 1110.416 374.5 1108.667 374.5 L 1080.167 374.5 C 1078.418 374.5 1077 373.082 1077 371.333 L 1077 349.167 C 1077 347.418 1078.418 346 1080.167 346 Z  M 1080.167 356.479 L 1080.167 371.333 L 1108.667 371.333 L 1108.667 356.479 L 1094.417 363.604 L 1080.167 356.479 Z  M 1080.167 352.938 L 1094.417 360.064 L 1108.667 352.939 L 1108.667 349.167 L 1080.167 349.167 L 1080.167 352.938 Z " fill-rule="evenodd" fill="url(#_lgradient_0)"/></g></g></svg>