<?xml version="1.0" encoding="UTF-8" standalone="no"?><!-- Generator: Gravit.io --><svg xmlns="http://www.w3.org/2000/svg" xmlns:xlink="http://www.w3.org/1999/xlink" style="isolation:isolate" viewBox="498 258 279 279" width="279pt" height="279pt"><defs><clipPath id="_clipPath_wfiMiAn4pRvmnDayVBysUAd8wPd1leOr"><rect x="498" y="258" width="279" height="279"/></clipPath></defs><g clip-path="url(#_clipPath_wfiMiAn4pRvmnDayVBysUAd8wPd1leOr)"><linearGradient id="_lgradient_0" x1="1.532025089605735e-7" y1="1" x2="1" y2="1" gradientTransform="matrix(279,0,0,279,498,258)" gradientUnits="userSpaceOnUse"><stop offset="0%" stop-opacity="1" style="stop-color:rgb(118,197,255)"/><stop offset="100%" stop-opacity="1" style="stop-color:rgb(31,131,203)"/></linearGradient><path d=" M 769.424 458.121 L 737.597 458.121 L 737.597 420.28 C 737.597 418.023 735.767 416.194 733.51 416.194 L 650.112 416.194 C 648.803 412.165 645.616 408.977 641.587 407.668 L 641.587 382.439 L 672.095 382.439 C 676.999 382.439 680.989 378.45 680.989 373.545 L 680.989 354.013 L 723.553 354.013 C 733.955 354.013 743.038 345.732 743.107 334.569 C 743.107 321.871 733.196 311.381 720.543 310.686 C 720.027 310.657 719.566 310.225 719.47 309.679 C 716.427 292.333 697.983 281.962 681.639 288.107 C 680.971 288.36 680.197 288.08 679.948 287.418 C 673.352 269.822 656.293 258 637.5 258 C 618.707 258 601.648 269.822 595.051 287.417 C 594.801 288.084 594.026 288.357 593.36 288.107 C 577.013 281.962 558.572 292.334 555.529 309.679 C 555.433 310.224 554.973 310.657 554.457 310.686 C 542.066 311.366 531.861 321.557 531.893 334.792 C 531.99 345.39 540.761 354.012 551.446 354.012 L 594.01 354.012 L 594.01 373.545 C 594.01 378.449 598 382.439 602.905 382.439 L 633.413 382.439 L 633.413 407.668 C 629.384 408.977 626.196 412.164 624.887 416.193 L 541.49 416.193 C 539.232 416.193 537.403 418.022 537.403 420.28 L 537.403 458.121 C 531.382 458.121 513.695 458.121 506.895 458.121 C 501.99 458.121 498 462.111 498 467.016 L 498 528.105 C 498 533.01 501.99 537 506.895 537 L 576.085 537 C 580.989 537 584.979 533.01 584.979 528.105 C 584.979 522.04 584.979 471.982 584.979 465.698 C 584.979 461.52 581.581 458.122 577.403 458.122 L 545.577 458.122 L 545.577 424.368 L 624.887 424.368 C 626.196 428.397 629.384 431.584 633.413 432.893 L 633.413 458.122 C 627.392 458.122 609.706 458.122 602.905 458.122 C 598.001 458.122 594.011 462.112 594.011 467.016 L 594.011 528.105 C 594.011 533.01 598.001 537 602.905 537 L 627.964 537 C 630.221 537 632.051 535.171 632.051 532.913 C 632.051 530.655 630.221 528.826 627.964 528.826 L 602.905 528.826 C 602.508 528.826 602.185 528.503 602.185 528.105 L 602.185 467.016 C 602.185 466.618 602.508 466.295 602.905 466.295 L 619.321 466.295 C 619.581 466.295 619.822 466.436 619.949 466.663 L 626.572 478.425 C 628.145 481.22 631.115 482.956 634.323 482.956 L 672.095 482.956 C 672.492 482.956 672.815 483.279 672.815 483.677 L 672.815 528.105 C 672.815 528.502 672.492 528.826 672.095 528.826 L 647.036 528.826 C 644.779 528.826 642.949 530.655 642.949 532.913 C 642.949 535.17 644.779 536.999 647.036 536.999 L 672.095 536.999 C 676.999 536.999 680.989 533.01 680.989 528.105 C 680.989 522.04 680.989 471.981 680.989 465.697 C 680.989 461.52 677.591 458.121 673.414 458.121 L 641.587 458.121 L 641.587 432.893 C 645.616 431.584 648.803 428.396 650.112 424.367 L 729.423 424.367 L 729.423 458.121 C 723.402 458.121 705.715 458.121 698.915 458.121 C 694.011 458.121 690.021 462.111 690.021 467.016 L 690.021 528.105 C 690.021 533.01 694.011 536.999 698.915 536.999 L 768.105 536.999 C 773.01 536.999 777 533.01 777 528.105 L 777 512.688 C 777 510.431 775.171 508.601 772.913 508.601 C 770.655 508.601 768.826 510.431 768.826 512.688 L 768.826 528.105 C 768.826 528.502 768.503 528.826 768.105 528.826 L 698.915 528.826 C 698.518 528.826 698.194 528.502 698.194 528.105 L 698.194 467.016 C 698.194 466.618 698.518 466.295 698.915 466.295 L 715.331 466.295 C 715.591 466.295 715.831 466.436 715.959 466.663 L 722.581 478.425 C 724.155 481.22 727.124 482.956 730.332 482.956 L 768.105 482.956 C 768.502 482.956 768.826 483.279 768.826 483.677 L 768.826 493.616 C 768.826 495.874 770.655 497.703 772.913 497.703 C 775.17 497.703 776.999 495.874 776.999 493.616 C 776.999 485.234 776.999 473.975 776.999 465.697 C 777 461.52 773.602 458.121 769.424 458.121 Z  M 576.805 528.105 C 576.805 528.503 576.482 528.826 576.085 528.826 L 506.895 528.826 C 506.498 528.826 506.174 528.503 506.174 528.105 L 506.174 467.016 C 506.174 466.618 506.498 466.295 506.895 466.295 L 523.311 466.295 C 523.571 466.295 523.811 466.436 523.938 466.663 L 530.561 478.425 C 532.134 481.22 535.104 482.956 538.312 482.956 L 576.084 482.956 C 576.481 482.956 576.804 483.279 576.804 483.677 L 576.804 528.105 L 576.805 528.105 Z  M 576.805 466.295 L 576.805 474.811 C 576.567 474.792 576.327 474.782 576.085 474.782 L 538.312 474.782 C 538.052 474.782 537.812 474.641 537.685 474.415 L 533.113 466.295 L 576.805 466.295 Z  M 672.816 320.25 C 672.578 320.231 672.338 320.221 672.095 320.221 L 634.323 320.221 C 634.063 320.221 633.822 320.08 633.695 319.854 L 629.123 311.735 L 672.816 311.735 L 672.816 320.25 L 672.816 320.25 Z  M 594.01 312.456 L 594.01 345.839 L 551.446 345.839 C 545.341 345.839 540.089 340.982 540.066 334.569 C 540.066 326.21 546.584 319.304 554.905 318.847 C 559.184 318.612 562.832 315.35 563.579 311.091 C 565.733 298.819 578.904 291.405 590.484 295.758 C 595.368 297.594 600.859 295.204 602.704 290.287 C 608.112 275.864 622.095 266.174 637.5 266.174 C 652.905 266.174 666.888 275.864 672.295 290.288 C 674.136 295.194 679.621 297.598 684.516 295.758 C 696.097 291.403 709.268 298.822 711.42 311.09 C 712.166 315.35 715.815 318.612 720.095 318.847 C 728.389 319.303 734.995 326.195 734.933 334.717 C 734.876 340.849 729.772 345.838 723.554 345.838 L 680.99 345.838 C 680.99 342.423 680.99 314.893 680.99 311.136 L 680.99 311.136 C 680.99 306.959 677.592 303.56 673.414 303.56 L 602.905 303.56 C 598.001 303.56 594.01 307.551 594.01 312.456 Z  M 602.905 374.265 C 602.508 374.265 602.185 373.942 602.185 373.545 C 602.185 366.578 602.185 318.778 602.185 312.456 C 602.185 312.058 602.508 311.735 602.905 311.735 L 619.321 311.735 C 619.581 311.735 619.822 311.876 619.949 312.103 L 626.572 323.865 C 628.145 326.66 631.115 328.396 634.323 328.396 L 672.095 328.396 C 672.492 328.396 672.815 328.719 672.815 329.116 L 672.815 373.545 C 672.815 373.942 672.492 374.265 672.095 374.265 L 602.905 374.265 Z  M 672.816 466.295 L 672.816 474.811 C 672.578 474.792 672.338 474.782 672.095 474.782 L 634.323 474.782 C 634.063 474.782 633.822 474.641 633.695 474.415 L 629.123 466.295 L 672.816 466.295 Z  M 637.5 425.366 C 634.696 425.366 632.414 423.085 632.414 420.28 C 632.414 417.476 634.696 415.195 637.5 415.195 C 640.304 415.195 642.586 417.476 642.586 420.28 C 642.586 423.085 640.304 425.366 637.5 425.366 Z  M 768.826 474.811 C 768.588 474.792 768.348 474.782 768.105 474.782 L 730.333 474.782 C 730.073 474.782 729.833 474.641 729.705 474.415 L 725.133 466.295 L 768.826 466.295 L 768.826 474.811 Z " fill="url(#_lgradient_0)"/></g></svg>