<?xml version="1.0" encoding="UTF-8" standalone="no"?><!-- Generator: Gravit.io --><svg xmlns="http://www.w3.org/2000/svg" xmlns:xlink="http://www.w3.org/1999/xlink" style="isolation:isolate" viewBox="1108.5 259 375 373.064" width="375pt" height="373.064pt"><defs><clipPath id="_clipPath_UMReDPMPS25QVsDzRCyzujFTGhBkQCvt"><rect x="1108.5" y="259" width="375" height="373.064"/></clipPath></defs><g clip-path="url(#_clipPath_UMReDPMPS25QVsDzRCyzujFTGhBkQCvt)"><g><linearGradient id="_lgradient_59" x1="1.5320266666666666e-7" y1="1" x2="0.9999999999999998" y2="1" gradientTransform="matrix(375,0,0,373.064,1108.5,259)" gradientUnits="userSpaceOnUse"><stop offset="0%" stop-opacity="1" style="stop-color:rgb(118,197,255)"/><stop offset="100%" stop-opacity="1" style="stop-color:rgb(31,131,203)"/></linearGradient><path d=" M 1470.683 259 L 1347.505 259 C 1344.471 259 1342.012 261.466 1342.012 264.508 C 1342.012 267.55 1344.471 270.016 1347.505 270.016 L 1470.683 270.016 C 1471.693 270.016 1472.514 270.84 1472.514 271.852 L 1472.514 305.285 L 1119.486 305.285 L 1119.486 271.852 C 1119.486 270.84 1120.307 270.016 1121.317 270.016 L 1322.221 270.016 C 1325.255 270.016 1327.714 267.55 1327.714 264.508 C 1327.714 261.466 1325.255 259 1322.221 259 L 1121.317 259 C 1114.25 259 1108.5 264.766 1108.5 271.852 L 1108.5 619.212 C 1108.5 626.298 1114.25 632.064 1121.317 632.064 L 1385.938 632.064 C 1388.972 632.064 1391.431 629.598 1391.431 626.556 C 1391.431 623.514 1388.972 621.048 1385.938 621.048 L 1121.317 621.048 C 1120.307 621.048 1119.486 620.224 1119.486 619.212 L 1119.486 316.301 L 1472.514 316.301 L 1472.514 619.212 C 1472.514 620.224 1471.693 621.048 1470.683 621.048 L 1411.223 621.048 C 1408.189 621.048 1405.73 623.514 1405.73 626.556 C 1405.73 629.598 1408.189 632.064 1411.223 632.064 L 1470.683 632.064 C 1477.75 632.064 1483.5 626.298 1483.5 619.212 L 1483.5 271.852 C 1483.5 264.765 1477.75 259 1470.683 259 Z " fill="url(#_lgradient_59)"/><linearGradient id="_lgradient_60" x1="-2.642477035079636" y1="31.76573436095755" x2="31.235610844603436" y2="31.76573436095755" gradientTransform="matrix(11.069,0,0,11.016,1137.75,282.142)" gradientUnits="userSpaceOnUse"><stop offset="0%" stop-opacity="1" style="stop-color:rgb(118,197,255)"/><stop offset="100%" stop-opacity="1" style="stop-color:rgb(31,131,203)"/></linearGradient><path d=" M 1143.243 282.142 C 1140.209 282.142 1137.75 284.608 1137.75 287.65 C 1137.75 290.692 1140.209 293.158 1143.243 293.158 L 1143.326 293.158 C 1146.36 293.158 1148.819 290.692 1148.819 287.65 C 1148.819 284.608 1146.36 282.142 1143.326 282.142 L 1143.243 282.142 Z " fill="url(#_lgradient_60)"/><linearGradient id="_lgradient_61" x1="-4.140224112917069" y1="31.76573436095755" x2="29.740312423768785" y2="31.76573436095755" gradientTransform="matrix(11.068,0,0,11.016,1154.325,282.142)" gradientUnits="userSpaceOnUse"><stop offset="0%" stop-opacity="1" style="stop-color:rgb(118,197,255)"/><stop offset="100%" stop-opacity="1" style="stop-color:rgb(31,131,203)"/></linearGradient><path d=" M 1159.818 282.142 C 1156.784 282.142 1154.325 284.608 1154.325 287.65 C 1154.325 290.692 1156.784 293.158 1159.818 293.158 L 1159.901 293.158 C 1162.935 293.158 1165.394 290.692 1165.394 287.65 C 1165.394 284.608 1162.935 282.142 1159.901 282.142 L 1159.818 282.142 Z " fill="url(#_lgradient_61)"/><linearGradient id="_lgradient_62" x1="-5.638957983900114" y1="31.76573436095755" x2="28.24127245130282" y2="31.76573436095755" gradientTransform="matrix(11.068,0,0,11.016,1170.914,282.142)" gradientUnits="userSpaceOnUse"><stop offset="0%" stop-opacity="1" style="stop-color:rgb(118,197,255)"/><stop offset="100%" stop-opacity="1" style="stop-color:rgb(31,131,203)"/></linearGradient><path d=" M 1176.408 282.142 C 1173.373 282.142 1170.914 284.608 1170.914 287.65 C 1170.914 290.692 1173.373 293.158 1176.408 293.158 L 1176.49 293.158 C 1179.524 293.158 1181.983 290.692 1181.983 287.65 C 1181.983 284.608 1179.524 282.142 1176.49 282.142 L 1176.408 282.142 Z " fill="url(#_lgradient_62)"/><linearGradient id="_lgradient_63" x1="-15.302618943276142" y1="31.76573436095755" x2="2.379385137683899" y2="31.76573436095755" gradientTransform="matrix(21.208,0,0,11.016,1433.038,282.142)" gradientUnits="userSpaceOnUse"><stop offset="0%" stop-opacity="1" style="stop-color:rgb(118,197,255)"/><stop offset="100%" stop-opacity="1" style="stop-color:rgb(31,131,203)"/></linearGradient><path d=" M 1448.753 293.158 C 1451.788 293.158 1454.246 290.692 1454.246 287.65 C 1454.246 284.608 1451.788 282.142 1448.753 282.142 L 1438.531 282.142 C 1435.497 282.142 1433.038 284.608 1433.038 287.65 C 1433.038 290.692 1435.497 293.158 1438.531 293.158 L 1448.753 293.158 Z " fill="url(#_lgradient_63)"/><linearGradient id="_lgradient_64" x1="-0.28208641184836897" y1="1.480252994782831" x2="2.855279560266718" y2="1.480252994782831" gradientTransform="matrix(119.527,0,0,200.415,1142.217,335.399)" gradientUnits="userSpaceOnUse"><stop offset="0%" stop-opacity="1" style="stop-color:rgb(118,197,255)"/><stop offset="100%" stop-opacity="1" style="stop-color:rgb(31,131,203)"/></linearGradient><path d=" M 1261.744 348.25 C 1261.744 341.164 1255.994 335.399 1248.926 335.399 L 1155.034 335.399 C 1147.967 335.399 1142.217 341.164 1142.217 348.25 L 1142.217 392.589 C 1142.217 395.631 1144.676 398.097 1147.71 398.097 C 1150.745 398.097 1153.203 395.631 1153.203 392.589 L 1153.203 348.25 C 1153.203 347.238 1154.024 346.414 1155.034 346.414 L 1248.926 346.414 C 1249.936 346.414 1250.757 347.238 1250.757 348.25 L 1250.757 522.963 C 1250.757 523.975 1249.936 524.799 1248.926 524.799 L 1155.034 524.799 C 1154.024 524.799 1153.203 523.975 1153.203 522.963 L 1153.203 417.942 C 1153.203 414.9 1150.745 412.434 1147.71 412.434 C 1144.676 412.434 1142.217 414.9 1142.217 417.942 L 1142.217 522.963 C 1142.217 530.049 1147.967 535.814 1155.034 535.814 L 1248.926 535.814 C 1255.993 535.814 1261.743 530.049 1261.743 522.963 L 1261.744 348.25 Z " fill="url(#_lgradient_64)"/><linearGradient id="_lgradient_65" x1="-0.2820911319723907" y1="1.6030471704845501" x2="2.855327337377118" y2="1.6030471704845501" gradientTransform="matrix(119.525,0,0,56.052,1142.217,542.21)" gradientUnits="userSpaceOnUse"><stop offset="0%" stop-opacity="1" style="stop-color:rgb(118,197,255)"/><stop offset="100%" stop-opacity="1" style="stop-color:rgb(31,131,203)"/></linearGradient><path d=" M 1248.925 542.21 L 1155.034 542.21 C 1147.967 542.21 1142.217 547.976 1142.217 555.062 L 1142.217 585.41 C 1142.217 592.496 1147.967 598.262 1155.034 598.262 L 1248.924 598.262 C 1255.991 598.262 1261.742 592.496 1261.742 585.41 L 1261.742 555.062 C 1261.742 547.975 1255.992 542.21 1248.925 542.21 Z  M 1250.756 585.41 C 1250.756 586.421 1249.935 587.245 1248.925 587.245 L 1155.034 587.245 C 1154.024 587.245 1153.203 586.421 1153.203 585.41 L 1153.203 555.061 C 1153.203 554.049 1154.024 553.225 1155.034 553.225 L 1248.924 553.225 C 1249.934 553.225 1250.755 554.049 1250.755 555.061 L 1250.756 585.41 Z " fill="url(#_lgradient_65)"/><linearGradient id="_lgradient_66" x1="-2.2252182855612745" y1="1.1306907055239979" x2="2.99108359994436" y2="1.1306907055239979" gradientTransform="matrix(71.89,0,0,262.375,1268.471,335.399)" gradientUnits="userSpaceOnUse"><stop offset="0%" stop-opacity="1" style="stop-color:rgb(118,197,255)"/><stop offset="100%" stop-opacity="1" style="stop-color:rgb(31,131,203)"/></linearGradient><path d=" M 1281.289 335.399 C 1274.222 335.399 1268.471 341.164 1268.471 348.25 L 1268.471 584.923 C 1268.471 592.009 1274.222 597.774 1281.289 597.774 L 1327.543 597.774 C 1334.61 597.774 1340.361 592.009 1340.361 584.923 L 1340.361 348.25 C 1340.361 341.164 1334.61 335.399 1327.543 335.399 L 1281.289 335.399 Z  M 1329.374 348.25 L 1329.374 584.923 C 1329.374 585.935 1328.553 586.759 1327.543 586.759 L 1281.289 586.759 C 1280.279 586.759 1279.458 585.935 1279.458 584.923 L 1279.458 348.25 C 1279.458 347.238 1280.279 346.414 1281.289 346.414 L 1327.543 346.414 C 1328.553 346.414 1329.374 347.238 1329.374 348.25 Z " fill="url(#_lgradient_66)"/><linearGradient id="_lgradient_67" x1="-2.4863775131728714" y1="5.947315876204336" x2="1.429457526236099" y2="5.947315876204336" gradientTransform="matrix(95.765,0,0,49.882,1346.608,335.399)" gradientUnits="userSpaceOnUse"><stop offset="0%" stop-opacity="1" style="stop-color:rgb(118,197,255)"/><stop offset="100%" stop-opacity="1" style="stop-color:rgb(31,131,203)"/></linearGradient><path d=" M 1359.425 385.281 L 1429.555 385.281 C 1436.622 385.281 1442.373 379.515 1442.373 372.429 L 1442.373 348.25 C 1442.373 341.164 1436.622 335.399 1429.555 335.399 L 1359.425 335.399 C 1352.358 335.399 1346.608 341.164 1346.608 348.25 L 1346.608 372.429 C 1346.608 379.515 1352.358 385.281 1359.425 385.281 Z  M 1357.594 348.25 C 1357.594 347.238 1358.415 346.414 1359.425 346.414 L 1429.555 346.414 C 1430.565 346.414 1431.386 347.238 1431.386 348.25 L 1431.386 372.429 C 1431.386 373.441 1430.565 374.265 1429.555 374.265 L 1359.425 374.265 C 1358.415 374.265 1357.594 373.441 1357.594 372.429 L 1357.594 348.25 Z " fill="url(#_lgradient_67)"/><linearGradient id="_lgradient_68" x1="-2.486377513172872" y1="1.1661821001114505" x2="1.429457526236099" y2="1.1661821001114505" gradientTransform="matrix(95.765,0,0,206.37,1346.608,391.399)" gradientUnits="userSpaceOnUse"><stop offset="0%" stop-opacity="1" style="stop-color:rgb(118,197,255)"/><stop offset="100%" stop-opacity="1" style="stop-color:rgb(31,131,203)"/></linearGradient><path d=" M 1346.608 584.918 C 1346.608 592.004 1352.358 597.769 1359.425 597.769 L 1429.555 597.769 C 1436.622 597.769 1442.373 592.004 1442.373 584.918 L 1442.373 404.25 C 1442.373 397.164 1436.622 391.399 1429.555 391.399 L 1359.425 391.399 C 1352.358 391.399 1346.608 397.164 1346.608 404.25 L 1346.608 584.918 Z  M 1357.594 404.25 C 1357.594 403.238 1358.415 402.415 1359.425 402.415 L 1429.555 402.415 C 1430.565 402.415 1431.386 403.238 1431.386 404.25 L 1431.386 584.918 C 1431.386 585.93 1430.565 586.754 1429.555 586.754 L 1359.425 586.754 C 1358.415 586.754 1357.594 585.93 1357.594 584.918 L 1357.594 404.25 Z " fill="url(#_lgradient_68)"/></g></g></svg>