<svg width="355" height="300" viewBox="0 0 355 300" fill="none" xmlns="http://www.w3.org/2000/svg">
<g clip-path="url(#clip0_1883:925)">
<path d="M342.599 36.6549H12.1243C5.43932 36.6549 0 31.2215 0 24.5437V12.4318C0 5.754 5.43932 0.320557 12.1243 0.320557H56.6802C59.5505 0.320557 61.8763 2.64383 61.8763 5.51108C61.8763 8.37832 59.5505 10.7016 56.6802 10.7016H12.1243C11.1689 10.7016 10.3923 11.4774 10.3923 12.4318V24.5437C10.3923 25.498 11.1689 26.2739 12.1243 26.2739H342.599C343.554 26.2739 344.331 25.498 344.331 24.5437V12.4318C344.331 11.4774 343.554 10.7016 342.599 10.7016H80.5977C77.7273 10.7016 75.4015 8.37832 75.4015 5.51108C75.4015 2.64383 77.7273 0.320557 80.5977 0.320557H342.599C349.284 0.320557 354.723 5.754 354.723 12.4318V24.5437C354.723 31.2215 349.284 36.6549 342.599 36.6549Z" fill="url(#paint0_linear_1883:925)"/>
<path d="M102.122 142.987H29.6907C23.0057 142.987 17.5664 137.554 17.5664 130.876V58.5232C17.5664 51.8454 23.0057 46.412 29.6907 46.412H102.122C108.807 46.412 114.246 51.8454 114.246 58.5232V130.876C114.246 137.554 108.808 142.987 102.122 142.987ZM29.6907 56.793C28.7353 56.793 27.9587 57.5688 27.9587 58.5232V130.876C27.9587 131.831 28.7353 132.606 29.6907 132.606H102.122C103.078 132.606 103.854 131.831 103.854 130.876V58.5232C103.854 57.5688 103.078 56.793 102.122 56.793H29.6907Z" fill="url(#paint1_linear_1883:925)"/>
<path d="M213.577 142.987H141.146C134.461 142.987 129.021 137.554 129.021 130.876V58.5232C129.021 51.8454 134.461 46.412 141.146 46.412H213.578C220.263 46.412 225.702 51.8454 225.702 58.5232V130.876C225.701 137.554 220.263 142.987 213.577 142.987ZM141.146 56.793C140.19 56.793 139.414 57.5688 139.414 58.5232V130.876C139.414 131.831 140.19 132.606 141.146 132.606H213.578C214.533 132.606 215.31 131.831 215.31 130.876V58.5232C215.31 57.5688 214.533 56.793 213.578 56.793H141.146Z" fill="url(#paint2_linear_1883:925)"/>
<path d="M325.032 142.987H252.601C245.916 142.987 240.476 137.554 240.476 130.876V58.5232C240.476 51.8454 245.916 46.412 252.601 46.412H325.032C331.717 46.412 337.157 51.8454 337.157 58.5232V130.876C337.157 137.554 331.717 142.987 325.032 142.987ZM252.601 56.793C251.645 56.793 250.869 57.5688 250.869 58.5232V130.876C250.869 131.831 251.645 132.606 252.601 132.606H325.032C325.988 132.606 326.764 131.831 326.764 130.876V58.5232C326.764 57.5688 325.988 56.793 325.032 56.793H252.601Z" fill="url(#paint3_linear_1883:925)"/>
<path d="M342.599 193.341H12.1243C5.43932 193.341 0 187.908 0 181.23V169.118C0 162.44 5.43932 157.007 12.1243 157.007H342.599C349.284 157.007 354.723 162.44 354.723 169.118V181.23C354.723 187.908 349.284 193.341 342.599 193.341ZM12.1243 167.388C11.1689 167.388 10.3923 168.164 10.3923 169.118V181.23C10.3923 182.184 11.1689 182.96 12.1243 182.96H342.599C343.554 182.96 344.331 182.184 344.331 181.23V169.118C344.331 168.164 343.554 167.388 342.599 167.388H12.1243Z" fill="url(#paint4_linear_1883:925)"/>
<path d="M102.122 299.675H86.8324C83.962 299.675 81.6362 297.351 81.6362 294.484C81.6362 291.617 83.962 289.294 86.8324 289.294H102.122C103.078 289.294 103.854 288.518 103.854 287.563V215.21C103.854 214.256 103.078 213.48 102.122 213.48H29.6908C28.7354 213.48 27.9587 214.256 27.9587 215.21V287.563C27.9587 288.518 28.7354 289.294 29.6908 289.294H62.9149C65.7852 289.294 68.111 291.617 68.111 294.484C68.111 297.351 65.7852 299.675 62.9149 299.675H29.6908C23.0058 299.675 17.5664 294.241 17.5664 287.563V215.21C17.5664 208.533 23.0058 203.099 29.6908 203.099H102.122C108.807 203.099 114.247 208.533 114.247 215.21V287.563C114.247 294.241 108.808 299.675 102.122 299.675Z" fill="url(#paint5_linear_1883:925)"/>
<path d="M213.577 299.675H141.146C134.461 299.675 129.021 294.242 129.021 287.564V215.21C129.021 208.533 134.461 203.099 141.146 203.099H213.578C220.263 203.099 225.702 208.533 225.702 215.21V287.564C225.702 294.242 220.263 299.675 213.577 299.675ZM141.146 213.48C140.19 213.48 139.414 214.256 139.414 215.21V287.564C139.414 288.518 140.19 289.294 141.146 289.294H213.578C214.533 289.294 215.31 288.518 215.31 287.564V215.21C215.31 214.256 214.533 213.48 213.578 213.48H141.146Z" fill="url(#paint6_linear_1883:925)"/>
<path d="M325.032 299.675H252.601C245.916 299.675 240.476 294.242 240.476 287.564V215.211C240.476 208.533 245.916 203.099 252.601 203.099H325.032C331.717 203.099 337.157 208.533 337.157 215.211V240.802C337.157 243.669 334.831 245.992 331.96 245.992C329.09 245.992 326.764 243.669 326.764 240.802V215.211C326.764 214.256 325.988 213.48 325.032 213.48H252.601C251.645 213.48 250.869 214.256 250.869 215.211V287.564C250.869 288.518 251.645 289.294 252.601 289.294H325.032C325.988 289.294 326.764 288.518 326.764 287.564V264.694C326.764 261.826 329.09 259.503 331.96 259.503C334.831 259.503 337.157 261.826 337.157 264.694V287.564C337.157 294.242 331.717 299.675 325.032 299.675Z" fill="url(#paint7_linear_1883:925)"/>
</g>
<defs>
<linearGradient id="paint0_linear_1883:925" x1="5.43445e-05" y1="299.675" x2="354.723" y2="299.675" gradientUnits="userSpaceOnUse">
<stop stop-color="#76C5FF"/>
<stop offset="1" stop-color="#1F83CB"/>
</linearGradient>
<linearGradient id="paint1_linear_1883:925" x1="5.43445e-05" y1="299.675" x2="354.723" y2="299.675" gradientUnits="userSpaceOnUse">
<stop stop-color="#76C5FF"/>
<stop offset="1" stop-color="#1F83CB"/>
</linearGradient>
<linearGradient id="paint2_linear_1883:925" x1="5.43445e-05" y1="299.675" x2="354.723" y2="299.675" gradientUnits="userSpaceOnUse">
<stop stop-color="#76C5FF"/>
<stop offset="1" stop-color="#1F83CB"/>
</linearGradient>
<linearGradient id="paint3_linear_1883:925" x1="5.43445e-05" y1="299.675" x2="354.723" y2="299.675" gradientUnits="userSpaceOnUse">
<stop stop-color="#76C5FF"/>
<stop offset="1" stop-color="#1F83CB"/>
</linearGradient>
<linearGradient id="paint4_linear_1883:925" x1="5.43445e-05" y1="299.675" x2="354.723" y2="299.675" gradientUnits="userSpaceOnUse">
<stop stop-color="#76C5FF"/>
<stop offset="1" stop-color="#1F83CB"/>
</linearGradient>
<linearGradient id="paint5_linear_1883:925" x1="5.43445e-05" y1="299.675" x2="354.723" y2="299.675" gradientUnits="userSpaceOnUse">
<stop stop-color="#76C5FF"/>
<stop offset="1" stop-color="#1F83CB"/>
</linearGradient>
<linearGradient id="paint6_linear_1883:925" x1="5.43445e-05" y1="299.675" x2="354.723" y2="299.675" gradientUnits="userSpaceOnUse">
<stop stop-color="#76C5FF"/>
<stop offset="1" stop-color="#1F83CB"/>
</linearGradient>
<linearGradient id="paint7_linear_1883:925" x1="5.43445e-05" y1="299.675" x2="354.723" y2="299.675" gradientUnits="userSpaceOnUse">
<stop stop-color="#76C5FF"/>
<stop offset="1" stop-color="#1F83CB"/>
</linearGradient>
<clipPath id="clip0_1883:925">
<rect width="354.723" height="300" fill="white"/>
</clipPath>
</defs>
</svg>
