<svg width="413" height="105" viewBox="0 0 413 105" fill="none" xmlns="http://www.w3.org/2000/svg">
<path fill-rule="evenodd" clip-rule="evenodd" d="M33.4562 0H8.76463e-06V12.4556H39.6116L33.4562 0ZM8.79704e-07 16.4143L65.3916 84.9198L65.3917 104.06L53.9741 92.3811V104.641H14.5315V104.641H8.79704e-07V104.641V92.1855L0 37.1735L8.79704e-07 17.4523V16.4143ZM14.5315 52.0371L53.7829 92.1855H14.5315V52.0371ZM163.066 102.841V16.4143H147.879V102.841H163.066ZM124.348 44.9829C119.485 42.1021 114.104 40.6616 108.204 40.6616C102.384 40.6616 97.0029 42.1021 92.0601 44.9829C87.197 47.7838 83.2905 51.625 80.3407 56.5065C77.391 61.3079 75.9161 66.7096 75.9161 72.7114C75.9161 78.7132 77.391 84.1148 80.3407 88.9163C83.2905 93.7178 87.197 97.5589 92.0601 100.44C97.0029 103.241 102.384 104.641 108.204 104.641C114.104 104.641 119.485 103.241 124.348 100.44C129.211 97.5589 133.118 93.7178 136.067 88.9163C139.097 84.1148 140.612 78.7132 140.612 72.7114C140.612 66.7096 139.097 61.3079 136.067 56.5065C133.118 51.625 129.211 47.7838 124.348 44.9829ZM100.192 57.4667C102.663 56.1063 105.334 55.4261 108.204 55.4261C111.074 55.4261 113.745 56.1063 116.216 57.4667C118.688 58.8272 120.681 60.7878 122.196 63.3485C123.71 65.9093 124.468 69.0303 124.468 72.7114C124.468 76.3925 123.71 79.5134 122.196 82.0742C120.681 84.635 118.688 86.5956 116.216 87.956C113.745 89.2364 111.074 89.8766 108.204 89.8766C105.334 89.8766 102.663 89.2364 100.192 87.956C97.7205 86.5956 95.7274 84.635 94.2126 82.0742C92.7776 79.5134 92.0601 76.3925 92.0601 72.7114C92.0601 69.0303 92.7776 65.9093 94.2126 63.3485C95.7274 60.7878 97.7205 58.8272 100.192 57.4667ZM193.115 42.2221V49.9044C194.949 47.5837 197.141 45.4631 199.693 43.5425C202.323 41.6219 205.672 40.6616 209.738 40.6616C213.963 40.6616 217.79 41.6619 221.218 43.6625C224.646 45.5831 227.317 48.504 229.23 52.4252C231.622 49.1442 234.412 46.3834 237.601 44.1427C240.79 41.822 244.497 40.6616 248.722 40.6616C252.788 40.6616 256.495 41.6219 259.844 43.5425C263.192 45.3831 265.863 48.1439 267.856 51.825C269.929 55.5061 270.965 60.1075 270.965 65.6292V102.841H255.778L255.658 67.6698C255.658 63.5886 254.582 60.5477 252.43 58.5471C250.357 56.5465 247.606 55.5462 244.178 55.5462C241.547 55.5462 239.275 56.3864 237.362 58.0669C235.448 59.6674 233.655 61.588 231.981 63.8287V102.841H216.793L216.674 67.6698C216.674 63.5886 215.597 60.5477 213.445 58.5471C211.372 56.5465 208.661 55.5462 205.313 55.5462C202.762 55.5462 200.49 56.3464 198.497 57.9469C196.504 59.4674 194.71 61.2679 193.115 63.3485V102.841H177.928V42.2221H193.115ZM328.563 44.5028C324.338 41.942 319.275 40.6616 313.376 40.6616C307.476 40.6616 302.214 42.1821 297.59 45.223C292.966 48.1839 289.339 52.1051 286.708 56.9866C284.077 61.8681 282.762 67.2697 282.762 73.1915C282.762 79.2734 284.197 84.675 287.067 89.3965C290.017 94.1179 293.923 97.839 298.786 100.56C303.729 103.281 309.19 104.641 315.169 104.641C319.714 104.641 323.859 103.801 327.606 102.12C331.433 100.36 334.303 98.6393 336.216 96.9588L336.336 82.7944C334.183 84.635 331.313 86.4356 327.726 88.1961C324.138 89.9566 320.152 90.8369 315.767 90.8369C311.143 90.8369 307.237 89.5965 304.048 87.1158C300.859 84.635 298.866 81.354 298.069 77.2728H341.837V70.7908C341.837 64.869 340.681 59.6674 338.369 55.1861C336.137 50.6247 332.868 47.0636 328.563 44.5028ZM303.57 57.4667C306.121 55.146 309.27 53.9857 313.017 53.9857C316.445 53.9857 319.594 55.066 322.464 57.2267C325.334 59.3073 326.929 62.5083 327.248 66.8296H298.308C299.265 62.9084 301.019 59.7874 303.57 57.4667ZM372.468 42.2221V50.8647C374.301 48.384 376.773 46.0633 379.882 43.9026C383.071 41.742 386.698 40.6616 390.764 40.6616C396.903 40.6616 402.045 42.7423 406.191 46.9035C410.336 51.0648 412.409 57.3067 412.409 65.6292V102.841H397.222L397.102 67.6698C397.102 63.5886 396.106 60.5477 394.113 58.5471C392.199 56.5465 389.528 55.5462 386.1 55.5462C383.39 55.5462 380.839 56.4264 378.447 58.187C376.135 59.9475 374.142 62.0281 372.468 64.4289V102.841H357.28V42.2221H372.468Z" fill="url(#paint0_linear)"/>
<defs>
<linearGradient id="paint0_linear" x1="6.31821e-05" y1="104.641" x2="412.409" y2="104.641" gradientUnits="userSpaceOnUse">
<stop stop-color="#CECECE"/>
<stop offset="1" stop-color="#B0B0B0"/>
</linearGradient>
</defs>
</svg>
