<svg width="370" height="370" viewBox="0 0 370 370" fill="none" xmlns="http://www.w3.org/2000/svg">
<mask id="mask0" mask-type="alpha" maskUnits="userSpaceOnUse" x="0" y="0" width="370" height="370">
<path d="M160.334 203.5H24.6672C21.2617 203.5 18.5005 206.261 18.5005 209.667C18.445 229.671 22.6669 249.456 30.8832 267.695L42.1312 262.651C35.4851 247.891 31.6972 232.005 30.9695 215.833H154.167V339.037C126.255 337.767 99.5051 327.49 77.9225 309.746L70.0785 319.255C95.3919 340.08 127.148 351.477 159.927 351.5H160.334C163.739 351.5 166.501 348.739 166.501 345.333V209.667C166.501 206.261 163.739 203.5 160.334 203.5Z" fill="#111111"/>
<path d="M252.833 357.667H240.5V370H252.833V357.667Z" fill="#111111"/>
<path d="M277.499 357.667H265.166V370H277.499V357.667Z" fill="#111111"/>
<path d="M302.167 357.667H289.834V370H302.167V357.667Z" fill="#111111"/>
<path d="M326.833 357.667H314.5V370H326.833V357.667Z" fill="#111111"/>
<path d="M191.167 43.3208V0H178.834V43.3208C145.511 44.7476 113.766 57.9173 89.2198 80.4997L41.3603 32.6402L32.6406 41.3598L80.5001 89.2193C56.4686 115.324 43.1409 149.518 43.1671 185C43.1671 188.406 45.9282 191.167 49.3338 191.167H178.834V320.667C178.834 324.072 181.595 326.833 185 326.833C263.333 326.596 326.64 262.902 326.403 184.57C326.173 108.97 266.686 46.8374 191.167 43.3208ZM55.6423 178.833C57.0876 148.792 68.9893 120.201 89.2876 98.0068L170.114 178.833H55.6423ZM178.834 170.114L98.0135 89.2933C120.223 69.0451 148.812 57.1981 178.834 55.8022V170.114ZM191.167 55.8145C197.727 56.0735 204.258 56.8297 210.703 58.0777L191.167 77.6137V55.8145ZM191.167 95.053L224.504 61.716C229.29 63.287 233.979 65.14 238.546 67.266L191.167 114.614V95.053ZM191.167 132.053L250.028 73.1922C254.091 75.5725 258.023 78.1702 261.806 80.9745L191.167 151.614V132.053ZM191.167 169.053L271.402 88.8C274.842 91.8872 278.113 95.1586 281.2 98.5988L191.167 188.614V169.053ZM191.167 206.053L289.026 108.194C291.83 111.977 294.428 115.909 296.808 119.972L191.167 225.614V206.053ZM191.167 243.053L302.784 131.436C304.9 136.004 306.742 140.692 308.303 145.478L191.167 262.614V243.053ZM191.167 280.053L311.923 159.297C313.032 165.043 313.754 170.857 314.081 176.7L191.167 299.614V280.053ZM246.334 298.886L299.084 246.143C287.016 268.489 268.682 286.822 246.334 298.886ZM310.184 217.683V217.616L217.684 310.116L217.782 310.214C210.056 312.219 202.159 313.501 194.195 314.044L314.05 194.17C313.493 202.11 312.198 209.982 310.184 217.683Z" fill="#111111"/>
<path d="M246.667 37H271.333C274.739 37 277.5 34.2389 277.5 30.8333V6.16667C277.5 2.76112 274.739 0 271.333 0H246.667C243.261 0 240.5 2.76112 240.5 6.16667V30.8333C240.5 34.2389 243.261 37 246.667 37ZM252.833 12.3333H265.167V24.6667H252.833V12.3333Z" fill="#111111"/>
<path d="M370.001 0H289.834V12.3333H370.001V0Z" fill="#111111"/>
<path d="M370.001 24.6667H289.834V37H370.001V24.6667Z" fill="#111111"/>
<path d="M92.5 271.333H0V283.667H92.5V271.333Z" fill="#111111"/>
<path d="M92.5 296H0V308.333H92.5V296Z" fill="#111111"/>
<path d="M135.667 308.333C139.073 308.333 141.834 305.572 141.834 302.167V277.5C141.834 274.094 139.073 271.333 135.667 271.333H111.001C107.595 271.333 104.834 274.094 104.834 277.5V302.167C104.834 305.572 107.595 308.333 111.001 308.333H135.667ZM117.167 283.667H129.501V296H117.167V283.667Z" fill="#111111"/>
</mask>
<g mask="url(#mask0)">
<rect width="370" height="370" fill="url(#paint0_linear)"/>
</g>
<defs>
<linearGradient id="paint0_linear" x1="5.66849e-05" y1="370" x2="370" y2="370" gradientUnits="userSpaceOnUse">
<stop stop-color="#76C5FF"/>
<stop offset="1" stop-color="#1F83CB"/>
</linearGradient>
</defs>
</svg>
