<svg width="372" height="372" viewBox="0 0 372 372" fill="none" xmlns="http://www.w3.org/2000/svg">
<mask id="mask0" mask-type="alpha" maskUnits="userSpaceOnUse" x="0" y="0" width="372" height="372">
<path d="M313.875 331.312H337.125V342.938H313.875V331.312Z" fill="#111111"/>
<path d="M313.875 308.062H337.125V319.688H313.875V308.062Z" fill="#111111"/>
<path d="M34.875 191.812H58.125V203.438H34.875V191.812Z" fill="#111111"/>
<path d="M34.875 168.562H58.125V180.188H34.875V168.562Z" fill="#111111"/>
<path d="M366.188 87.1875V5.8125H249.938V40.6875H226.688C210.662 40.6875 197.625 53.7249 197.625 69.75V104.625H174.375V75.5625C174.375 59.5374 161.338 46.5 145.312 46.5H112.379L63.9375 10.1719L7.74806 52.3125L63.9375 94.4531L112.379 58.125H145.312C154.926 58.125 162.75 65.9486 162.75 75.5625V104.625H122.062C112.449 104.625 104.625 112.449 104.625 122.062V133.688C104.625 143.301 112.449 151.125 122.062 151.125H123.132C122.481 152.95 122.062 154.892 122.062 156.938C122.062 158.983 122.481 160.925 123.132 162.75H122.062C112.449 162.75 104.625 170.574 104.625 180.188H86.7225C83.886 160.501 66.9542 145.312 46.5 145.312C24.0696 145.312 5.8125 163.564 5.8125 186C5.8125 208.436 24.0696 226.688 46.5 226.688C66.9542 226.688 83.886 211.499 86.7225 191.812H104.625C104.625 201.426 112.449 209.25 122.062 209.25H123.132C122.481 211.075 122.062 213.017 122.062 215.062C122.062 217.108 122.481 219.05 123.132 220.875H122.062C112.449 220.875 104.625 228.699 104.625 238.312V249.938C104.625 259.551 112.449 267.375 122.062 267.375H162.75V302.25C162.75 311.864 154.926 319.688 145.312 319.688H122.062V284.812H5.8125V366.188H122.062V331.312H145.312C161.338 331.312 174.375 318.275 174.375 302.25V267.375H197.625V302.25C197.625 318.275 210.662 331.312 226.688 331.312H285.278C288.114 350.999 305.046 366.188 325.5 366.188C347.93 366.188 366.188 347.936 366.188 325.5C366.188 303.064 347.93 284.812 325.5 284.812C305.046 284.812 288.114 300.001 285.278 319.688H226.688C217.074 319.688 209.25 311.864 209.25 302.25V267.375H249.938C259.551 267.375 267.375 259.551 267.375 249.938V238.312C267.375 228.699 259.551 220.875 249.938 220.875H248.868C249.519 219.05 249.938 217.108 249.938 215.062C249.938 213.017 249.519 211.075 248.868 209.25H249.938C259.551 209.25 267.375 201.426 267.375 191.812H296.438V226.688H366.188V145.312H296.438V180.188H267.375C267.375 170.574 259.551 162.75 249.938 162.75H248.868C249.519 160.925 249.938 158.983 249.938 156.938C249.938 154.892 249.519 152.95 248.868 151.125H249.938C259.551 151.125 267.375 143.301 267.375 133.688V122.062C267.375 112.449 259.551 104.625 249.938 104.625H209.25V69.75C209.25 60.1361 217.074 52.3125 226.688 52.3125H249.938V87.1875H366.188ZM63.9375 79.9219L27.1269 52.3125L63.9375 24.7031L100.748 52.3125L63.9375 79.9219ZM46.5 215.062C30.4749 215.062 17.4375 202.025 17.4375 186C17.4375 169.975 30.4749 156.938 46.5 156.938C62.5251 156.938 75.5625 169.975 75.5625 186C75.5625 202.025 62.5251 215.062 46.5 215.062ZM110.438 354.562H17.4375V296.438H110.438V354.562ZM325.5 296.438C341.525 296.438 354.562 309.475 354.562 325.5C354.562 341.525 341.525 354.562 325.5 354.562C309.475 354.562 296.438 341.525 296.438 325.5C296.438 309.475 309.475 296.438 325.5 296.438ZM308.062 156.938H354.562V215.062H308.062V156.938ZM255.75 238.312V249.938C255.75 253.14 253.146 255.75 249.938 255.75H122.062C118.854 255.75 116.25 253.14 116.25 249.938V238.312C116.25 235.11 118.854 232.5 122.062 232.5H139.5H232.5H249.938C253.146 232.5 255.75 235.11 255.75 238.312ZM238.312 215.062C238.312 218.265 235.708 220.875 232.5 220.875H139.5C136.292 220.875 133.688 218.265 133.688 215.062C133.688 211.86 136.292 209.25 139.5 209.25H232.5C235.708 209.25 238.312 211.86 238.312 215.062ZM255.75 180.188V191.812C255.75 195.015 253.146 197.625 249.938 197.625H232.5H139.5H122.062C118.854 197.625 116.25 195.015 116.25 191.812V180.188C116.25 176.985 118.854 174.375 122.062 174.375H139.5H232.5H249.938C253.146 174.375 255.75 176.985 255.75 180.188ZM238.312 156.938C238.312 160.14 235.708 162.75 232.5 162.75H139.5C136.292 162.75 133.688 160.14 133.688 156.938C133.688 153.735 136.292 151.125 139.5 151.125H232.5C235.708 151.125 238.312 153.735 238.312 156.938ZM255.75 122.062V133.688C255.75 136.89 253.146 139.5 249.938 139.5H232.5H139.5H122.062C118.854 139.5 116.25 136.89 116.25 133.688V122.062C116.25 118.86 118.854 116.25 122.062 116.25H249.938C253.146 116.25 255.75 118.86 255.75 122.062ZM261.562 17.4375H354.562V75.5625H261.562V17.4375Z" fill="#111111"/>
<path d="M29.0625 308.062H40.6875V319.688H29.0625V308.062Z" fill="#111111"/>
<path d="M52.3125 308.062H63.9375V319.688H52.3125V308.062Z" fill="#111111"/>
<path d="M75.5625 308.062H98.8125V319.688H75.5625V308.062Z" fill="#111111"/>
<path d="M29.0625 331.312H98.8125V342.938H29.0625V331.312Z" fill="#111111"/>
<path d="M273.188 29.0625H342.938V40.6875H273.188V29.0625Z" fill="#111111"/>
<path d="M273.188 52.3125H342.938V63.9375H273.188V52.3125Z" fill="#111111"/>
<path d="M46.5 46.5H81.375V58.125H46.5V46.5Z" fill="#111111"/>
<path d="M319.688 168.562H342.938V180.188H319.688V168.562Z" fill="#111111"/>
<path d="M319.688 191.812H342.938V203.438H319.688V191.812Z" fill="#111111"/>
</mask>
<g mask="url(#mask0)">
<rect width="372" height="372" fill="url(#paint0_linear)"/>
</g>
<defs>
<linearGradient id="paint0_linear" x1="5.69914e-05" y1="372" x2="372" y2="372" gradientUnits="userSpaceOnUse">
<stop stop-color="#76C5FF"/>
<stop offset="1" stop-color="#1F83CB"/>
</linearGradient>
</defs>
</svg>
