<?xml version="1.0" encoding="UTF-8" standalone="no"?><!-- Generator: Gravit.io --><svg xmlns="http://www.w3.org/2000/svg" xmlns:xlink="http://www.w3.org/1999/xlink" style="isolation:isolate" viewBox="0 0 426 426" width="426pt" height="426pt"><defs><clipPath id="_clipPath_cIxKsHrUevRewQPNgeRG4P9YiXS9kE3t"><rect width="426" height="426"/></clipPath></defs><g clip-path="url(#_clipPath_cIxKsHrUevRewQPNgeRG4P9YiXS9kE3t)"><linearGradient id="_lgradient_0" x1="1.5320279424216767e-7" y1="0.9999999999999998" x2="1" y2="0.9999999999999998" gradientTransform="matrix(425.16,0,0,425.161,0,0.426)" gradientUnits="userSpaceOnUse"><stop offset="0%" stop-opacity="1" style="stop-color:rgb(118,197,255)"/><stop offset="100%" stop-opacity="1" style="stop-color:rgb(31,131,203)"/></linearGradient><path d=" M 329.156 206.149 L 342.871 206.149 L 342.871 165.004 L 425.16 165.004 L 425.16 261.008 L 342.871 261.008 L 342.871 219.863 L 329.156 219.863 L 329.156 261.008 L 246.867 261.008 L 246.867 219.863 L 205.723 219.863 L 205.723 238.906 L 186.508 243.803 C 185.692 245.99 184.773 248.185 183.765 250.358 L 193.907 267.427 L 157.275 304.059 L 140.207 293.91 C 138.033 294.925 135.832 295.837 133.651 296.653 L 128.762 315.867 L 109.719 315.867 L 109.719 357.012 L 164.578 357.012 L 164.578 425.586 L 41.145 425.586 L 41.145 343.297 L 78.271 343.297 L 91.986 357.012 L 96.004 357.012 L 96.004 315.867 L 76.961 315.867 L 72.072 296.653 C 69.891 295.837 67.69 294.918 65.516 293.91 L 48.448 304.059 L 11.815 267.427 L 21.958 250.358 C 20.949 248.185 20.031 245.99 19.215 243.803 L 0 238.913 L 0 187.105 L 19.215 182.216 C 20.031 180.022 20.949 177.834 21.958 175.654 L 11.815 158.585 L 48.448 121.953 L 65.516 132.102 C 67.69 131.087 69.891 130.175 72.072 129.359 L 76.961 110.145 L 96.004 110.145 L 96.004 82.715 L 41.145 82.715 L 41.145 0.426 L 91.986 0.426 L 105.7 14.141 L 164.578 14.141 L 164.578 82.715 L 109.719 82.715 L 109.719 110.145 L 128.762 110.145 L 133.651 129.359 C 135.832 130.175 138.033 131.094 140.207 132.102 L 157.275 121.953 L 193.907 158.585 L 183.765 175.654 C 184.773 177.834 185.692 180.029 186.508 182.216 L 205.723 187.105 L 205.723 206.149 L 246.867 206.149 L 246.867 165.004 L 329.156 165.004 L 329.156 206.149 L 329.156 206.149 Z  M 86.308 14.141 L 54.859 14.141 L 54.859 69 L 150.863 69 L 150.863 27.856 L 100.022 27.856 L 86.308 14.141 L 86.308 14.141 Z  M 54.859 411.871 L 150.863 411.871 L 150.863 370.727 L 86.308 370.727 L 72.593 357.012 L 54.859 357.012 L 54.859 411.871 L 54.859 411.871 Z  M 175.866 232.358 L 192.008 228.25 L 192.008 197.762 L 175.866 193.647 L 174.714 190.027 C 173.486 186.2 171.861 182.319 169.879 178.486 L 168.13 175.105 L 176.675 160.739 L 155.122 139.186 L 140.756 147.73 L 137.382 145.988 C 133.542 144.007 129.66 142.388 125.82 141.161 L 122.199 140.002 L 118.099 123.859 L 87.617 123.859 L 83.523 140.016 L 79.903 141.174 C 76.063 142.402 72.181 144.02 68.341 146.002 L 64.967 147.744 L 50.601 139.2 L 29.048 160.752 L 37.592 175.119 L 35.844 178.499 C 33.862 182.326 32.237 186.214 31.009 190.04 L 29.857 193.661 L 13.715 197.769 L 13.715 228.25 L 29.857 232.358 L 31.009 235.978 C 32.237 239.812 33.862 243.693 35.837 247.519 L 37.592 250.9 L 29.048 265.273 L 50.601 286.826 L 64.967 278.282 L 68.341 280.024 C 72.181 282.005 76.063 283.624 79.903 284.851 L 83.523 286.01 L 87.624 302.153 L 118.105 302.153 L 122.199 286.01 L 125.82 284.851 C 129.66 283.624 133.542 282.005 137.382 280.024 L 140.756 278.282 L 155.122 286.826 L 176.675 265.273 L 168.13 250.9 L 169.886 247.519 C 171.861 243.693 173.486 239.812 174.714 235.978 L 175.866 232.358 L 175.866 232.358 Z  M 260.582 247.293 L 315.442 247.293 L 315.442 178.719 L 260.582 178.719 L 260.582 247.293 L 260.582 247.293 Z  M 411.446 178.719 L 356.586 178.719 L 356.586 247.293 L 411.446 247.293 L 411.446 178.719 L 411.446 178.719 Z  M 102.861 151.289 C 68.828 151.289 41.145 178.979 41.145 213.006 C 41.145 247.032 68.828 274.722 102.861 274.722 C 136.895 274.722 164.578 247.032 164.578 213.006 C 164.578 178.979 136.895 151.289 102.861 151.289 Z  M 102.861 261.008 C 76.399 261.008 54.859 239.475 54.859 213.006 C 54.859 186.536 76.399 165.004 102.861 165.004 C 129.324 165.004 150.863 186.536 150.863 213.006 C 150.863 239.475 129.324 261.008 102.861 261.008 Z  M 102.861 178.719 C 83.955 178.719 68.574 194.1 68.574 213.006 C 68.574 231.912 83.955 247.293 102.861 247.293 C 121.767 247.293 137.148 231.912 137.148 213.006 C 137.148 194.1 121.767 178.719 102.861 178.719 Z  M 102.861 233.578 C 91.519 233.578 82.289 224.348 82.289 213.006 C 82.289 201.664 91.519 192.434 102.861 192.434 C 114.204 192.434 123.434 201.664 123.434 213.006 C 123.434 224.348 114.204 233.578 102.861 233.578 Z  M 301.727 192.434 L 274.297 192.434 L 274.297 206.149 L 301.727 206.149 L 301.727 192.434 L 301.727 192.434 Z  M 274.297 219.863 L 301.727 219.863 L 301.727 233.578 L 274.297 233.578 L 274.297 219.863 L 274.297 219.863 Z  M 370.301 192.434 L 397.73 192.434 L 397.73 206.149 L 370.301 206.149 L 370.301 192.434 L 370.301 192.434 Z  M 397.73 219.863 L 370.301 219.863 L 370.301 233.578 L 397.73 233.578 L 397.73 219.863 L 397.73 219.863 Z  M 274.297 27.856 L 301.727 27.856 L 301.727 41.57 L 274.297 41.57 L 274.297 27.856 L 274.297 27.856 Z  M 301.727 55.289 L 274.297 55.289 L 274.297 69.003 L 301.727 69.003 L 301.727 55.289 L 301.727 55.289 Z  M 342.871 0.426 L 342.871 41.57 L 329.156 41.57 L 329.156 0.426 L 246.867 0.426 L 246.867 41.57 L 219.438 41.57 L 219.438 192.434 L 233.152 192.434 L 233.152 55.285 L 246.867 55.285 L 246.867 96.43 L 329.156 96.43 L 329.156 55.285 L 342.871 55.285 L 342.871 96.43 L 425.16 96.43 L 425.16 0.426 L 342.871 0.426 L 342.871 0.426 Z  M 315.441 82.715 L 260.582 82.715 L 260.582 14.141 L 315.441 14.141 L 315.441 82.715 L 315.441 82.715 Z  M 411.445 82.715 L 356.586 82.715 L 356.586 14.141 L 411.445 14.141 L 411.445 82.715 L 411.445 82.715 Z  M 397.73 27.856 L 370.301 27.856 L 370.301 41.57 L 397.73 41.57 L 397.73 27.856 L 397.73 27.856 Z  M 370.301 55.289 L 397.73 55.289 L 397.73 69.003 L 370.301 69.003 L 370.301 55.289 L 370.301 55.289 Z  M 301.727 384.446 L 274.297 384.446 L 274.297 398.161 L 301.727 398.161 L 301.727 384.446 L 301.727 384.446 Z  M 274.297 357.012 L 301.727 357.012 L 301.727 370.727 L 274.297 370.727 L 274.297 357.012 L 274.297 357.012 Z  M 329.156 370.727 L 342.871 370.727 L 342.871 329.583 L 425.16 329.583 L 425.16 425.587 L 342.871 425.587 L 342.871 384.442 L 329.156 384.442 L 329.156 425.587 L 246.867 425.587 L 246.867 384.442 L 219.438 384.442 L 219.438 233.579 L 233.152 233.579 L 233.152 370.727 L 246.867 370.727 L 246.867 329.583 L 329.156 329.583 L 329.156 370.727 L 329.156 370.727 Z  M 260.582 411.872 L 315.441 411.872 L 315.441 343.298 L 260.582 343.298 L 260.582 411.872 L 260.582 411.872 Z  M 411.445 343.298 L 356.586 343.298 L 356.586 411.872 L 411.445 411.872 L 411.445 343.298 L 411.445 343.298 Z  M 370.301 384.446 L 397.73 384.446 L 397.73 398.161 L 370.301 398.161 L 370.301 384.446 L 370.301 384.446 Z  M 397.73 357.012 L 370.301 357.012 L 370.301 370.727 L 397.73 370.727 L 397.73 357.012 L 397.73 357.012 Z " fill-rule="evenodd" fill="url(#_lgradient_0)"/></g></svg>