<svg width="258" height="406" viewBox="0 0 258 406" fill="none" xmlns="http://www.w3.org/2000/svg">
<path fill-rule="evenodd" clip-rule="evenodd" d="M18.6112 1.80458C11.2952 4.13721 6.13541 8.4456 2.57634 15.1958L0.412248 19.3001L0.176456 47.2726C-0.0775375 77.3523 0.0213647 78.1815 4.01009 79.4475C6.36408 80.1945 10.3045 78.3477 11.1607 76.0957C11.5595 75.0473 11.8855 62.8074 11.8855 48.8955C11.8855 21.4064 12.0208 20.4197 16.3379 16.3835C17.5881 15.214 19.6137 13.8792 20.8386 13.4163C22.2027 12.9004 30.9833 12.5744 43.4899 12.5744H63.913L65.6435 20.2891C68.0244 30.9031 71.1704 37.1857 76.0272 41.0248C83.0361 46.5644 84.0656 46.7037 116.055 46.4386L144.421 46.2028L148.658 43.856C156.929 39.2746 160.478 33.4383 163.469 19.4979L164.955 12.5744H185.495C204.732 12.5744 206.252 12.6796 209.461 14.2329C211.745 15.339 213.543 17.0102 214.854 19.2478L216.821 22.6044L216.822 49.8331L216.823 77.0619L208.944 76.7913C196.736 76.3711 188.552 78.7116 178.336 85.5441C165.28 94.2765 157.61 107.964 156.183 125.073L155.666 131.263L100.195 131.276L44.7227 131.289L41.617 133.056C39.6808 134.158 37.8181 136.137 36.6716 138.311L34.8319 141.799L34.8367 196.073C34.8391 230.48 35.1358 251.41 35.6469 253.25C36.6241 256.769 40.8297 260.643 44.8991 261.773C46.814 262.305 63.2832 262.605 90.7541 262.607L133.62 262.612L137.757 269.931C142.823 278.893 144.352 280.652 147.616 281.264C152.103 282.106 154.549 280.053 159.835 271.01L164.635 262.798L174.801 262.481C184.017 262.194 185.237 261.982 187.85 260.212C189.436 259.138 191.44 256.812 192.304 255.043C193.803 251.971 193.875 250.124 193.875 214.192V176.556L197.386 177.305C199.318 177.718 204.481 177.942 208.861 177.803L216.824 177.552L216.823 280.741L216.821 383.931L214.854 387.287C211.788 392.52 208.012 393.96 197.364 393.96H188.693L187.207 387.037C184.216 373.097 180.667 367.26 172.396 362.679L168.159 360.332L146.643 360.088C125.812 359.852 125.076 359.896 123.499 361.473C121.458 363.514 121.406 367.1 123.382 369.541C124.883 371.398 125.026 371.412 145.339 371.805C165.165 372.189 165.863 372.257 168.369 374.044C171.663 376.393 173.12 379.257 174.976 387.027C175.796 390.461 176.467 393.425 176.467 393.615C176.467 393.805 148.492 393.96 114.3 393.96C55.4585 393.96 52.1557 393.886 52.5593 392.576C52.7943 391.814 53.5578 388.699 54.2565 385.652C55.7789 379.013 57.5679 375.904 61.0867 373.783C63.4889 372.335 65.5224 372.167 84.9486 371.805L106.185 371.41L108.093 369.189C110.431 366.469 110.496 364.735 108.361 362.021L106.722 359.936H85.0277C65.6593 359.936 62.9121 360.097 59.3926 361.434C49.3753 365.24 44.9695 371.749 41.5252 387.828L40.2117 393.96H31.5625C25.9778 393.96 22.0096 393.574 20.3662 392.871C17.2866 391.553 13.8723 388.039 12.7274 385.007C12.1434 383.464 11.8855 338.758 11.8855 239.325V95.87L10.2452 93.7851C8.09852 91.0553 4.16914 90.9429 1.7289 93.5406L0 95.3803L0.205729 241.308L0.412248 387.235L2.50908 391.191C5.34574 396.542 9.81159 400.878 15.0505 403.366L19.4024 405.434H114.749H210.095L215.107 402.717C220.873 399.59 224.98 395.004 227.167 389.249C228.643 385.364 228.69 381.948 228.691 279.417L228.692 173.595L232.845 171.284C239.084 167.813 248.382 158.048 251.891 151.282C259.896 135.848 259.884 118.62 251.856 103.336C248.137 96.2538 240.726 88.3365 233.927 84.1832L228.746 81.0182L228.719 51.1569C228.692 23.6393 228.571 20.9807 227.167 17.2863C224.98 11.5307 220.873 6.94459 215.107 3.81833L210.095 1.10115L115.936 0.948439C41.4556 0.827376 21.1147 1.0062 18.6112 1.80458ZM152.729 12.9202C152.729 13.1101 152.058 16.0741 151.239 19.5082C149.382 27.2775 147.925 30.1419 144.631 32.4911C142.065 34.3213 141.865 34.3355 115.306 34.5618C88.8337 34.7874 88.5322 34.7715 85.3965 33.0094C81.3706 30.7464 79.5847 27.8211 77.9942 20.8826C77.2956 17.8362 76.532 14.7203 76.297 13.9591C75.8951 12.6535 78.0655 12.5744 114.3 12.5744C135.436 12.5744 152.729 12.7295 152.729 12.9202ZM218.575 90.1057C250.056 99.8295 255.961 141.985 228.351 159.894C216.214 167.767 200.182 168.261 187.65 161.146C174.09 153.447 166.139 136.992 168.531 121.576C170.616 108.135 180.306 95.9452 192.828 91.0094C197.889 89.0146 199.35 88.7717 207.045 88.6427C211.498 88.5683 215.061 89.0201 218.575 90.1057ZM196.386 114.895C195.44 115.902 194.666 117.699 194.666 118.888C194.666 121.83 197.897 124.933 200.96 124.933H203.37V132.489C203.37 142.568 204.868 145.506 210.011 145.506C210.982 145.506 212.555 144.779 213.507 143.892C215.153 142.359 215.239 141.634 215.239 129.254C215.239 112.878 215.355 113.064 205.09 113.064C198.814 113.064 197.933 113.249 196.386 114.895ZM162.035 150.237C165.684 157.818 172.391 165.608 178.65 169.533L182.021 171.646L181.815 210.996L181.61 250.347L170.137 250.743C163.827 250.96 158.251 251.407 157.746 251.734C157.242 252.062 155.134 255.35 153.063 259.039C148.801 266.631 149.632 266.794 144.114 257.271C142.286 254.115 140.717 251.453 140.628 251.352C140.538 251.252 119.457 250.985 93.7806 250.759L47.0964 250.347L46.8915 197.729C46.7791 168.788 46.8567 144.665 47.0648 144.121C47.3623 143.342 59.2565 143.143 103.053 143.183L158.664 143.232L162.035 150.237ZM81.2273 168.51C78.5022 170.653 78.3851 174.586 80.9733 177.018C82.7014 178.641 83.5449 178.738 95.8695 178.738C108.503 178.738 108.991 178.678 110.655 176.907C113.089 174.316 112.927 170.584 110.29 168.51C108.382 167.008 107.153 166.87 95.7588 166.87C84.3647 166.87 83.1358 167.008 81.2273 168.51ZM81.2273 192.248C78.6146 194.302 78.3685 198.537 80.7249 200.894C82.2552 202.424 83.3621 202.476 114.265 202.476C144.145 202.476 146.341 202.381 148.026 201.017C150.634 198.905 150.468 194.863 147.674 192.46L145.519 190.607H114.416C84.1471 190.607 83.2561 190.652 81.2273 192.248ZM81.2273 215.194C78.6146 217.249 78.3685 221.484 80.7249 223.84C82.2552 225.37 83.3621 225.423 114.353 225.423C145.344 225.423 146.451 225.37 147.982 223.84C150.338 221.484 150.092 217.249 147.479 215.194C145.451 213.598 144.559 213.554 114.353 213.554C84.1479 213.554 83.2561 213.598 81.2273 215.194Z" fill="url(#paint0_linear_1883:1114)"/>
<defs>
<linearGradient id="paint0_linear_1883:1114" x1="3.95088e-05" y1="405.433" x2="257.886" y2="405.433" gradientUnits="userSpaceOnUse">
<stop stop-color="#76C5FF"/>
<stop offset="1" stop-color="#1F83CB"/>
</linearGradient>
</defs>
</svg>
