<?xml version="1.0" encoding="UTF-8" standalone="no"?><!-- Generator: Gravit.io --><svg xmlns="http://www.w3.org/2000/svg" xmlns:xlink="http://www.w3.org/1999/xlink" style="isolation:isolate" viewBox="898 195 257.886 404.52" width="257.886pt" height="404.52pt"><defs><clipPath id="_clipPath_xUWZbGSMtlsaStiQRcW8dRJJ9Rcw8YHc"><rect x="898" y="195" width="257.886" height="404.52"/></clipPath></defs><g clip-path="url(#_clipPath_xUWZbGSMtlsaStiQRcW8dRJJ9Rcw8YHc)"><linearGradient id="_lgradient_41" x1="1.532026444687e-7" y1="0.9999975279339601" x2="1.0000004346235567" y2="0.9999975279339601" gradientTransform="matrix(257.886,0,0,404.52,898,195)" gradientUnits="userSpaceOnUse"><stop offset="0%" stop-opacity="1" style="stop-color:rgb(118,197,255)"/><stop offset="100%" stop-opacity="1" style="stop-color:rgb(31,131,203)"/></linearGradient><path d=" M 916.611 195.891 C 909.295 198.223 904.135 202.532 900.576 209.282 L 898.412 213.386 L 898.176 241.359 C 897.922 271.438 898.021 272.267 902.01 273.533 C 904.364 274.28 908.305 272.434 909.161 270.182 C 909.56 269.133 909.886 256.893 909.886 242.981 C 909.886 215.492 910.021 214.506 914.338 210.469 C 915.588 209.3 917.614 207.965 918.839 207.502 C 920.203 206.986 928.983 206.66 941.49 206.66 L 961.913 206.66 L 963.644 214.375 C 966.024 224.989 969.17 231.272 974.027 235.111 C 981.036 240.65 982.066 240.79 1014.055 240.525 L 1042.421 240.289 L 1046.658 237.942 C 1054.929 233.361 1058.478 227.524 1061.469 213.584 L 1062.955 206.66 L 1083.495 206.66 C 1102.732 206.66 1104.252 206.766 1107.461 208.319 C 1109.745 209.425 1111.543 211.096 1112.854 213.334 L 1114.821 216.69 L 1114.822 243.919 L 1114.823 271.148 L 1106.944 270.877 C 1094.736 270.457 1086.552 272.798 1076.336 279.63 C 1063.28 288.362 1055.61 302.05 1054.183 319.159 L 1053.666 325.349 L 998.195 325.362 L 942.723 325.375 L 939.617 327.142 C 937.681 328.244 935.818 330.223 934.672 332.397 L 932.832 335.885 L 932.837 390.159 C 932.839 424.566 933.136 445.496 933.647 447.336 C 934.624 450.855 938.83 454.729 942.899 455.859 C 944.814 456.391 961.283 456.691 988.754 456.693 L 1031.62 456.698 L 1035.757 464.017 C 1040.823 472.979 1042.352 474.738 1045.616 475.35 C 1050.103 476.192 1052.549 474.139 1057.835 465.096 L 1062.635 456.884 L 1072.801 456.567 C 1082.017 456.28 1083.237 456.068 1085.85 454.298 C 1087.436 453.224 1089.44 450.898 1090.304 449.129 C 1091.803 446.057 1091.875 444.21 1091.875 408.278 L 1091.875 370.642 L 1095.386 371.391 C 1097.318 371.804 1102.481 372.028 1106.861 371.889 L 1114.824 371.638 L 1114.823 474.827 L 1114.821 578.017 L 1112.854 581.373 C 1109.788 586.606 1106.012 588.046 1095.364 588.046 L 1086.693 588.046 L 1085.207 581.123 C 1082.216 567.183 1078.667 561.346 1070.396 556.765 L 1066.159 554.418 L 1044.643 554.174 C 1023.812 553.938 1023.076 553.982 1021.499 555.559 C 1019.458 557.6 1019.406 561.186 1021.382 563.627 C 1022.883 565.484 1023.026 565.498 1043.339 565.891 C 1063.165 566.275 1063.863 566.343 1066.369 568.13 C 1069.663 570.479 1071.12 573.343 1072.976 581.113 C 1073.796 584.547 1074.467 587.511 1074.467 587.701 C 1074.467 587.891 1046.492 588.046 1012.3 588.046 C 953.459 588.046 950.156 587.972 950.559 586.662 C 950.794 585.9 951.558 582.785 952.257 579.738 C 953.779 573.099 955.568 569.99 959.087 567.869 C 961.489 566.421 963.522 566.253 982.949 565.891 L 1004.185 565.496 L 1006.093 563.275 C 1008.431 560.555 1008.496 558.821 1006.361 556.107 L 1004.722 554.022 L 983.028 554.022 C 963.659 554.022 960.912 554.183 957.393 555.52 C 947.375 559.326 942.97 565.835 939.525 581.914 L 938.212 588.046 L 929.563 588.046 C 923.978 588.046 920.01 587.66 918.366 586.957 C 915.287 585.639 911.872 582.125 910.727 579.093 C 910.143 577.55 909.886 532.844 909.886 433.411 L 909.886 289.956 L 908.245 287.871 C 906.099 285.141 902.169 285.029 899.729 287.627 L 898 289.466 L 898.206 435.394 L 898.412 581.321 L 900.509 585.277 C 903.346 590.628 907.812 594.964 913.051 597.452 L 917.402 599.52 L 1012.749 599.52 L 1108.095 599.52 L 1113.107 596.803 C 1118.873 593.676 1122.98 589.09 1125.167 583.335 C 1126.643 579.45 1126.69 576.034 1126.691 473.503 L 1126.692 367.681 L 1130.845 365.37 C 1137.084 361.899 1146.382 352.134 1149.891 345.368 C 1157.896 329.934 1157.884 312.706 1149.856 297.422 C 1146.137 290.34 1138.726 282.422 1131.927 278.269 L 1126.746 275.104 L 1126.719 245.243 C 1126.692 217.725 1126.571 215.067 1125.167 211.372 C 1122.98 205.617 1118.873 201.031 1113.107 197.904 L 1108.095 195.187 L 1013.936 195.034 C 939.456 194.913 919.115 195.092 916.611 195.891 Z  M 1050.729 207.006 C 1050.729 207.196 1050.058 210.16 1049.239 213.594 C 1047.382 221.363 1045.925 224.228 1042.631 226.577 C 1040.065 228.407 1039.865 228.421 1013.306 228.648 C 986.834 228.873 986.532 228.857 983.397 227.095 C 979.371 224.832 977.585 221.907 975.994 214.969 C 975.296 211.922 974.532 208.806 974.297 208.045 C 973.895 206.739 976.066 206.66 1012.3 206.66 C 1033.436 206.66 1050.729 206.815 1050.729 207.006 Z  M 1116.575 284.192 C 1148.056 293.915 1153.961 336.071 1126.351 353.98 C 1114.214 361.853 1098.182 362.347 1085.65 355.232 C 1072.09 347.533 1064.139 331.078 1066.531 315.662 C 1068.616 302.221 1078.306 290.031 1090.828 285.095 C 1095.889 283.101 1097.35 282.858 1105.045 282.729 C 1109.498 282.654 1113.061 283.106 1116.575 284.192 Z  M 1094.386 308.981 C 1093.44 309.988 1092.666 311.785 1092.666 312.974 C 1092.666 315.916 1095.897 319.019 1098.96 319.019 L 1101.37 319.019 L 1101.37 326.575 C 1101.37 336.654 1102.868 339.592 1108.011 339.592 C 1108.982 339.592 1110.555 338.865 1111.507 337.978 C 1113.153 336.445 1113.239 335.72 1113.239 323.34 C 1113.239 306.964 1113.355 307.15 1103.09 307.15 C 1096.814 307.15 1095.933 307.335 1094.386 308.981 Z  M 1060.035 344.323 C 1063.684 351.904 1070.391 359.694 1076.65 363.619 L 1080.021 365.732 L 1079.815 405.082 L 1079.61 444.433 L 1068.137 444.829 C 1061.827 445.046 1056.251 445.493 1055.746 445.82 C 1055.242 446.148 1053.134 449.436 1051.063 453.125 C 1046.801 460.717 1047.632 460.88 1042.114 451.357 C 1040.286 448.201 1038.717 445.539 1038.628 445.438 C 1038.538 445.338 1017.457 445.071 991.781 444.845 L 945.096 444.433 L 944.892 391.815 C 944.779 362.874 944.857 338.751 945.065 338.207 C 945.362 337.428 957.257 337.229 1001.053 337.269 L 1056.664 337.318 L 1060.035 344.323 Z  M 979.227 362.596 C 976.502 364.739 976.385 368.672 978.973 371.104 C 980.701 372.727 981.545 372.824 993.87 372.824 C 1006.503 372.824 1006.991 372.764 1008.655 370.993 C 1011.089 368.402 1010.927 364.67 1008.29 362.596 C 1006.382 361.094 1005.153 360.956 993.759 360.956 C 982.365 360.956 981.136 361.094 979.227 362.596 Z  M 979.227 386.334 C 976.615 388.388 976.369 392.623 978.725 394.98 C 980.255 396.51 981.362 396.562 1012.265 396.562 C 1042.145 396.562 1044.341 396.467 1046.026 395.103 C 1048.634 392.991 1048.468 388.949 1045.674 386.546 L 1043.519 384.693 L 1012.416 384.693 C 982.147 384.693 981.256 384.738 979.227 386.334 Z  M 979.227 409.28 C 976.615 411.335 976.369 415.57 978.725 417.926 C 980.255 419.456 981.362 419.509 1012.353 419.509 C 1043.344 419.509 1044.451 419.456 1045.982 417.926 C 1048.338 415.57 1048.092 411.335 1045.479 409.28 C 1043.451 407.684 1042.559 407.64 1012.353 407.64 C 982.148 407.64 981.256 407.684 979.227 409.28 Z " fill-rule="evenodd" fill="url(#_lgradient_41)"/></g></svg>