<?xml version="1.0" encoding="UTF-8" standalone="no"?><!-- Generator: Gravit.io --><svg xmlns="http://www.w3.org/2000/svg" xmlns:xlink="http://www.w3.org/1999/xlink" style="isolation:isolate" viewBox="976.5 204 262.402 262.402" width="262.402pt" height="262.402pt"><defs><clipPath id="_clipPath_QZ4arysEBt97quh3JFzbnbmO72sogI2y"><rect x="976.5" y="204" width="262.402" height="262.402"/></clipPath></defs><g clip-path="url(#_clipPath_QZ4arysEBt97quh3JFzbnbmO72sogI2y)"><linearGradient id="_lgradient_58" x1="1.5320271949146732e-7" y1="1" x2="1" y2="1" gradientTransform="matrix(262.402,0,0,262.402,976.5,204)" gradientUnits="userSpaceOnUse"><stop offset="0%" stop-opacity="1" style="stop-color:rgb(118,197,255)"/><stop offset="100%" stop-opacity="1" style="stop-color:rgb(31,131,203)"/></linearGradient><path d=" M 1153.054 205.154 C 1151.945 206.108 1151.629 206.975 1151.23 210.149 C 1150.412 216.666 1148.907 220.153 1145.207 224.109 C 1141.571 227.996 1138.426 229.378 1131.552 230.11 C 1126.348 230.663 1125.126 231.792 1125.126 236.046 L 1125.126 238.823 L 1063.498 238.965 L 1001.869 239.107 L 997.769 240.505 C 987.58 243.978 980.137 251.958 977.512 262.218 C 976.524 266.084 976.5 268.213 976.5 352.626 C 976.5 437.04 976.524 439.169 977.512 443.034 C 978.993 448.823 981.268 452.755 985.708 457.195 C 990.147 461.634 994.079 463.909 999.868 465.39 C 1003.746 466.382 1005.935 466.402 1107.701 466.402 C 1208.677 466.402 1211.684 466.375 1215.447 465.412 C 1221.443 463.879 1225.311 461.663 1229.719 457.236 C 1232.448 454.494 1234.153 452.229 1235.449 449.62 C 1239.087 442.297 1238.954 444.986 1238.792 381.583 L 1238.646 324.695 L 1237.448 321.364 C 1235.951 317.202 1233.424 312.997 1230.401 309.634 L 1228.07 307.042 L 1229.689 304.689 C 1231.913 301.457 1236.008 292.735 1237.591 287.857 L 1238.902 283.82 L 1238.902 258.477 L 1238.902 233.134 L 1237.487 231.719 C 1236.266 230.498 1235.538 230.264 1232.164 230.009 C 1227.896 229.686 1223.033 227.998 1220.584 225.988 C 1216.415 222.569 1213.406 216.504 1212.904 210.509 C 1212.643 207.398 1212.375 206.607 1211.182 205.413 L 1209.768 204 L 1182.082 204 L 1154.396 204 L 1153.054 205.154 Z  M 1204.865 216.138 C 1207.21 227.635 1216.201 236.077 1228.78 238.588 L 1230.19 238.87 L 1230.19 260.694 L 1230.19 282.518 L 1228.666 287.064 C 1222.873 304.358 1211.097 316.149 1195.339 320.435 C 1191.561 321.462 1189.794 321.619 1182.014 321.617 C 1171.806 321.614 1168.71 321.029 1161.709 317.784 C 1155.777 315.034 1152.029 312.326 1147.513 307.525 C 1142.952 302.677 1138.812 296.02 1136.039 289.076 L 1134.095 284.207 L 1133.947 261.57 C 1133.781 236.173 1133.363 238.798 1137.683 238.092 C 1141.658 237.443 1147.754 234.027 1151.343 230.439 C 1155.808 225.974 1158.299 221.116 1159.713 214.116 L 1159.999 212.702 L 1182.108 212.835 L 1204.218 212.969 L 1204.865 216.138 Z  M 1187.659 262.169 L 1168.927 280.876 L 1163.582 275.513 C 1158.059 269.97 1156.626 269.146 1154.149 270.088 C 1152.585 270.682 1151.304 273.169 1151.645 274.949 C 1151.767 275.587 1155.297 279.534 1159.49 283.72 C 1166.475 290.694 1167.267 291.331 1168.951 291.331 C 1170.688 291.331 1171.932 290.187 1191.623 270.496 C 1211.507 250.612 1212.457 249.576 1212.457 247.778 C 1212.457 245.425 1210.436 243.463 1208.011 243.463 C 1206.563 243.463 1204.39 245.46 1187.659 262.169 Z  M 1125.126 265.564 L 1125.126 283.565 L 1126.892 288.842 C 1127.864 291.745 1129.366 295.522 1130.231 297.235 L 1131.804 300.351 L 1067.338 300.351 C 1004.111 300.351 1002.801 300.371 999.116 301.392 C 994.521 302.665 992.449 303.697 988.512 306.674 L 985.469 308.975 L 985.335 288.17 C 985.223 270.749 985.33 266.859 985.995 264.255 C 988.04 256.241 994.406 250.13 1002.638 248.282 C 1004.781 247.801 1019.804 247.639 1065.291 247.606 L 1125.126 247.563 L 1125.126 265.564 Z  M 1142.179 314.342 C 1153.625 325.87 1165.224 330.589 1182.118 330.589 C 1197.729 330.589 1209.844 326.025 1220.105 316.279 L 1222.576 313.932 L 1224.357 315.982 C 1226.709 318.69 1228.899 323.025 1229.613 326.386 C 1230.002 328.218 1230.19 338.683 1230.19 358.551 L 1230.19 388.001 L 1227.432 385.755 C 1224.356 383.25 1220.696 381.381 1216.096 379.966 C 1213.149 379.06 1208.622 379.02 1107.701 379.02 C 1006.78 379.02 1002.253 379.06 999.306 379.966 C 994.706 381.381 991.046 383.25 987.97 385.755 L 985.213 388.001 L 985.213 358.551 C 985.213 338.683 985.4 328.218 985.789 326.386 C 987.406 318.774 993.161 312.411 1000.588 310.024 C 1003.222 309.178 1007.786 309.117 1070.172 309.091 L 1136.939 309.063 L 1142.179 314.342 Z  M 1012.853 322.393 C 1007.198 323.35 1001.645 327.96 999.616 333.382 C 998.656 335.948 998.494 337.433 998.49 343.669 C 998.484 351.69 998.655 352.831 1000.359 356.214 C 1002.623 360.709 1006.689 363.903 1011.812 365.212 C 1019.904 367.279 1028.045 363.218 1031.781 355.25 C 1033.069 352.503 1033.132 351.979 1033.132 343.914 C 1033.132 335.848 1033.069 335.324 1031.781 332.577 C 1029.155 326.976 1024.733 323.517 1018.815 322.433 C 1017.143 322.127 1015.644 321.903 1015.484 321.936 C 1015.325 321.969 1014.14 322.175 1012.853 322.393 Z  M 1055.924 322.573 C 1050.414 323.759 1046.234 327.19 1043.69 332.615 C 1042.418 335.327 1042.357 335.856 1042.357 344.17 C 1042.357 352.654 1042.394 352.958 1043.777 355.775 C 1046.676 361.676 1052.88 365.634 1059.269 365.659 C 1064.649 365.681 1067.787 364.4 1071.61 360.623 C 1076.216 356.072 1076.951 353.773 1076.951 343.914 C 1076.951 334.681 1076.207 332.101 1072.323 327.851 C 1068.13 323.262 1061.951 321.274 1055.924 322.573 Z  M 1093.021 322.397 C 1090.238 323.488 1089.435 327.232 1091.534 329.33 C 1094.074 331.87 1098.232 330.515 1098.8 326.963 C 1099.035 325.5 1098.851 324.864 1097.888 323.81 C 1096.519 322.312 1094.635 321.764 1093.021 322.397 Z  M 1119.627 322.242 C 1117.743 322.596 1116.274 324.912 1116.608 327.001 C 1117.171 330.517 1121.343 331.856 1123.868 329.33 C 1126.858 326.341 1123.923 321.437 1119.627 322.242 Z  M 1020.749 332.479 C 1022.805 333.795 1025.007 337.697 1024.476 339.082 C 1024.248 339.675 1022.589 339.814 1015.723 339.814 L 1007.25 339.814 L 1007.25 338.352 C 1007.25 337.548 1007.769 336.128 1008.403 335.196 C 1011.471 330.689 1016.295 329.627 1020.749 332.479 Z  M 1063.626 331.894 C 1066.151 333.169 1068.238 336.305 1068.238 338.822 C 1068.238 339.762 1067.802 339.814 1059.766 339.814 C 1052.71 339.814 1051.244 339.685 1050.999 339.045 C 1050.582 337.96 1052.86 333.649 1054.464 332.486 C 1056.992 330.652 1060.692 330.413 1063.626 331.894 Z  M 1133.07 330.993 C 1131.174 331.382 1129.739 333.195 1129.739 335.201 C 1129.739 339.895 1136.14 341.081 1137.946 336.722 C 1139.198 333.698 1136.327 330.325 1133.07 330.993 Z  M 1104.715 332.287 C 1102.142 335.026 1104.048 339.301 1107.842 339.301 C 1110.283 339.301 1111.801 337.726 1111.801 335.194 C 1111.801 331.493 1107.225 329.615 1104.715 332.287 Z  M 1091.534 341.072 C 1088.266 344.34 1091.87 349.587 1096.153 347.797 C 1098.32 346.892 1099.179 345.345 1098.759 343.105 C 1098.141 339.812 1093.969 338.637 1091.534 341.072 Z  M 1117.672 341.072 C 1115.036 343.708 1116.906 348.056 1120.722 348.165 C 1124.538 348.273 1126.545 343.749 1123.868 341.072 C 1122.157 339.36 1119.383 339.36 1117.672 341.072 Z  M 1144.102 340.826 C 1141.813 343.114 1142.622 346.89 1145.625 347.936 C 1149.855 349.411 1153.313 343.968 1150.078 340.928 C 1148.535 339.478 1145.501 339.427 1144.102 340.826 Z  M 1024.664 349.167 C 1024.64 350.549 1022.681 354.045 1021.342 355.099 C 1019.239 356.753 1016.366 357.387 1013.936 356.732 C 1010.501 355.807 1007.25 352.328 1007.25 349.577 C 1007.25 348.559 1007.521 348.526 1015.963 348.526 C 1022.597 348.526 1024.673 348.679 1024.664 349.167 Z  M 1068.238 349.311 C 1068.238 350.87 1066.807 353.471 1065.21 354.815 C 1060.671 358.634 1054.206 357.23 1051.785 351.898 C 1051.263 350.748 1050.831 349.519 1050.824 349.167 C 1050.816 348.679 1052.891 348.526 1059.526 348.526 C 1067.01 348.526 1068.238 348.637 1068.238 349.311 Z  M 1104.715 349.712 C 1103.619 350.879 1103.264 353.201 1103.919 354.909 C 1104.095 355.366 1104.916 356.09 1105.744 356.518 C 1106.962 357.148 1107.591 357.185 1109.018 356.715 C 1111.066 356.039 1111.801 354.924 1111.801 352.493 C 1111.801 348.914 1107.172 347.097 1104.715 349.712 Z  M 1130.801 349.877 C 1127.929 353.528 1131.747 358.612 1135.791 356.521 C 1137.863 355.449 1138.779 353.116 1137.931 351.069 C 1137.153 349.191 1136.034 348.526 1133.653 348.526 C 1132.33 348.526 1131.586 348.878 1130.801 349.877 Z  M 1157.135 349.784 C 1155.514 351.404 1155.497 353.666 1157.091 355.519 C 1159.835 358.708 1165.065 356.299 1164.401 352.152 C 1163.833 348.6 1159.674 347.244 1157.135 349.784 Z  M 1091.534 358.497 C 1088.892 361.139 1090.845 365.644 1094.632 365.644 C 1096.1 365.644 1096.848 365.307 1097.774 364.231 C 1099.176 362.602 1099.293 361.364 1098.239 359.326 C 1096.951 356.836 1093.608 356.423 1091.534 358.497 Z  M 1118.581 357.582 C 1117.733 357.923 1116.414 360.49 1116.414 361.798 C 1116.414 362.359 1116.96 363.455 1117.628 364.231 C 1120.165 367.18 1125.126 365.232 1125.126 361.287 C 1125.126 358.373 1121.59 356.371 1118.581 357.582 Z  M 1144.557 357.896 C 1141.374 360.339 1142.493 364.94 1146.464 365.735 C 1148.72 366.186 1151.264 363.956 1151.264 361.526 C 1151.264 358.195 1147.102 355.942 1144.557 357.896 Z  M 1211.21 387.976 C 1220.409 389.306 1227.992 396.444 1229.67 405.356 C 1229.956 406.874 1230.19 414.84 1230.19 423.058 C 1230.19 438.904 1229.9 441.447 1227.573 446.008 C 1226.064 448.965 1221.961 453.163 1219.01 454.769 C 1213.317 457.867 1220.101 457.69 1107.701 457.69 C 995.301 457.69 1002.085 457.867 996.392 454.769 C 993.441 453.163 989.338 448.965 987.829 446.008 C 985.503 441.447 985.213 438.904 985.213 423.058 C 985.213 407.093 985.514 404.109 987.549 399.935 C 990.49 393.902 997.202 388.954 1003.732 388.004 C 1007.738 387.422 1207.187 387.395 1211.21 387.976 Z  M 1010.486 401.72 C 1006.707 403.074 1003.933 405.056 1001.899 407.856 C 999.107 411.701 998.498 414.408 998.505 422.951 C 998.514 432.392 999.325 434.984 1003.622 439.28 C 1007.543 443.202 1011.076 444.542 1016.732 444.256 C 1023.69 443.904 1028.992 440.272 1031.969 433.817 C 1033.033 431.509 1033.132 430.558 1033.132 422.583 C 1033.132 414.105 1033.094 413.793 1031.715 410.987 C 1030.043 407.584 1026.092 403.707 1022.823 402.26 C 1019.441 400.765 1013.838 400.519 1010.486 401.72 Z  M 1054.567 401.509 C 1049.998 403.003 1045.523 407.019 1043.464 411.474 C 1042.467 413.633 1042.357 414.735 1042.357 422.594 L 1042.357 431.317 L 1044.044 434.744 C 1046.996 440.74 1051.835 443.863 1058.757 444.24 C 1062.084 444.422 1063.408 444.256 1065.779 443.362 C 1069.609 441.917 1073.446 438.425 1075.26 434.731 C 1076.67 431.858 1076.695 431.65 1076.695 422.583 L 1076.695 413.358 L 1074.935 410.112 C 1071.896 404.507 1066.727 401.282 1060.294 400.978 C 1058.18 400.879 1055.828 401.096 1054.567 401.509 Z  M 1092.582 401.421 C 1090.98 402.34 1090.31 403.477 1090.292 405.311 C 1090.272 407.445 1092.338 409.514 1094.49 409.514 C 1096.432 409.514 1098.989 407.038 1098.989 405.158 C 1098.989 403.45 1096.428 400.796 1094.8 400.817 C 1094.144 400.826 1093.146 401.097 1092.582 401.421 Z  M 1117.912 402.3 C 1117.009 403.203 1116.414 404.338 1116.414 405.158 C 1116.414 407.041 1118.971 409.514 1120.917 409.514 C 1124.023 409.514 1126.308 405.202 1124.469 402.807 C 1122.664 400.456 1119.964 400.247 1117.912 402.3 Z  M 1144.271 402.016 C 1141.322 404.553 1143.271 409.514 1147.216 409.514 C 1149.394 409.514 1151.264 407.502 1151.264 405.158 C 1151.264 401.341 1147.186 399.509 1144.271 402.016 Z  M 1190.018 401.339 C 1184.083 402.83 1178.039 407.993 1175.202 413.994 C 1173.721 417.13 1173.565 417.92 1173.561 422.327 C 1173.559 425.731 1173.84 428.005 1174.496 429.885 C 1175.904 433.925 1179.48 438.436 1183.157 440.813 C 1187.575 443.669 1190.882 444.532 1196.396 444.268 C 1200.293 444.082 1201.388 443.805 1204.693 442.171 C 1212.048 438.536 1216.383 431.952 1216.771 423.823 C 1217.031 418.399 1216.156 415.056 1213.336 410.692 C 1211.012 407.097 1206.922 403.776 1202.932 402.246 C 1199.808 401.048 1193.063 400.575 1190.018 401.339 Z  M 1019.191 410.207 C 1020.931 410.934 1024.158 414.233 1024.17 415.298 C 1024.174 415.64 1024.316 416.439 1024.486 417.074 L 1024.795 418.227 L 1016.023 418.227 C 1007.265 418.227 1007.25 418.225 1007.259 417.074 C 1007.274 414.984 1009.437 411.96 1011.815 410.706 C 1014.373 409.356 1016.768 409.194 1019.191 410.207 Z  M 1063.471 410.588 C 1065.82 411.725 1068.238 415.039 1068.238 417.119 C 1068.238 418.211 1068.114 418.227 1059.526 418.227 C 1052.298 418.227 1050.813 418.101 1050.813 417.491 C 1050.813 416.117 1051.899 413.875 1053.28 412.399 C 1056.07 409.416 1059.713 408.769 1063.471 410.588 Z  M 1104.859 410.772 C 1102.955 412.676 1102.989 415.319 1104.939 417.074 C 1109.058 420.78 1114.468 414.697 1110.543 410.772 C 1109.75 409.979 1108.699 409.514 1107.701 409.514 C 1106.703 409.514 1105.652 409.979 1104.859 410.772 Z  M 1132.045 410.106 C 1129.395 411.556 1128.89 414.862 1130.997 416.969 C 1132.617 418.589 1134.878 418.606 1136.731 417.012 C 1140.468 413.798 1136.361 407.746 1132.045 410.106 Z  M 1158.183 410.133 C 1154.286 412.368 1155.669 418.253 1160.082 418.21 C 1161.962 418.192 1163.103 417.498 1163.993 415.826 C 1164.954 414.021 1164.69 412.611 1163.091 411.012 C 1161.518 409.439 1159.899 409.149 1158.183 410.133 Z  M 1200.735 410.837 C 1203.057 411.938 1205.765 414.551 1206.939 416.822 C 1208.309 419.471 1208.474 424.784 1207.27 427.493 C 1205.001 432.602 1200.512 435.67 1195.367 435.629 C 1190.069 435.587 1186.253 433.362 1183.766 428.863 C 1182.516 426.603 1182.279 425.595 1182.287 422.583 C 1182.304 416.541 1185.765 411.925 1191.749 409.963 C 1193.686 409.327 1198.551 409.801 1200.735 410.837 Z  M 1091.853 419.554 C 1090.652 420.564 1090.276 421.303 1090.276 422.652 C 1090.276 427.204 1096.235 428.589 1098.392 424.539 C 1099.353 422.734 1099.089 421.324 1097.49 419.725 C 1095.633 417.867 1093.919 417.815 1091.853 419.554 Z  M 1117.912 419.725 C 1115.859 421.777 1116.068 424.477 1118.419 426.282 C 1120.884 428.175 1125.126 425.987 1125.126 422.823 C 1125.126 420.783 1122.704 418.227 1120.77 418.227 C 1119.95 418.227 1118.815 418.822 1117.912 419.725 Z  M 1144.373 419.38 C 1142.367 421.146 1142.167 423.33 1143.833 425.309 C 1147.145 429.245 1152.824 425.451 1150.946 420.556 C 1150.564 419.563 1148.133 418.227 1146.705 418.227 C 1146.144 418.227 1145.094 418.745 1144.373 419.38 Z  M 1024.675 427.802 C 1024.675 429.803 1022.492 433.124 1020.353 434.378 C 1015.147 437.428 1008.34 434.483 1007.415 428.781 L 1007.116 426.939 L 1015.896 426.939 C 1023.785 426.939 1024.675 427.027 1024.675 427.802 Z  M 1068.074 428.781 C 1067.909 429.794 1067.2 431.376 1066.498 432.296 C 1061.997 438.198 1052.476 435.893 1051.006 428.546 L 1050.685 426.939 L 1059.529 426.939 L 1068.373 426.939 L 1068.074 428.781 Z  M 1105.53 427.741 C 1104.118 428.508 1103.28 430.421 1103.525 432.321 C 1103.72 433.831 1106.003 435.652 1107.701 435.652 C 1109.399 435.652 1111.682 433.831 1111.877 432.321 C 1112.13 430.355 1111.28 428.499 1109.769 427.717 C 1107.927 426.765 1107.323 426.768 1105.53 427.741 Z  M 1132.045 427.51 C 1128.075 429.763 1129.508 435.652 1134.026 435.652 C 1136.475 435.652 1138.686 433.109 1138.228 430.82 C 1138.055 429.956 1137.515 428.851 1137.028 428.363 C 1135.872 427.207 1133.341 426.774 1132.045 427.51 Z  M 1157.375 428.437 C 1153.817 431.995 1157.482 437.167 1162.26 435.334 C 1163.273 434.945 1164.589 432.511 1164.589 431.026 C 1164.589 429.476 1161.885 426.939 1160.233 426.939 C 1159.413 426.939 1158.278 427.534 1157.375 428.437 Z  M 1091.834 437.09 C 1088.222 440.702 1091.828 445.9 1096.659 444.046 C 1097.652 443.665 1098.989 441.233 1098.989 439.806 C 1098.989 438.289 1096.911 436.207 1095.037 435.848 C 1093.662 435.584 1093.137 435.787 1091.834 437.09 Z  M 1118.992 436.295 C 1114.925 438.392 1116.259 444.365 1120.793 444.365 C 1124.525 444.365 1126.432 440.245 1123.973 437.493 C 1122.544 435.894 1120.652 435.439 1118.992 436.295 Z  M 1145.114 436.315 C 1144.409 436.671 1143.524 437.608 1143.146 438.395 C 1141.119 442.623 1146.675 446.438 1150.006 443.106 C 1152.121 440.992 1151.57 437.69 1148.863 436.248 C 1147.446 435.494 1146.713 435.506 1145.114 436.315 Z " fill-rule="evenodd" fill="url(#_lgradient_58)"/></g></svg>