<svg width="263" height="264" viewBox="0 0 263 264" fill="none" xmlns="http://www.w3.org/2000/svg">
<path fill-rule="evenodd" clip-rule="evenodd" d="M176.554 2.0692C175.445 3.02348 175.129 3.88961 174.73 7.06355C173.912 13.5811 172.407 17.0681 168.707 21.0242C165.071 24.9115 161.926 26.2932 155.052 27.0246C149.848 27.5776 148.626 28.7066 148.626 32.9614V35.7377L86.9976 35.8796L25.369 36.0216L21.2689 37.4197C11.0803 40.8934 3.63673 48.8726 1.0122 59.1335C0.0240877 62.9988 0 65.1277 0 149.541C0 233.955 0.0240877 236.084 1.0122 239.949C2.49333 245.738 4.76834 249.67 9.20765 254.11C13.647 258.549 17.5789 260.824 23.3681 262.305C27.2463 263.297 29.4347 263.317 131.201 263.317C232.177 263.317 235.184 263.29 238.947 262.327C244.943 260.794 248.811 258.578 253.219 254.151C255.948 251.409 257.653 249.144 258.949 246.535C262.587 239.212 262.454 241.901 262.292 178.498L262.146 121.61L260.948 118.279C259.451 114.117 256.924 109.912 253.901 106.549L251.57 103.957L253.189 101.604C255.413 98.3723 259.508 89.6505 261.091 84.772L262.402 80.735V55.3917V30.0489L260.987 28.6343C259.766 27.413 259.038 27.1788 255.664 26.9236C251.396 26.6007 246.533 24.913 244.084 22.9035C239.915 19.4836 236.906 13.4191 236.404 7.42384C236.143 4.31345 235.875 3.52215 234.682 2.32853L233.268 0.915039H205.582H177.896L176.554 2.0692ZM228.365 13.0527C230.71 24.5502 239.701 32.9917 252.28 35.5034L253.69 35.7848V57.6093V79.4333L252.166 83.9792C246.373 101.273 234.597 113.064 218.839 117.35C215.061 118.377 213.294 118.534 205.514 118.532C195.306 118.529 192.21 117.944 185.209 114.699C179.277 111.949 175.529 109.241 171.013 104.44C166.452 99.5916 162.312 92.9352 159.539 85.9907L157.595 81.1219L157.447 58.4846C157.281 33.088 156.863 35.7131 161.183 35.0073C165.158 34.358 171.254 30.9422 174.843 27.3536C179.308 22.8887 181.799 18.0306 183.213 11.0314L183.499 9.61685L205.608 9.7501L227.718 9.88386L228.365 13.0527ZM211.159 59.0843L192.427 77.7907L187.082 72.4278C181.559 66.8851 180.126 66.061 177.649 67.003C176.085 67.5975 174.804 70.0836 175.145 71.8636C175.267 72.5021 178.797 76.4494 182.99 80.6351C189.975 87.6087 190.767 88.2458 192.451 88.2458C194.188 88.2458 195.432 87.1024 215.123 67.4114C235.007 47.5273 235.957 46.4915 235.957 44.6926C235.957 42.3397 233.936 40.3779 231.511 40.3779C230.063 40.3779 227.89 42.3751 211.159 59.0843ZM148.626 62.4786V80.4798L150.392 85.7575C151.364 88.6604 152.866 92.437 153.731 94.1503L155.304 97.2658H90.8383C27.6112 97.2658 26.3012 97.2858 22.6158 98.3072C18.0212 99.5803 15.9491 100.612 12.0121 103.589L8.96882 105.89L8.83506 85.0851C8.72282 67.6636 8.82994 63.7737 9.49465 61.1696C11.5395 53.1556 17.9064 47.0455 26.1377 45.1969C28.2805 44.7157 43.3035 44.5537 88.7914 44.5209L148.626 44.4779V62.4786ZM165.679 111.257C177.125 122.785 188.724 127.504 205.618 127.504C221.229 127.504 233.344 122.94 243.605 113.194L246.076 110.847L247.857 112.897C250.209 115.605 252.399 119.94 253.113 123.301C253.502 125.133 253.69 135.598 253.69 155.466V184.916L250.932 182.67C247.856 180.165 244.196 178.296 239.596 176.881C236.649 175.975 232.122 175.935 131.201 175.935C30.2803 175.935 25.7528 175.975 22.8064 176.881C18.2057 178.296 14.5459 180.165 11.4698 182.67L8.71257 184.916V155.466C8.71257 135.598 8.90015 125.133 9.28914 123.301C10.9056 115.689 16.661 109.326 24.0877 106.939C26.7215 106.093 31.2858 106.032 93.6724 106.006L160.439 105.978L165.679 111.257ZM36.3529 119.308C30.6975 120.265 25.1445 124.875 23.116 130.297C22.1561 132.863 21.9936 134.348 21.9895 140.584C21.9844 148.605 22.1545 149.746 23.8586 153.129C26.1234 157.624 30.1891 160.818 35.3121 162.127C43.404 164.194 51.5451 160.133 55.2813 152.165C56.5692 149.418 56.6317 148.894 56.6317 140.829C56.6317 132.763 56.5692 132.239 55.2813 129.492C52.6547 123.891 48.2333 120.432 42.3154 119.348C40.6431 119.042 39.144 118.818 38.9841 118.851C38.8248 118.884 37.6404 119.09 36.3529 119.308ZM79.4238 119.488C73.9139 120.674 69.7344 124.105 67.1898 129.53C65.9178 132.242 65.8568 132.771 65.8568 141.085C65.8568 149.569 65.8942 149.873 67.2775 152.69C70.1762 158.591 76.3795 162.549 82.7694 162.574C88.1492 162.596 91.2872 161.315 95.11 157.538C99.7164 152.987 100.451 150.688 100.451 140.829C100.451 131.596 99.7072 129.016 95.8234 124.766C91.6296 120.177 85.4514 118.189 79.4238 119.488ZM116.521 119.312C113.738 120.403 112.935 124.147 115.034 126.245C117.574 128.785 121.732 127.43 122.3 123.878C122.535 122.415 122.351 121.779 121.388 120.725C120.019 119.227 118.135 118.679 116.521 119.312ZM143.127 119.157C141.243 119.511 139.774 121.827 140.108 123.916C140.671 127.432 144.843 128.771 147.368 126.245C150.358 123.256 147.423 118.352 143.127 119.157ZM44.2486 129.394C46.3048 130.71 48.507 134.612 47.9755 135.997C47.7485 136.59 46.0885 136.729 39.2225 136.729H30.7503V135.267C30.7503 134.463 31.2694 133.043 31.9034 132.111C34.9707 127.604 39.7949 126.542 44.2486 129.394ZM87.1257 128.809C89.6508 130.084 91.7383 133.22 91.7383 135.737C91.7383 136.677 91.3016 136.729 83.266 136.729C76.2104 136.729 74.7441 136.6 74.4986 135.96C74.082 134.875 76.3595 130.564 77.9637 129.401C80.4924 127.567 84.1916 127.328 87.1257 128.809ZM156.57 127.908C154.674 128.297 153.239 130.11 153.239 132.116C153.239 136.81 159.64 137.996 161.446 133.637C162.698 130.613 159.827 127.24 156.57 127.908ZM128.215 129.202C125.642 131.941 127.548 136.216 131.342 136.216C133.783 136.216 135.301 134.641 135.301 132.109C135.301 128.408 130.725 126.53 128.215 129.202ZM115.034 137.987C111.766 141.255 115.37 146.502 119.653 144.712C121.82 143.807 122.679 142.26 122.259 140.02C121.641 136.727 117.469 135.552 115.034 137.987ZM141.172 137.987C138.536 140.623 140.406 144.971 144.222 145.08C148.038 145.188 150.045 140.664 147.368 137.987C145.657 136.275 142.883 136.275 141.172 137.987ZM167.602 137.741C165.313 140.029 166.122 143.805 169.125 144.851C173.355 146.326 176.813 140.883 173.578 137.843C172.035 136.393 169.001 136.342 167.602 137.741ZM48.1641 146.082C48.14 147.464 46.1812 150.96 44.8416 152.014C42.7388 153.668 39.8662 154.302 37.4359 153.647C34.0011 152.722 30.7503 149.243 30.7503 146.492C30.7503 145.474 31.0214 145.441 39.4628 145.441C46.0972 145.441 48.1728 145.594 48.1641 146.082ZM91.7383 146.226C91.7383 147.785 90.3068 150.386 88.7099 151.73C84.1706 155.549 77.7064 154.145 75.2848 148.813C74.7631 147.663 74.3305 146.434 74.3244 146.082C74.3157 145.594 76.3913 145.441 83.0257 145.441C90.5098 145.441 91.7383 145.552 91.7383 146.226ZM128.215 146.627C127.119 147.794 126.764 150.116 127.419 151.824C127.595 152.281 128.416 153.005 129.244 153.433C130.462 154.063 131.091 154.1 132.518 153.63C134.566 152.954 135.301 151.839 135.301 149.408C135.301 145.829 130.672 144.012 128.215 146.627ZM154.301 146.792C151.429 150.443 155.247 155.527 159.291 153.436C161.363 152.364 162.279 150.031 161.431 147.984C160.653 146.106 159.534 145.441 157.153 145.441C155.83 145.441 155.086 145.793 154.301 146.792ZM180.635 146.699C179.014 148.319 178.997 150.581 180.591 152.434C183.335 155.623 188.565 153.214 187.901 149.067C187.333 145.515 183.174 144.159 180.635 146.699ZM115.034 155.412C112.392 158.054 114.345 162.559 118.132 162.559C119.6 162.559 120.348 162.222 121.274 161.146C122.676 159.517 122.793 158.279 121.739 156.241C120.451 153.751 117.108 153.338 115.034 155.412ZM142.081 154.497C141.233 154.838 139.914 157.405 139.914 158.713C139.914 159.274 140.46 160.37 141.128 161.146C143.665 164.095 148.626 162.147 148.626 158.202C148.626 155.288 145.09 153.286 142.081 154.497ZM168.057 154.811C164.874 157.254 165.993 161.855 169.964 162.65C172.22 163.101 174.764 160.871 174.764 158.441C174.764 155.11 170.602 152.857 168.057 154.811ZM234.71 184.891C243.909 186.221 251.492 193.359 253.17 202.271C253.456 203.789 253.69 211.755 253.69 219.973C253.69 235.819 253.4 238.362 251.073 242.923C249.564 245.88 245.461 250.078 242.51 251.684C236.817 254.782 243.601 254.605 131.201 254.605C18.8007 254.605 25.5847 254.782 19.8923 251.684C16.9408 250.078 12.8377 245.88 11.3294 242.923C9.00265 238.362 8.71257 235.819 8.71257 219.973C8.71257 204.008 9.01392 201.024 11.0491 196.85C13.9903 190.817 20.7021 185.869 27.2319 184.919C31.2376 184.337 230.687 184.31 234.71 184.891ZM33.9862 198.635C30.207 199.989 27.4328 201.971 25.3992 204.771C22.6071 208.616 21.9982 211.323 22.0054 219.866C22.0136 229.307 22.8254 231.899 27.1217 236.195C31.0429 240.117 34.5761 241.457 40.2316 241.171C47.1904 240.819 52.4922 237.187 55.4688 230.732C56.5333 228.424 56.6317 227.473 56.6317 219.498C56.6317 211.02 56.5938 210.708 55.2152 207.902C53.5434 204.499 49.592 200.622 46.3227 199.175C42.9412 197.68 37.338 197.434 33.9862 198.635ZM78.0667 198.424C73.4977 199.918 69.023 203.934 66.9643 208.389C65.9665 210.548 65.8568 211.65 65.8568 219.509V228.232L67.544 231.659C70.4955 237.655 75.3345 240.778 82.2569 241.155C85.5836 241.337 86.9079 241.171 89.2793 240.277C93.1092 238.832 96.9458 235.34 98.7596 231.646C100.17 228.773 100.195 228.565 100.195 219.498V210.273L98.4346 207.027C95.396 201.422 90.2269 198.197 83.7944 197.893C81.6804 197.794 79.328 198.011 78.0667 198.424ZM116.082 198.336C114.48 199.255 113.81 200.392 113.792 202.226C113.772 204.36 115.838 206.429 117.99 206.429C119.932 206.429 122.489 203.953 122.489 202.073C122.489 200.365 119.928 197.711 118.3 197.732C117.644 197.741 116.646 198.012 116.082 198.336ZM141.412 199.215C140.509 200.118 139.914 201.253 139.914 202.073C139.914 203.956 142.471 206.429 144.417 206.429C147.523 206.429 149.808 202.117 147.969 199.722C146.164 197.371 143.464 197.162 141.412 199.215ZM167.771 198.931C164.822 201.468 166.771 206.429 170.716 206.429C172.894 206.429 174.764 204.417 174.764 202.073C174.764 198.256 170.686 196.424 167.771 198.931ZM213.518 198.254C207.583 199.745 201.539 204.908 198.702 210.909C197.221 214.045 197.065 214.835 197.061 219.242C197.059 222.646 197.34 224.92 197.996 226.8C199.404 230.84 202.98 235.351 206.657 237.728C211.075 240.584 214.382 241.447 219.896 241.183C223.793 240.997 224.888 240.72 228.193 239.086C235.548 235.451 239.883 228.867 240.271 220.738C240.531 215.314 239.656 211.971 236.836 207.607C234.512 204.012 230.422 200.691 226.432 199.161C223.308 197.963 216.563 197.49 213.518 198.254ZM42.6906 207.122C44.431 207.849 47.6578 211.148 47.6701 212.213C47.6737 212.555 47.8161 213.354 47.9858 213.989L48.2948 215.142H39.5228C30.7646 215.142 30.7503 215.14 30.7585 213.989C30.7738 211.899 32.9371 208.875 35.3151 207.621C37.873 206.271 40.268 206.109 42.6906 207.122ZM86.9709 207.503C89.3197 208.64 91.7383 211.954 91.7383 214.034C91.7383 215.126 91.6142 215.142 83.0257 215.142C75.7983 215.142 74.3131 215.016 74.3131 214.406C74.3131 213.032 75.3991 210.79 76.7803 209.314C79.5699 206.331 83.2133 205.684 86.9709 207.503ZM128.359 207.687C126.455 209.591 126.489 212.234 128.439 213.989C132.558 217.695 137.968 211.612 134.043 207.687C133.25 206.894 132.199 206.429 131.201 206.429C130.203 206.429 129.152 206.894 128.359 207.687ZM155.545 207.021C152.895 208.471 152.39 211.777 154.497 213.884C156.117 215.504 158.378 215.521 160.231 213.927C163.968 210.713 159.861 204.661 155.545 207.021ZM181.683 207.048C177.786 209.283 179.169 215.168 183.582 215.125C185.462 215.107 186.603 214.413 187.493 212.741C188.454 210.936 188.19 209.526 186.591 207.927C185.018 206.354 183.399 206.064 181.683 207.048ZM224.235 207.752C226.557 208.853 229.265 211.466 230.439 213.737C231.809 216.386 231.974 221.699 230.77 224.408C228.501 229.517 224.012 232.585 218.867 232.544C213.569 232.502 209.753 230.277 207.266 225.778C206.016 223.518 205.779 222.51 205.787 219.498C205.804 213.456 209.265 208.84 215.249 206.878C217.186 206.242 222.051 206.716 224.235 207.752ZM115.353 216.469C114.152 217.479 113.776 218.218 113.776 219.567C113.776 224.119 119.735 225.504 121.892 221.454C122.853 219.649 122.589 218.239 120.99 216.64C119.133 214.782 117.419 214.73 115.353 216.469ZM141.412 216.64C139.359 218.692 139.568 221.392 141.919 223.197C144.384 225.09 148.626 222.902 148.626 219.738C148.626 217.698 146.204 215.142 144.27 215.142C143.45 215.142 142.315 215.737 141.412 216.64ZM167.873 216.295C165.867 218.061 165.667 220.245 167.333 222.224C170.645 226.16 176.324 222.366 174.446 217.471C174.064 216.478 171.633 215.142 170.205 215.142C169.644 215.142 168.594 215.66 167.873 216.295ZM48.1754 224.717C48.1754 226.718 45.9916 230.039 43.8529 231.293C38.6474 234.343 31.8403 231.398 30.9148 225.696L30.616 223.854H39.3957C47.2852 223.854 48.1754 223.942 48.1754 224.717ZM91.5737 225.696C91.4092 226.709 90.6999 228.291 89.9978 229.211C85.4965 235.113 75.9757 232.808 74.5063 225.461L74.185 223.854H83.0288H91.8725L91.5737 225.696ZM129.03 224.656C127.618 225.423 126.78 227.336 127.025 229.236C127.22 230.746 129.503 232.567 131.201 232.567C132.899 232.567 135.182 230.746 135.377 229.236C135.63 227.27 134.78 225.414 133.269 224.632C131.427 223.68 130.823 223.683 129.03 224.656ZM155.545 224.425C151.575 226.678 153.008 232.567 157.526 232.567C159.975 232.567 162.186 230.024 161.728 227.735C161.555 226.871 161.015 225.766 160.528 225.278C159.372 224.122 156.841 223.689 155.545 224.425ZM180.875 225.352C177.317 228.91 180.982 234.082 185.76 232.249C186.773 231.86 188.089 229.426 188.089 227.941C188.089 226.391 185.385 223.854 183.733 223.854C182.913 223.854 181.778 224.449 180.875 225.352ZM115.334 234.005C111.722 237.617 115.328 242.815 120.159 240.961C121.152 240.58 122.489 238.148 122.489 236.721C122.489 235.204 120.411 233.122 118.537 232.763C117.162 232.499 116.637 232.702 115.334 234.005ZM142.492 233.21C138.425 235.307 139.759 241.28 144.293 241.28C148.025 241.28 149.932 237.16 147.473 234.408C146.044 232.809 144.152 232.354 142.492 233.21ZM168.614 233.23C167.909 233.586 167.024 234.523 166.646 235.31C164.619 239.538 170.175 243.353 173.506 240.021C175.621 237.907 175.07 234.605 172.363 233.163C170.946 232.409 170.213 232.421 168.614 233.23Z" fill="url(#paint0_linear_1883:1155)"/>
<defs>
<linearGradient id="paint0_linear_1883:1155" x1="4.02007e-05" y1="263.317" x2="262.402" y2="263.317" gradientUnits="userSpaceOnUse">
<stop stop-color="#76C5FF"/>
<stop offset="1" stop-color="#1F83CB"/>
</linearGradient>
</defs>
</svg>
