<?xml version="1.0" encoding="UTF-8" standalone="no"?><!-- Generator: Gravit.io --><svg xmlns="http://www.w3.org/2000/svg" xmlns:xlink="http://www.w3.org/1999/xlink" style="isolation:isolate" viewBox="858 436 140 140" width="140pt" height="140pt"><defs><clipPath id="_clipPath_xEEy9Lz9523QrNJzNKPoLb0qvdznDPng"><rect x="858" y="436" width="140" height="140"/></clipPath></defs><g clip-path="url(#_clipPath_xEEy9Lz9523QrNJzNKPoLb0qvdznDPng)"><clipPath id="_clipPath_yRJiAdAaKvpJQYm3hcHaeXyglWHP3InR"><rect x="858" y="436" width="140" height="140" transform="matrix(1,0,0,1,0,0)" fill="rgb(255,255,255)"/></clipPath><g clip-path="url(#_clipPath_yRJiAdAaKvpJQYm3hcHaeXyglWHP3InR)"><g><linearGradient id="_lgradient_20" x1="-0.26510934665740316" y1="11.657067485548184" x2="1.6093736734025876" y2="11.657067485548184" gradientTransform="matrix(68.88,0,0,8.366,881.702,478.473)" gradientUnits="userSpaceOnUse"><stop offset="0%" stop-opacity="1" style="stop-color:rgb(118,197,255)"/><stop offset="100%" stop-opacity="1" style="stop-color:rgb(31,131,203)"/></linearGradient><path d=" M 950.575 483.825 C 950.484 482.696 949.492 481.852 948.365 481.944 C 941.838 482.469 934.984 482.736 927.995 482.736 C 911.331 482.736 895.786 481.241 884.223 478.527 C 883.123 478.27 882.016 478.953 881.757 480.056 C 881.498 481.16 882.183 482.264 883.286 482.523 C 895.147 485.307 911.025 486.839 927.995 486.839 C 935.093 486.839 942.058 486.569 948.694 486.035 C 949.824 485.944 950.666 484.954 950.575 483.825 Z " fill="url(#_lgradient_20)"/><linearGradient id="_lgradient_21" x1="-0.2651093466574032" y1="7.453367772658913" x2="1.6093736734025876" y2="7.453367772658913" gradientTransform="matrix(68.88,0,0,8.367,881.702,513.64)" gradientUnits="userSpaceOnUse"><stop offset="0%" stop-opacity="1" style="stop-color:rgb(118,197,255)"/><stop offset="100%" stop-opacity="1" style="stop-color:rgb(31,131,203)"/></linearGradient><path d=" M 950.575 518.992 C 950.484 517.863 949.492 517.02 948.365 517.112 C 941.838 517.637 934.984 517.903 927.995 517.903 C 911.331 517.903 895.786 516.409 884.223 513.695 C 883.123 513.437 882.016 514.12 881.757 515.224 C 881.498 516.327 882.183 517.431 883.286 517.69 C 895.147 520.474 911.025 522.007 927.995 522.007 C 935.093 522.007 942.058 521.736 948.694 521.202 C 949.824 521.112 950.666 520.122 950.575 518.992 Z " fill="url(#_lgradient_21)"/><linearGradient id="_lgradient_22" x1="1.549023615557421e-7" y1="1" x2="1.0000000000000002" y2="1" gradientTransform="matrix(129.114,0,0,140,863.441,436)" gradientUnits="userSpaceOnUse"><stop offset="0%" stop-opacity="1" style="stop-color:rgb(118,197,255)"/><stop offset="100%" stop-opacity="1" style="stop-color:rgb(31,131,203)"/></linearGradient><path d=" M 992.539 452.141 C 992.107 442.328 965.562 438.492 954.094 437.294 C 950.556 436.924 946.847 436.629 943.07 436.416 C 938.164 436.14 933.092 436 927.996 436 C 914.956 436 902.433 436.907 891.782 438.623 C 890.663 438.803 889.902 439.856 890.082 440.975 C 890.262 442.093 891.317 442.855 892.434 442.674 C 902.874 440.993 915.171 440.104 927.996 440.104 C 933.016 440.104 938.01 440.242 942.84 440.514 C 946.551 440.723 950.194 441.013 953.668 441.376 C 964.28 442.484 973.252 444.245 979.613 446.468 C 988.02 449.406 988.446 451.911 988.446 452.383 C 988.446 453.981 984.926 457.492 971.733 460.517 C 971.369 460.601 971.001 460.683 970.629 460.764 C 959.102 463.281 944.024 464.663 927.996 464.663 C 911.968 464.663 896.89 463.281 885.363 460.764 C 884.991 460.683 884.623 460.601 884.259 460.517 C 871.186 457.52 867.613 454.046 867.549 452.429 C 867.549 452.414 867.551 452.399 867.551 452.384 C 867.551 452.369 867.549 452.355 867.549 452.341 C 867.582 451.375 868.752 450.144 870.773 448.954 C 873.324 447.452 877.064 446.063 881.89 444.824 C 882.988 444.543 883.649 443.425 883.367 442.327 C 883.086 441.229 881.969 440.569 880.87 440.849 C 869.305 443.816 863.441 447.697 863.441 452.384 L 863.441 559.617 C 863.441 564.641 870.137 568.723 883.341 571.751 C 895.293 574.491 911.151 576 927.996 576 C 944.84 576 960.699 574.491 972.65 571.75 C 985.854 568.723 992.55 564.64 992.55 559.616 L 992.55 452.489 C 992.551 452.454 992.555 452.419 992.555 452.384 C 992.555 452.302 992.549 452.221 992.539 452.141 Z  M 971.733 567.75 C 960.073 570.424 944.541 571.896 927.996 571.896 C 911.451 571.896 895.918 570.424 884.259 567.75 C 871.066 564.725 867.545 561.214 867.545 559.616 L 867.545 530.109 C 867.59 530.14 867.64 530.171 867.685 530.201 C 867.797 530.277 867.911 530.351 868.026 530.426 C 868.12 530.486 868.214 530.546 868.311 530.606 C 868.431 530.681 868.555 530.755 868.681 530.829 C 868.779 530.887 868.877 530.946 868.978 531.003 C 869.11 531.079 869.246 531.154 869.383 531.229 C 869.484 531.284 869.583 531.339 869.687 531.394 C 869.836 531.473 869.991 531.551 870.145 531.63 C 870.243 531.679 870.338 531.729 870.438 531.778 C 870.629 531.872 870.827 531.965 871.026 532.058 C 871.095 532.091 871.161 532.124 871.231 532.156 C 871.501 532.28 871.778 532.403 872.062 532.524 C 872.151 532.562 872.244 532.599 872.334 532.637 C 872.535 532.722 872.735 532.806 872.943 532.889 C 873.06 532.936 873.183 532.983 873.303 533.03 C 873.489 533.102 873.675 533.175 873.866 533.247 C 873.998 533.297 874.134 533.346 874.269 533.395 C 874.455 533.463 874.641 533.531 874.832 533.599 C 874.974 533.649 875.119 533.699 875.264 533.748 C 875.455 533.814 875.647 533.88 875.843 533.945 C 875.993 533.994 876.144 534.044 876.295 534.093 C 876.494 534.157 876.695 534.221 876.898 534.284 C 877.053 534.333 877.21 534.381 877.368 534.43 C 877.575 534.493 877.787 534.556 877.999 534.619 C 878.158 534.666 878.318 534.712 878.48 534.759 C 878.7 534.823 878.925 534.885 879.15 534.948 C 879.31 534.992 879.47 535.037 879.633 535.081 C 879.872 535.146 880.116 535.21 880.361 535.274 C 880.516 535.315 880.67 535.356 880.827 535.396 C 881.102 535.467 881.383 535.536 881.664 535.606 C 881.797 535.639 881.928 535.672 882.063 535.705 C 882.483 535.807 882.908 535.907 883.341 536.006 C 895.293 538.747 911.151 540.256 927.996 540.256 C 944.84 540.256 960.699 538.747 972.65 536.006 C 973.083 535.907 973.509 535.806 973.928 535.705 C 974.064 535.672 974.195 535.639 974.328 535.606 C 974.609 535.536 974.89 535.467 975.164 535.396 C 975.322 535.356 975.475 535.315 975.631 535.274 C 975.875 535.21 976.119 535.146 976.358 535.081 C 976.521 535.037 976.681 534.992 976.841 534.948 C 977.066 534.885 977.291 534.823 977.511 534.759 C 977.673 534.713 977.833 534.666 977.992 534.619 C 978.204 534.556 978.416 534.493 978.623 534.43 C 978.781 534.381 978.938 534.333 979.093 534.284 C 979.296 534.221 979.497 534.157 979.695 534.093 C 979.847 534.044 979.999 533.995 980.148 533.945 C 980.344 533.88 980.536 533.814 980.727 533.749 C 980.872 533.699 981.017 533.649 981.159 533.599 C 981.35 533.532 981.536 533.464 981.722 533.395 C 981.857 533.346 981.993 533.297 982.125 533.247 C 982.316 533.175 982.502 533.103 982.688 533.03 C 982.808 532.983 982.93 532.936 983.048 532.889 C 983.255 532.806 983.455 532.722 983.655 532.638 C 983.746 532.6 983.839 532.563 983.929 532.524 C 984.213 532.403 984.49 532.28 984.76 532.156 C 984.83 532.124 984.896 532.091 984.965 532.059 C 985.164 531.966 985.362 531.873 985.553 531.779 C 985.653 531.729 985.748 531.679 985.846 531.63 C 986 531.552 986.155 531.474 986.304 531.395 C 986.407 531.34 986.507 531.284 986.608 531.229 C 986.744 531.154 986.881 531.079 987.013 531.004 C 987.114 530.946 987.212 530.887 987.311 530.829 C 987.436 530.755 987.56 530.68 987.68 530.606 C 987.777 530.546 987.871 530.486 987.965 530.426 C 988.08 530.351 988.194 530.276 988.306 530.201 C 988.351 530.171 988.4 530.14 988.446 530.109 L 988.446 559.616 C 988.446 561.214 984.926 564.725 971.733 567.75 Z  M 988.348 524.37 C 987.701 526.124 983.689 529.265 971.733 532.006 C 960.074 534.68 944.541 536.152 927.996 536.152 C 911.451 536.152 895.918 534.68 884.259 532.006 C 872.303 529.265 868.291 526.124 867.644 524.37 C 867.577 524.189 867.546 524.022 867.546 523.872 L 867.546 494.365 C 867.589 494.395 867.637 494.424 867.681 494.454 C 867.795 494.531 867.912 494.608 868.031 494.684 C 868.122 494.743 868.214 494.801 868.308 494.86 C 868.431 494.936 868.557 495.011 868.685 495.087 C 868.781 495.144 868.877 495.201 868.976 495.258 C 869.11 495.334 869.248 495.41 869.386 495.486 C 869.486 495.54 869.584 495.595 869.687 495.65 C 869.835 495.728 869.989 495.806 870.143 495.884 C 870.242 495.934 870.338 495.985 870.439 496.034 C 870.627 496.127 870.822 496.218 871.018 496.31 C 871.09 496.344 871.159 496.378 871.232 496.412 C 871.502 496.535 871.778 496.658 872.061 496.779 C 872.155 496.819 872.254 496.859 872.349 496.899 C 872.544 496.98 872.739 497.062 872.941 497.143 C 873.063 497.192 873.19 497.241 873.314 497.289 C 873.495 497.36 873.677 497.431 873.863 497.501 C 873.999 497.552 874.139 497.603 874.278 497.654 C 874.46 497.721 874.642 497.787 874.829 497.853 C 874.974 497.905 875.123 497.955 875.271 498.006 C 875.458 498.071 875.647 498.135 875.84 498.199 C 875.992 498.25 876.146 498.3 876.301 498.35 C 876.497 498.413 876.695 498.476 876.895 498.539 C 877.052 498.588 877.211 498.637 877.371 498.686 C 877.577 498.749 877.786 498.811 877.996 498.873 C 878.157 498.92 878.318 498.968 878.481 499.015 C 878.7 499.077 878.923 499.14 879.148 499.202 C 879.309 499.247 879.47 499.292 879.634 499.337 C 879.871 499.401 880.114 499.465 880.356 499.528 C 880.514 499.57 880.669 499.611 880.828 499.652 C 881.102 499.722 881.381 499.791 881.661 499.86 C 881.796 499.893 881.927 499.927 882.063 499.96 C 882.483 500.062 882.908 500.162 883.342 500.262 C 895.293 503.002 911.152 504.511 927.996 504.511 C 944.84 504.511 960.699 503.002 972.65 500.262 C 973.084 500.162 973.509 500.062 973.928 499.96 C 974.065 499.927 974.196 499.893 974.331 499.86 C 974.611 499.791 974.89 499.722 975.163 499.652 C 975.323 499.611 975.479 499.57 975.636 499.528 C 975.878 499.465 976.12 499.401 976.357 499.337 C 976.521 499.292 976.682 499.247 976.844 499.202 C 977.068 499.14 977.291 499.078 977.51 499.015 C 977.674 498.968 977.835 498.92 977.995 498.873 C 978.206 498.811 978.415 498.749 978.621 498.686 C 978.781 498.637 978.939 498.588 979.096 498.539 C 979.297 498.476 979.495 498.414 979.69 498.35 C 979.845 498.3 980 498.25 980.152 498.199 C 980.344 498.135 980.533 498.071 980.72 498.007 C 980.869 497.956 981.017 497.905 981.162 497.854 C 981.349 497.788 981.531 497.721 981.714 497.654 C 981.852 497.603 981.992 497.553 982.128 497.502 C 982.315 497.432 982.496 497.36 982.677 497.29 C 982.802 497.241 982.928 497.193 983.051 497.144 C 983.252 497.063 983.446 496.982 983.641 496.9 C 983.737 496.86 983.836 496.82 983.93 496.779 C 984.214 496.658 984.49 496.536 984.759 496.412 C 984.833 496.378 984.902 496.344 984.974 496.31 C 985.169 496.219 985.364 496.127 985.552 496.035 C 985.653 495.985 985.749 495.935 985.848 495.884 C 986.002 495.806 986.156 495.728 986.305 495.65 C 986.407 495.595 986.506 495.54 986.606 495.486 C 986.744 495.41 986.882 495.335 987.015 495.258 C 987.114 495.201 987.211 495.144 987.307 495.087 C 987.435 495.011 987.561 494.936 987.683 494.86 C 987.778 494.801 987.869 494.743 987.96 494.684 C 988.079 494.608 988.196 494.531 988.311 494.454 C 988.355 494.424 988.402 494.395 988.446 494.365 L 988.446 523.872 C 988.446 524.022 988.415 524.189 988.348 524.37 Z  M 971.733 496.262 C 960.073 498.935 944.541 500.408 927.996 500.408 C 911.451 500.408 895.918 498.935 884.259 496.262 C 871.066 493.237 867.545 489.726 867.545 488.128 L 867.545 458.62 C 867.589 458.65 867.636 458.679 867.681 458.709 C 867.795 458.786 867.912 458.863 868.031 458.94 C 868.122 458.999 868.214 459.057 868.308 459.115 C 868.431 459.191 868.557 459.267 868.684 459.343 C 868.781 459.4 868.877 459.457 868.976 459.514 C 869.11 459.59 869.247 459.665 869.385 459.741 C 869.486 459.796 869.584 459.851 869.686 459.905 C 869.835 459.984 869.989 460.062 870.143 460.14 C 870.242 460.19 870.338 460.24 870.439 460.29 C 870.627 460.383 870.822 460.474 871.017 460.566 C 871.09 460.6 871.159 460.634 871.232 460.667 C 871.501 460.791 871.778 460.913 872.061 461.035 C 872.155 461.075 872.253 461.114 872.348 461.154 C 872.544 461.236 872.739 461.318 872.94 461.399 C 873.063 461.448 873.19 461.496 873.314 461.545 C 873.495 461.616 873.676 461.687 873.863 461.757 C 873.999 461.808 874.139 461.859 874.278 461.91 C 874.46 461.976 874.642 462.043 874.829 462.109 C 874.974 462.16 875.122 462.211 875.27 462.262 C 875.458 462.327 875.647 462.391 875.839 462.455 C 875.991 462.505 876.146 462.555 876.3 462.605 C 876.496 462.669 876.694 462.732 876.895 462.795 C 877.052 462.844 877.21 462.893 877.37 462.942 C 877.577 463.004 877.785 463.067 877.996 463.129 C 878.157 463.176 878.318 463.223 878.481 463.27 C 878.7 463.333 878.923 463.396 879.147 463.458 C 879.309 463.503 879.47 463.548 879.634 463.592 C 879.871 463.657 880.113 463.72 880.356 463.784 C 880.513 463.825 880.669 463.867 880.828 463.908 C 881.101 463.978 881.381 464.047 881.661 464.116 C 881.796 464.149 881.927 464.183 882.063 464.216 C 882.483 464.317 882.908 464.418 883.341 464.517 C 895.293 467.257 911.151 468.767 927.996 468.767 C 944.84 468.767 960.699 467.257 972.65 464.517 C 973.083 464.418 973.509 464.317 973.928 464.216 C 974.064 464.183 974.196 464.149 974.331 464.116 C 974.61 464.047 974.89 463.978 975.163 463.908 C 975.322 463.867 975.478 463.825 975.636 463.784 C 975.878 463.721 976.12 463.657 976.357 463.593 C 976.521 463.548 976.682 463.503 976.843 463.458 C 977.067 463.396 977.291 463.333 977.51 463.27 C 977.673 463.223 977.834 463.176 977.995 463.129 C 978.205 463.067 978.414 463.004 978.62 462.942 C 978.78 462.893 978.939 462.844 979.096 462.795 C 979.296 462.732 979.494 462.669 979.69 462.606 C 979.845 462.556 980 462.505 980.152 462.455 C 980.344 462.391 980.533 462.327 980.72 462.262 C 980.868 462.211 981.017 462.161 981.162 462.109 C 981.349 462.043 981.531 461.977 981.713 461.91 C 981.852 461.859 981.992 461.809 982.128 461.757 C 982.314 461.687 982.495 461.616 982.677 461.545 C 982.801 461.497 982.928 461.448 983.05 461.399 C 983.251 461.319 983.446 461.237 983.641 461.155 C 983.737 461.115 983.836 461.076 983.93 461.035 C 984.213 460.914 984.49 460.791 984.759 460.668 C 984.832 460.634 984.901 460.6 984.974 460.566 C 985.169 460.475 985.364 460.383 985.552 460.29 C 985.653 460.241 985.749 460.19 985.848 460.14 C 986.002 460.062 986.156 459.984 986.305 459.906 C 986.407 459.851 986.506 459.796 986.606 459.741 C 986.744 459.666 986.881 459.59 987.015 459.514 C 987.114 459.457 987.21 459.4 987.307 459.342 C 987.434 459.267 987.561 459.191 987.683 459.115 C 987.777 459.057 987.869 458.998 987.96 458.94 C 988.079 458.863 988.196 458.786 988.31 458.709 C 988.354 458.679 988.402 458.65 988.446 458.62 L 988.446 488.128 C 988.446 489.726 984.926 493.237 971.733 496.262 Z " fill="url(#_lgradient_22)"/><linearGradient id="_lgradient_23" x1="-5.910632204123823" y1="6.430078512177046" x2="2.1633687745348666" y2="6.430078512177046" gradientTransform="matrix(15.991,0,0,15.991,957.96,473.176)" gradientUnits="userSpaceOnUse"><stop offset="0%" stop-opacity="1" style="stop-color:rgb(118,197,255)"/><stop offset="100%" stop-opacity="1" style="stop-color:rgb(31,131,203)"/></linearGradient><path d=" M 971.612 475.515 C 968.493 472.396 963.418 472.396 960.299 475.515 C 957.18 478.634 957.18 483.708 960.299 486.828 C 961.859 488.387 963.907 489.167 965.956 489.167 C 968.004 489.167 970.053 488.387 971.612 486.828 C 974.731 483.708 974.731 478.634 971.612 475.515 Z  M 968.71 483.926 C 967.974 484.661 966.996 485.067 965.956 485.067 C 964.915 485.067 963.937 484.661 963.201 483.926 C 962.466 483.19 962.06 482.212 962.06 481.171 C 962.06 480.131 962.466 479.152 963.201 478.417 C 963.937 477.681 964.915 477.276 965.956 477.276 C 966.996 477.276 967.974 477.681 968.71 478.417 C 969.446 479.152 969.851 480.131 969.851 481.171 C 969.851 482.212 969.446 483.19 968.71 483.926 Z " fill="url(#_lgradient_23)"/><linearGradient id="_lgradient_24" x1="-5.910632204123823" y1="4.224220897183757" x2="2.1633687745348666" y2="4.224220897183757" gradientTransform="matrix(15.991,0,0,15.991,957.96,508.45)" gradientUnits="userSpaceOnUse"><stop offset="0%" stop-opacity="1" style="stop-color:rgb(118,197,255)"/><stop offset="100%" stop-opacity="1" style="stop-color:rgb(31,131,203)"/></linearGradient><path d=" M 971.612 510.789 C 968.493 507.67 963.418 507.67 960.299 510.789 C 957.18 513.908 957.18 518.983 960.299 522.102 C 961.859 523.661 963.907 524.441 965.956 524.441 C 968.004 524.441 970.053 523.661 971.612 522.102 C 974.731 518.983 974.731 513.908 971.612 510.789 Z  M 968.71 519.2 C 967.974 519.936 966.996 520.341 965.956 520.341 C 964.915 520.341 963.937 519.936 963.201 519.2 C 962.466 518.464 962.06 517.486 962.06 516.445 C 962.06 515.405 962.466 514.427 963.201 513.691 C 963.937 512.955 964.915 512.55 965.956 512.55 C 966.996 512.55 967.974 512.955 968.71 513.691 C 969.446 514.427 969.851 515.405 969.851 516.445 C 969.851 517.486 969.446 518.464 968.71 519.2 Z " fill="url(#_lgradient_24)"/><linearGradient id="_lgradient_25" x1="-5.910632204123823" y1="2.015102717238358" x2="2.1633687745348666" y2="2.015102717238358" gradientTransform="matrix(15.991,0,0,15.99,957.96,543.778)" gradientUnits="userSpaceOnUse"><stop offset="0%" stop-opacity="1" style="stop-color:rgb(118,197,255)"/><stop offset="100%" stop-opacity="1" style="stop-color:rgb(31,131,203)"/></linearGradient><path d=" M 971.612 546.116 C 968.493 542.998 963.418 542.998 960.299 546.116 C 957.18 549.235 957.18 554.31 960.299 557.429 C 961.859 558.988 963.907 559.768 965.956 559.768 C 968.004 559.768 970.053 558.989 971.612 557.429 C 974.731 554.31 974.731 549.235 971.612 546.116 Z  M 968.71 554.527 C 967.974 555.263 966.996 555.668 965.956 555.668 C 964.915 555.668 963.937 555.263 963.201 554.527 C 962.466 553.792 962.06 552.813 962.06 551.773 C 962.06 550.732 962.466 549.754 963.201 549.018 C 963.937 548.283 964.915 547.877 965.956 547.877 C 966.996 547.877 967.974 548.283 968.71 549.018 C 969.446 549.754 969.851 550.732 969.851 551.773 C 969.851 552.813 969.446 553.792 968.71 554.527 Z " fill="url(#_lgradient_25)"/><linearGradient id="_lgradient_26" x1="-5.707104810506056" y1="4.957629291344059" x2="4.230356747624981" y2="4.957629291344059" gradientTransform="matrix(12.993,0,0,4.652,937.592,552.936)" gradientUnits="userSpaceOnUse"><stop offset="0%" stop-opacity="1" style="stop-color:rgb(118,197,255)"/><stop offset="100%" stop-opacity="1" style="stop-color:rgb(31,131,203)"/></linearGradient><path d=" M 950.578 554.823 C 950.487 553.694 949.494 552.848 948.368 552.943 C 945.498 553.174 942.533 553.357 939.554 553.486 C 938.422 553.536 937.544 554.493 937.594 555.625 C 937.642 556.727 938.55 557.588 939.642 557.588 C 939.672 557.588 939.703 557.588 939.733 557.586 C 942.762 557.454 945.777 557.269 948.697 557.033 C 949.826 556.943 950.669 555.953 950.578 554.823 Z " fill="url(#_lgradient_26)"/><linearGradient id="_lgradient_27" x1="-0.37283330051054386" y1="3.170820211898315" x2="2.263048759438277" y2="3.170820211898315" gradientTransform="matrix(48.983,0,0,8.366,881.704,549.472)" gradientUnits="userSpaceOnUse"><stop offset="0%" stop-opacity="1" style="stop-color:rgb(118,197,255)"/><stop offset="100%" stop-opacity="1" style="stop-color:rgb(31,131,203)"/></linearGradient><path d=" M 928.635 553.734 C 928.634 553.734 928.632 553.734 928.63 553.734 L 927.997 553.735 C 911.333 553.735 895.788 552.24 884.225 549.526 C 883.125 549.268 882.018 549.952 881.759 551.055 C 881.5 552.159 882.184 553.263 883.288 553.522 C 895.149 556.305 911.027 557.838 927.997 557.838 L 928.64 557.838 C 929.774 557.835 930.69 556.914 930.687 555.781 C 930.684 554.649 929.766 553.734 928.635 553.734 Z " fill="url(#_lgradient_27)"/></g></g></g></svg>