<svg width="140" height="141" viewBox="0 0 140 141" fill="none" xmlns="http://www.w3.org/2000/svg">
<path d="M70 51.2256C59.1456 51.2256 50.3125 60.0587 50.3125 70.9131C50.3125 81.7675 59.1456 90.6006 70 90.6006C80.8544 90.6006 89.6875 81.7675 89.6875 70.9131C89.6875 60.0587 80.8544 51.2256 70 51.2256ZM70 86.2256C61.5562 86.2256 54.6875 79.3568 54.6875 70.9131C54.6875 62.4693 61.5562 55.6006 70 55.6006C78.4437 55.6006 85.3125 62.4693 85.3125 70.9131C85.3125 79.3568 78.4437 86.2256 70 86.2256Z" fill="url(#paint0_linear_1883:1090)"/>
<path d="M118.125 38.1011H135.625C136.832 38.1011 137.812 37.1211 137.812 35.9136V18.4136C137.812 17.2061 136.832 16.2261 135.625 16.2261H118.125C116.917 16.2261 115.937 17.2061 115.937 18.4136V24.9761H109.375C108.167 24.9761 107.187 25.9561 107.187 27.1636V68.7261H105V66.5386C105 65.4426 104.188 64.5151 103.101 64.3708L97.4903 63.6226C96.845 61.1814 95.8716 58.843 94.5853 56.6401L98.0328 52.1339C98.6978 51.2633 98.6169 50.0339 97.8425 49.2595L91.6541 43.0711C90.8797 42.2945 89.6481 42.2136 88.7797 42.8808L84.2734 46.3283C82.0706 45.0442 79.7322 44.0708 77.2909 43.4233L76.5428 37.8123C76.3984 36.7251 75.4709 35.9136 74.375 35.9136H65.625C64.5291 35.9136 63.6016 36.7251 63.4572 37.8123L62.7091 43.4233C60.2678 44.0686 57.9294 45.042 55.7266 46.3283L51.2203 42.8808C50.3497 42.2158 49.1203 42.2967 48.3459 43.0711L42.1575 49.2595C41.3831 50.0339 41.3 51.2655 41.9672 52.1339L45.4147 56.6401C44.1306 58.843 43.1572 61.1814 42.5097 63.6226L36.8987 64.3708C35.8116 64.5151 35 65.4426 35 66.5386V68.7261H32.8125V27.1636C32.8125 25.9561 31.8325 24.9761 30.625 24.9761H24.0625V18.4136C24.0625 17.2061 23.0825 16.2261 21.875 16.2261H4.375C3.1675 16.2261 2.1875 17.2061 2.1875 18.4136V35.9136C2.1875 37.1211 3.1675 38.1011 4.375 38.1011H21.875C23.0825 38.1011 24.0625 37.1211 24.0625 35.9136V29.3511H28.4375V68.7261H24.0625V62.1636C24.0625 60.9561 23.0825 59.9761 21.875 59.9761H4.375C3.1675 59.9761 2.1875 60.9561 2.1875 62.1636V79.6636C2.1875 80.8711 3.1675 81.8511 4.375 81.8511H21.875C23.0825 81.8511 24.0625 80.8711 24.0625 79.6636V73.1011H28.4375V112.476H24.0625V105.914C24.0625 104.706 23.0825 103.726 21.875 103.726H4.375C3.1675 103.726 2.1875 104.706 2.1875 105.914V123.414C2.1875 124.621 3.1675 125.601 4.375 125.601H21.875C23.0825 125.601 24.0625 124.621 24.0625 123.414V116.851H30.625C31.8325 116.851 32.8125 115.871 32.8125 114.664V73.1011H35V75.2886C35 76.3845 35.8116 77.312 36.8987 77.4564L42.5097 78.2045C43.155 80.6458 44.1284 82.9842 45.4147 85.187L41.9672 89.6933C41.3022 90.5639 41.3831 91.7933 42.1575 92.5676L48.3459 98.7561C49.1203 99.5305 50.3475 99.6114 51.2203 98.9464L55.7266 95.4989C57.9294 96.783 60.2678 97.7564 62.7091 98.4039L63.4572 104.015C63.6016 105.102 64.5291 105.914 65.625 105.914H74.375C75.4709 105.914 76.3984 105.102 76.5428 104.015L77.2909 98.4039C79.7322 97.7586 82.0706 96.7851 84.2734 95.4989L88.7797 98.9464C89.6503 99.6136 90.8819 99.5326 91.6541 98.7561L97.8425 92.5676C98.6169 91.7933 98.7 90.5617 98.0328 89.6933L94.5853 85.187C95.8694 82.9842 96.8428 80.6458 97.4903 78.2045L103.101 77.4564C104.188 77.312 105 76.3845 105 75.2886V73.1011H107.187V114.664C107.187 115.871 108.167 116.851 109.375 116.851H115.937V123.414C115.937 124.621 116.917 125.601 118.125 125.601H135.625C136.832 125.601 137.812 124.621 137.812 123.414V105.914C137.812 104.706 136.832 103.726 135.625 103.726H118.125C116.917 103.726 115.937 104.706 115.937 105.914V112.476H111.562V73.1011H115.937V79.6636C115.937 80.8711 116.917 81.8511 118.125 81.8511H135.625C136.832 81.8511 137.812 80.8711 137.812 79.6636V62.1636C137.812 60.9561 136.832 59.9761 135.625 59.9761H118.125C116.917 59.9761 115.937 60.9561 115.937 62.1636V68.7261H111.562V29.3511H115.937V35.9136C115.937 37.1211 116.917 38.1011 118.125 38.1011ZM120.312 20.6011H133.437V33.7261H120.312V20.6011ZM19.6875 33.7261H6.5625V20.6011H19.6875V33.7261ZM19.6875 77.4761H6.5625V64.3511H19.6875V77.4761ZM19.6875 121.226H6.5625V108.101H19.6875V121.226ZM100.625 73.3745L95.4187 74.068C94.4978 74.1905 93.7541 74.8839 93.5659 75.7961C92.9578 78.7536 91.7919 81.5536 90.1053 84.1151C89.5934 84.8917 89.6306 85.9067 90.195 86.6461L93.3953 90.8308L89.9172 94.3089L85.7325 91.1086C84.9931 90.5442 83.9759 90.507 83.2016 91.0189C80.64 92.7055 77.84 93.8714 74.8825 94.4795C73.9703 94.6676 73.2791 95.4114 73.1544 96.3323L72.4609 101.539H67.5412L66.8478 96.3323C66.7253 95.4114 66.0319 94.6676 65.1197 94.4795C62.1622 93.8714 59.3622 92.7055 56.8006 91.0189C56.0262 90.5092 55.0112 90.5442 54.2697 91.1086L50.085 94.3089L46.6069 90.8308L49.8072 86.6461C50.3716 85.9067 50.4087 84.8917 49.8969 84.1151C48.2103 81.5536 47.0444 78.7536 46.4362 75.7961C46.2481 74.8839 45.5044 74.1926 44.5834 74.068L39.375 73.3745V68.4548L44.5812 67.7614C45.5022 67.6389 46.2459 66.9455 46.4341 66.0333C47.0422 63.0758 48.2081 60.2758 49.8947 57.7142C50.4066 56.9376 50.3694 55.9226 49.805 55.1833L46.6047 50.9986L50.0828 47.5205L54.2675 50.7208C55.0047 51.2851 56.0219 51.3201 56.7984 50.8105C59.36 49.1239 62.16 47.958 65.1175 47.3498C66.0297 47.1617 66.7209 46.418 66.8456 45.497L67.5391 40.2886H72.4587L73.1522 45.4948C73.2747 46.4158 73.9681 47.1595 74.8803 47.3476C77.8378 47.9558 80.6378 49.1217 83.1994 50.8083C83.9781 51.3201 84.9931 51.2851 85.7303 50.7186L89.915 47.5183L93.3931 50.9964L90.1928 55.1811C89.6284 55.9205 89.5912 56.9355 90.1031 57.712C91.7897 60.2736 92.9556 63.0736 93.5637 66.0311C93.7519 66.9433 94.4956 67.6345 95.4165 67.7592L100.625 68.4526V73.3745ZM120.312 108.101H133.437V121.226H120.312V108.101ZM120.312 64.3511H133.437V77.4761H120.312V64.3511Z" fill="url(#paint1_linear_1883:1090)"/>
<defs>
<linearGradient id="paint0_linear_1883:1090" x1="50.3125" y1="90.6006" x2="89.6875" y2="90.6006" gradientUnits="userSpaceOnUse">
<stop stop-color="#76C5FF"/>
<stop offset="1" stop-color="#1F83CB"/>
</linearGradient>
<linearGradient id="paint1_linear_1883:1090" x1="2.18752" y1="125.601" x2="137.812" y2="125.601" gradientUnits="userSpaceOnUse">
<stop stop-color="#76C5FF"/>
<stop offset="1" stop-color="#1F83CB"/>
</linearGradient>
</defs>
</svg>
