<?xml version="1.0" encoding="UTF-8" standalone="no"?><!-- Generator: Gravit.io --><svg xmlns="http://www.w3.org/2000/svg" xmlns:xlink="http://www.w3.org/1999/xlink" style="isolation:isolate" viewBox="546 339 135.625 109.375" width="135.625pt" height="109.375pt"><defs><clipPath id="_clipPath_TL6JlNoomgLEyGZOhyws9vSPbvHcOF99"><rect x="546" y="339" width="135.625" height="109.375"/></clipPath></defs><g clip-path="url(#_clipPath_TL6JlNoomgLEyGZOhyws9vSPbvHcOF99)"><g><linearGradient id="_lgradient_24" x1="0" y1="0.9999999999999998" x2="1" y2="0.9999999999999998" gradientTransform="matrix(39.375,0,0,39.375,594.125,374)" gradientUnits="userSpaceOnUse"><stop offset="0%" stop-opacity="1" style="stop-color:rgb(118,197,255)"/><stop offset="100%" stop-opacity="1" style="stop-color:rgb(31,131,203)"/></linearGradient><path d=" M 613.813 374 C 602.958 374 594.125 382.833 594.125 393.687 C 594.125 404.541 602.958 413.375 613.813 413.375 C 624.667 413.375 633.5 404.541 633.5 393.687 C 633.5 382.833 624.667 374 613.813 374 Z  M 613.813 409 C 605.369 409 598.5 402.131 598.5 393.687 C 598.5 385.243 605.369 378.375 613.813 378.375 C 622.256 378.375 629.125 385.243 629.125 393.687 C 629.125 402.131 622.256 409 613.813 409 Z " fill="url(#_lgradient_24)"/><linearGradient id="_lgradient_25" x1="1.4746598144335654e-7" y1="1" x2="1" y2="1" gradientTransform="matrix(135.625,0,0,109.375,546,339)" gradientUnits="userSpaceOnUse"><stop offset="0%" stop-opacity="1" style="stop-color:rgb(118,197,255)"/><stop offset="100%" stop-opacity="1" style="stop-color:rgb(31,131,203)"/></linearGradient><path d=" M 661.938 360.875 L 679.438 360.875 C 680.645 360.875 681.625 359.895 681.625 358.688 L 681.625 341.188 C 681.625 339.98 680.645 339 679.438 339 L 661.938 339 C 660.73 339 659.75 339.98 659.75 341.188 L 659.75 347.75 L 653.188 347.75 C 651.98 347.75 651 348.73 651 349.938 L 651 391.5 L 648.813 391.5 L 648.813 389.313 C 648.813 388.217 648.001 387.289 646.914 387.145 L 641.303 386.397 C 640.658 383.955 639.684 381.617 638.398 379.414 L 641.845 374.908 C 642.51 374.037 642.429 372.808 641.655 372.033 L 635.467 365.845 C 634.692 365.068 633.461 364.988 632.592 365.655 L 628.086 369.102 C 625.883 367.818 623.545 366.845 621.103 366.197 L 620.355 360.586 C 620.211 359.499 619.283 358.688 618.188 358.688 L 609.438 358.688 C 608.342 358.688 607.414 359.499 607.27 360.586 L 606.522 366.197 C 604.08 366.843 601.742 367.816 599.539 369.102 L 595.033 365.655 C 594.162 364.99 592.933 365.071 592.158 365.845 L 585.97 372.033 C 585.196 372.808 585.113 374.039 585.78 374.908 L 589.227 379.414 C 587.943 381.617 586.97 383.955 586.322 386.397 L 580.711 387.145 C 579.624 387.289 578.813 388.217 578.813 389.313 L 578.813 391.5 L 576.625 391.5 L 576.625 349.938 C 576.625 348.73 575.645 347.75 574.438 347.75 L 567.875 347.75 L 567.875 341.188 C 567.875 339.98 566.895 339 565.688 339 L 548.188 339 C 546.98 339 546 339.98 546 341.188 L 546 358.688 C 546 359.895 546.98 360.875 548.188 360.875 L 565.688 360.875 C 566.895 360.875 567.875 359.895 567.875 358.688 L 567.875 352.125 L 572.25 352.125 L 572.25 391.5 L 567.875 391.5 L 567.875 384.938 C 567.875 383.73 566.895 382.75 565.688 382.75 L 548.188 382.75 C 546.98 382.75 546 383.73 546 384.938 L 546 402.438 C 546 403.645 546.98 404.625 548.188 404.625 L 565.688 404.625 C 566.895 404.625 567.875 403.645 567.875 402.438 L 567.875 395.875 L 572.25 395.875 L 572.25 435.25 L 567.875 435.25 L 567.875 428.688 C 567.875 427.48 566.895 426.5 565.688 426.5 L 548.188 426.5 C 546.98 426.5 546 427.48 546 428.688 L 546 446.188 C 546 447.395 546.98 448.375 548.188 448.375 L 565.688 448.375 C 566.895 448.375 567.875 447.395 567.875 446.188 L 567.875 439.625 L 574.438 439.625 C 575.645 439.625 576.625 438.645 576.625 437.438 L 576.625 395.875 L 578.813 395.875 L 578.813 398.063 C 578.813 399.158 579.624 400.086 580.711 400.23 L 586.322 400.978 C 586.968 403.42 587.941 405.758 589.227 407.961 L 585.78 412.467 C 585.115 413.338 585.196 414.567 585.97 415.342 L 592.158 421.53 C 592.933 422.304 594.16 422.385 595.033 421.72 L 599.539 418.273 C 601.742 419.557 604.08 420.53 606.522 421.178 L 607.27 426.789 C 607.414 427.876 608.342 428.688 609.438 428.688 L 618.188 428.688 C 619.283 428.688 620.211 427.876 620.355 426.789 L 621.103 421.178 C 623.545 420.533 625.883 419.559 628.086 418.273 L 632.592 421.72 C 633.463 422.388 634.694 422.307 635.467 421.53 L 641.655 415.342 C 642.429 414.567 642.513 413.336 641.845 412.467 L 638.398 407.961 C 639.682 405.758 640.655 403.42 641.303 400.978 L 646.914 400.23 C 648.001 400.086 648.813 399.158 648.813 398.063 L 648.813 395.875 L 651 395.875 L 651 437.438 C 651 438.645 651.98 439.625 653.188 439.625 L 659.75 439.625 L 659.75 446.188 C 659.75 447.395 660.73 448.375 661.938 448.375 L 679.438 448.375 C 680.645 448.375 681.625 447.395 681.625 446.188 L 681.625 428.688 C 681.625 427.48 680.645 426.5 679.438 426.5 L 661.938 426.5 C 660.73 426.5 659.75 427.48 659.75 428.688 L 659.75 435.25 L 655.375 435.25 L 655.375 395.875 L 659.75 395.875 L 659.75 402.438 C 659.75 403.645 660.73 404.625 661.938 404.625 L 679.438 404.625 C 680.645 404.625 681.625 403.645 681.625 402.438 L 681.625 384.938 C 681.625 383.73 680.645 382.75 679.438 382.75 L 661.938 382.75 C 660.73 382.75 659.75 383.73 659.75 384.938 L 659.75 391.5 L 655.375 391.5 L 655.375 352.125 L 659.75 352.125 L 659.75 358.688 C 659.75 359.895 660.73 360.875 661.938 360.875 Z  M 664.125 343.375 L 677.25 343.375 L 677.25 356.5 L 664.125 356.5 L 664.125 343.375 Z  M 563.5 356.5 L 550.375 356.5 L 550.375 343.375 L 563.5 343.375 L 563.5 356.5 Z  M 563.5 400.25 L 550.375 400.25 L 550.375 387.125 L 563.5 387.125 L 563.5 400.25 Z  M 563.5 444 L 550.375 444 L 550.375 430.875 L 563.5 430.875 L 563.5 444 Z  M 644.438 396.148 L 639.231 396.842 C 638.31 396.964 637.567 397.658 637.378 398.57 C 636.77 401.528 635.604 404.328 633.918 406.889 C 633.406 407.666 633.443 408.681 634.007 409.42 L 637.208 413.605 L 633.73 417.083 L 629.545 413.883 C 628.806 413.318 627.788 413.281 627.014 413.793 C 624.453 415.479 621.653 416.645 618.695 417.253 C 617.783 417.442 617.092 418.185 616.967 419.106 L 616.273 424.313 L 611.354 424.313 L 610.66 419.106 C 610.538 418.185 609.844 417.442 608.932 417.253 C 605.975 416.645 603.175 415.479 600.613 413.793 C 599.839 413.283 598.824 413.318 598.082 413.883 L 593.898 417.083 L 590.419 413.605 L 593.62 409.42 C 594.184 408.681 594.221 407.666 593.709 406.889 C 592.023 404.328 590.857 401.528 590.249 398.57 C 590.061 397.658 589.317 396.967 588.396 396.842 L 583.188 396.148 L 583.188 391.229 L 588.394 390.535 C 589.315 390.413 590.058 389.719 590.247 388.807 C 590.855 385.85 592.021 383.05 593.707 380.488 C 594.219 379.712 594.182 378.697 593.618 377.957 L 590.417 373.773 L 593.895 370.294 L 598.08 373.495 C 598.817 374.059 599.834 374.094 600.611 373.584 C 603.173 371.898 605.973 370.732 608.93 370.124 C 609.842 369.936 610.533 369.192 610.658 368.271 L 611.352 363.063 L 616.271 363.063 L 616.965 368.269 C 617.087 369.19 617.781 369.933 618.693 370.122 C 621.65 370.73 624.45 371.896 627.012 373.582 C 627.791 374.094 628.806 374.059 629.543 373.493 L 633.728 370.292 L 637.206 373.77 L 634.005 377.955 C 633.441 378.694 633.404 379.709 633.916 380.486 C 635.602 383.048 636.768 385.848 637.376 388.805 C 637.564 389.717 638.308 390.408 639.229 390.533 L 644.438 391.227 L 644.438 396.148 Z  M 664.125 430.875 L 677.25 430.875 L 677.25 444 L 664.125 444 L 664.125 430.875 Z  M 664.125 387.125 L 677.25 387.125 L 677.25 400.25 L 664.125 400.25 L 664.125 387.125 Z " fill="url(#_lgradient_25)"/></g></g></svg>