<?xml version="1.0" encoding="UTF-8" standalone="no"?><!-- Generator: Gravit.io --><svg xmlns="http://www.w3.org/2000/svg" xmlns:xlink="http://www.w3.org/1999/xlink" style="isolation:isolate" viewBox="735 363 140 109.315" width="140pt" height="109.315pt"><defs><clipPath id="_clipPath_l6bNjTHnJlAESnWwtsCQH2Bl9RhOp5Pn"><rect x="735" y="363" width="140" height="109.315"/></clipPath></defs><g clip-path="url(#_clipPath_l6bNjTHnJlAESnWwtsCQH2Bl9RhOp5Pn)"><g><linearGradient id="_lgradient_26" x1="0.0000024333386865471596" y1="1" x2="1" y2="1" gradientTransform="matrix(4.11,0,0,4.11,743.766,371.766)" gradientUnits="userSpaceOnUse"><stop offset="0%" stop-opacity="1" style="stop-color:rgb(118,197,255)"/><stop offset="100%" stop-opacity="1" style="stop-color:rgb(31,131,203)"/></linearGradient><path d=" M 745.82 375.875 C 746.36 375.875 746.892 375.656 747.273 375.273 C 747.656 374.892 747.875 374.363 747.875 373.82 C 747.875 373.281 747.656 372.749 747.273 372.368 C 746.892 371.985 746.36 371.766 745.82 371.766 C 745.281 371.766 744.749 371.985 744.368 372.368 C 743.985 372.749 743.766 373.281 743.766 373.82 C 743.766 374.36 743.985 374.892 744.368 375.273 C 744.749 375.656 745.281 375.875 745.82 375.875 Z " fill="url(#_lgradient_26)"/><linearGradient id="_lgradient_27" x1="0" y1="1" x2="1" y2="1" gradientTransform="matrix(4.109,0,0,4.11,750.344,371.766)" gradientUnits="userSpaceOnUse"><stop offset="0%" stop-opacity="1" style="stop-color:rgb(118,197,255)"/><stop offset="100%" stop-opacity="1" style="stop-color:rgb(31,131,203)"/></linearGradient><path d=" M 752.399 375.875 C 752.938 375.875 753.47 375.656 753.851 375.273 C 754.234 374.892 754.453 374.36 754.453 373.82 C 754.453 373.281 754.234 372.749 753.851 372.368 C 753.47 371.985 752.938 371.766 752.399 371.766 C 751.859 371.766 751.327 371.985 750.947 372.368 C 750.563 372.749 750.344 373.281 750.344 373.82 C 750.344 374.36 750.563 374.892 750.947 375.273 C 751.327 375.656 751.859 375.875 752.399 375.875 Z " fill="url(#_lgradient_27)"/><linearGradient id="_lgradient_28" x1="0" y1="1" x2="1" y2="1" gradientTransform="matrix(4.11,0,0,4.11,756.918,371.766)" gradientUnits="userSpaceOnUse"><stop offset="0%" stop-opacity="1" style="stop-color:rgb(118,197,255)"/><stop offset="100%" stop-opacity="1" style="stop-color:rgb(31,131,203)"/></linearGradient><path d=" M 758.973 375.875 C 759.513 375.875 760.044 375.656 760.425 375.273 C 760.808 374.892 761.028 374.36 761.028 373.82 C 761.028 373.281 760.808 372.749 760.425 372.368 C 760.044 371.985 759.513 371.766 758.973 371.766 C 758.43 371.766 757.902 371.985 757.521 372.368 C 757.137 372.749 756.918 373.281 756.918 373.82 C 756.918 374.36 757.137 374.892 757.521 375.273 C 757.902 375.656 758.433 375.875 758.973 375.875 Z " fill="url(#_lgradient_28)"/><linearGradient id="_lgradient_29" x1="0" y1="1" x2="1" y2="1" gradientTransform="matrix(87.397,0,0,4.11,765.684,371.766)" gradientUnits="userSpaceOnUse"><stop offset="0%" stop-opacity="1" style="stop-color:rgb(118,197,255)"/><stop offset="100%" stop-opacity="1" style="stop-color:rgb(31,131,203)"/></linearGradient><path d=" M 767.738 375.875 L 851.026 375.875 C 852.161 375.875 853.081 374.955 853.081 373.82 C 853.081 372.686 852.161 371.766 851.026 371.766 L 767.738 371.766 C 766.604 371.766 765.684 372.686 765.684 373.82 C 765.684 374.955 766.604 375.875 767.738 375.875 Z " fill="url(#_lgradient_29)"/><linearGradient id="_lgradient_30" x1="0" y1="1" x2="1" y2="1" gradientTransform="matrix(8.493,0,0,4.11,857.738,371.766)" gradientUnits="userSpaceOnUse"><stop offset="0%" stop-opacity="1" style="stop-color:rgb(118,197,255)"/><stop offset="100%" stop-opacity="1" style="stop-color:rgb(31,131,203)"/></linearGradient><path d=" M 859.793 375.875 L 864.177 375.875 C 865.311 375.875 866.231 374.955 866.231 373.82 C 866.231 372.686 865.311 371.766 864.177 371.766 L 859.793 371.766 C 858.658 371.766 857.738 372.686 857.738 373.82 C 857.738 374.955 858.658 375.875 859.793 375.875 Z " fill="url(#_lgradient_30)"/><linearGradient id="_lgradient_31" x1="0.0000019109935637251496" y1="1" x2="0.9999999999999998" y2="1" gradientTransform="matrix(52.329,0,0,17.26,748.152,393.684)" gradientUnits="userSpaceOnUse"><stop offset="0%" stop-opacity="1" style="stop-color:rgb(118,197,255)"/><stop offset="100%" stop-opacity="1" style="stop-color:rgb(31,131,203)"/></linearGradient><path d=" M 796.235 393.684 L 752.399 393.684 C 750.057 393.684 748.152 395.589 748.152 397.93 L 748.152 406.697 C 748.152 409.039 750.057 410.944 752.399 410.944 L 796.235 410.944 C 798.576 410.944 800.481 409.039 800.481 406.697 L 800.481 397.93 C 800.481 395.589 798.576 393.684 796.235 393.684 Z  M 796.372 406.697 C 796.372 406.773 796.31 406.834 796.235 406.834 L 752.399 406.834 C 752.323 406.834 752.262 406.773 752.262 406.697 L 752.262 397.93 C 752.262 397.855 752.323 397.793 752.399 397.793 L 796.235 397.793 C 796.31 397.793 796.372 397.855 796.372 397.93 L 796.372 406.697 Z " fill="url(#_lgradient_31)"/><linearGradient id="_lgradient_32" x1="0" y1="1.0000000000000004" x2="1" y2="1.0000000000000004" gradientTransform="matrix(34.794,0,0,12.877,827.055,395.879)" gradientUnits="userSpaceOnUse"><stop offset="0%" stop-opacity="1" style="stop-color:rgb(118,197,255)"/><stop offset="100%" stop-opacity="1" style="stop-color:rgb(31,131,203)"/></linearGradient><path d=" M 859.794 400.263 L 846.169 400.263 C 845.309 397.717 842.9 395.879 840.068 395.879 C 837.237 395.879 834.828 397.717 833.968 400.263 L 829.11 400.263 C 827.975 400.263 827.055 401.183 827.055 402.317 C 827.055 403.452 827.975 404.372 829.11 404.372 L 833.968 404.372 C 834.828 406.917 837.237 408.756 840.068 408.756 C 842.9 408.756 845.309 406.917 846.169 404.372 L 859.794 404.372 C 860.929 404.372 861.849 403.452 861.849 402.317 C 861.849 401.183 860.929 400.263 859.794 400.263 Z  M 840.068 404.646 C 838.784 404.646 837.74 403.601 837.74 402.317 C 837.74 401.033 838.784 399.989 840.068 399.989 C 841.352 399.989 842.397 401.033 842.397 402.317 C 842.397 403.601 841.352 404.646 840.068 404.646 Z " fill="url(#_lgradient_32)"/><linearGradient id="_lgradient_33" x1="0" y1="1" x2="1" y2="1" gradientTransform="matrix(17.26,0,0,17.26,805.137,393.684)" gradientUnits="userSpaceOnUse"><stop offset="0%" stop-opacity="1" style="stop-color:rgb(118,197,255)"/><stop offset="100%" stop-opacity="1" style="stop-color:rgb(31,131,203)"/></linearGradient><path d=" M 813.767 393.684 C 809.008 393.684 805.137 397.555 805.137 402.314 C 805.137 407.072 809.008 410.944 813.767 410.944 C 818.526 410.944 822.397 407.072 822.397 402.314 C 822.397 397.555 818.526 393.684 813.767 393.684 Z  M 813.767 406.834 C 811.274 406.834 809.246 404.806 809.246 402.314 C 809.246 399.821 811.274 397.793 813.767 397.793 C 816.26 397.793 818.287 399.821 818.287 402.314 C 818.287 404.806 816.26 406.834 813.767 406.834 Z " fill="url(#_lgradient_33)"/><linearGradient id="_lgradient_34" x1="0.0000019109935637251496" y1="0.9999942063579432" x2="0.9999999999999998" y2="0.9999942063579432" gradientTransform="matrix(52.329,0,0,17.26,748.152,417.793)" gradientUnits="userSpaceOnUse"><stop offset="0%" stop-opacity="1" style="stop-color:rgb(118,197,255)"/><stop offset="100%" stop-opacity="1" style="stop-color:rgb(31,131,203)"/></linearGradient><path d=" M 796.235 417.793 L 752.399 417.793 C 750.057 417.793 748.152 419.698 748.152 422.04 L 748.152 430.807 C 748.152 433.148 750.057 435.053 752.399 435.053 L 796.235 435.053 C 798.576 435.053 800.481 433.148 800.481 430.807 L 800.481 422.04 C 800.481 419.698 798.576 417.793 796.235 417.793 Z  M 796.372 430.807 C 796.372 430.882 796.31 430.944 796.235 430.944 L 752.399 430.944 C 752.323 430.944 752.262 430.882 752.262 430.807 L 752.262 422.04 C 752.262 421.964 752.323 421.903 752.399 421.903 L 796.235 421.903 C 796.31 421.903 796.372 421.964 796.372 422.04 L 796.372 430.807 Z " fill="url(#_lgradient_34)"/><linearGradient id="_lgradient_35" x1="0" y1="1" x2="1" y2="1" gradientTransform="matrix(34.794,0,0,12.877,827.055,419.984)" gradientUnits="userSpaceOnUse"><stop offset="0%" stop-opacity="1" style="stop-color:rgb(118,197,255)"/><stop offset="100%" stop-opacity="1" style="stop-color:rgb(31,131,203)"/></linearGradient><path d=" M 859.794 424.368 L 857.126 424.368 C 856.267 421.823 853.858 419.984 851.026 419.984 C 848.194 419.984 845.786 421.823 844.926 424.368 L 829.11 424.368 C 827.975 424.368 827.055 425.288 827.055 426.423 C 827.055 427.558 827.975 428.478 829.11 428.478 L 844.926 428.478 C 845.786 431.023 848.195 432.861 851.026 432.861 C 853.858 432.861 856.267 431.023 857.127 428.478 L 859.795 428.478 C 860.929 428.478 861.849 427.558 861.849 426.423 C 861.849 425.288 860.929 424.368 859.794 424.368 Z  M 851.026 428.752 C 849.742 428.752 848.698 427.707 848.698 426.423 C 848.698 425.139 849.742 424.094 851.026 424.094 C 852.311 424.094 853.355 425.139 853.355 426.423 C 853.355 427.707 852.311 428.752 851.026 428.752 Z " fill="url(#_lgradient_35)"/><linearGradient id="_lgradient_36" x1="0" y1="0.9999942063579432" x2="1" y2="0.9999942063579432" gradientTransform="matrix(17.26,0,0,17.26,805.137,417.793)" gradientUnits="userSpaceOnUse"><stop offset="0%" stop-opacity="1" style="stop-color:rgb(118,197,255)"/><stop offset="100%" stop-opacity="1" style="stop-color:rgb(31,131,203)"/></linearGradient><path d=" M 813.767 417.793 C 809.008 417.793 805.137 421.665 805.137 426.423 C 805.137 431.182 809.008 435.053 813.767 435.053 C 818.526 435.053 822.397 431.182 822.397 426.423 C 822.397 421.665 818.526 417.793 813.767 417.793 Z  M 813.767 430.944 C 811.274 430.944 809.246 428.916 809.246 426.423 C 809.246 423.931 811.274 421.903 813.767 421.903 C 816.26 421.903 818.287 423.931 818.287 426.423 C 818.287 428.916 816.26 430.944 813.767 430.944 Z " fill="url(#_lgradient_36)"/><linearGradient id="_lgradient_37" x1="0.0000019109935637251496" y1="1" x2="1" y2="1" gradientTransform="matrix(52.329,0,0,17.26,748.152,441.906)" gradientUnits="userSpaceOnUse"><stop offset="0%" stop-opacity="1" style="stop-color:rgb(118,197,255)"/><stop offset="100%" stop-opacity="1" style="stop-color:rgb(31,131,203)"/></linearGradient><path d=" M 796.235 441.906 L 752.399 441.906 C 750.057 441.906 748.152 443.811 748.152 446.153 L 748.152 454.92 C 748.152 457.261 750.057 459.166 752.399 459.166 L 796.235 459.166 C 798.576 459.166 800.481 457.261 800.481 454.92 L 800.481 446.153 C 800.481 443.811 798.576 441.906 796.235 441.906 Z  M 796.372 454.92 C 796.372 454.995 796.31 455.057 796.235 455.057 L 752.399 455.057 C 752.323 455.057 752.262 454.995 752.262 454.92 L 752.262 446.153 C 752.262 446.078 752.323 446.016 752.399 446.016 L 796.235 446.016 C 796.31 446.016 796.372 446.078 796.372 446.153 L 796.372 454.92 Z " fill="url(#_lgradient_37)"/><linearGradient id="_lgradient_38" x1="0" y1="0.9999999999999991" x2="1" y2="0.9999999999999991" gradientTransform="matrix(34.794,0,0,12.876,827.055,444.098)" gradientUnits="userSpaceOnUse"><stop offset="0%" stop-opacity="1" style="stop-color:rgb(118,197,255)"/><stop offset="100%" stop-opacity="1" style="stop-color:rgb(31,131,203)"/></linearGradient><path d=" M 859.794 448.481 L 848.359 448.481 C 847.5 445.936 845.091 444.098 842.259 444.098 C 839.427 444.098 837.019 445.936 836.159 448.481 L 829.11 448.481 C 827.975 448.481 827.055 449.401 827.055 450.536 C 827.055 451.671 827.975 452.591 829.11 452.591 L 836.159 452.591 C 837.019 455.136 839.428 456.974 842.259 456.974 C 845.091 456.974 847.5 455.136 848.36 452.591 L 859.794 452.591 C 860.929 452.591 861.849 451.671 861.849 450.536 C 861.849 449.401 860.929 448.481 859.794 448.481 Z  M 842.259 452.865 C 840.975 452.865 839.931 451.82 839.931 450.536 C 839.931 449.252 840.975 448.207 842.259 448.207 C 843.543 448.207 844.588 449.252 844.588 450.536 C 844.588 451.82 843.543 452.865 842.259 452.865 Z " fill="url(#_lgradient_38)"/><linearGradient id="_lgradient_39" x1="0" y1="1" x2="1" y2="1" gradientTransform="matrix(17.26,0,0,17.26,805.137,441.906)" gradientUnits="userSpaceOnUse"><stop offset="0%" stop-opacity="1" style="stop-color:rgb(118,197,255)"/><stop offset="100%" stop-opacity="1" style="stop-color:rgb(31,131,203)"/></linearGradient><path d=" M 813.767 441.906 C 809.008 441.906 805.137 445.778 805.137 450.536 C 805.137 455.295 809.008 459.166 813.767 459.166 C 818.526 459.166 822.397 455.295 822.397 450.536 C 822.397 445.778 818.526 441.906 813.767 441.906 Z  M 813.767 455.057 C 811.274 455.057 809.246 453.029 809.246 450.536 C 809.246 448.044 811.274 446.016 813.767 446.016 C 816.26 446.016 818.287 448.044 818.287 450.536 C 818.287 453.029 816.26 455.057 813.767 455.057 Z " fill="url(#_lgradient_39)"/><linearGradient id="_lgradient_40" x1="1.5320285714285715e-7" y1="1" x2="1" y2="1" gradientTransform="matrix(140,0,0,109.315,735,363)" gradientUnits="userSpaceOnUse"><stop offset="0%" stop-opacity="1" style="stop-color:rgb(118,197,255)"/><stop offset="100%" stop-opacity="1" style="stop-color:rgb(31,131,203)"/></linearGradient><path d=" M 864.178 363 L 745.822 363 C 739.855 363 735 367.855 735 373.822 L 735 461.493 C 735 467.46 739.855 472.315 745.822 472.315 L 864.178 472.315 C 870.145 472.315 875 467.46 875 461.493 L 875 373.822 C 875 367.855 870.145 363 864.178 363 Z  M 745.822 367.11 L 864.178 367.11 C 867.879 367.11 870.89 370.121 870.89 373.822 L 870.89 380.534 L 739.11 380.534 L 739.11 373.822 C 739.11 370.121 742.121 367.11 745.822 367.11 Z  M 864.178 468.205 L 745.822 468.205 C 742.121 468.205 739.11 465.194 739.11 461.493 L 739.11 384.644 L 870.89 384.644 L 870.89 461.493 C 870.89 465.194 867.879 468.205 864.178 468.205 Z " fill="url(#_lgradient_40)"/></g></g></svg>