<svg width="140" height="141" viewBox="0 0 140 141" fill="none" xmlns="http://www.w3.org/2000/svg">
<path d="M10.8204 29.133C11.3601 29.133 11.8917 28.9139 12.2725 28.5303C12.656 28.1495 12.8752 27.6207 12.8752 27.0782C12.8752 26.5385 12.656 26.007 12.2725 25.6262C11.8917 25.2426 11.3601 25.0234 10.8204 25.0234C10.2807 25.0234 9.74919 25.2426 9.36836 25.6262C8.9848 26.007 8.76562 26.5385 8.76562 27.0782C8.76562 27.618 8.9848 28.1495 9.36836 28.5303C9.74919 28.9139 10.2807 29.133 10.8204 29.133Z" fill="url(#paint0_linear_1883:1095)"/>
<path d="M17.3985 29.133C17.9383 29.133 18.4698 28.9139 18.8506 28.5303C19.2342 28.1495 19.4533 27.618 19.4533 27.0782C19.4533 26.5385 19.2342 26.007 18.8506 25.6262C18.4698 25.2426 17.9383 25.0234 17.3985 25.0234C16.8588 25.0234 16.3273 25.2426 15.9465 25.6262C15.5629 26.007 15.3438 26.5385 15.3438 27.0782C15.3438 27.618 15.5629 28.1495 15.9465 28.5303C16.3273 28.9139 16.8588 29.133 17.3985 29.133Z" fill="url(#paint1_linear_1883:1095)"/>
<path d="M23.9728 29.133C24.5125 29.133 25.044 28.9139 25.4248 28.5303C25.8084 28.1495 26.0276 27.618 26.0276 27.0782C26.0276 26.5385 25.8084 26.007 25.4248 25.6262C25.044 25.2426 24.5125 25.0234 23.9728 25.0234C23.4303 25.0234 22.9015 25.2426 22.5207 25.6262C22.1371 26.007 21.918 26.5385 21.918 27.0782C21.918 27.618 22.1371 28.1495 22.5207 28.5303C22.9015 28.9139 23.433 29.133 23.9728 29.133Z" fill="url(#paint2_linear_1883:1095)"/>
<path d="M32.7384 29.133H116.026C117.161 29.133 118.081 28.213 118.081 27.0782C118.081 25.9434 117.161 25.0234 116.026 25.0234H32.7384C31.6036 25.0234 30.6836 25.9434 30.6836 27.0782C30.6836 28.213 31.6036 29.133 32.7384 29.133Z" fill="url(#paint3_linear_1883:1095)"/>
<path d="M124.793 29.133H129.177C130.311 29.133 131.231 28.213 131.231 27.0782C131.231 25.9434 130.311 25.0234 129.177 25.0234H124.793C123.658 25.0234 122.738 25.9434 122.738 27.0782C122.738 28.213 123.658 29.133 124.793 29.133Z" fill="url(#paint4_linear_1883:1095)"/>
<path d="M61.2345 46.9414H17.3989C15.0573 46.9414 13.1523 48.8463 13.1523 51.188V59.9551C13.1523 62.2967 15.0573 64.2017 17.3989 64.2017H61.2345C63.5762 64.2017 65.4811 62.2967 65.4811 59.9551V51.188C65.4811 48.8463 63.5762 46.9414 61.2345 46.9414ZM61.3715 59.9551C61.3715 60.0304 61.3102 60.0921 61.2345 60.0921H17.3989C17.3233 60.0921 17.2619 60.0304 17.2619 59.9551V51.188C17.2619 51.1126 17.3233 51.051 17.3989 51.051H61.2345C61.3102 51.051 61.3715 51.1126 61.3715 51.188V59.9551Z" fill="url(#paint5_linear_1883:1095)"/>
<path d="M124.794 53.5203H111.169C110.309 50.9751 107.9 49.1367 105.068 49.1367C102.237 49.1367 99.8278 50.9751 98.9681 53.5203H94.1095C92.9747 53.5203 92.0547 54.4403 92.0547 55.5751C92.0547 56.7099 92.9747 57.6299 94.1095 57.6299H98.9681C99.8278 60.1751 102.237 62.0134 105.068 62.0134C107.9 62.0134 110.309 60.1751 111.169 57.6299H124.794C125.929 57.6299 126.849 56.7099 126.849 55.5751C126.849 54.4403 125.929 53.5203 124.794 53.5203ZM105.068 57.9038C103.784 57.9038 102.74 56.8592 102.74 55.5751C102.74 54.291 103.784 53.2463 105.068 53.2463C106.352 53.2463 107.397 54.291 107.397 55.5751C107.397 56.8592 106.352 57.9038 105.068 57.9038Z" fill="url(#paint6_linear_1883:1095)"/>
<path d="M78.7669 46.9414C74.0082 46.9414 70.1367 50.8129 70.1367 55.5715C70.1367 60.3302 74.0082 64.2017 78.7669 64.2017C83.5255 64.2017 87.397 60.3302 87.397 55.5715C87.397 50.8129 83.5255 46.9414 78.7669 46.9414ZM78.7669 60.0921C76.2743 60.0921 74.2463 58.0641 74.2463 55.5715C74.2463 53.0789 76.2743 51.051 78.7669 51.051C81.2595 51.051 83.2874 53.0789 83.2874 55.5715C83.2874 58.0641 81.2595 60.0921 78.7669 60.0921Z" fill="url(#paint7_linear_1883:1095)"/>
<path d="M61.2345 71.0508H17.3989C15.0573 71.0508 13.1523 72.9557 13.1523 75.2974V84.0645C13.1523 86.4061 15.0573 88.3111 17.3989 88.3111H61.2345C63.5762 88.3111 65.4811 86.4061 65.4811 84.0645V75.2974C65.4811 72.9557 63.5762 71.0508 61.2345 71.0508ZM61.3715 84.0645C61.3715 84.1398 61.3102 84.2015 61.2345 84.2015H17.3989C17.3233 84.2015 17.2619 84.1398 17.2619 84.0645V75.2974C17.2619 75.222 17.3233 75.1604 17.3989 75.1604H61.2345C61.3102 75.1604 61.3715 75.222 61.3715 75.2974V84.0645Z" fill="url(#paint8_linear_1883:1095)"/>
<path d="M124.794 77.6257H122.126C121.267 75.0805 118.858 73.2422 116.026 73.2422C113.194 73.2422 110.786 75.0805 109.926 77.6257H94.1095C92.9747 77.6257 92.0547 78.5457 92.0547 79.6805C92.0547 80.8153 92.9747 81.7353 94.1095 81.7353H109.926C110.786 84.2805 113.195 86.1189 116.026 86.1189C118.858 86.1189 121.267 84.2805 122.127 81.7353H124.795C125.929 81.7353 126.849 80.8153 126.849 79.6805C126.849 78.5457 125.929 77.6257 124.794 77.6257ZM116.026 82.0093C114.742 82.0093 113.698 80.9647 113.698 79.6805C113.698 78.3964 114.742 77.3518 116.026 77.3518C117.311 77.3518 118.355 78.3964 118.355 79.6805C118.355 80.9647 117.311 82.0093 116.026 82.0093Z" fill="url(#paint9_linear_1883:1095)"/>
<path d="M78.7669 71.0508C74.0082 71.0508 70.1367 74.9223 70.1367 79.6809C70.1367 84.4396 74.0082 88.3111 78.7669 88.3111C83.5255 88.3111 87.397 84.4396 87.397 79.6809C87.397 74.9223 83.5255 71.0508 78.7669 71.0508ZM78.7669 84.2015C76.2743 84.2015 74.2463 82.1735 74.2463 79.6809C74.2463 77.1883 76.2743 75.1604 78.7669 75.1604C81.2595 75.1604 83.2874 77.1883 83.2874 79.6809C83.2874 82.1735 81.2595 84.2015 78.7669 84.2015Z" fill="url(#paint10_linear_1883:1095)"/>
<path d="M61.2345 95.1641H17.3989C15.0573 95.1641 13.1523 97.069 13.1523 99.4106V108.178C13.1523 110.519 15.0573 112.424 17.3989 112.424H61.2345C63.5762 112.424 65.4811 110.519 65.4811 108.178V99.4106C65.4811 97.069 63.5762 95.1641 61.2345 95.1641ZM61.3715 108.178C61.3715 108.253 61.3102 108.315 61.2345 108.315H17.3989C17.3233 108.315 17.2619 108.253 17.2619 108.178V99.4106C17.2619 99.3353 17.3233 99.2737 17.3989 99.2737H61.2345C61.3102 99.2737 61.3715 99.3353 61.3715 99.4106V108.178Z" fill="url(#paint11_linear_1883:1095)"/>
<path d="M124.794 101.739H113.359C112.5 99.1938 110.091 97.3555 107.259 97.3555C104.427 97.3555 102.019 99.1938 101.159 101.739H94.1095C92.9747 101.739 92.0547 102.659 92.0547 103.794C92.0547 104.929 92.9747 105.849 94.1095 105.849H101.159C102.019 108.394 104.428 110.232 107.259 110.232C110.091 110.232 112.5 108.394 113.36 105.849H124.794C125.929 105.849 126.849 104.929 126.849 103.794C126.849 102.659 125.929 101.739 124.794 101.739ZM107.259 106.123C105.975 106.123 104.931 105.078 104.931 103.794C104.931 102.51 105.975 101.465 107.259 101.465C108.543 101.465 109.588 102.51 109.588 103.794C109.588 105.078 108.543 106.123 107.259 106.123Z" fill="url(#paint12_linear_1883:1095)"/>
<path d="M78.7669 95.1641C74.0082 95.1641 70.1367 99.0356 70.1367 103.794C70.1367 108.553 74.0082 112.424 78.7669 112.424C83.5255 112.424 87.397 108.553 87.397 103.794C87.397 99.0356 83.5255 95.1641 78.7669 95.1641ZM78.7669 108.315C76.2743 108.315 74.2463 106.287 74.2463 103.794C74.2463 101.302 76.2743 99.2737 78.7669 99.2737C81.2595 99.2737 83.2874 101.302 83.2874 103.794C83.2874 106.287 81.2595 108.315 78.7669 108.315Z" fill="url(#paint13_linear_1883:1095)"/>
<path d="M129.178 16.2578H10.8219C4.85479 16.2578 0 21.1126 0 27.0797V114.751C0 120.718 4.85479 125.573 10.8219 125.573H129.178C135.145 125.573 140 120.718 140 114.751V27.0797C140 21.1126 135.145 16.2578 129.178 16.2578ZM10.8219 20.3674H129.178C132.879 20.3674 135.89 23.3786 135.89 27.0797V33.7921H4.10959V27.0797C4.10959 23.3786 7.12082 20.3674 10.8219 20.3674ZM129.178 121.463H10.8219C7.12082 121.463 4.10959 118.452 4.10959 114.751V37.9017H135.89V114.751C135.89 118.452 132.879 121.463 129.178 121.463Z" fill="url(#paint14_linear_1883:1095)"/>
<defs>
<linearGradient id="paint0_linear_1883:1095" x1="8.76563" y1="29.133" x2="12.8752" y2="29.133" gradientUnits="userSpaceOnUse">
<stop stop-color="#76C5FF"/>
<stop offset="1" stop-color="#1F83CB"/>
</linearGradient>
<linearGradient id="paint1_linear_1883:1095" x1="15.3438" y1="29.133" x2="19.4533" y2="29.133" gradientUnits="userSpaceOnUse">
<stop stop-color="#76C5FF"/>
<stop offset="1" stop-color="#1F83CB"/>
</linearGradient>
<linearGradient id="paint2_linear_1883:1095" x1="21.918" y1="29.133" x2="26.0276" y2="29.133" gradientUnits="userSpaceOnUse">
<stop stop-color="#76C5FF"/>
<stop offset="1" stop-color="#1F83CB"/>
</linearGradient>
<linearGradient id="paint3_linear_1883:1095" x1="30.6836" y1="29.133" x2="118.081" y2="29.133" gradientUnits="userSpaceOnUse">
<stop stop-color="#76C5FF"/>
<stop offset="1" stop-color="#1F83CB"/>
</linearGradient>
<linearGradient id="paint4_linear_1883:1095" x1="122.738" y1="29.133" x2="131.231" y2="29.133" gradientUnits="userSpaceOnUse">
<stop stop-color="#76C5FF"/>
<stop offset="1" stop-color="#1F83CB"/>
</linearGradient>
<linearGradient id="paint5_linear_1883:1095" x1="13.1524" y1="64.2017" x2="65.4811" y2="64.2017" gradientUnits="userSpaceOnUse">
<stop stop-color="#76C5FF"/>
<stop offset="1" stop-color="#1F83CB"/>
</linearGradient>
<linearGradient id="paint6_linear_1883:1095" x1="92.0547" y1="62.0134" x2="126.849" y2="62.0134" gradientUnits="userSpaceOnUse">
<stop stop-color="#76C5FF"/>
<stop offset="1" stop-color="#1F83CB"/>
</linearGradient>
<linearGradient id="paint7_linear_1883:1095" x1="70.1367" y1="64.2017" x2="87.397" y2="64.2017" gradientUnits="userSpaceOnUse">
<stop stop-color="#76C5FF"/>
<stop offset="1" stop-color="#1F83CB"/>
</linearGradient>
<linearGradient id="paint8_linear_1883:1095" x1="13.1524" y1="88.311" x2="65.4811" y2="88.311" gradientUnits="userSpaceOnUse">
<stop stop-color="#76C5FF"/>
<stop offset="1" stop-color="#1F83CB"/>
</linearGradient>
<linearGradient id="paint9_linear_1883:1095" x1="92.0547" y1="86.1189" x2="126.849" y2="86.1189" gradientUnits="userSpaceOnUse">
<stop stop-color="#76C5FF"/>
<stop offset="1" stop-color="#1F83CB"/>
</linearGradient>
<linearGradient id="paint10_linear_1883:1095" x1="70.1367" y1="88.311" x2="87.397" y2="88.311" gradientUnits="userSpaceOnUse">
<stop stop-color="#76C5FF"/>
<stop offset="1" stop-color="#1F83CB"/>
</linearGradient>
<linearGradient id="paint11_linear_1883:1095" x1="13.1524" y1="112.424" x2="65.4811" y2="112.424" gradientUnits="userSpaceOnUse">
<stop stop-color="#76C5FF"/>
<stop offset="1" stop-color="#1F83CB"/>
</linearGradient>
<linearGradient id="paint12_linear_1883:1095" x1="92.0547" y1="110.232" x2="126.849" y2="110.232" gradientUnits="userSpaceOnUse">
<stop stop-color="#76C5FF"/>
<stop offset="1" stop-color="#1F83CB"/>
</linearGradient>
<linearGradient id="paint13_linear_1883:1095" x1="70.1367" y1="112.424" x2="87.397" y2="112.424" gradientUnits="userSpaceOnUse">
<stop stop-color="#76C5FF"/>
<stop offset="1" stop-color="#1F83CB"/>
</linearGradient>
<linearGradient id="paint14_linear_1883:1095" x1="2.14484e-05" y1="125.573" x2="140" y2="125.573" gradientUnits="userSpaceOnUse">
<stop stop-color="#76C5FF"/>
<stop offset="1" stop-color="#1F83CB"/>
</linearGradient>
</defs>
</svg>
