<?xml version="1.0" encoding="UTF-8" standalone="no"?><!-- Generator: Gravit.io --><svg xmlns="http://www.w3.org/2000/svg" xmlns:xlink="http://www.w3.org/1999/xlink" style="isolation:isolate" viewBox="1060.5 375 375 353.506" width="375pt" height="353.506pt"><defs><clipPath id="_clipPath_m2y82XitfNm6GYhm9hTwaAql9FjW5Tph"><rect x="1060.5" y="375" width="375" height="353.506"/></clipPath></defs><g clip-path="url(#_clipPath_m2y82XitfNm6GYhm9hTwaAql9FjW5Tph)"><g><linearGradient id="_lgradient_42" x1="1.5320266666666666e-7" y1="0.9999971711920994" x2="1" y2="0.9999971711920994" gradientTransform="matrix(375,0,0,353.506,1060.5,375)" gradientUnits="userSpaceOnUse"><stop offset="0%" stop-opacity="1" style="stop-color:rgb(118,197,255)"/><stop offset="100%" stop-opacity="1" style="stop-color:rgb(31,131,203)"/></linearGradient><path d=" M 1430.007 549.1 L 1389.296 549.1 L 1367.573 513.163 C 1366.578 511.516 1364.796 510.51 1362.875 510.51 L 1253.493 510.51 L 1253.493 474.847 C 1278.457 472.096 1297.945 450.829 1297.945 425.079 C 1297.945 397.465 1275.54 375 1248 375 C 1220.46 375 1198.055 397.465 1198.055 425.079 C 1198.055 437.662 1202.728 449.691 1211.213 458.951 C 1213.266 461.191 1216.74 461.338 1218.975 459.28 C 1221.209 457.222 1221.356 453.737 1219.303 451.498 C 1212.686 444.276 1209.042 434.894 1209.042 425.078 C 1209.042 403.539 1226.518 386.015 1248 386.015 C 1269.482 386.015 1286.959 403.539 1286.959 425.078 C 1286.959 446.617 1269.482 464.141 1248 464.141 C 1244.064 464.141 1240.184 463.556 1236.468 462.402 C 1233.571 461.503 1230.494 463.13 1229.596 466.036 C 1228.698 468.942 1230.321 472.026 1233.219 472.926 C 1236.245 473.865 1239.352 474.508 1242.507 474.854 L 1242.507 510.509 L 1133.125 510.509 C 1131.204 510.509 1129.422 511.515 1128.427 513.162 L 1106.704 549.099 L 1065.993 549.099 C 1062.959 549.099 1060.5 551.565 1060.5 554.607 L 1060.5 722.997 C 1060.5 726.04 1062.959 728.505 1065.993 728.505 L 1153.603 728.505 C 1156.638 728.505 1159.096 726.04 1159.096 722.997 L 1159.096 598.753 C 1159.096 595.71 1156.638 593.245 1153.603 593.245 C 1150.569 593.245 1148.11 595.71 1148.11 598.753 L 1148.11 717.49 L 1071.486 717.49 L 1071.486 560.116 L 1148.11 560.116 L 1148.11 576.24 C 1148.11 579.282 1150.569 581.747 1153.603 581.747 C 1156.638 581.747 1159.096 579.282 1159.096 576.24 L 1159.096 554.608 C 1159.096 551.565 1156.638 549.1 1153.603 549.1 L 1119.552 549.1 L 1136.219 521.526 L 1242.507 521.526 L 1242.507 549.1 L 1204.195 549.1 C 1201.16 549.1 1198.701 551.565 1198.701 554.608 L 1198.701 722.998 C 1198.701 726.04 1201.16 728.506 1204.195 728.506 L 1291.805 728.506 C 1294.839 728.506 1297.298 726.04 1297.298 722.998 L 1297.298 695.935 C 1297.298 692.892 1294.839 690.427 1291.805 690.427 C 1288.77 690.427 1286.312 692.892 1286.312 695.935 L 1286.312 717.49 L 1209.688 717.49 L 1209.688 560.116 L 1286.312 560.116 L 1286.312 673.695 C 1286.312 676.737 1288.77 679.203 1291.805 679.203 C 1294.839 679.203 1297.298 676.737 1297.298 673.695 L 1297.298 554.608 C 1297.298 551.565 1294.839 549.1 1291.805 549.1 L 1253.493 549.1 L 1253.493 521.526 L 1359.781 521.526 L 1376.448 549.1 L 1342.396 549.1 C 1339.362 549.1 1336.903 551.565 1336.903 554.608 L 1336.903 722.998 C 1336.903 726.04 1339.362 728.506 1342.396 728.506 L 1430.007 728.506 C 1433.041 728.506 1435.5 726.04 1435.5 722.998 L 1435.5 554.608 C 1435.5 551.565 1433.041 549.1 1430.007 549.1 Z  M 1424.514 717.49 L 1347.89 717.49 L 1347.89 560.116 L 1386.196 560.116 L 1386.207 560.116 L 1386.218 560.116 L 1424.514 560.116 L 1424.514 717.49 Z " fill="url(#_lgradient_42)"/><linearGradient id="_lgradient_43" x1="-0.9981411527312962" y1="12.762164124909233" x2="16.146751156708913" y2="12.762164124909233" gradientTransform="matrix(21.872,0,0,11.016,1082.332,587.917)" gradientUnits="userSpaceOnUse"><stop offset="0%" stop-opacity="1" style="stop-color:rgb(118,197,255)"/><stop offset="100%" stop-opacity="1" style="stop-color:rgb(31,131,203)"/></linearGradient><path d=" M 1098.711 587.917 L 1087.825 587.917 C 1084.791 587.917 1082.332 590.383 1082.332 593.425 C 1082.332 596.468 1084.791 598.933 1087.825 598.933 L 1098.711 598.933 C 1101.745 598.933 1104.204 596.468 1104.204 593.425 C 1104.204 590.383 1101.745 587.917 1098.711 587.917 Z " fill="url(#_lgradient_43)"/><linearGradient id="_lgradient_44" x1="-0.38394054670669314" y1="10.427598729005915" x2="6.210937651132648" y2="10.427598729005915" gradientTransform="matrix(56.862,0,0,11.015,1082.332,613.645)" gradientUnits="userSpaceOnUse"><stop offset="0%" stop-opacity="1" style="stop-color:rgb(118,197,255)"/><stop offset="100%" stop-opacity="1" style="stop-color:rgb(31,131,203)"/></linearGradient><path d=" M 1133.7 613.645 L 1087.825 613.645 C 1084.791 613.645 1082.332 616.11 1082.332 619.153 C 1082.332 622.195 1084.791 624.66 1087.825 624.66 L 1133.701 624.66 C 1136.735 624.66 1139.194 622.195 1139.194 619.153 C 1139.194 616.11 1136.735 613.645 1133.7 613.645 Z " fill="url(#_lgradient_44)"/><linearGradient id="_lgradient_45" x1="-0.38394054670669314" y1="8.643667725828426" x2="6.210937651132648" y2="8.643667725828426" gradientTransform="matrix(56.862,0,0,11.015,1082.332,633.295)" gradientUnits="userSpaceOnUse"><stop offset="0%" stop-opacity="1" style="stop-color:rgb(118,197,255)"/><stop offset="100%" stop-opacity="1" style="stop-color:rgb(31,131,203)"/></linearGradient><path d=" M 1133.7 633.295 L 1087.825 633.295 C 1084.791 633.295 1082.332 635.76 1082.332 638.803 C 1082.332 641.845 1084.791 644.31 1087.825 644.31 L 1133.701 644.31 C 1136.735 644.31 1139.194 641.845 1139.194 638.803 C 1139.194 635.76 1136.735 633.295 1133.7 633.295 Z " fill="url(#_lgradient_45)"/><linearGradient id="_lgradient_46" x1="-0.38394054670669314" y1="6.859295570079873" x2="6.210937651132648" y2="6.859295570079873" gradientTransform="matrix(56.862,0,0,11.016,1082.332,652.943)" gradientUnits="userSpaceOnUse"><stop offset="0%" stop-opacity="1" style="stop-color:rgb(118,197,255)"/><stop offset="100%" stop-opacity="1" style="stop-color:rgb(31,131,203)"/></linearGradient><path d=" M 1133.7 652.943 L 1087.825 652.943 C 1084.791 652.943 1082.332 655.409 1082.332 658.451 C 1082.332 661.494 1084.791 663.959 1087.825 663.959 L 1133.701 663.959 C 1136.735 663.959 1139.194 661.494 1139.194 658.451 C 1139.194 655.409 1136.735 652.943 1133.7 652.943 Z " fill="url(#_lgradient_46)"/><linearGradient id="_lgradient_47" x1="-0.38394054670669314" y1="5.075526506899067" x2="6.210937651132648" y2="5.075526506899067" gradientTransform="matrix(56.862,0,0,11.016,1082.332,672.593)" gradientUnits="userSpaceOnUse"><stop offset="0%" stop-opacity="1" style="stop-color:rgb(118,197,255)"/><stop offset="100%" stop-opacity="1" style="stop-color:rgb(31,131,203)"/></linearGradient><path d=" M 1133.7 672.593 L 1087.825 672.593 C 1084.791 672.593 1082.332 675.058 1082.332 678.101 C 1082.332 681.143 1084.791 683.609 1087.825 683.609 L 1133.701 683.609 C 1136.735 683.609 1139.194 681.143 1139.194 678.101 C 1139.194 675.058 1136.735 672.593 1133.7 672.593 Z " fill="url(#_lgradient_47)"/><linearGradient id="_lgradient_48" x1="-7.272720489621429" y1="12.762164124909233" x2="9.872485369422089" y2="12.762164124909233" gradientTransform="matrix(21.872,0,0,11.016,1219.569,587.917)" gradientUnits="userSpaceOnUse"><stop offset="0%" stop-opacity="1" style="stop-color:rgb(118,197,255)"/><stop offset="100%" stop-opacity="1" style="stop-color:rgb(31,131,203)"/></linearGradient><path d=" M 1235.948 587.917 L 1225.063 587.917 C 1222.028 587.917 1219.569 590.383 1219.569 593.425 C 1219.569 596.468 1222.028 598.933 1225.063 598.933 L 1235.948 598.933 C 1238.982 598.933 1241.441 596.468 1241.441 593.425 C 1241.441 590.383 1238.982 587.917 1235.948 587.917 Z " fill="url(#_lgradient_48)"/><linearGradient id="_lgradient_49" x1="-2.7975051889520053" y1="10.427598729005918" x2="3.797523786074814" y2="10.427598729005918" gradientTransform="matrix(56.861,0,0,11.015,1219.569,613.645)" gradientUnits="userSpaceOnUse"><stop offset="0%" stop-opacity="1" style="stop-color:rgb(118,197,255)"/><stop offset="100%" stop-opacity="1" style="stop-color:rgb(31,131,203)"/></linearGradient><path d=" M 1270.937 613.645 L 1225.062 613.645 C 1222.027 613.645 1219.569 616.11 1219.569 619.153 C 1219.569 622.195 1222.027 624.66 1225.062 624.66 L 1270.937 624.66 C 1273.971 624.66 1276.43 622.195 1276.43 619.153 C 1276.43 616.11 1273.971 613.645 1270.937 613.645 Z " fill="url(#_lgradient_49)"/><linearGradient id="_lgradient_50" x1="-2.7975051889520053" y1="8.64366772582843" x2="3.797523786074814" y2="8.64366772582843" gradientTransform="matrix(56.861,0,0,11.015,1219.569,633.295)" gradientUnits="userSpaceOnUse"><stop offset="0%" stop-opacity="1" style="stop-color:rgb(118,197,255)"/><stop offset="100%" stop-opacity="1" style="stop-color:rgb(31,131,203)"/></linearGradient><path d=" M 1270.937 633.295 L 1225.062 633.295 C 1222.027 633.295 1219.569 635.76 1219.569 638.803 C 1219.569 641.845 1222.027 644.31 1225.062 644.31 L 1270.937 644.31 C 1273.971 644.31 1276.43 641.845 1276.43 638.803 C 1276.43 635.76 1273.971 633.295 1270.937 633.295 Z " fill="url(#_lgradient_50)"/><linearGradient id="_lgradient_51" x1="-2.7975051889520044" y1="6.859295570079873" x2="3.7975237860748132" y2="6.859295570079873" gradientTransform="matrix(56.861,0,0,11.016,1219.569,652.943)" gradientUnits="userSpaceOnUse"><stop offset="0%" stop-opacity="1" style="stop-color:rgb(118,197,255)"/><stop offset="100%" stop-opacity="1" style="stop-color:rgb(31,131,203)"/></linearGradient><path d=" M 1270.937 652.943 L 1225.062 652.943 C 1222.027 652.943 1219.569 655.409 1219.569 658.451 C 1219.569 661.494 1222.027 663.959 1225.062 663.959 L 1270.937 663.959 C 1273.971 663.959 1276.43 661.494 1276.43 658.451 C 1276.43 655.409 1273.971 652.943 1270.937 652.943 Z " fill="url(#_lgradient_51)"/><linearGradient id="_lgradient_52" x1="-2.7975051889520044" y1="5.07552650689907" x2="3.7975237860748132" y2="5.07552650689907" gradientTransform="matrix(56.861,0,0,11.016,1219.569,672.593)" gradientUnits="userSpaceOnUse"><stop offset="0%" stop-opacity="1" style="stop-color:rgb(118,197,255)"/><stop offset="100%" stop-opacity="1" style="stop-color:rgb(31,131,203)"/></linearGradient><path d=" M 1270.937 672.593 L 1225.062 672.593 C 1222.027 672.593 1219.569 675.058 1219.569 678.101 C 1219.569 681.143 1222.027 683.609 1225.062 683.609 L 1270.937 683.609 C 1273.971 683.609 1276.43 681.143 1276.43 678.101 C 1276.43 675.058 1273.971 672.593 1270.937 672.593 Z " fill="url(#_lgradient_52)"/><linearGradient id="_lgradient_53" x1="-13.547318148728994" y1="12.76216412490923" x2="3.597887710314563" y2="12.76216412490923" gradientTransform="matrix(21.872,0,0,11.016,1356.807,587.917)" gradientUnits="userSpaceOnUse"><stop offset="0%" stop-opacity="1" style="stop-color:rgb(118,197,255)"/><stop offset="100%" stop-opacity="1" style="stop-color:rgb(31,131,203)"/></linearGradient><path d=" M 1373.186 587.917 L 1362.3 587.917 C 1359.266 587.917 1356.807 590.383 1356.807 593.425 C 1356.807 596.468 1359.266 598.933 1362.3 598.933 L 1373.186 598.933 C 1376.221 598.933 1378.679 596.468 1378.679 593.425 C 1378.679 590.383 1376.221 587.917 1373.186 587.917 Z " fill="url(#_lgradient_53)"/><linearGradient id="_lgradient_54" x1="-5.2109834784038584" y1="10.427598729005918" x2="1.3839295135591438" y2="10.427598729005918" gradientTransform="matrix(56.862,0,0,11.015,1356.807,613.645)" gradientUnits="userSpaceOnUse"><stop offset="0%" stop-opacity="1" style="stop-color:rgb(118,197,255)"/><stop offset="100%" stop-opacity="1" style="stop-color:rgb(31,131,203)"/></linearGradient><path d=" M 1408.176 613.645 L 1362.3 613.645 C 1359.266 613.645 1356.807 616.11 1356.807 619.153 C 1356.807 622.195 1359.266 624.66 1362.3 624.66 L 1408.176 624.66 C 1411.211 624.66 1413.669 622.195 1413.669 619.153 C 1413.669 616.11 1411.211 613.645 1408.176 613.645 Z " fill="url(#_lgradient_54)"/><linearGradient id="_lgradient_55" x1="-5.210874251253012" y1="8.643667725828426" x2="1.3839227617255512" y2="8.643667725828426" gradientTransform="matrix(56.863,0,0,11.015,1356.806,633.295)" gradientUnits="userSpaceOnUse"><stop offset="0%" stop-opacity="1" style="stop-color:rgb(118,197,255)"/><stop offset="100%" stop-opacity="1" style="stop-color:rgb(31,131,203)"/></linearGradient><path d=" M 1408.175 633.295 L 1362.299 633.295 C 1359.265 633.295 1356.806 635.76 1356.806 638.803 C 1356.806 641.845 1359.265 644.31 1362.299 644.31 L 1408.175 644.31 C 1411.21 644.31 1413.669 641.845 1413.669 638.803 C 1413.669 635.76 1411.21 633.295 1408.175 633.295 Z " fill="url(#_lgradient_55)"/><linearGradient id="_lgradient_56" x1="-5.210874251253013" y1="6.859295570079873" x2="1.3839227617255512" y2="6.859295570079873" gradientTransform="matrix(56.863,0,0,11.016,1356.806,652.943)" gradientUnits="userSpaceOnUse"><stop offset="0%" stop-opacity="1" style="stop-color:rgb(118,197,255)"/><stop offset="100%" stop-opacity="1" style="stop-color:rgb(31,131,203)"/></linearGradient><path d=" M 1408.175 652.943 L 1362.299 652.943 C 1359.265 652.943 1356.806 655.409 1356.806 658.451 C 1356.806 661.494 1359.265 663.959 1362.299 663.959 L 1408.175 663.959 C 1411.21 663.959 1413.669 661.494 1413.669 658.451 C 1413.669 655.409 1411.21 652.943 1408.175 652.943 Z " fill="url(#_lgradient_56)"/><linearGradient id="_lgradient_57" x1="-5.210874251253012" y1="5.075526506899067" x2="1.3839227617255512" y2="5.075526506899067" gradientTransform="matrix(56.863,0,0,11.016,1356.806,672.593)" gradientUnits="userSpaceOnUse"><stop offset="0%" stop-opacity="1" style="stop-color:rgb(118,197,255)"/><stop offset="100%" stop-opacity="1" style="stop-color:rgb(31,131,203)"/></linearGradient><path d=" M 1408.175 672.593 L 1362.299 672.593 C 1359.265 672.593 1356.806 675.058 1356.806 678.101 C 1356.806 681.143 1359.265 683.609 1362.299 683.609 L 1408.175 683.609 C 1411.21 683.609 1413.669 681.143 1413.669 678.101 C 1413.669 675.058 1411.21 672.593 1408.175 672.593 Z " fill="url(#_lgradient_57)"/></g></g></svg>