<svg width="375" height="377" viewBox="0 0 375 377" fill="none" xmlns="http://www.w3.org/2000/svg">
<path d="M369.507 186.256H328.796L307.073 150.319C306.078 148.672 304.296 147.666 302.375 147.666H192.993V112.003C217.957 109.252 237.445 87.9856 237.445 62.2348C237.445 34.6208 215.04 12.1562 187.5 12.1562C159.96 12.1562 137.555 34.6215 137.555 62.2348C137.555 74.8183 142.228 86.8473 150.713 96.1071C152.766 98.3469 156.24 98.4945 158.475 96.4361C160.709 94.3784 160.856 90.8937 158.803 88.6539C152.186 81.4321 148.542 72.0497 148.542 62.234C148.542 40.6948 166.018 23.1711 187.5 23.1711C208.982 23.1711 226.459 40.6948 226.459 62.234C226.459 83.7732 208.982 101.297 187.5 101.297C183.564 101.297 179.684 100.712 175.968 99.5586C173.071 98.659 169.994 100.286 169.096 103.192C168.198 106.098 169.821 109.182 172.719 110.082C175.745 111.021 178.852 111.664 182.007 112.01V147.665H72.6248C70.7036 147.665 68.9224 148.671 67.927 150.318L46.2041 186.255H5.49316C2.45874 186.255 0 188.721 0 191.763V360.153C0 363.196 2.45874 365.661 5.49316 365.661H93.1033C96.1377 365.661 98.5964 363.196 98.5964 360.153V235.909C98.5964 232.866 96.1377 230.401 93.1033 230.401C90.0688 230.401 87.6101 232.866 87.6101 235.909V354.646H10.9863V197.272H87.6101V213.396C87.6101 216.438 90.0688 218.903 93.1033 218.903C96.1377 218.903 98.5964 216.438 98.5964 213.396V191.764C98.5964 188.721 96.1377 186.256 93.1033 186.256H59.0515L75.7192 158.682H182.007V186.256H143.695C140.66 186.256 138.201 188.721 138.201 191.764V360.154C138.201 363.196 140.66 365.662 143.695 365.662H231.305C234.339 365.662 236.798 363.196 236.798 360.154V333.091C236.798 330.048 234.339 327.583 231.305 327.583C228.27 327.583 225.812 330.048 225.812 333.091V354.646H149.188V197.272H225.812V310.851C225.812 313.893 228.27 316.359 231.305 316.359C234.339 316.359 236.798 313.893 236.798 310.851V191.764C236.798 188.721 234.339 186.256 231.305 186.256H192.993V158.682H299.281L315.948 186.256H281.896C278.862 186.256 276.403 188.721 276.403 191.764V360.154C276.403 363.196 278.862 365.662 281.896 365.662H369.507C372.541 365.662 375 363.196 375 360.154V191.764C375 188.721 372.541 186.256 369.507 186.256ZM364.014 354.646H287.39V197.272H325.696L325.707 197.272L325.718 197.272H364.014V354.646Z" fill="url(#paint0_linear_1883:1142)"/>
<path d="M38.211 225.073H27.325C24.2906 225.073 21.8318 227.539 21.8318 230.581C21.8318 233.624 24.2906 236.089 27.325 236.089H38.211C41.2454 236.089 43.7042 233.624 43.7042 230.581C43.7042 227.539 41.2454 225.073 38.211 225.073Z" fill="url(#paint1_linear_1883:1142)"/>
<path d="M73.2002 250.801H27.325C24.2906 250.801 21.8318 253.266 21.8318 256.309C21.8318 259.351 24.2906 261.816 27.325 261.816H73.201C76.2354 261.816 78.6941 259.351 78.6941 256.309C78.6941 253.266 76.2347 250.801 73.2002 250.801Z" fill="url(#paint2_linear_1883:1142)"/>
<path d="M73.2002 270.451H27.325C24.2906 270.451 21.8318 272.916 21.8318 275.959C21.8318 279.001 24.2906 281.466 27.325 281.466H73.201C76.2354 281.466 78.6941 279.001 78.6941 275.959C78.6941 272.916 76.2347 270.451 73.2002 270.451Z" fill="url(#paint3_linear_1883:1142)"/>
<path d="M73.2002 290.099H27.325C24.2906 290.099 21.8318 292.565 21.8318 295.607C21.8318 298.65 24.2906 301.115 27.325 301.115H73.201C76.2354 301.115 78.6941 298.65 78.6941 295.607C78.6941 292.565 76.2347 290.099 73.2002 290.099Z" fill="url(#paint4_linear_1883:1142)"/>
<path d="M73.2002 309.749H27.325C24.2906 309.749 21.8318 312.214 21.8318 315.257C21.8318 318.299 24.2906 320.765 27.325 320.765H73.201C76.2354 320.765 78.6941 318.299 78.6941 315.257C78.6941 312.214 76.2347 309.749 73.2002 309.749Z" fill="url(#paint5_linear_1883:1142)"/>
<path d="M175.448 225.073H164.563C161.528 225.073 159.069 227.539 159.069 230.581C159.069 233.624 161.528 236.089 164.563 236.089H175.448C178.482 236.089 180.941 233.624 180.941 230.581C180.941 227.539 178.482 225.073 175.448 225.073Z" fill="url(#paint6_linear_1883:1142)"/>
<path d="M210.437 250.801H164.562C161.527 250.801 159.069 253.266 159.069 256.309C159.069 259.351 161.527 261.816 164.562 261.816H210.437C213.471 261.816 215.93 259.351 215.93 256.309C215.93 253.266 213.471 250.801 210.437 250.801Z" fill="url(#paint7_linear_1883:1142)"/>
<path d="M210.437 270.451H164.562C161.527 270.451 159.069 272.916 159.069 275.959C159.069 279.001 161.527 281.466 164.562 281.466H210.437C213.471 281.466 215.93 279.001 215.93 275.959C215.93 272.916 213.471 270.451 210.437 270.451Z" fill="url(#paint8_linear_1883:1142)"/>
<path d="M210.437 290.099H164.562C161.527 290.099 159.069 292.565 159.069 295.607C159.069 298.65 161.527 301.115 164.562 301.115H210.437C213.471 301.115 215.93 298.65 215.93 295.607C215.93 292.565 213.471 290.099 210.437 290.099Z" fill="url(#paint9_linear_1883:1142)"/>
<path d="M210.437 309.749H164.562C161.527 309.749 159.069 312.214 159.069 315.257C159.069 318.299 161.527 320.765 164.562 320.765H210.437C213.471 320.765 215.93 318.299 215.93 315.257C215.93 312.214 213.471 309.749 210.437 309.749Z" fill="url(#paint10_linear_1883:1142)"/>
<path d="M312.686 225.073H301.8C298.766 225.073 296.307 227.539 296.307 230.581C296.307 233.624 298.766 236.089 301.8 236.089H312.686C315.721 236.089 318.179 233.624 318.179 230.581C318.179 227.539 315.721 225.073 312.686 225.073Z" fill="url(#paint11_linear_1883:1142)"/>
<path d="M347.676 250.801H301.8C298.766 250.801 296.307 253.266 296.307 256.309C296.307 259.351 298.766 261.816 301.8 261.816H347.676C350.711 261.816 353.169 259.351 353.169 256.309C353.169 253.266 350.711 250.801 347.676 250.801Z" fill="url(#paint12_linear_1883:1142)"/>
<path d="M347.675 270.451H301.799C298.765 270.451 296.306 272.916 296.306 275.959C296.306 279.001 298.765 281.466 301.799 281.466H347.675C350.71 281.466 353.169 279.001 353.169 275.959C353.169 272.916 350.71 270.451 347.675 270.451Z" fill="url(#paint13_linear_1883:1142)"/>
<path d="M347.675 290.099H301.799C298.765 290.099 296.306 292.565 296.306 295.607C296.306 298.65 298.765 301.115 301.799 301.115H347.675C350.71 301.115 353.169 298.65 353.169 295.607C353.169 292.565 350.71 290.099 347.675 290.099Z" fill="url(#paint14_linear_1883:1142)"/>
<path d="M347.675 309.749H301.799C298.765 309.749 296.306 312.214 296.306 315.257C296.306 318.299 298.765 320.765 301.799 320.765H347.675C350.71 320.765 353.169 318.299 353.169 315.257C353.169 312.214 350.71 309.749 347.675 309.749Z" fill="url(#paint15_linear_1883:1142)"/>
<defs>
<linearGradient id="paint0_linear_1883:1142" x1="5.7451e-05" y1="365.661" x2="375" y2="365.661" gradientUnits="userSpaceOnUse">
<stop stop-color="#76C5FF"/>
<stop offset="1" stop-color="#1F83CB"/>
</linearGradient>
<linearGradient id="paint1_linear_1883:1142" x1="5.7451e-05" y1="365.661" x2="375" y2="365.661" gradientUnits="userSpaceOnUse">
<stop stop-color="#76C5FF"/>
<stop offset="1" stop-color="#1F83CB"/>
</linearGradient>
<linearGradient id="paint2_linear_1883:1142" x1="5.7451e-05" y1="365.661" x2="375" y2="365.661" gradientUnits="userSpaceOnUse">
<stop stop-color="#76C5FF"/>
<stop offset="1" stop-color="#1F83CB"/>
</linearGradient>
<linearGradient id="paint3_linear_1883:1142" x1="5.7451e-05" y1="365.661" x2="375" y2="365.661" gradientUnits="userSpaceOnUse">
<stop stop-color="#76C5FF"/>
<stop offset="1" stop-color="#1F83CB"/>
</linearGradient>
<linearGradient id="paint4_linear_1883:1142" x1="5.7451e-05" y1="365.661" x2="375" y2="365.661" gradientUnits="userSpaceOnUse">
<stop stop-color="#76C5FF"/>
<stop offset="1" stop-color="#1F83CB"/>
</linearGradient>
<linearGradient id="paint5_linear_1883:1142" x1="5.7451e-05" y1="365.661" x2="375" y2="365.661" gradientUnits="userSpaceOnUse">
<stop stop-color="#76C5FF"/>
<stop offset="1" stop-color="#1F83CB"/>
</linearGradient>
<linearGradient id="paint6_linear_1883:1142" x1="5.7451e-05" y1="365.661" x2="375" y2="365.661" gradientUnits="userSpaceOnUse">
<stop stop-color="#76C5FF"/>
<stop offset="1" stop-color="#1F83CB"/>
</linearGradient>
<linearGradient id="paint7_linear_1883:1142" x1="5.7451e-05" y1="365.661" x2="375" y2="365.661" gradientUnits="userSpaceOnUse">
<stop stop-color="#76C5FF"/>
<stop offset="1" stop-color="#1F83CB"/>
</linearGradient>
<linearGradient id="paint8_linear_1883:1142" x1="5.7451e-05" y1="365.661" x2="375" y2="365.661" gradientUnits="userSpaceOnUse">
<stop stop-color="#76C5FF"/>
<stop offset="1" stop-color="#1F83CB"/>
</linearGradient>
<linearGradient id="paint9_linear_1883:1142" x1="5.7451e-05" y1="365.661" x2="375" y2="365.661" gradientUnits="userSpaceOnUse">
<stop stop-color="#76C5FF"/>
<stop offset="1" stop-color="#1F83CB"/>
</linearGradient>
<linearGradient id="paint10_linear_1883:1142" x1="5.7451e-05" y1="365.661" x2="375" y2="365.661" gradientUnits="userSpaceOnUse">
<stop stop-color="#76C5FF"/>
<stop offset="1" stop-color="#1F83CB"/>
</linearGradient>
<linearGradient id="paint11_linear_1883:1142" x1="5.7451e-05" y1="365.661" x2="375" y2="365.661" gradientUnits="userSpaceOnUse">
<stop stop-color="#76C5FF"/>
<stop offset="1" stop-color="#1F83CB"/>
</linearGradient>
<linearGradient id="paint12_linear_1883:1142" x1="5.7451e-05" y1="365.661" x2="375" y2="365.661" gradientUnits="userSpaceOnUse">
<stop stop-color="#76C5FF"/>
<stop offset="1" stop-color="#1F83CB"/>
</linearGradient>
<linearGradient id="paint13_linear_1883:1142" x1="5.7451e-05" y1="365.661" x2="375" y2="365.661" gradientUnits="userSpaceOnUse">
<stop stop-color="#76C5FF"/>
<stop offset="1" stop-color="#1F83CB"/>
</linearGradient>
<linearGradient id="paint14_linear_1883:1142" x1="5.7451e-05" y1="365.661" x2="375" y2="365.661" gradientUnits="userSpaceOnUse">
<stop stop-color="#76C5FF"/>
<stop offset="1" stop-color="#1F83CB"/>
</linearGradient>
<linearGradient id="paint15_linear_1883:1142" x1="5.7451e-05" y1="365.661" x2="375" y2="365.661" gradientUnits="userSpaceOnUse">
<stop stop-color="#76C5FF"/>
<stop offset="1" stop-color="#1F83CB"/>
</linearGradient>
</defs>
</svg>
